<?xml version="1.0" encoding="utf-8" standalone="no"?>
<!DOCTYPE svg PUBLIC "-//W3C//DTD SVG 1.1//EN"
  "http://www.w3.org/Graphics/SVG/1.1/DTD/svg11.dtd">
<svg xmlns:xlink="http://www.w3.org/1999/xlink" width="360pt" height="360pt" viewBox="0 0 360 360" xmlns="http://www.w3.org/2000/svg" version="1.1">
 <metadata>
  <rdf:RDF xmlns:dc="http://purl.org/dc/elements/1.1/" xmlns:cc="http://creativecommons.org/ns#" xmlns:rdf="http://www.w3.org/1999/02/22-rdf-syntax-ns#">
   <cc:Work>
    <dc:type rdf:resource="http://purl.org/dc/dcmitype/StillImage"/>
    <dc:date>2025-08-25T01:00:53.730881</dc:date>
    <dc:format>image/svg+xml</dc:format>
    <dc:creator>
     <cc:Agent>
      <dc:title>Matplotlib v3.10.3, https://matplotlib.org/</dc:title>
     </cc:Agent>
    </dc:creator>
   </cc:Work>
  </rdf:RDF>
 </metadata>
 <defs>
  <style type="text/css">*{stroke-linejoin: round; stroke-linecap: butt}</style>
 </defs>
 <g id="figure_1">
  <g id="patch_1">
   <path d="M 0 360 
L 360 360 
L 360 0 
L 0 0 
L 0 360 
z
" style="fill: none"/>
  </g>
  <g id="axes_1">
   <g id="patch_2">
    <path d="M 43.16 319.48 
L 349.2 319.48 
L 349.2 10.8 
L 43.16 10.8 
L 43.16 319.48 
z
" style="fill: none"/>
   </g>
   <g id="patch_3">
    <path d="M 57.070909 319.48 
L 66.857041 319.48 
L 66.857041 309.342726 
L 57.070909 309.342726 
z
" clip-path="url(#p5ec9038e73)" style="fill: #65489d; opacity: 0.8"/>
   </g>
   <g id="patch_4">
    <path d="M 66.857041 319.48 
L 76.643173 319.48 
L 76.643173 319.48 
L 66.857041 319.48 
z
" clip-path="url(#p5ec9038e73)" style="fill: #65489d; opacity: 0.8"/>
   </g>
   <g id="patch_5">
    <path d="M 76.643173 319.48 
L 86.429305 319.48 
L 86.429305 319.48 
L 76.643173 319.48 
z
" clip-path="url(#p5ec9038e73)" style="fill: #65489d; opacity: 0.8"/>
   </g>
   <g id="patch_6">
    <path d="M 86.429305 319.48 
L 96.215436 319.48 
L 96.215436 238.381806 
L 86.429305 238.381806 
z
" clip-path="url(#p5ec9038e73)" style="fill: #65489d; opacity: 0.8"/>
   </g>
   <g id="patch_7">
    <path d="M 96.215436 319.48 
L 106.001568 319.48 
L 106.001568 228.244532 
L 96.215436 228.244532 
z
" clip-path="url(#p5ec9038e73)" style="fill: #65489d; opacity: 0.8"/>
   </g>
   <g id="patch_8">
    <path d="M 106.001568 319.48 
L 115.7877 319.48 
L 115.7877 218.107258 
L 106.001568 218.107258 
z
" clip-path="url(#p5ec9038e73)" style="fill: #65489d; opacity: 0.8"/>
   </g>
   <g id="patch_9">
    <path d="M 115.7877 319.48 
L 125.573832 319.48 
L 125.573832 167.420887 
L 115.7877 167.420887 
z
" clip-path="url(#p5ec9038e73)" style="fill: #65489d; opacity: 0.8"/>
   </g>
   <g id="patch_10">
    <path d="M 125.573832 319.48 
L 135.359964 319.48 
L 135.359964 157.283612 
L 125.573832 157.283612 
z
" clip-path="url(#p5ec9038e73)" style="fill: #65489d; opacity: 0.8"/>
   </g>
   <g id="patch_11">
    <path d="M 135.359964 319.48 
L 145.146096 319.48 
L 145.146096 55.91087 
L 135.359964 55.91087 
z
" clip-path="url(#p5ec9038e73)" style="fill: #65489d; opacity: 0.8"/>
   </g>
   <g id="patch_12">
    <path d="M 145.146096 319.48 
L 154.932227 319.48 
L 154.932227 126.87179 
L 145.146096 126.87179 
z
" clip-path="url(#p5ec9038e73)" style="fill: #65489d; opacity: 0.8"/>
   </g>
   <g id="patch_13">
    <path d="M 154.932227 319.48 
L 164.718359 319.48 
L 164.718359 116.734516 
L 154.932227 116.734516 
z
" clip-path="url(#p5ec9038e73)" style="fill: #65489d; opacity: 0.8"/>
   </g>
   <g id="patch_14">
    <path d="M 164.718359 319.48 
L 174.504491 319.48 
L 174.504491 66.048144 
L 164.718359 66.048144 
z
" clip-path="url(#p5ec9038e73)" style="fill: #65489d; opacity: 0.8"/>
   </g>
   <g id="patch_15">
    <path d="M 174.504491 319.48 
L 184.290623 319.48 
L 184.290623 126.87179 
L 174.504491 126.87179 
z
" clip-path="url(#p5ec9038e73)" style="fill: #65489d; opacity: 0.8"/>
   </g>
   <g id="patch_16">
    <path d="M 184.290623 319.48 
L 194.076755 319.48 
L 194.076755 147.146338 
L 184.290623 147.146338 
z
" clip-path="url(#p5ec9038e73)" style="fill: #65489d; opacity: 0.8"/>
   </g>
   <g id="patch_17">
    <path d="M 194.076755 319.48 
L 203.862887 319.48 
L 203.862887 258.656355 
L 194.076755 258.656355 
z
" clip-path="url(#p5ec9038e73)" style="fill: #65489d; opacity: 0.8"/>
   </g>
   <g id="patch_18">
    <path d="M 203.862887 319.48 
L 213.649018 319.48 
L 213.649018 299.205452 
L 203.862887 299.205452 
z
" clip-path="url(#p5ec9038e73)" style="fill: #65489d; opacity: 0.8"/>
   </g>
   <g id="patch_19">
    <path d="M 213.649018 319.48 
L 223.43515 319.48 
L 223.43515 299.205452 
L 213.649018 299.205452 
z
" clip-path="url(#p5ec9038e73)" style="fill: #65489d; opacity: 0.8"/>
   </g>
   <g id="patch_20">
    <path d="M 223.43515 319.48 
L 233.221282 319.48 
L 233.221282 289.068177 
L 223.43515 289.068177 
z
" clip-path="url(#p5ec9038e73)" style="fill: #65489d; opacity: 0.8"/>
   </g>
   <g id="patch_21">
    <path d="M 233.221282 319.48 
L 243.007414 319.48 
L 243.007414 319.48 
L 233.221282 319.48 
z
" clip-path="url(#p5ec9038e73)" style="fill: #65489d; opacity: 0.8"/>
   </g>
   <g id="patch_22">
    <path d="M 243.007414 319.48 
L 252.793546 319.48 
L 252.793546 299.205452 
L 243.007414 299.205452 
z
" clip-path="url(#p5ec9038e73)" style="fill: #65489d; opacity: 0.8"/>
   </g>
   <g id="patch_23">
    <path d="M 125.202203 319.48 
L 135.706547 319.48 
L 135.706547 289.068177 
L 125.202203 289.068177 
z
" clip-path="url(#p5ec9038e73)" style="fill: #388ecc; opacity: 0.8"/>
   </g>
   <g id="patch_24">
    <path d="M 135.706547 319.48 
L 146.210892 319.48 
L 146.210892 268.793629 
L 135.706547 268.793629 
z
" clip-path="url(#p5ec9038e73)" style="fill: #388ecc; opacity: 0.8"/>
   </g>
   <g id="patch_25">
    <path d="M 146.210892 319.48 
L 156.715236 319.48 
L 156.715236 299.205452 
L 146.210892 299.205452 
z
" clip-path="url(#p5ec9038e73)" style="fill: #388ecc; opacity: 0.8"/>
   </g>
   <g id="patch_26">
    <path d="M 156.715236 319.48 
L 167.219581 319.48 
L 167.219581 137.009064 
L 156.715236 137.009064 
z
" clip-path="url(#p5ec9038e73)" style="fill: #388ecc; opacity: 0.8"/>
   </g>
   <g id="patch_27">
    <path d="M 167.219581 319.48 
L 177.723925 319.48 
L 177.723925 177.558161 
L 167.219581 177.558161 
z
" clip-path="url(#p5ec9038e73)" style="fill: #388ecc; opacity: 0.8"/>
   </g>
   <g id="patch_28">
    <path d="M 177.723925 319.48 
L 188.228269 319.48 
L 188.228269 86.322693 
L 177.723925 86.322693 
z
" clip-path="url(#p5ec9038e73)" style="fill: #388ecc; opacity: 0.8"/>
   </g>
   <g id="patch_29">
    <path d="M 188.228269 319.48 
L 198.732614 319.48 
L 198.732614 167.420887 
L 188.228269 167.420887 
z
" clip-path="url(#p5ec9038e73)" style="fill: #388ecc; opacity: 0.8"/>
   </g>
   <g id="patch_30">
    <path d="M 198.732614 319.48 
L 209.236958 319.48 
L 209.236958 96.459967 
L 198.732614 96.459967 
z
" clip-path="url(#p5ec9038e73)" style="fill: #388ecc; opacity: 0.8"/>
   </g>
   <g id="patch_31">
    <path d="M 209.236958 319.48 
L 219.741303 319.48 
L 219.741303 25.499048 
L 209.236958 25.499048 
z
" clip-path="url(#p5ec9038e73)" style="fill: #388ecc; opacity: 0.8"/>
   </g>
   <g id="patch_32">
    <path d="M 219.741303 319.48 
L 230.245647 319.48 
L 230.245647 116.734516 
L 219.741303 116.734516 
z
" clip-path="url(#p5ec9038e73)" style="fill: #388ecc; opacity: 0.8"/>
   </g>
   <g id="patch_33">
    <path d="M 230.245647 319.48 
L 240.749991 319.48 
L 240.749991 167.420887 
L 230.245647 167.420887 
z
" clip-path="url(#p5ec9038e73)" style="fill: #388ecc; opacity: 0.8"/>
   </g>
   <g id="patch_34">
    <path d="M 240.749991 319.48 
L 251.254336 319.48 
L 251.254336 147.146338 
L 240.749991 147.146338 
z
" clip-path="url(#p5ec9038e73)" style="fill: #388ecc; opacity: 0.8"/>
   </g>
   <g id="patch_35">
    <path d="M 251.254336 319.48 
L 261.75868 319.48 
L 261.75868 218.107258 
L 251.254336 218.107258 
z
" clip-path="url(#p5ec9038e73)" style="fill: #388ecc; opacity: 0.8"/>
   </g>
   <g id="patch_36">
    <path d="M 261.75868 319.48 
L 272.263025 319.48 
L 272.263025 299.205452 
L 261.75868 299.205452 
z
" clip-path="url(#p5ec9038e73)" style="fill: #388ecc; opacity: 0.8"/>
   </g>
   <g id="patch_37">
    <path d="M 272.263025 319.48 
L 282.767369 319.48 
L 282.767369 319.48 
L 272.263025 319.48 
z
" clip-path="url(#p5ec9038e73)" style="fill: #388ecc; opacity: 0.8"/>
   </g>
   <g id="patch_38">
    <path d="M 282.767369 319.48 
L 293.271713 319.48 
L 293.271713 278.930903 
L 282.767369 278.930903 
z
" clip-path="url(#p5ec9038e73)" style="fill: #388ecc; opacity: 0.8"/>
   </g>
   <g id="patch_39">
    <path d="M 293.271713 319.48 
L 303.776058 319.48 
L 303.776058 319.48 
L 293.271713 319.48 
z
" clip-path="url(#p5ec9038e73)" style="fill: #388ecc; opacity: 0.8"/>
   </g>
   <g id="patch_40">
    <path d="M 303.776058 319.48 
L 314.280402 319.48 
L 314.280402 319.48 
L 303.776058 319.48 
z
" clip-path="url(#p5ec9038e73)" style="fill: #388ecc; opacity: 0.8"/>
   </g>
   <g id="patch_41">
    <path d="M 314.280402 319.48 
L 324.784747 319.48 
L 324.784747 319.48 
L 314.280402 319.48 
z
" clip-path="url(#p5ec9038e73)" style="fill: #388ecc; opacity: 0.8"/>
   </g>
   <g id="patch_42">
    <path d="M 324.784747 319.48 
L 335.289091 319.48 
L 335.289091 309.342726 
L 324.784747 309.342726 
z
" clip-path="url(#p5ec9038e73)" style="fill: #388ecc; opacity: 0.8"/>
   </g>
   <g id="matplotlib.axis_1">
    <g id="xtick_1">
     <g id="line2d_1">
      <defs>
       <path id="m8ede831f26" d="M 0 0 
L 0 3.5 
" style="stroke: #000000; stroke-width: 0.8"/>
      </defs>
      <g>
       <use xlink:href="#m8ede831f26" x="43.488632" y="319.48" style="stroke: #000000; stroke-width: 0.8"/>
      </g>
     </g>
     <g id="text_1">
      <!-- −4 -->
      <g transform="translate(37.488632 333.88) scale(0.1 -0.1)">
       <defs>
        <path id="IBMPlexSans-2212" d="M 429 1734 
L 429 2170 
L 3411 2170 
L 3411 1734 
L 429 1734 
z
" transform="scale(0.015625)"/>
        <path id="IBMPlexSans-34" d="M 2400 0 
L 2400 877 
L 243 877 
L 243 1350 
L 2112 4467 
L 2912 4467 
L 2912 1325 
L 3558 1325 
L 3558 877 
L 2912 877 
L 2912 0 
L 2400 0 
z
M 749 1325 
L 2400 1325 
L 2400 4051 
L 2368 4051 
L 749 1325 
z
" transform="scale(0.015625)"/>
       </defs>
       <use xlink:href="#IBMPlexSans-2212"/>
       <use xlink:href="#IBMPlexSans-34" transform="translate(59.999985 0)"/>
      </g>
     </g>
    </g>
    <g id="xtick_2">
     <g id="line2d_2">
      <g>
       <use xlink:href="#m8ede831f26" x="96.284532" y="319.48" style="stroke: #000000; stroke-width: 0.8"/>
      </g>
     </g>
     <g id="text_2">
      <!-- −2 -->
      <g transform="translate(90.284532 333.88) scale(0.1 -0.1)">
       <defs>
        <path id="IBMPlexSans-32" d="M 3411 0 
L 480 0 
L 480 550 
L 1939 1894 
Q 2253 2182 2464 2505 
Q 2675 2829 2675 3155 
L 2675 3232 
Q 2675 3603 2470 3833 
Q 2266 4064 1850 4064 
Q 1645 4064 1491 4006 
Q 1338 3949 1226 3846 
Q 1114 3744 1040 3606 
Q 966 3469 922 3309 
L 442 3494 
Q 506 3693 618 3881 
Q 730 4070 899 4217 
Q 1069 4365 1309 4454 
Q 1549 4544 1875 4544 
Q 2202 4544 2458 4448 
Q 2714 4352 2886 4179 
Q 3059 4006 3152 3769 
Q 3245 3533 3245 3245 
Q 3245 2982 3171 2758 
Q 3098 2534 2970 2332 
Q 2842 2131 2659 1939 
Q 2477 1747 2266 1555 
L 1062 474 
L 3411 474 
L 3411 0 
z
" transform="scale(0.015625)"/>
       </defs>
       <use xlink:href="#IBMPlexSans-2212"/>
       <use xlink:href="#IBMPlexSans-32" transform="translate(59.999985 0)"/>
      </g>
     </g>
    </g>
    <g id="xtick_3">
     <g id="line2d_3">
      <g>
       <use xlink:href="#m8ede831f26" x="149.080432" y="319.48" style="stroke: #000000; stroke-width: 0.8"/>
      </g>
     </g>
     <g id="text_3">
      <!-- 0 -->
      <g transform="translate(146.080432 333.88) scale(0.1 -0.1)">
       <defs>
        <path id="IBMPlexSans-30" d="M 1920 -77 
Q 1120 -77 752 531 
Q 384 1139 384 2234 
Q 384 3328 752 3936 
Q 1120 4544 1920 4544 
Q 2720 4544 3088 3936 
Q 3456 3328 3456 2234 
Q 3456 1139 3088 531 
Q 2720 -77 1920 -77 
z
M 1920 390 
Q 2182 390 2368 499 
Q 2554 608 2669 806 
Q 2784 1005 2838 1273 
Q 2893 1542 2893 1869 
L 2893 2598 
Q 2893 2925 2838 3193 
Q 2784 3462 2669 3660 
Q 2554 3859 2368 3968 
Q 2182 4077 1920 4077 
Q 1658 4077 1472 3968 
Q 1286 3859 1171 3660 
Q 1056 3462 1001 3193 
Q 947 2925 947 2598 
L 947 1869 
Q 947 1542 1001 1273 
Q 1056 1005 1171 806 
Q 1286 608 1472 499 
Q 1658 390 1920 390 
z
" transform="scale(0.015625)"/>
       </defs>
       <use xlink:href="#IBMPlexSans-30"/>
      </g>
     </g>
    </g>
    <g id="xtick_4">
     <g id="line2d_4">
      <g>
       <use xlink:href="#m8ede831f26" x="201.876332" y="319.48" style="stroke: #000000; stroke-width: 0.8"/>
      </g>
     </g>
     <g id="text_4">
      <!-- 2 -->
      <g transform="translate(198.876332 333.88) scale(0.1 -0.1)">
       <use xlink:href="#IBMPlexSans-32"/>
      </g>
     </g>
    </g>
    <g id="xtick_5">
     <g id="line2d_5">
      <g>
       <use xlink:href="#m8ede831f26" x="254.672232" y="319.48" style="stroke: #000000; stroke-width: 0.8"/>
      </g>
     </g>
     <g id="text_5">
      <!-- 4 -->
      <g transform="translate(251.672232 333.88) scale(0.1 -0.1)">
       <use xlink:href="#IBMPlexSans-34"/>
      </g>
     </g>
    </g>
    <g id="xtick_6">
     <g id="line2d_6">
      <g>
       <use xlink:href="#m8ede831f26" x="307.468132" y="319.48" style="stroke: #000000; stroke-width: 0.8"/>
      </g>
     </g>
     <g id="text_6">
      <!-- 6 -->
      <g transform="translate(304.468132 333.88) scale(0.1 -0.1)">
       <defs>
        <path id="IBMPlexSans-36" d="M 1926 -77 
Q 1581 -77 1302 41 
Q 1024 160 829 381 
Q 634 602 531 922 
Q 429 1242 429 1638 
Q 429 2138 576 2576 
Q 723 3014 956 3376 
Q 1190 3738 1472 4016 
Q 1754 4294 2022 4467 
L 2714 4467 
Q 2355 4205 2073 3955 
Q 1792 3706 1581 3434 
Q 1370 3162 1222 2851 
Q 1075 2541 986 2150 
L 1018 2138 
Q 1178 2413 1430 2595 
Q 1683 2778 2093 2778 
Q 2381 2778 2624 2682 
Q 2867 2586 3040 2406 
Q 3213 2227 3312 1971 
Q 3411 1715 3411 1402 
Q 3411 1075 3305 803 
Q 3200 531 3005 336 
Q 2810 141 2534 32 
Q 2259 -77 1926 -77 
z
M 1920 390 
Q 2362 390 2608 633 
Q 2854 877 2854 1331 
L 2854 1382 
Q 2854 1837 2608 2080 
Q 2362 2323 1920 2323 
Q 1478 2323 1232 2080 
Q 986 1837 986 1382 
L 986 1331 
Q 986 877 1232 633 
Q 1478 390 1920 390 
z
" transform="scale(0.015625)"/>
       </defs>
       <use xlink:href="#IBMPlexSans-36"/>
      </g>
     </g>
    </g>
    <g id="xtick_7">
     <g id="line2d_7">
      <defs>
       <path id="m77371e4318" d="M 0 0 
L 0 2 
" style="stroke: #000000; stroke-width: 0.6"/>
      </defs>
      <g>
       <use xlink:href="#m77371e4318" x="56.687607" y="319.48" style="stroke: #000000; stroke-width: 0.6"/>
      </g>
     </g>
    </g>
    <g id="xtick_8">
     <g id="line2d_8">
      <g>
       <use xlink:href="#m77371e4318" x="69.886582" y="319.48" style="stroke: #000000; stroke-width: 0.6"/>
      </g>
     </g>
    </g>
    <g id="xtick_9">
     <g id="line2d_9">
      <g>
       <use xlink:href="#m77371e4318" x="83.085557" y="319.48" style="stroke: #000000; stroke-width: 0.6"/>
      </g>
     </g>
    </g>
    <g id="xtick_10">
     <g id="line2d_10">
      <g>
       <use xlink:href="#m77371e4318" x="109.483507" y="319.48" style="stroke: #000000; stroke-width: 0.6"/>
      </g>
     </g>
    </g>
    <g id="xtick_11">
     <g id="line2d_11">
      <g>
       <use xlink:href="#m77371e4318" x="122.682482" y="319.48" style="stroke: #000000; stroke-width: 0.6"/>
      </g>
     </g>
    </g>
    <g id="xtick_12">
     <g id="line2d_12">
      <g>
       <use xlink:href="#m77371e4318" x="135.881457" y="319.48" style="stroke: #000000; stroke-width: 0.6"/>
      </g>
     </g>
    </g>
    <g id="xtick_13">
     <g id="line2d_13">
      <g>
       <use xlink:href="#m77371e4318" x="162.279407" y="319.48" style="stroke: #000000; stroke-width: 0.6"/>
      </g>
     </g>
    </g>
    <g id="xtick_14">
     <g id="line2d_14">
      <g>
       <use xlink:href="#m77371e4318" x="175.478382" y="319.48" style="stroke: #000000; stroke-width: 0.6"/>
      </g>
     </g>
    </g>
    <g id="xtick_15">
     <g id="line2d_15">
      <g>
       <use xlink:href="#m77371e4318" x="188.677357" y="319.48" style="stroke: #000000; stroke-width: 0.6"/>
      </g>
     </g>
    </g>
    <g id="xtick_16">
     <g id="line2d_16">
      <g>
       <use xlink:href="#m77371e4318" x="215.075307" y="319.48" style="stroke: #000000; stroke-width: 0.6"/>
      </g>
     </g>
    </g>
    <g id="xtick_17">
     <g id="line2d_17">
      <g>
       <use xlink:href="#m77371e4318" x="228.274282" y="319.48" style="stroke: #000000; stroke-width: 0.6"/>
      </g>
     </g>
    </g>
    <g id="xtick_18">
     <g id="line2d_18">
      <g>
       <use xlink:href="#m77371e4318" x="241.473257" y="319.48" style="stroke: #000000; stroke-width: 0.6"/>
      </g>
     </g>
    </g>
    <g id="xtick_19">
     <g id="line2d_19">
      <g>
       <use xlink:href="#m77371e4318" x="267.871207" y="319.48" style="stroke: #000000; stroke-width: 0.6"/>
      </g>
     </g>
    </g>
    <g id="xtick_20">
     <g id="line2d_20">
      <g>
       <use xlink:href="#m77371e4318" x="281.070182" y="319.48" style="stroke: #000000; stroke-width: 0.6"/>
      </g>
     </g>
    </g>
    <g id="xtick_21">
     <g id="line2d_21">
      <g>
       <use xlink:href="#m77371e4318" x="294.269157" y="319.48" style="stroke: #000000; stroke-width: 0.6"/>
      </g>
     </g>
    </g>
    <g id="xtick_22">
     <g id="line2d_22">
      <g>
       <use xlink:href="#m77371e4318" x="320.667107" y="319.48" style="stroke: #000000; stroke-width: 0.6"/>
      </g>
     </g>
    </g>
    <g id="xtick_23">
     <g id="line2d_23">
      <g>
       <use xlink:href="#m77371e4318" x="333.866082" y="319.48" style="stroke: #000000; stroke-width: 0.6"/>
      </g>
     </g>
    </g>
    <g id="xtick_24">
     <g id="line2d_24">
      <g>
       <use xlink:href="#m77371e4318" x="347.065057" y="319.48" style="stroke: #000000; stroke-width: 0.6"/>
      </g>
     </g>
    </g>
    <g id="text_7">
     <!-- Projected value on w -->
     <g transform="translate(149.510469 347.28) scale(0.1 -0.1)">
      <defs>
       <path id="IBMPlexSans-50" d="M 595 0 
L 595 4467 
L 2374 4467 
Q 2976 4467 3299 4124 
Q 3622 3782 3622 3187 
Q 3622 2592 3299 2249 
Q 2976 1907 2374 1907 
L 1133 1907 
L 1133 0 
L 595 0 
z
M 1133 2381 
L 2374 2381 
Q 2694 2381 2870 2547 
Q 3046 2714 3046 3021 
L 3046 3354 
Q 3046 3661 2870 3827 
Q 2694 3994 2374 3994 
L 1133 3994 
L 1133 2381 
z
" transform="scale(0.015625)"/>
       <path id="IBMPlexSans-72" d="M 544 0 
L 544 3302 
L 1056 3302 
L 1056 2694 
L 1088 2694 
Q 1178 2931 1408 3116 
Q 1638 3302 2042 3302 
L 2240 3302 
L 2240 2790 
L 1939 2790 
Q 1523 2790 1289 2633 
Q 1056 2477 1056 2240 
L 1056 0 
L 544 0 
z
" transform="scale(0.015625)"/>
       <path id="IBMPlexSans-6f" d="M 1792 -77 
Q 1459 -77 1184 44 
Q 909 166 713 393 
Q 518 621 409 937 
Q 301 1254 301 1651 
Q 301 2042 409 2362 
Q 518 2682 713 2909 
Q 909 3136 1184 3257 
Q 1459 3379 1792 3379 
Q 2125 3379 2397 3257 
Q 2669 3136 2867 2909 
Q 3066 2682 3174 2362 
Q 3283 2042 3283 1651 
Q 3283 1254 3174 937 
Q 3066 621 2867 393 
Q 2669 166 2397 44 
Q 2125 -77 1792 -77 
z
M 1792 378 
Q 2208 378 2470 634 
Q 2733 890 2733 1414 
L 2733 1888 
Q 2733 2413 2470 2669 
Q 2208 2925 1792 2925 
Q 1376 2925 1113 2669 
Q 851 2413 851 1888 
L 851 1414 
Q 851 890 1113 634 
Q 1376 378 1792 378 
z
" transform="scale(0.015625)"/>
       <path id="IBMPlexSans-6a" d="M 544 3302 
L 1056 3302 
L 1056 -512 
Q 1056 -858 883 -1069 
Q 710 -1280 339 -1280 
L 6 -1280 
L 6 -832 
L 544 -832 
L 544 3302 
z
M 800 4077 
Q 634 4077 560 4157 
Q 486 4237 486 4365 
L 486 4448 
Q 486 4576 560 4656 
Q 634 4736 800 4736 
Q 966 4736 1040 4656 
Q 1114 4576 1114 4448 
L 1114 4365 
Q 1114 4237 1040 4157 
Q 966 4077 800 4077 
z
" transform="scale(0.015625)"/>
       <path id="IBMPlexSans-65" d="M 1786 -77 
Q 1446 -77 1174 44 
Q 902 166 707 393 
Q 512 621 406 937 
Q 301 1254 301 1651 
Q 301 2042 406 2362 
Q 512 2682 707 2909 
Q 902 3136 1174 3257 
Q 1446 3379 1786 3379 
Q 2118 3379 2380 3257 
Q 2643 3136 2828 2921 
Q 3014 2707 3113 2412 
Q 3213 2118 3213 1766 
L 3213 1523 
L 838 1523 
L 838 1370 
Q 838 1158 905 976 
Q 973 794 1097 659 
Q 1222 525 1404 448 
Q 1587 371 1818 371 
Q 2131 371 2364 518 
Q 2598 666 2726 941 
L 3091 678 
Q 2931 339 2592 131 
Q 2253 -77 1786 -77 
z
M 1786 2950 
Q 1574 2950 1401 2876 
Q 1229 2803 1104 2668 
Q 979 2534 908 2352 
Q 838 2170 838 1952 
L 838 1907 
L 2662 1907 
L 2662 1978 
Q 2662 2419 2422 2684 
Q 2182 2950 1786 2950 
z
" transform="scale(0.015625)"/>
       <path id="IBMPlexSans-63" d="M 1773 -77 
Q 1427 -77 1152 44 
Q 877 166 688 390 
Q 499 614 400 934 
Q 301 1254 301 1651 
Q 301 2048 400 2368 
Q 499 2688 688 2912 
Q 877 3136 1152 3257 
Q 1427 3379 1773 3379 
Q 2266 3379 2563 3164 
Q 2861 2950 3008 2605 
L 2579 2387 
Q 2490 2643 2285 2784 
Q 2080 2925 1773 2925 
Q 1542 2925 1369 2851 
Q 1197 2778 1081 2646 
Q 966 2515 908 2332 
Q 851 2150 851 1933 
L 851 1370 
Q 851 934 1084 656 
Q 1318 378 1773 378 
Q 2394 378 2669 954 
L 3040 704 
Q 2880 346 2563 134 
Q 2246 -77 1773 -77 
z
" transform="scale(0.015625)"/>
       <path id="IBMPlexSans-74" d="M 1274 0 
Q 1005 0 867 150 
Q 730 301 730 544 
L 730 2854 
L 186 2854 
L 186 3302 
L 493 3302 
Q 659 3302 720 3369 
Q 781 3437 781 3603 
L 781 4218 
L 1242 4218 
L 1242 3302 
L 1965 3302 
L 1965 2854 
L 1242 2854 
L 1242 448 
L 1914 448 
L 1914 0 
L 1274 0 
z
" transform="scale(0.015625)"/>
       <path id="IBMPlexSans-64" d="M 2656 538 
L 2630 538 
Q 2330 -77 1664 -77 
Q 1357 -77 1107 44 
Q 858 166 682 390 
Q 506 614 413 934 
Q 320 1254 320 1651 
Q 320 2048 413 2368 
Q 506 2688 682 2912 
Q 858 3136 1107 3257 
Q 1357 3379 1664 3379 
Q 2010 3379 2256 3228 
Q 2502 3078 2630 2765 
L 2656 2765 
L 2656 4736 
L 3168 4736 
L 3168 0 
L 2656 0 
L 2656 538 
z
M 1805 384 
Q 1978 384 2134 429 
Q 2291 474 2406 560 
Q 2522 646 2589 771 
Q 2656 896 2656 1056 
L 2656 2285 
Q 2656 2419 2589 2537 
Q 2522 2656 2406 2739 
Q 2291 2822 2134 2870 
Q 1978 2918 1805 2918 
Q 1370 2918 1120 2646 
Q 870 2374 870 1933 
L 870 1370 
Q 870 928 1120 656 
Q 1370 384 1805 384 
z
" transform="scale(0.015625)"/>
       <path id="IBMPlexSans-20" transform="scale(0.015625)"/>
       <path id="IBMPlexSans-76" d="M 1274 0 
L 115 3302 
L 627 3302 
L 1203 1664 
L 1562 538 
L 1594 538 
L 1952 1664 
L 2541 3302 
L 3034 3302 
L 1869 0 
L 1274 0 
z
" transform="scale(0.015625)"/>
       <path id="IBMPlexSans-61" d="M 2944 0 
Q 2656 0 2531 153 
Q 2406 307 2374 538 
L 2342 538 
Q 2234 230 1984 76 
Q 1734 -77 1389 -77 
Q 864 -77 573 192 
Q 282 461 282 922 
Q 282 1389 624 1638 
Q 966 1888 1690 1888 
L 2342 1888 
L 2342 2214 
Q 2342 2566 2150 2752 
Q 1958 2938 1562 2938 
Q 1261 2938 1059 2803 
Q 858 2669 723 2445 
L 416 2733 
Q 550 3002 844 3190 
Q 1139 3379 1587 3379 
Q 2189 3379 2521 3084 
Q 2854 2790 2854 2266 
L 2854 448 
L 3232 448 
L 3232 0 
L 2944 0 
z
M 1472 358 
Q 1664 358 1824 403 
Q 1984 448 2099 531 
Q 2214 614 2278 723 
Q 2342 832 2342 960 
L 2342 1504 
L 1664 1504 
Q 1222 1504 1020 1376 
Q 819 1248 819 1005 
L 819 870 
Q 819 627 995 492 
Q 1171 358 1472 358 
z
" transform="scale(0.015625)"/>
       <path id="IBMPlexSans-6c" d="M 1088 0 
Q 819 0 681 150 
Q 544 301 544 531 
L 544 4736 
L 1056 4736 
L 1056 448 
L 1542 448 
L 1542 0 
L 1088 0 
z
" transform="scale(0.015625)"/>
       <path id="IBMPlexSans-75" d="M 2579 538 
L 2554 538 
Q 2502 422 2428 310 
Q 2355 198 2246 112 
Q 2138 26 1984 -25 
Q 1830 -77 1626 -77 
Q 1114 -77 813 252 
Q 512 582 512 1184 
L 512 3302 
L 1024 3302 
L 1024 1274 
Q 1024 384 1779 384 
Q 1933 384 2077 422 
Q 2221 461 2333 537 
Q 2445 614 2512 732 
Q 2579 851 2579 1018 
L 2579 3302 
L 3091 3302 
L 3091 0 
L 2579 0 
L 2579 538 
z
" transform="scale(0.015625)"/>
       <path id="IBMPlexSans-6e" d="M 544 0 
L 544 3302 
L 1056 3302 
L 1056 2765 
L 1082 2765 
Q 1203 3046 1424 3212 
Q 1645 3379 2016 3379 
Q 2528 3379 2825 3049 
Q 3123 2720 3123 2118 
L 3123 0 
L 2611 0 
L 2611 2029 
Q 2611 2918 1862 2918 
Q 1709 2918 1565 2880 
Q 1421 2842 1305 2765 
Q 1190 2688 1123 2569 
Q 1056 2451 1056 2291 
L 1056 0 
L 544 0 
z
" transform="scale(0.015625)"/>
       <path id="IBMPlexSans-77" d="M 198 3302 
L 698 3302 
L 1050 1875 
L 1402 429 
L 1414 429 
L 1818 1875 
L 2234 3302 
L 2688 3302 
L 3117 1875 
L 3526 429 
L 3539 429 
L 3878 1875 
L 4237 3302 
L 4717 3302 
L 3840 0 
L 3206 0 
L 2746 1587 
L 2458 2592 
L 2445 2592 
L 2163 1587 
L 1702 0 
L 1082 0 
L 198 3302 
z
" transform="scale(0.015625)"/>
      </defs>
      <use xlink:href="#IBMPlexSans-50"/>
      <use xlink:href="#IBMPlexSans-72" transform="translate(60.599991 0)"/>
      <use xlink:href="#IBMPlexSans-6f" transform="translate(97.299988 0)"/>
      <use xlink:href="#IBMPlexSans-6a" transform="translate(153.299973 0)"/>
      <use xlink:href="#IBMPlexSans-65" transform="translate(178.299957 0)"/>
      <use xlink:href="#IBMPlexSans-63" transform="translate(233.199951 0)"/>
      <use xlink:href="#IBMPlexSans-74" transform="translate(283.499939 0)"/>
      <use xlink:href="#IBMPlexSans-65" transform="translate(318.59993 0)"/>
      <use xlink:href="#IBMPlexSans-64" transform="translate(373.499924 0)"/>
      <use xlink:href="#IBMPlexSans-20" transform="translate(431.499908 0)"/>
      <use xlink:href="#IBMPlexSans-76" transform="translate(455.099899 0)"/>
      <use xlink:href="#IBMPlexSans-61" transform="translate(504.299896 0)"/>
      <use xlink:href="#IBMPlexSans-6c" transform="translate(557.69989 0)"/>
      <use xlink:href="#IBMPlexSans-75" transform="translate(584.899887 0)"/>
      <use xlink:href="#IBMPlexSans-65" transform="translate(641.699875 0)"/>
      <use xlink:href="#IBMPlexSans-20" transform="translate(696.599869 0)"/>
      <use xlink:href="#IBMPlexSans-6f" transform="translate(720.19986 0)"/>
      <use xlink:href="#IBMPlexSans-6e" transform="translate(776.199844 0)"/>
      <use xlink:href="#IBMPlexSans-20" transform="translate(832.999832 0)"/>
      <use xlink:href="#IBMPlexSans-77" transform="translate(856.599823 0)"/>
     </g>
    </g>
   </g>
   <g id="matplotlib.axis_2">
    <g id="ytick_1">
     <g id="line2d_25">
      <defs>
       <path id="mef01054242" d="M 0 0 
L -3.5 0 
" style="stroke: #000000; stroke-width: 0.8"/>
      </defs>
      <g>
       <use xlink:href="#mef01054242" x="43.16" y="319.48" style="stroke: #000000; stroke-width: 0.8"/>
      </g>
     </g>
     <g id="text_8">
      <!-- 0 -->
      <g transform="translate(30.16 323.18) scale(0.1 -0.1)">
       <use xlink:href="#IBMPlexSans-30"/>
      </g>
     </g>
    </g>
    <g id="ytick_2">
     <g id="line2d_26">
      <g>
       <use xlink:href="#mef01054242" x="43.16" y="268.793629" style="stroke: #000000; stroke-width: 0.8"/>
      </g>
     </g>
     <g id="text_9">
      <!-- 5 -->
      <g transform="translate(30.16 272.493629) scale(0.1 -0.1)">
       <defs>
        <path id="IBMPlexSans-35" d="M 3187 3994 
L 1229 3994 
L 1101 2291 
L 1146 2291 
Q 1306 2515 1507 2649 
Q 1709 2784 2061 2784 
Q 2349 2784 2592 2688 
Q 2835 2592 3014 2416 
Q 3194 2240 3293 1984 
Q 3392 1728 3392 1402 
Q 3392 1075 3289 803 
Q 3187 531 2992 336 
Q 2797 141 2518 32 
Q 2240 -77 1888 -77 
Q 1606 -77 1392 -13 
Q 1178 51 1011 160 
Q 845 269 720 403 
Q 595 538 493 685 
L 896 992 
Q 979 858 1072 749 
Q 1165 640 1277 563 
Q 1389 486 1536 444 
Q 1683 403 1888 403 
Q 2349 403 2585 646 
Q 2822 890 2822 1331 
L 2822 1395 
Q 2822 1837 2585 2080 
Q 2349 2323 1888 2323 
Q 1581 2323 1405 2211 
Q 1229 2099 1088 1946 
L 634 2010 
L 794 4467 
L 3187 4467 
L 3187 3994 
z
" transform="scale(0.015625)"/>
       </defs>
       <use xlink:href="#IBMPlexSans-35"/>
      </g>
     </g>
    </g>
    <g id="ytick_3">
     <g id="line2d_27">
      <g>
       <use xlink:href="#mef01054242" x="43.16" y="218.107258" style="stroke: #000000; stroke-width: 0.8"/>
      </g>
     </g>
     <g id="text_10">
      <!-- 10 -->
      <g transform="translate(24.16 221.807258) scale(0.1 -0.1)">
       <defs>
        <path id="IBMPlexSans-31" d="M 563 0 
L 563 474 
L 1811 474 
L 1811 4070 
L 1766 4070 
L 640 3021 
L 326 3360 
L 1510 4467 
L 2349 4467 
L 2349 474 
L 3501 474 
L 3501 0 
L 563 0 
z
" transform="scale(0.015625)"/>
       </defs>
       <use xlink:href="#IBMPlexSans-31"/>
       <use xlink:href="#IBMPlexSans-30" transform="translate(59.999985 0)"/>
      </g>
     </g>
    </g>
    <g id="ytick_4">
     <g id="line2d_28">
      <g>
       <use xlink:href="#mef01054242" x="43.16" y="167.420887" style="stroke: #000000; stroke-width: 0.8"/>
      </g>
     </g>
     <g id="text_11">
      <!-- 15 -->
      <g transform="translate(24.16 171.120887) scale(0.1 -0.1)">
       <use xlink:href="#IBMPlexSans-31"/>
       <use xlink:href="#IBMPlexSans-35" transform="translate(59.999985 0)"/>
      </g>
     </g>
    </g>
    <g id="ytick_5">
     <g id="line2d_29">
      <g>
       <use xlink:href="#mef01054242" x="43.16" y="116.734516" style="stroke: #000000; stroke-width: 0.8"/>
      </g>
     </g>
     <g id="text_12">
      <!-- 20 -->
      <g transform="translate(24.16 120.434516) scale(0.1 -0.1)">
       <use xlink:href="#IBMPlexSans-32"/>
       <use xlink:href="#IBMPlexSans-30" transform="translate(59.999985 0)"/>
      </g>
     </g>
    </g>
    <g id="ytick_6">
     <g id="line2d_30">
      <g>
       <use xlink:href="#mef01054242" x="43.16" y="66.048144" style="stroke: #000000; stroke-width: 0.8"/>
      </g>
     </g>
     <g id="text_13">
      <!-- 25 -->
      <g transform="translate(24.16 69.748144) scale(0.1 -0.1)">
       <use xlink:href="#IBMPlexSans-32"/>
       <use xlink:href="#IBMPlexSans-35" transform="translate(59.999985 0)"/>
      </g>
     </g>
    </g>
    <g id="ytick_7">
     <g id="line2d_31">
      <g>
       <use xlink:href="#mef01054242" x="43.16" y="15.361773" style="stroke: #000000; stroke-width: 0.8"/>
      </g>
     </g>
     <g id="text_14">
      <!-- 30 -->
      <g transform="translate(24.16 19.061773) scale(0.1 -0.1)">
       <defs>
        <path id="IBMPlexSans-33" d="M 1670 2573 
Q 2125 2573 2352 2781 
Q 2579 2989 2579 3315 
L 2579 3360 
Q 2579 3712 2358 3888 
Q 2138 4064 1779 4064 
Q 1434 4064 1216 3913 
Q 998 3763 858 3507 
L 461 3814 
Q 544 3949 662 4080 
Q 781 4211 941 4313 
Q 1101 4416 1312 4480 
Q 1523 4544 1792 4544 
Q 2074 4544 2323 4470 
Q 2573 4397 2755 4253 
Q 2938 4109 3043 3897 
Q 3149 3686 3149 3418 
Q 3149 3200 3081 3027 
Q 3014 2854 2899 2726 
Q 2784 2598 2627 2508 
Q 2470 2419 2291 2374 
L 2291 2349 
Q 2470 2310 2640 2224 
Q 2810 2138 2941 2000 
Q 3072 1862 3152 1667 
Q 3232 1472 3232 1222 
Q 3232 934 3123 694 
Q 3014 454 2816 284 
Q 2618 115 2336 19 
Q 2054 -77 1715 -77 
Q 1427 -77 1203 -13 
Q 979 51 806 160 
Q 634 269 502 403 
Q 371 538 269 685 
L 672 992 
Q 755 858 854 749 
Q 954 640 1075 563 
Q 1197 486 1350 444 
Q 1504 403 1709 403 
Q 2182 403 2425 617 
Q 2669 832 2669 1229 
L 2669 1280 
Q 2669 1677 2425 1891 
Q 2182 2106 1709 2106 
L 1184 2106 
L 1184 2573 
L 1670 2573 
z
" transform="scale(0.015625)"/>
       </defs>
       <use xlink:href="#IBMPlexSans-33"/>
       <use xlink:href="#IBMPlexSans-30" transform="translate(59.999985 0)"/>
      </g>
     </g>
    </g>
    <g id="ytick_8">
     <g id="line2d_32">
      <defs>
       <path id="m80c02d5893" d="M 0 0 
L -2 0 
" style="stroke: #000000; stroke-width: 0.6"/>
      </defs>
      <g>
       <use xlink:href="#m80c02d5893" x="43.16" y="309.342726" style="stroke: #000000; stroke-width: 0.6"/>
      </g>
     </g>
    </g>
    <g id="ytick_9">
     <g id="line2d_33">
      <g>
       <use xlink:href="#m80c02d5893" x="43.16" y="299.205452" style="stroke: #000000; stroke-width: 0.6"/>
      </g>
     </g>
    </g>
    <g id="ytick_10">
     <g id="line2d_34">
      <g>
       <use xlink:href="#m80c02d5893" x="43.16" y="289.068177" style="stroke: #000000; stroke-width: 0.6"/>
      </g>
     </g>
    </g>
    <g id="ytick_11">
     <g id="line2d_35">
      <g>
       <use xlink:href="#m80c02d5893" x="43.16" y="278.930903" style="stroke: #000000; stroke-width: 0.6"/>
      </g>
     </g>
    </g>
    <g id="ytick_12">
     <g id="line2d_36">
      <g>
       <use xlink:href="#m80c02d5893" x="43.16" y="258.656355" style="stroke: #000000; stroke-width: 0.6"/>
      </g>
     </g>
    </g>
    <g id="ytick_13">
     <g id="line2d_37">
      <g>
       <use xlink:href="#m80c02d5893" x="43.16" y="248.51908" style="stroke: #000000; stroke-width: 0.6"/>
      </g>
     </g>
    </g>
    <g id="ytick_14">
     <g id="line2d_38">
      <g>
       <use xlink:href="#m80c02d5893" x="43.16" y="238.381806" style="stroke: #000000; stroke-width: 0.6"/>
      </g>
     </g>
    </g>
    <g id="ytick_15">
     <g id="line2d_39">
      <g>
       <use xlink:href="#m80c02d5893" x="43.16" y="228.244532" style="stroke: #000000; stroke-width: 0.6"/>
      </g>
     </g>
    </g>
    <g id="ytick_16">
     <g id="line2d_40">
      <g>
       <use xlink:href="#m80c02d5893" x="43.16" y="207.969984" style="stroke: #000000; stroke-width: 0.6"/>
      </g>
     </g>
    </g>
    <g id="ytick_17">
     <g id="line2d_41">
      <g>
       <use xlink:href="#m80c02d5893" x="43.16" y="197.832709" style="stroke: #000000; stroke-width: 0.6"/>
      </g>
     </g>
    </g>
    <g id="ytick_18">
     <g id="line2d_42">
      <g>
       <use xlink:href="#m80c02d5893" x="43.16" y="187.695435" style="stroke: #000000; stroke-width: 0.6"/>
      </g>
     </g>
    </g>
    <g id="ytick_19">
     <g id="line2d_43">
      <g>
       <use xlink:href="#m80c02d5893" x="43.16" y="177.558161" style="stroke: #000000; stroke-width: 0.6"/>
      </g>
     </g>
    </g>
    <g id="ytick_20">
     <g id="line2d_44">
      <g>
       <use xlink:href="#m80c02d5893" x="43.16" y="157.283612" style="stroke: #000000; stroke-width: 0.6"/>
      </g>
     </g>
    </g>
    <g id="ytick_21">
     <g id="line2d_45">
      <g>
       <use xlink:href="#m80c02d5893" x="43.16" y="147.146338" style="stroke: #000000; stroke-width: 0.6"/>
      </g>
     </g>
    </g>
    <g id="ytick_22">
     <g id="line2d_46">
      <g>
       <use xlink:href="#m80c02d5893" x="43.16" y="137.009064" style="stroke: #000000; stroke-width: 0.6"/>
      </g>
     </g>
    </g>
    <g id="ytick_23">
     <g id="line2d_47">
      <g>
       <use xlink:href="#m80c02d5893" x="43.16" y="126.87179" style="stroke: #000000; stroke-width: 0.6"/>
      </g>
     </g>
    </g>
    <g id="ytick_24">
     <g id="line2d_48">
      <g>
       <use xlink:href="#m80c02d5893" x="43.16" y="106.597241" style="stroke: #000000; stroke-width: 0.6"/>
      </g>
     </g>
    </g>
    <g id="ytick_25">
     <g id="line2d_49">
      <g>
       <use xlink:href="#m80c02d5893" x="43.16" y="96.459967" style="stroke: #000000; stroke-width: 0.6"/>
      </g>
     </g>
    </g>
    <g id="ytick_26">
     <g id="line2d_50">
      <g>
       <use xlink:href="#m80c02d5893" x="43.16" y="86.322693" style="stroke: #000000; stroke-width: 0.6"/>
      </g>
     </g>
    </g>
    <g id="ytick_27">
     <g id="line2d_51">
      <g>
       <use xlink:href="#m80c02d5893" x="43.16" y="76.185419" style="stroke: #000000; stroke-width: 0.6"/>
      </g>
     </g>
    </g>
    <g id="ytick_28">
     <g id="line2d_52">
      <g>
       <use xlink:href="#m80c02d5893" x="43.16" y="55.91087" style="stroke: #000000; stroke-width: 0.6"/>
      </g>
     </g>
    </g>
    <g id="ytick_29">
     <g id="line2d_53">
      <g>
       <use xlink:href="#m80c02d5893" x="43.16" y="45.773596" style="stroke: #000000; stroke-width: 0.6"/>
      </g>
     </g>
    </g>
    <g id="ytick_30">
     <g id="line2d_54">
      <g>
       <use xlink:href="#m80c02d5893" x="43.16" y="35.636322" style="stroke: #000000; stroke-width: 0.6"/>
      </g>
     </g>
    </g>
    <g id="ytick_31">
     <g id="line2d_55">
      <g>
       <use xlink:href="#m80c02d5893" x="43.16" y="25.499048" style="stroke: #000000; stroke-width: 0.6"/>
      </g>
     </g>
    </g>
    <g id="text_15">
     <!-- Count -->
     <g transform="translate(18.16 178.479063) rotate(-90) scale(0.1 -0.1)">
      <defs>
       <path id="IBMPlexSans-43" d="M 2170 -77 
Q 1318 -77 844 502 
Q 371 1082 371 2208 
Q 371 3334 844 3939 
Q 1318 4544 2170 4544 
Q 2733 4544 3113 4288 
Q 3494 4032 3706 3565 
L 3270 3302 
Q 3136 3648 2861 3856 
Q 2586 4064 2170 4064 
Q 1882 4064 1654 3955 
Q 1427 3846 1270 3644 
Q 1114 3443 1030 3164 
Q 947 2886 947 2541 
L 947 1875 
Q 947 1184 1267 793 
Q 1587 403 2170 403 
Q 2598 403 2886 624 
Q 3174 845 3309 1210 
L 3738 941 
Q 3526 467 3129 195 
Q 2733 -77 2170 -77 
z
" transform="scale(0.015625)"/>
      </defs>
      <use xlink:href="#IBMPlexSans-43"/>
      <use xlink:href="#IBMPlexSans-6f" transform="translate(62.099991 0)"/>
      <use xlink:href="#IBMPlexSans-75" transform="translate(118.099976 0)"/>
      <use xlink:href="#IBMPlexSans-6e" transform="translate(174.899963 0)"/>
      <use xlink:href="#IBMPlexSans-74" transform="translate(231.699951 0)"/>
     </g>
    </g>
   </g>
   <g id="line2d_56">
    <path d="M 179.460959 319.48 
L 179.460959 10.8 
" clip-path="url(#p5ec9038e73)" style="fill: none; stroke-dasharray: 7.4,3.2; stroke-dashoffset: 0; stroke: #105e5d; stroke-width: 2"/>
   </g>
   <g id="patch_43">
    <path d="M 43.16 319.48 
L 43.16 10.8 
" style="fill: none; stroke: #000000; stroke-width: 0.8; stroke-linejoin: miter; stroke-linecap: square"/>
   </g>
   <g id="patch_44">
    <path d="M 349.2 319.48 
L 349.2 10.8 
" style="fill: none; stroke: #000000; stroke-width: 0.8; stroke-linejoin: miter; stroke-linecap: square"/>
   </g>
   <g id="patch_45">
    <path d="M 43.16 319.48 
L 349.2 319.48 
" style="fill: none; stroke: #000000; stroke-width: 0.8; stroke-linejoin: miter; stroke-linecap: square"/>
   </g>
   <g id="patch_46">
    <path d="M 43.16 10.8 
L 349.2 10.8 
" style="fill: none; stroke: #000000; stroke-width: 0.8; stroke-linejoin: miter; stroke-linecap: square"/>
   </g>
   <g id="legend_1">
    <g id="patch_47">
     <path d="M 50.16 62 
L 165.919375 62 
Q 167.919375 62 167.919375 60 
L 167.919375 17.8 
Q 167.919375 15.8 165.919375 15.8 
L 50.16 15.8 
Q 48.16 15.8 48.16 17.8 
L 48.16 60 
Q 48.16 62 50.16 62 
L 50.16 62 
z
" style="fill: none; opacity: 0.8; stroke: #cccccc; stroke-linejoin: miter"/>
    </g>
    <g id="patch_48">
     <path d="M 52.16 27.2 
L 72.16 27.2 
L 72.16 20.2 
L 52.16 20.2 
z
" style="fill: #65489d; opacity: 0.8"/>
    </g>
    <g id="text_16">
     <!-- Class 0 -->
     <g transform="translate(80.16 27.2) scale(0.1 -0.1)">
      <defs>
       <path id="IBMPlexSans-73" d="M 1536 -77 
Q 1075 -77 764 99 
Q 454 275 230 570 
L 595 864 
Q 787 621 1024 489 
Q 1261 358 1574 358 
Q 1901 358 2083 499 
Q 2266 640 2266 896 
Q 2266 1088 2141 1225 
Q 2016 1363 1690 1414 
L 1427 1453 
Q 1197 1485 1005 1552 
Q 813 1619 669 1731 
Q 525 1843 445 2009 
Q 365 2176 365 2406 
Q 365 2650 454 2832 
Q 544 3014 701 3136 
Q 858 3258 1075 3318 
Q 1293 3379 1542 3379 
Q 1946 3379 2218 3238 
Q 2490 3098 2694 2848 
L 2355 2541 
Q 2246 2694 2035 2819 
Q 1824 2944 1504 2944 
Q 1184 2944 1021 2806 
Q 858 2669 858 2432 
Q 858 2189 1021 2080 
Q 1184 1971 1491 1920 
L 1747 1882 
Q 2298 1798 2528 1564 
Q 2758 1331 2758 954 
Q 2758 474 2432 198 
Q 2106 -77 1536 -77 
z
" transform="scale(0.015625)"/>
      </defs>
      <use xlink:href="#IBMPlexSans-43"/>
      <use xlink:href="#IBMPlexSans-6c" transform="translate(62.099991 0)"/>
      <use xlink:href="#IBMPlexSans-61" transform="translate(89.299988 0)"/>
      <use xlink:href="#IBMPlexSans-73" transform="translate(142.699982 0)"/>
      <use xlink:href="#IBMPlexSans-73" transform="translate(191.399979 0)"/>
      <use xlink:href="#IBMPlexSans-20" transform="translate(240.099976 0)"/>
      <use xlink:href="#IBMPlexSans-30" transform="translate(263.699966 0)"/>
     </g>
    </g>
    <g id="patch_49">
     <path d="M 52.16 41.6 
L 72.16 41.6 
L 72.16 34.6 
L 52.16 34.6 
z
" style="fill: #388ecc; opacity: 0.8"/>
    </g>
    <g id="text_17">
     <!-- Class 1 -->
     <g transform="translate(80.16 41.6) scale(0.1 -0.1)">
      <use xlink:href="#IBMPlexSans-43"/>
      <use xlink:href="#IBMPlexSans-6c" transform="translate(62.099991 0)"/>
      <use xlink:href="#IBMPlexSans-61" transform="translate(89.299988 0)"/>
      <use xlink:href="#IBMPlexSans-73" transform="translate(142.699982 0)"/>
      <use xlink:href="#IBMPlexSans-73" transform="translate(191.399979 0)"/>
      <use xlink:href="#IBMPlexSans-20" transform="translate(240.099976 0)"/>
      <use xlink:href="#IBMPlexSans-31" transform="translate(263.699966 0)"/>
     </g>
    </g>
    <g id="line2d_57">
     <path d="M 52.16 52.5 
L 62.16 52.5 
L 72.16 52.5 
" style="fill: none; stroke-dasharray: 7.4,3.2; stroke-dashoffset: 0; stroke: #105e5d; stroke-width: 2"/>
    </g>
    <g id="text_18">
     <!-- Decision threshold -->
     <g transform="translate(80.16 56) scale(0.1 -0.1)">
      <defs>
       <path id="IBMPlexSans-44" d="M 595 4467 
L 2093 4467 
Q 2509 4467 2848 4326 
Q 3187 4186 3427 3907 
Q 3667 3629 3795 3209 
Q 3923 2790 3923 2234 
Q 3923 1677 3795 1257 
Q 3667 838 3427 560 
Q 3187 282 2848 141 
Q 2509 0 2093 0 
L 595 0 
L 595 4467 
z
M 2093 474 
Q 2368 474 2598 566 
Q 2829 659 2995 838 
Q 3162 1018 3254 1277 
Q 3347 1536 3347 1869 
L 3347 2598 
Q 3347 2931 3254 3190 
Q 3162 3450 2995 3629 
Q 2829 3808 2598 3901 
Q 2368 3994 2093 3994 
L 1133 3994 
L 1133 474 
L 2093 474 
z
" transform="scale(0.015625)"/>
       <path id="IBMPlexSans-69" d="M 800 4077 
Q 634 4077 560 4157 
Q 486 4237 486 4365 
L 486 4448 
Q 486 4576 560 4656 
Q 634 4736 800 4736 
Q 966 4736 1040 4656 
Q 1114 4576 1114 4448 
L 1114 4365 
Q 1114 4237 1040 4157 
Q 966 4077 800 4077 
z
M 544 3302 
L 1056 3302 
L 1056 0 
L 544 0 
L 544 3302 
z
" transform="scale(0.015625)"/>
       <path id="IBMPlexSans-68" d="M 544 4736 
L 1056 4736 
L 1056 2765 
L 1082 2765 
Q 1203 3046 1424 3212 
Q 1645 3379 2016 3379 
Q 2528 3379 2825 3049 
Q 3123 2720 3123 2118 
L 3123 0 
L 2611 0 
L 2611 2029 
Q 2611 2918 1862 2918 
Q 1709 2918 1565 2880 
Q 1421 2842 1305 2765 
Q 1190 2688 1123 2569 
Q 1056 2451 1056 2291 
L 1056 0 
L 544 0 
L 544 4736 
z
" transform="scale(0.015625)"/>
      </defs>
      <use xlink:href="#IBMPlexSans-44"/>
      <use xlink:href="#IBMPlexSans-65" transform="translate(67.099991 0)"/>
      <use xlink:href="#IBMPlexSans-63" transform="translate(121.999985 0)"/>
      <use xlink:href="#IBMPlexSans-69" transform="translate(172.299973 0)"/>
      <use xlink:href="#IBMPlexSans-73" transform="translate(197.299957 0)"/>
      <use xlink:href="#IBMPlexSans-69" transform="translate(245.999954 0)"/>
      <use xlink:href="#IBMPlexSans-6f" transform="translate(270.999939 0)"/>
      <use xlink:href="#IBMPlexSans-6e" transform="translate(326.999924 0)"/>
      <use xlink:href="#IBMPlexSans-20" transform="translate(383.799911 0)"/>
      <use xlink:href="#IBMPlexSans-74" transform="translate(407.399902 0)"/>
      <use xlink:href="#IBMPlexSans-68" transform="translate(442.499893 0)"/>
      <use xlink:href="#IBMPlexSans-72" transform="translate(499.299881 0)"/>
      <use xlink:href="#IBMPlexSans-65" transform="translate(535.999878 0)"/>
      <use xlink:href="#IBMPlexSans-73" transform="translate(590.899872 0)"/>
      <use xlink:href="#IBMPlexSans-68" transform="translate(639.599869 0)"/>
      <use xlink:href="#IBMPlexSans-6f" transform="translate(696.399857 0)"/>
      <use xlink:href="#IBMPlexSans-6c" transform="translate(752.399841 0)"/>
      <use xlink:href="#IBMPlexSans-64" transform="translate(779.599838 0)"/>
     </g>
    </g>
   </g>
  </g>
 </g>
 <defs>
  <clipPath id="p5ec9038e73">
   <rect x="43.16" y="10.8" width="306.04" height="308.68"/>
  </clipPath>
 </defs>
</svg>
