<?xml version="1.0" encoding="UTF-8" standalone="no"?>
<svg
   xml:space="preserve"
   width="377.95245"
   height="310.49127"
   viewBox="0 0 99.999661 82.150729"
   version="1.1"
   id="svg1543"
   sodipodi:docname="01-recap-fig2-pv_tightly_controlled.svg"
   inkscape:version="1.2.2 (732a01da63, 2022-12-09)"
   inkscape:export-filename="01-recap-fig2-pv_tightly_controlled.png"
   inkscape:export-xdpi="300"
   inkscape:export-ydpi="300"
   xmlns:inkscape="http://www.inkscape.org/namespaces/inkscape"
   xmlns:sodipodi="http://sodipodi.sourceforge.net/DTD/sodipodi-0.dtd"
   xmlns="http://www.w3.org/2000/svg"
   xmlns:svg="http://www.w3.org/2000/svg"><sodipodi:namedview
   id="namedview1545"
   pagecolor="#ffffff"
   bordercolor="#000000"
   borderopacity="0.25"
   inkscape:showpageshadow="2"
   inkscape:pageopacity="0.0"
   inkscape:pagecheckerboard="0"
   inkscape:deskcolor="#d1d1d1"
   showgrid="true"
   inkscape:zoom="4.2828028"
   inkscape:cx="63.509812"
   inkscape:cy="210.14276"
   inkscape:window-width="4096"
   inkscape:window-height="2097"
   inkscape:window-x="-8"
   inkscape:window-y="-8"
   inkscape:window-maximized="1"
   inkscape:current-layer="svg1543"><inkscape:grid
     type="xygrid"
     id="grid1670"
     originx="0.00062410242"
     originy="1.1186258" /></sodipodi:namedview>
    <defs
   id="defs1511">
        <marker
   id="a"
   markerHeight="3.155"
   markerUnits="userSpaceOnUse"
   markerWidth="5.3239999"
   orient="auto-start-reverse"
   preserveAspectRatio="none"
   refX="0"
   refY="0"
   style="overflow:visible"
   viewBox="0 0 5.324 6.155">
            <path
   d="M 5.77,0 -2.88,5 V -5 Z"
   style="fill:context-stroke;fill-rule:evenodd;stroke:context-stroke;stroke-width:1pt"
   transform="scale(0.5)"
   id="path1508" />
        </marker>
    <marker
   style="overflow:visible"
   id="TriangleStart"
   refX="0"
   refY="0"
   orient="auto-start-reverse"
   inkscape:stockid="TriangleStart"
   markerWidth="5.3244081"
   markerHeight="4.1550002"
   viewBox="0 0 5.3244081 6.1553851"
   inkscape:isstock="true"
   inkscape:collect="always"
   preserveAspectRatio="none"><path
     transform="scale(0.5)"
     style="fill:context-stroke;fill-rule:evenodd;stroke:context-stroke;stroke-width:1pt"
     d="M 5.77,0 -2.88,5 V -5 Z"
     id="path135" /></marker></defs>
    <path
   d="m 22.032914,27.776785 c -0.03081,-0.02054 -0.05683,-0.07874 -0.05683,-0.130099 0,-0.09928 -0.232123,-0.231438 -0.495743,-0.282108 -0.12736,-0.02397 -0.167074,-0.06847 -0.171867,-0.191724 -0.0089,-0.207473 -0.166389,-0.314975 -0.175976,-0.119828 -0.0034,0.07532 -0.0493,0.143109 -0.101339,0.150641 -0.05136,0.0082 -0.09449,0.06779 -0.09449,0.131468 0,0.136946 -0.06847,0.191724 -0.235547,0.191724 -0.180084,0 -0.212266,-0.03629 -0.287586,-0.334148 -0.05889,-0.230069 -0.09449,-0.271837 -0.237601,-0.281423 -0.256089,-0.01712 -0.466985,-0.215005 -0.466985,-0.438227 0,-0.172552 -0.01917,-0.194463 -0.164335,-0.186931 -0.09792,0.0048 -0.184877,0.03697 -0.213635,0.07943 -0.06573,0.09655 -0.410838,0.102024 -0.45466,0.0068 -0.01575,-0.03561 -0.10134,-0.07053 -0.188986,-0.07737 -0.236231,-0.01917 -0.40399,-0.164335 -0.501221,-0.432749 -0.04793,-0.132153 -0.128045,-0.285532 -0.179399,-0.342365 a 0.43411815,0.43411815 0 0 1 -0.09244,-0.252665 0.19720194,0.19720194 0 0 0 -0.139,-0.197202 c -0.076,-0.02534 -0.139684,-0.08901 -0.141739,-0.139684 -0.0027,-0.09107 -0.134206,-0.243079 -0.292379,-0.338256 a 0.3902955,0.3902955 0 0 1 -0.12599,-0.179399 c -0.147217,-0.420424 -0.321822,-0.623104 -0.534088,-0.623104 -0.09723,0 -0.180769,0.09244 -0.184193,0.203365 -0.0034,0.127359 -0.126674,0.17666 -0.351265,0.141739 -0.118459,-0.01917 -0.176661,-0.063 -0.196518,-0.150641 -0.0226,-0.09792 -0.06162,-0.123251 -0.193778,-0.123251 -0.308813,0 -0.391665,-0.05204 -0.395089,-0.249926 -0.0021,-0.131468 -0.04656,-0.207473 -0.141054,-0.239655 -0.102709,-0.03424 -0.139,-0.11435 -0.139,-0.303335 0,-0.278 -0.01712,-0.286901 -0.523817,-0.267044 -0.370439,0.01369 -0.474518,-0.02054 -0.547784,-0.184192 a 0.26430537,0.26430537 0 0 0 -0.20131,-0.150641 c -0.105448,-0.01506 -0.143793,-0.06163 -0.143793,-0.173921 0,-0.08422 -0.03492,-0.158857 -0.07737,-0.16502 -0.04245,-0.0068 -0.191724,0.01438 -0.330724,0.04793 -0.199941,0.04656 -0.25335,0.0808 -0.25335,0.162966 0,0.109557 -0.158172,0.167759 -0.364276,0.135576 -0.180768,-0.02807 -0.292379,-0.180768 -0.294433,-0.40399 -0.0021,-0.154064 -0.03424,-0.20131 -0.143793,-0.212266 -0.10271,-0.0096 -0.143109,-0.05135 -0.145163,-0.149271 a 0.20131031,0.20131031 0 0 0 -0.141739,-0.181453 c -0.07601,-0.02533 -0.141739,-0.08491 -0.145847,-0.131468 -0.0068,-0.07874 -0.0137,-0.0808 -0.08628,-0.02602 a 1.1181624,1.1181624 0 0 0 -0.13763,0.128044 c -0.0493,0.05615 -0.10134,0.06573 -0.314291,0.05957 -0.216374,-0.0062 -0.264305,0.0034 -0.31566,0.06436 -0.03424,0.03971 -0.06642,-0.134892 -0.07258,-0.387557 -0.0062,-0.252665 0.01506,-0.476571 0.04656,-0.497113 0.0315,-0.02054 0.136946,-0.03766 0.235547,-0.03766 0.136261,0 0.179399,0.01712 0.179399,0.0719 0,0.09518 0.241025,0.09518 0.316345,0 0.03903,-0.04998 0.112295,-0.0719 0.237601,-0.0719 0.204049,0 0.245817,0.04245 0.383448,0.395088 0.08491,0.21706 0.143793,0.295119 0.291694,0.383449 a 0.47588662,0.47588662 0 0 1 0.139685,0.161596 c 0.04656,0.08901 0.09792,0.113665 0.230754,0.113665 0.115034,0 0.190354,-0.02328 0.228015,-0.0719 0.04519,-0.05615 0.106132,-0.0719 0.291694,-0.0719 0.269099,0 0.386872,0.04451 0.47931,0.180768 0.08901,0.132838 0.251981,0.256089 0.396458,0.301281 0.0671,0.02054 0.121882,0.05478 0.121882,0.07737 0,0.02602 0.07737,0.03971 0.217744,0.03971 0.27663,0 0.443704,0.04245 0.443704,0.112981 0,0.03081 0.05752,0.05478 0.130099,0.05478 0.17529,0 0.245133,0.07532 0.246502,0.265675 a 0.61625605,0.61625605 0 0 0 0.08901,0.287586 c 0.04793,0.07121 0.11435,0.180768 0.147217,0.243764 0.04725,0.08901 0.09723,0.113665 0.235546,0.113665 0.09586,0 0.193779,0.01369 0.21706,0.03013 0.09312,0.06505 0.445758,-0.08217 0.445758,-0.186247 0,-0.112295 0.175975,-0.173236 0.361537,-0.12599 0.06163,0.01575 0.110926,0.08422 0.110926,0.15338 0,0.07874 0.04382,0.128729 0.118458,0.134891 0.07327,0.0062 0.14037,0.0808 0.178714,0.199256 0.138316,0.43001 0.270468,0.690892 0.361537,0.714173 0.05341,0.01369 0.09723,0.08628 0.09723,0.16228 0,0.07532 0.03834,0.143793 0.08559,0.150641 0.191724,0.03013 0.384133,0.285532 0.48068,0.636798 0.108187,0.395088 0.247871,0.575172 0.448497,0.575172 0.06847,0 0.148586,0.03218 0.180084,0.07121 0.09792,0.123936 0.203364,0.07943 0.267729,-0.113665 0.07669,-0.230754 0.102709,-0.251296 0.308128,-0.241025 0.125305,0.0062 0.183507,0.04245 0.238285,0.151325 0.12736,0.249926 0.241025,0.547783 0.249927,0.651177 0.0068,0.08491 0.04108,0.10134 0.219798,0.108188 0.15064,0.0055 0.22596,0.02739 0.260197,0.07737 0.07053,0.103394 0.283477,0.108872 0.283477,0.0068 0,-0.063 0.04588,-0.08628 0.19104,-0.09586 0.288955,-0.01917 0.470408,0.04451 0.470408,0.164335 0,0.147217 0.187616,0.286217 0.420424,0.312237 0.151325,0.01712 0.199941,0.04793 0.223222,0.141738 0.03355,0.136946 0.206788,0.209528 0.206788,0.08628 0,-0.05889 0.04793,-0.08217 0.188985,-0.09175 0.169813,-0.01096 0.188985,-0.03218 0.188985,-0.210212 0,-0.141054 0.03834,-0.205419 0.132153,-0.225961 0.09244,-0.01917 0.153379,-0.113665 0.199941,-0.308128 0.06847,-0.285532 0.142423,-0.347842 0.383448,-0.324561 0.09244,0.0089 0.134207,0.05204 0.134207,0.136946 0,0.06847 0.05889,0.145162 0.130098,0.171182 0.0719,0.02602 0.149271,0.06847 0.172552,0.09518 0.0226,0.02602 0.07463,-0.05135 0.115034,-0.171867 0.05067,-0.15201 0.11435,-0.224591 0.204734,-0.232808 0.18967,-0.01849 0.321823,0.06094 0.323193,0.193094 6.84e-4,0.06368 0.02807,0.157487 0.06162,0.207473 0.07669,0.118458 0.217059,0.06847 0.221168,-0.08011 0.0034,-0.123251 0.110241,-0.180083 0.306073,-0.160911 0.09792,0.0096 0.155434,0.07327 0.200626,0.223222 0.03492,0.116404 0.08148,0.215005 0.102709,0.220482 0.110242,0.02739 0.24171,-0.03424 0.297173,-0.138999 0.07121,-0.136946 0.203364,-0.173922 0.574487,-0.162966 0.217059,0.0062 0.276631,0.0226 0.332094,0.09107 l 0.167074,0.204049 c 0.05341,0.06573 0.123251,0.203365 0.153379,0.305389 0.03903,0.131468 0.09175,0.185562 0.180084,0.185562 0.171182,0 0.493005,-0.177345 0.588867,-0.323192 0.06231,-0.09723 0.12599,-0.12599 0.334832,-0.150641 0.217059,-0.02739 0.257458,-0.04725 0.257458,-0.128044 0,-0.134892 0.14037,-0.191724 0.453975,-0.183507 0.249242,0.0068 0.255404,0.0034 0.282793,-0.139685 0.02397,-0.128729 0.05478,-0.149271 0.259513,-0.173236 0.219113,-0.02533 0.232123,-0.03766 0.232123,-0.225961 0,-0.109557 0.03834,-0.209527 0.08559,-0.222537 0.04725,-0.01233 0.134892,-0.178714 0.195148,-0.369753 0.07737,-0.246503 0.15064,-0.358114 0.25061,-0.383449 0.125306,-0.03218 0.156119,-0.03081 0.277316,0.01027 0.07464,0.02602 0.135576,0.06505 0.135576,0.08765 0,0.02191 0.063,0.04656 0.139,0.05409 0.228015,0.02191 0.427956,-0.05204 0.43001,-0.160226 0.0034,-0.139 0.143793,-0.278 0.313606,-0.311552 0.07874,-0.01506 0.157487,-0.05478 0.173921,-0.08764 0.01712,-0.03424 0.09175,-0.06026 0.171182,-0.06026 0.17803,0 0.36633,0.135577 0.373177,0.268414 a 0.23965513,0.23965513 0 0 0 0.0986,0.162281 c 0.07874,0.05272 0.123251,0.05889 0.276631,0.03766 0.262251,-0.03561 0.481364,-0.0062 0.543675,0.07395 0.03698,0.04656 0.112295,0.06847 0.231438,0.06847 0.136946,0 0.178029,0.01849 0.178029,0.07806 0.0021,0.119827 0.109557,0.258143 0.200626,0.258143 0.04519,0 0.08217,-0.05889 0.08217,-0.130099 0,-0.158857 0.06436,-0.205419 0.283477,-0.205419 0.243079,0 0.283478,0.04588 0.283478,0.325247 0,0.237601 0.0986,0.319768 0.22733,0.18967 a 0.24444823,0.24444823 0 0 1 0.15201,-0.05957 c 0.05136,0 0.09312,-0.02533 0.09312,-0.05478 0,-0.03081 0.04314,-0.0671 0.09586,-0.08011 0.05341,-0.01369 0.136946,-0.139685 0.185562,-0.280739 0.04862,-0.14037 0.132837,-0.275946 0.186931,-0.301281 0.05409,-0.02602 0.09792,-0.105448 0.09792,-0.17803 0,-0.08628 0.04793,-0.139684 0.141739,-0.159541 0.106133,-0.0226 0.141739,-0.08217 0.141739,-0.239656 0,-0.177344 0.02602,-0.21295 0.162965,-0.22596 0.232808,-0.02328 0.40399,0.04793 0.40399,0.167758 0,0.05957 0.05683,0.112296 0.141739,0.130099 0.09175,0.01917 0.141739,0.07258 0.141739,0.15064 0,0.143793 0.169813,0.280054 0.401251,0.323877 0.121197,0.0226 0.165705,0.06505 0.165705,0.158857 0,0.206788 0.08422,0.277315 0.332093,0.277315 0.24034,0 0.262251,0.01917 0.438227,0.401252 0.06984,0.149271 0.142423,0.221167 0.223221,0.221167 0.156118,0 0.234178,0.05478 0.234178,0.164335 0,0.0493 0.05957,0.110241 0.132152,0.136946 0.07258,0.02602 0.162966,0.109556 0.199941,0.184877 0.03697,0.07532 0.09586,0.136945 0.130099,0.136945 0.08559,0 0.293064,-0.234862 0.296487,-0.335517 0.0021,-0.04588 0.06573,-0.104763 0.141739,-0.130098 0.07669,-0.02602 0.139,-0.09723 0.139,-0.160227 0,-0.063 0.04245,-0.120512 0.09449,-0.128729 0.05135,-0.0082 0.09449,-0.07943 0.09449,-0.157488 0,-0.130783 0.02054,-0.145162 0.246503,-0.171182 0.211581,-0.02465 0.26499,-0.0226 0.377285,0.01643 0.07258,0.02533 0.131468,0.07053 0.131468,0.100655 0,0.03834 0.04108,0.04998 0.141739,0.04108 0.09792,-0.01027 0.141739,-0.0493 0.141739,-0.12736 0,-0.140369 0.190355,-0.219113 0.414946,-0.171182 0.08354,0.01712 0.15201,0.0582 0.15201,0.09107 0,0.04108 0.04108,0.05546 0.132837,0.04656 0.15064,-0.01438 0.434118,0.05478 0.434118,0.106133 0,0.01849 0.09586,0.04519 0.212266,0.05752 0.17803,0.02054 0.217059,0.04588 0.24034,0.159541 0.02328,0.110242 0.06163,0.136946 0.212266,0.147217 0.123251,0.0082 0.184877,0.03287 0.184877,0.07464 0,0.120512 0.180768,0.06026 0.243763,-0.08217 0.05752,-0.129414 0.08559,-0.143793 0.282109,-0.143793 0.17666,0 0.223906,-0.01438 0.247872,-0.07737 0.02191,-0.05889 0.07464,-0.07806 0.215689,-0.07806 0.153379,0 0.203365,0.02533 0.283478,0.141738 0.05341,0.07806 0.15064,0.146532 0.215005,0.15201 0.06505,0.0055 0.119143,0.03834 0.121197,0.07395 0.0021,0.03424 0.05889,0.08217 0.128044,0.105448 0.118458,0.03971 0.132153,0.03971 0.271838,0 0.0808,-0.02328 0.160911,-0.06847 0.178714,-0.100655 0.02191,-0.03971 0.109556,-0.06368 0.268414,-0.07327 0.236231,-0.01369 0.236231,-0.01438 0.354689,-0.456029 0.160227,-0.597769 0.213636,-0.725813 0.314975,-0.752517 0.04793,-0.01233 0.08628,-0.04656 0.08628,-0.07532 0,-0.02807 0.0582,-0.06436 0.129414,-0.07874 0.07464,-0.01575 0.154749,-0.100655 0.190355,-0.200625 0.142423,-0.40536 0.198571,-0.449182 0.574487,-0.449182 0.411522,0 0.522449,0.06779 0.522449,0.319083 0,0.12736 0.03834,0.232124 0.08422,0.232124 0.11435,0 0.199256,-0.06163 0.199256,-0.143794 0,-0.04451 0.05957,-0.07395 0.16502,-0.08217 0.156118,-0.0137 0.398512,-0.124621 0.543675,-0.249241 0.05067,-0.04382 0.111611,-0.05341 0.280739,-0.04245 0.182138,0.01164 0.224591,0.0021 0.273891,-0.06094 0.03287,-0.04108 0.05889,-0.173922 0.05889,-0.296488 0,-0.161596 0.03629,-0.2287 0.133522,-0.249241 a 0.32866989,0.32866989 0 0 0 0.195841,-0.14096 0.4163152,0.4163152 0 0 1 0.202679,-0.160226 c 0.139685,-0.04793 0.143109,-0.04793 0.277316,-0.0014 0.07464,0.02534 0.135576,0.063 0.135576,0.08422 0,0.02054 0.09586,0.04793 0.212266,0.06163 0.173921,0.01849 0.225276,0.04998 0.280054,0.167074 0.147217,0.316344 0.225276,0.44165 0.283478,0.456029 0.03424,0.0089 0.09107,-0.06094 0.127359,-0.154064 0.05478,-0.140369 0.09586,-0.170498 0.232808,-0.170498 0.197887,0 0.25335,0.0315 0.337572,0.191725 0.09312,0.178714 0.218428,0.184876 0.362906,0.0178 0.04519,-0.05272 0.108872,-0.06573 0.3273,-0.06573 0.306074,0 0.383449,0.04177 0.385503,0.209527 6.84e-4,0.08627 0.03081,0.102709 0.190354,0.102709 0.135577,0 0.188986,-0.01643 0.188986,-0.05752 0,-0.06847 0.223221,-0.121882 0.423847,-0.10271 0.103394,0.01027 0.143108,0.05067 0.143108,0.147217 0,0.07258 0.04245,0.132153 0.09381,0.132153 a 0.09517732,0.09517732 0 0 0 0.09449,-0.09518 c 0,-0.05204 0.0897,-0.138315 0.199256,-0.191724 0.311551,-0.152009 0.642275,-0.513546 0.647753,-0.708009 0.0021,-0.06642 0.06026,-0.141739 0.130099,-0.167759 0.07874,-0.02944 0.171182,-0.196517 0.243079,-0.442335 0.143793,-0.487527 0.158857,-0.508753 0.365645,-0.499167 0.205418,0.01027 0.264305,0.118458 0.35332,0.642276 0.04588,0.269098 0.108872,0.412891 0.197887,0.448497 0.0719,0.02944 0.130098,0.07053 0.130098,0.09175 0,0.02054 0.04245,0.0315 0.09449,0.02328 0.05204,-0.0082 0.09586,-0.07053 0.09792,-0.139 0.0014,-0.07121 0.06163,-0.144477 0.141739,-0.171182 0.076,-0.02534 0.140369,-0.09038 0.142423,-0.143793 0.0014,-0.05341 0.05067,-0.145847 0.107503,-0.205419 0.05683,-0.05889 0.134891,-0.26362 0.173236,-0.45466 0.03834,-0.191724 0.136261,-0.417684 0.217059,-0.503275 0.362907,-0.382079 0.349212,-0.373862 0.580651,-0.351266 0.08011,0.0075 0.145847,0.04108 0.145847,0.07532 0,0.04245 0.05067,0.06026 0.17666,0.06026 0.154749,0 0.184877,-0.02739 0.243079,-0.21569 0.03629,-0.118458 0.107502,-0.221852 0.157487,-0.229384 0.234178,-0.03697 0.349212,0.04656 0.414946,0.301966 0.06642,0.260197 0.235547,0.390295 0.235547,0.182138 0,-0.136946 0.0719,-0.182823 0.290325,-0.182823 0.273891,0 0.345788,0.06231 0.419054,0.36496 0.06573,0.269099 0.07669,0.27937 0.25335,0.255404 0.393719,-0.05341 0.484103,-0.0041 0.609408,0.332094 0.05273,0.141054 0.136946,0.180084 0.269784,0.12599 0.06847,-0.02807 0.423162,-0.0315 0.581335,-0.0055 0.06779,0.01096 0.167073,0.210212 0.264305,0.530665 0.119827,0.396458 0.1883,0.519709 0.297857,0.539567 0.171182,0.03218 0.314975,0.17666 0.321823,0.324561 0.0027,0.05957 0.06779,0.129414 0.143793,0.154749 0.07669,0.02534 0.139,0.06573 0.139,0.0897 0,0.07532 0.165019,0.04656 0.229384,-0.04108 0.05683,-0.07532 0.09107,-0.08354 0.383448,-0.08354 0.394404,0 0.453291,0.0226 0.534773,0.204049 0.06163,0.136946 0.143109,0.249926 0.230754,0.320453 0.07669,0.06094 0.416315,-0.08217 0.416315,-0.175975 0,-0.10271 0.14037,-0.180769 0.323877,-0.180769 0.188985,0 0.243079,0.05615 0.243079,0.252665 0,0.182823 0.123251,0.255404 0.221852,0.130099 0.03903,-0.0493 0.112295,-0.07121 0.237601,-0.07121 0.229384,0 0.280739,0.03561 0.360852,0.247872 0.07053,0.186931 0.191724,0.15201 0.208842,-0.06026 0.01233,-0.143793 0.08217,-0.187616 0.303335,-0.187616 0.124621,0 0.178715,0.01712 0.178715,0.05683 0,0.08217 0.190354,0.207473 0.392349,0.258143 0.09586,0.02465 0.174606,0.0719 0.174606,0.104764 0,0.03287 0.03561,0.05957 0.07874,0.05957 0.04382,0 0.134892,-0.206103 0.20268,-0.458768 0.106133,-0.39235 0.149271,-0.463562 0.299226,-0.496429 0.143793,-0.03081 0.174606,-0.07258 0.174606,-0.236231 0,-0.109557 0.03218,-0.199256 0.07121,-0.200626 0.748409,-0.02739 0.873714,-0.0021 0.873714,0.179399 0,0.05889 0.04245,0.11435 0.09449,0.122567 0.05204,0.0082 0.09449,0.04108 0.09449,0.07327 0,0.03424 0.05478,0.0582 0.134207,0.0582 0.07395,0 0.161596,0.03218 0.195148,0.07053 a 0.41768466,0.41768466 0 0 0 0.196517,0.0986 c 0.07464,0.01575 0.135576,0.05341 0.135576,0.08422 0,0.03081 0.04245,0.06231 0.09449,0.07053 0.05136,0.0082 0.09449,0.07874 0.09449,0.157488 0,0.158857 0.166389,0.192409 0.349211,0.06984 a 0.54093587,0.54093587 0 0 1 0.256089,-0.0719 c 0.09518,0 0.15064,-0.02054 0.15064,-0.05683 0,-0.0315 0.063,-0.07053 0.141055,-0.08696 0.07806,-0.01643 0.141738,-0.05546 0.141738,-0.08765 0,-0.06505 0.241025,-0.09997 0.40536,-0.0582 0.06026,0.01506 0.139685,0.105448 0.175975,0.200625 0.201311,0.525872 0.198572,0.521764 0.377286,0.546414 0.09586,0.01301 0.175291,0.0493 0.175291,0.08011 0,0.0315 0.06162,0.06231 0.136945,0.06984 0.09244,0.0089 0.145848,0.0582 0.164335,0.152695 0.02602,0.123251 0.05341,0.139685 0.24171,0.146532 0.139,0.0048 0.234177,0.02944 0.275261,0.0719 0.03424,0.03492 0.115034,0.07532 0.178029,0.08765 0.217059,0.04519 0.319084,0.244448 0.520394,1.014768 0.104764,0.401936 0.136946,0.45603 0.243079,0.407414 0.07327,-0.03355 0.123936,-0.139685 0.12599,-0.262936 0.0027,-0.152695 0.03971,-0.21432 0.143793,-0.236232 0.268414,-0.05615 0.425902,-0.01027 0.427956,0.124621 0.0014,0.120512 0.262251,0.397143 0.275261,0.293064 0.0034,-0.02739 0.06847,-0.07053 0.145162,-0.09586 0.07601,-0.02533 0.14037,-0.06984 0.141739,-0.0986 0.0014,-0.02944 0.04793,-0.05957 0.10134,-0.06847 0.187616,-0.02944 0.362222,0.04108 0.425901,0.170498 0.03561,0.07121 0.102025,0.130098 0.147902,0.130098 0.04588,0 0.08422,-0.0082 0.08559,-0.01849 a 1.4242362,1.4242362 0 0 1 0.0986,-0.173237 c 0.05409,-0.08559 0.138315,-0.301281 0.187616,-0.47931 0.113665,-0.406044 0.181453,-0.595714 0.238285,-0.664872 0.06094,-0.07532 0.306759,-0.06779 0.384133,0.01096 0.03561,0.03561 0.143109,0.08628 0.238286,0.112295 0.09586,0.02602 0.173236,0.06368 0.173236,0.08285 0,0.01986 0.06094,0.05273 0.134892,0.07327 0.09655,0.02739 0.154749,0.139 0.203365,0.39235 0.03697,0.194463 0.104078,0.359483 0.147901,0.36633 0.04451,0.0068 0.0808,0.03903 0.0808,0.07121 0,0.05272 0.0404,0.05889 0.37797,0.05889 0.324562,0 0.377971,-0.0068 0.377971,-0.05204 0,-0.02876 0.07395,-0.07327 0.165019,-0.0986 0.136946,-0.03835 0.171183,-0.102709 0.197202,-0.373177 0.01712,-0.179399 0.07532,-0.34031 0.129414,-0.356744 0.124621,-0.03834 0.475202,-0.03903 0.623104,-0.0014 0.06847,0.01712 0.11298,0.102024 0.11298,0.215005 0,0.161596 0.02465,0.188985 0.191724,0.212266 0.255404,0.03424 0.375231,0.01095 0.375231,-0.07395 0,-0.03903 0.04245,-0.07053 0.09449,-0.07053 0.05204,0 0.09586,-0.04588 0.0986,-0.102025 0.0041,-0.105448 0.18967,-0.314975 0.304704,-0.343734 0.03629,-0.0096 0.284848,-0.0178 0.552577,-0.01917 0.435487,-0.0021 0.496428,0.0041 0.578596,0.05752 0.05067,0.03287 0.130098,0.07874 0.175975,0.10134 0.04656,0.0226 0.08422,0.106133 0.08422,0.185562 0,0.105448 0.03424,0.143793 0.127359,0.143793 0.09586,0 0.143793,-0.06847 0.193778,-0.280739 0.03698,-0.155434 0.109557,-0.330724 0.163651,-0.390296 a 1.8556154,1.8556154 0 0 0 0.207472,-0.32867 c 0.07532,-0.15064 0.160227,-0.230069 0.26636,-0.251295 0.123936,-0.02465 0.168443,-0.09586 0.219798,-0.359483 0.04519,-0.230754 0.119143,-0.36633 0.246502,-0.45466 0.09929,-0.06984 0.181454,-0.15064 0.181454,-0.181453 0,-0.03013 0.06368,-0.06094 0.141054,-0.06847 0.07806,-0.0075 0.141739,-0.03355 0.141739,-0.05752 0,-0.02397 0.06368,-0.05957 0.141739,-0.07943 0.08628,-0.02191 0.141738,-0.0808 0.141738,-0.149955 0,-0.121197 0.201995,-0.207473 0.434119,-0.184877 0.07327,0.0068 0.136261,0.04108 0.140369,0.076 0.0034,0.03492 0.06436,0.10134 0.134207,0.147216 l 0.127359,0.08422 0.0068,-0.122566 c 0.0068,-0.08696 0.0582,-0.133523 0.184877,-0.162281 0.164335,-0.03766 0.190354,-0.03766 0.331408,-0.0021 0.08696,0.02191 0.152695,0.07737 0.152695,0.129413 0,0.191725 0.110926,0.312922 0.286901,0.312922 0.145848,0 0.175291,-0.03424 0.234178,-0.274577 0.07053,-0.284162 0.220482,-0.399881 0.420423,-0.324561 0.05204,0.02054 0.09586,0.08628 0.09586,0.147901 0.0014,0.100655 0.0315,0.116404 0.284848,0.148586 0.280738,0.03492 0.283477,0.03492 0.283477,-0.03081 0,-0.03629 0.08148,-0.08491 0.180084,-0.107503 0.148586,-0.03424 0.191724,-0.09038 0.248557,-0.321822 0.03766,-0.156119 0.11298,-0.286902 0.171182,-0.295803 0.169813,-0.02739 0.345103,0.02944 0.345103,0.11161 0,0.129414 0.115035,0.299912 0.201311,0.299912 0.04519,0 0.08217,-0.04177 0.08217,-0.09381 0,-0.136261 0.07532,-0.169813 0.387557,-0.169813 0.210211,0 0.273891,-0.01096 0.273891,-0.04793 0,-0.02602 0.07874,-0.06779 0.174606,-0.09175 0.09655,-0.02465 0.203365,-0.07327 0.238286,-0.108187 0.03424,-0.03424 0.125305,-0.063 0.20268,-0.063 0.106817,0 0.141054,-0.03287 0.145162,-0.138315 a 0.32866989,0.32866989 0 0 1 0.118458,-0.221168 c 0.09586,-0.07121 0.157488,-0.08422 0.396458,-0.08422 0.309498,0 0.280739,0.02465 0.472463,-0.407414 0.09586,-0.21432 0.119143,-0.22733 0.413576,-0.22733 0.237601,0 0.282109,-0.01233 0.375917,-0.102025 a 0.50875361,0.50875361 0 0 0 0.130098,-0.221167 c 0.0178,-0.08833 0.06437,-0.121882 0.17803,-0.12736 0.21432,-0.01027 0.256773,0.0315 0.32867,0.324562 0.05067,0.209527 0.09655,0.265675 0.244448,0.301281 0.170497,0.04177 0.193778,0.04245 0.356059,0.0055 0.139685,-0.03218 0.188985,-0.03424 0.25198,-0.0082 0.0986,0.03903 0.222537,0.279369 0.284163,0.549837 l 0.04656,0.207473 0.377971,-0.0048 c 0.445758,-0.0055 0.550522,-0.03903 0.552576,-0.174606 a 0.12051229,0.12051229 0 0 1 0.09586,-0.115034 c 0.05204,-0.0082 0.09449,-0.06642 0.09449,-0.12873 0,-0.136261 0.194464,-0.219113 0.428641,-0.182822 0.208842,0.03287 0.418369,0.191724 0.420423,0.318399 0,0.06642 0.04862,0.106818 0.135577,0.115719 0.180768,0.01712 0.215005,0.04519 0.34031,0.277315 0.05889,0.109557 0.142424,0.209527 0.184877,0.223222 0.04245,0.01301 0.104763,0.09929 0.138315,0.191724 0.03355,0.09175 0.09929,0.210896 0.147217,0.263621 0.04725,0.05272 0.11435,0.203364 0.149271,0.335517 0.05341,0.201995 0.07943,0.230069 0.167074,0.179399 0.136945,-0.08011 0.25198,-0.09723 0.457398,-0.06916 0.134892,0.0178 0.170498,0.05272 0.170498,0.164335 0,0.143793 0.111611,0.20268 0.238286,0.12599 0.03766,-0.0226 0.09723,-0.16365 0.132152,-0.312921 0.04108,-0.178029 0.104764,-0.277315 0.183508,-0.28964 0.153379,-0.02397 0.545729,-0.0055 0.668295,0.03218 0.05204,0.01575 0.106818,0.188985 0.121197,0.384818 0.01712,0.232807 0.06163,0.358798 0.130099,0.364275 0.06847,0.0055 0.123251,-0.06026 0.156803,-0.189669 0.06094,-0.234178 0.123251,-0.282109 0.362906,-0.282109 0.145847,0 0.179399,0.0178 0.179399,0.09381 0,0.134892 0.20131,0.337571 0.335517,0.337571 0.124621,0 0.160911,-0.07327 0.334148,-0.671034 0.05957,-0.204049 0.124621,-0.375916 0.143793,-0.381394 0.02054,-0.0055 0.03424,0.301281 0.03218,0.682675 -0.0034,0.65734 -0.06436,0.842216 -0.306074,0.938078 -0.114349,0.04451 -0.350581,0.0075 -0.350581,-0.05478 0,-0.03287 -0.08285,-0.06847 -0.197202,-0.08354 a 1.3146796,1.3146796 0 0 0 -0.215612,-0.01839 c -0.136946,0.05752 -0.271838,0.230068 -0.316345,0.40399 -0.05204,0.203364 -0.06847,0.216374 -0.25335,0.210211 -0.181453,-0.0068 -0.204049,-0.02876 -0.269098,-0.258827 -0.03834,-0.139 -0.09586,-0.399882 -0.12736,-0.581335 -0.0315,-0.181453 -0.09586,-0.329355 -0.142424,-0.329355 -0.04656,0 -0.08491,0.05136 -0.08491,0.115035 0,0.063 -0.04245,0.12599 -0.09518,0.139 -0.110926,0.02807 -0.276631,0.424532 -0.280054,0.672404 -0.0027,0.202679 -0.05615,0.247872 -0.294434,0.247872 -0.216374,0 -0.247187,-0.03492 -0.318399,-0.359483 -0.07874,-0.362222 -0.157487,-0.527241 -0.25198,-0.527241 -0.04519,0 -0.08217,0.02054 -0.08217,0.04451 0,0.02533 -0.06847,0.05957 -0.152009,0.07737 -0.293064,0.06163 -0.414946,-0.03218 -0.414946,-0.319768 0,-0.143793 -0.03971,-0.27937 -0.08833,-0.30265 -0.04793,-0.0226 -0.117774,-0.162281 -0.154749,-0.309498 -0.04451,-0.178714 -0.109557,-0.277315 -0.195148,-0.295118 -0.07532,-0.01575 -0.128044,-0.07395 -0.128044,-0.140369 0,-0.134207 -0.149956,-0.254035 -0.39235,-0.31566 -0.123251,-0.0315 -0.174606,-0.07943 -0.174606,-0.164335 0,-0.08559 -0.03697,-0.119828 -0.130098,-0.119828 -0.09997,0 -0.147217,0.06573 -0.198571,0.277315 -0.05478,0.220483 -0.10271,0.284847 -0.238971,0.31703 -0.09381,0.0226 -0.184877,0.06779 -0.20268,0.100655 -0.02944,0.05341 -0.0808,0.06026 -0.480679,0.06505 -0.339626,0.0034 -0.46767,-0.0048 -0.529981,-0.03629 -0.04519,-0.0226 -0.110926,-0.169813 -0.145162,-0.32867 -0.03424,-0.157488 -0.09997,-0.324562 -0.145163,-0.371123 l -0.08217,-0.08354 -0.0096,0.07532 c -0.01096,0.08354 -0.217744,0.140369 -0.433434,0.119827 -0.112295,-0.01095 -0.143793,-0.0582 -0.143793,-0.217743 0,-0.176661 -0.02328,-0.206789 -0.182138,-0.2287 -0.270468,-0.03629 -0.28964,-0.03218 -0.28964,0.06163 0,0.07464 -0.02602,0.08422 -0.212266,0.07737 -0.152695,-0.0055 -0.221167,-0.0267 -0.242394,-0.07327 -0.0582,-0.128044 -0.191039,-0.06436 -0.249926,0.119143 -0.03287,0.102709 -0.09723,0.229384 -0.143793,0.282108 -0.04725,0.05272 -0.109557,0.156803 -0.137631,0.231439 -0.02944,0.07464 -0.07874,0.152694 -0.110241,0.173921 -0.07258,0.04793 -0.309498,0.0493 -0.380709,0.0021 -0.06916,-0.04588 -0.223222,-0.04725 -0.223222,-0.0014 0,0.01849 -0.07669,0.0404 -0.170497,0.04793 -0.225961,0.0178 -0.368385,0.130098 -0.44302,0.349211 -0.07669,0.223222 -0.120512,0.262936 -0.290325,0.262936 -0.0808,0 -0.135577,0.02397 -0.135577,0.05889 0,0.03218 -0.05478,0.0671 -0.121881,0.07806 -0.108872,0.01712 -0.207473,0.08217 -0.401936,0.265675 -0.03698,0.03492 -0.117089,0.05272 -0.216375,0.04793 -0.123251,-0.0068 -0.171182,-0.04793 -0.224591,-0.196517 -0.08148,-0.22733 -0.15064,-0.283478 -0.160911,-0.128729 -0.0055,0.07737 -0.063,0.12599 -0.186931,0.155433 -0.191039,0.04588 -0.256773,0.145163 -0.351266,0.527241 -0.05889,0.238971 -0.180768,0.301281 -0.443704,0.22733 -0.116404,-0.03287 -0.158857,-0.104078 -0.179399,-0.305389 -0.02602,-0.251295 -0.03629,-0.262936 -0.239655,-0.270468 -0.206788,-0.0068 -0.212266,-0.0021 -0.212266,0.207473 0,0.232808 -0.02533,0.243764 -0.571749,0.243764 -0.339626,0 -0.46767,-0.05615 -0.46767,-0.203365 0,-0.138315 -0.145162,-0.121882 -0.232808,0.0267 -0.08628,0.145162 -0.138315,0.17666 -0.293748,0.17666 -0.221168,0 -0.323877,-0.08628 -0.323877,-0.273892 0,-0.145162 -0.02807,-0.181453 -0.141739,-0.181453 -0.08765,0 -0.141739,0.0226 -0.141739,0.05957 0,0.03424 -0.08217,0.07258 -0.1883,0.0897 -0.149956,0.02397 -0.188986,0.05615 -0.188986,0.154064 0,0.07532 -0.04519,0.128044 -0.114349,0.133522 -0.07806,0.0068 -0.159542,0.177345 -0.260197,0.547783 -0.141055,0.519709 -0.15201,0.537512 -0.350582,0.54436 -0.287586,0.01027 -0.344418,0.114349 -0.602561,1.105152 -0.09381,0.360852 -0.165704,0.432749 -0.43001,0.432749 -0.180084,0 -0.210212,-0.04725 -0.380024,-0.590921 l -0.06094,-0.195833 -0.412207,0.0096 c -0.234177,0.0055 -0.412207,0 -0.412207,-0.01369 0,-0.01301 -0.04245,-0.02397 -0.09449,-0.02397 -0.05204,0 -0.09449,0.03698 -0.09449,0.08148 0,0.04451 -0.06368,0.09381 -0.141739,0.110242 -0.09312,0.01986 -0.141739,0.07327 -0.141739,0.156118 0,0.138315 -0.06573,0.155433 -0.602561,0.155433 -0.429325,0 -0.530665,-0.03766 -0.530665,-0.196517 0,-0.076 -0.03698,-0.139 -0.08217,-0.139 -0.08696,0 -0.198571,0.136946 -0.200625,0.244448 0,0.03561 -0.0582,0.07327 -0.128729,0.08422 -0.0808,0.01233 -0.147902,0.08559 -0.181454,0.198571 -0.07121,0.239655 -0.116403,0.263621 -0.493004,0.263621 -0.351266,0 -0.425902,0.02944 -0.425902,0.167074 0,0.10134 -0.195148,0.165019 -0.352635,0.115034 -0.05204,-0.01643 -0.123251,-0.143793 -0.157488,-0.282108 -0.03424,-0.138315 -0.100655,-0.283478 -0.145847,-0.323192 -0.04588,-0.03971 -0.110241,-0.184877 -0.143793,-0.321823 -0.03834,-0.155433 -0.112296,-0.267729 -0.197202,-0.298542 -0.07532,-0.02739 -0.139685,-0.09312 -0.143793,-0.145847 l -0.0068,-0.09655 -0.123936,0.09586 c -0.06847,0.05272 -0.177345,0.273892 -0.242394,0.490951 -0.201996,0.66898 -0.22733,0.71965 -0.371124,0.742246 -0.203364,0.03218 -0.476571,-0.01575 -0.476571,-0.08422 0,-0.08285 -0.254719,-0.07464 -0.32867,0.01096 a 0.3430492,0.3430492 0 0 1 -0.196517,0.08354 c -0.07464,0.0068 -0.135576,0.03903 -0.135576,0.07121 0,0.07395 -0.249242,0.100655 -0.376601,0.03971 -0.05272,-0.02465 -0.09586,-0.104763 -0.09586,-0.17666 0,-0.26362 -0.141054,-0.220482 -0.262251,0.08011 -0.200626,0.497113 -0.25335,0.582704 -0.361537,0.59229 -0.25335,0.02054 -0.344419,-0.07395 -0.424532,-0.442335 a 7.2177278,7.2177278 0 0 0 -0.17803,-0.653231 1.9261425,1.9261425 0 0 1 -0.09586,-0.506015 c 0,-0.267729 -0.07053,-0.380709 -0.236231,-0.380709 -0.06505,0 -0.143793,0.03287 -0.175291,0.0719 -0.03081,0.03972 -0.11298,0.0719 -0.181453,0.0719 -0.255404,0 -0.351951,-0.05957 -0.351951,-0.217059 a 0.67582747,0.67582747 0 0 0 -0.0596,-0.269113 c -0.05136,-0.09449 -0.09244,-0.110926 -0.296488,-0.117088 -0.199256,-0.0068 -0.256773,-0.02739 -0.354005,-0.12736 -0.06436,-0.06573 -0.144478,-0.232808 -0.178714,-0.371123 -0.102709,-0.418369 -0.251296,-0.528611 -0.380709,-0.282108 -0.07258,0.139 -0.188985,0.18967 -0.389611,0.170497 a 0.3642758,0.3642758 0 0 0 -0.234862,0.05478 c -0.119828,0.07943 -0.239655,0.10271 -0.461507,0.08833 -0.12736,-0.0089 -0.182823,-0.05752 -0.262936,-0.230754 -0.12736,-0.275261 -0.208843,-0.358798 -0.371123,-0.383448 -0.07053,-0.01027 -0.128045,-0.04451 -0.128045,-0.076 0,-0.03629 -0.06984,-0.063 -0.188985,-0.07258 -0.103394,-0.0082 -0.188985,-0.03081 -0.188985,-0.0493 0,-0.05272 -0.225961,-0.225961 -0.295118,-0.225961 -0.07943,0 -0.173921,0.09175 -0.175976,0.171183 0,0.03424 -0.06162,0.07532 -0.136261,0.09107 -0.0897,0.01917 -0.151325,0.09792 -0.184192,0.236231 -0.167074,0.713488 -0.273891,0.867552 -0.602561,0.867552 -0.0671,0 -0.147902,-0.03355 -0.180084,-0.07395 -0.05957,-0.07532 -0.07874,-0.07943 -0.524502,-0.104079 -0.2287,-0.01301 -0.265675,-0.0055 -0.336887,0.06368 -0.05478,0.05478 -0.134892,0.07806 -0.262251,0.07806 -0.154064,0 -0.187616,-0.01986 -0.212266,-0.12599 -0.03355,-0.149956 -0.206104,-0.169813 -0.208158,-0.02397 -0.0014,0.132838 -0.123251,0.183508 -0.350581,0.147902 -0.131468,-0.02054 -0.178029,-0.06984 -0.215005,-0.225961 -0.02602,-0.109556 -0.0897,-0.202679 -0.141739,-0.206788 -0.208842,-0.01643 -0.351266,0.03971 -0.410837,0.161596 -0.04451,0.09381 -0.104764,0.130783 -0.220483,0.136946 -0.238285,0.01164 -0.345788,-0.06231 -0.453975,-0.310182 -0.216374,-0.497798 -0.294434,-0.595714 -0.475202,-0.595714 -0.130098,0 -0.183507,0.02602 -0.231438,0.115034 -0.07737,0.141739 -0.164335,0.179399 -0.390296,0.168443 -0.115034,-0.0055 -0.198571,-0.03766 -0.241024,-0.09244 -0.178715,-0.230069 -0.46904,-0.483419 -0.603931,-0.526557 -0.136946,-0.04314 -0.319769,-0.390295 -0.40536,-0.766896 -0.05341,-0.235547 -0.08628,-0.275946 -0.228015,-0.282793 -0.109556,-0.0055 -0.165019,0.0068 -0.165019,0.03697 0,0.02465 -0.06368,0.06573 -0.141739,0.09175 -0.138315,0.04519 -0.145847,0.04519 -0.278,0.0021 a 0.34921176,0.34921176 0 0 1 -0.188985,-0.173921 c -0.130099,-0.317029 -0.185562,-0.40399 -0.215005,-0.332778 -0.07669,0.186931 -0.130099,0.228014 -0.303335,0.228014 -0.141054,0 -0.183508,-0.02533 -0.2287,-0.138315 -0.136945,-0.336202 -0.184876,-0.414945 -0.262251,-0.426586 -0.04519,-0.0068 -0.08217,0.03971 -0.08217,0.104764 0,0.07943 -0.04999,0.128729 -0.15201,0.15064 -0.267044,0.05615 -0.387557,-0.02944 -0.460823,-0.326616 -0.06094,-0.247872 -0.08491,-0.274576 -0.246502,-0.274576 -0.145163,0 -0.180769,0.0178 -0.181453,0.0897 -0.0014,0.133523 -0.09381,0.197887 -0.282793,0.197887 -0.201995,0 -0.282793,-0.04656 -0.282793,-0.162965 0,-0.05957 -0.03013,-0.07874 -0.09792,-0.06163 -0.05409,0.0137 -0.157487,0.201995 -0.229384,0.417685 -0.0719,0.217059 -0.17529,0.442335 -0.228699,0.501906 a 0.52244818,0.52244818 0 0 0 -0.10134,0.291695 c -0.0027,0.122566 -0.04725,0.194463 -0.132838,0.216374 -0.08559,0.02191 -0.152694,0.128044 -0.198571,0.312236 -0.04588,0.188301 -0.110241,0.288271 -0.197202,0.306759 -0.166389,0.03492 -0.325246,0.0089 -0.325246,-0.05272 0,-0.02739 -0.063,-0.07737 -0.139,-0.112296 -0.249241,-0.11435 -0.522448,-0.368384 -0.522448,-0.486842 0,-0.06368 -0.04108,-0.116404 -0.09244,-0.116404 -0.109556,0 -0.138315,0.03355 -0.291694,0.345788 -0.06437,0.130783 -0.173921,0.265675 -0.243764,0.299911 -0.06984,0.03424 -0.126675,0.111611 -0.127359,0.172552 0,0.07669 -0.04451,0.115719 -0.142424,0.125305 -0.07737,0.0075 -0.141739,0.0404 -0.141739,0.07327 0,0.03218 -0.04245,0.06573 -0.09381,0.07395 -0.05409,0.0082 -0.09449,0.128045 -0.09449,0.278 0,0.145163 -0.04451,0.284847 -0.09792,0.310182 -0.116403,0.05478 -0.399197,0.06094 -0.561477,0.01164 -0.10134,-0.0315 -0.133522,-0.03081 -0.26499,0.0027 -0.136946,0.03424 -0.160227,0.03424 -0.273892,-0.0055 -0.06847,-0.02397 -0.124621,-0.09449 -0.124621,-0.157488 0,-0.08901 -0.03698,-0.116404 -0.17666,-0.127359 -0.136946,-0.01096 -0.191724,-0.04725 -0.241024,-0.156803 -0.08217,-0.184877 -0.243764,-0.211582 -0.243764,-0.04108 0,0.09997 -0.04382,0.139685 -0.194463,0.173921 -0.223221,0.05136 -0.493005,0.02602 -0.54299,-0.05136 -0.109557,-0.171182 -0.271153,-0.07532 -0.290325,0.173237 -0.01164,0.15064 -0.159542,0.219113 -0.420424,0.193093 -0.09723,-0.0089 -0.141738,-0.09723 -0.180768,-0.356059 -0.05272,-0.345103 -0.207473,-0.547098 -0.421108,-0.547098 a 0.38344821,0.38344821 0 0 1 -0.220483,-0.09929 c -0.08902,-0.08354 -0.124621,-0.09381 -0.232808,-0.06573 -0.08422,0.02191 -0.158857,0.149956 -0.221852,0.38071 -0.102709,0.375916 -0.282108,0.653231 -0.450552,0.695684 -0.07806,0.01986 -0.158857,0.0096 -0.306758,-0.03834 l -0.201311,-0.06505 v 0.113665 c 0,0.09175 -0.03424,0.115719 -0.181453,0.125305 -0.134891,0.0089 -0.197202,0.04177 -0.245133,0.130099 -0.03492,0.06436 -0.140369,0.141054 -0.234862,0.171182 -0.164335,0.05136 -0.178029,0.05136 -0.356059,0.01096 -0.159542,-0.03697 -0.193093,-0.08901 -0.250611,-0.383448 -0.03629,-0.187616 -0.09107,-0.36633 -0.120512,-0.397143 -0.111611,-0.116404 -0.251295,0.02602 -0.291694,0.295803 -0.02533,0.169128 -0.08696,0.282793 -0.171183,0.317029 -0.07258,0.02876 -0.132152,0.07532 -0.132152,0.10271 0,0.02739 -0.06026,0.05478 -0.132838,0.06162 -0.09723,0.01027 -0.15064,0.08217 -0.195147,0.269099 -0.112296,0.4663 -0.235547,0.724443 -0.380025,0.79497 -0.07806,0.03834 -0.142424,0.09175 -0.142424,0.119143 0,0.03287 -0.06162,0.04862 -0.188985,0.04862 -0.160911,0 -0.188985,0.01643 -0.188985,0.109556 a 0.18350736,0.18350736 0 0 1 -0.09244,0.15338 c -0.05136,0.02465 -0.117774,0.123251 -0.147902,0.220482 -0.07874,0.25335 -0.113665,0.283478 -0.327985,0.283478 -0.156118,0 -0.1883,-0.01712 -0.195148,-0.10134 a 3.4318615,3.4318615 0 0 0 -0.117773,-0.449867 c -0.08901,-0.280739 -0.137631,-0.347157 -0.25198,-0.347157 -0.08422,0 -0.154064,0.0267 -0.171183,0.06573 -0.01712,0.03629 -0.0808,0.0671 -0.142423,0.06847 l -0.300596,0.0068 c -0.160227,0.0027 -0.195833,0.02465 -0.236232,0.146532 l -0.04725,0.143793 -0.445759,0.0034 c -0.532719,0.0034 -0.510807,0.01643 -0.590236,-0.338257 -0.07327,-0.3273 -0.123251,-0.395088 -0.294433,-0.395088 -0.100656,0 -0.133523,0.03492 -0.133523,0.143793 0,0.135576 -0.01301,0.143793 -0.22596,0.143793 -0.272522,0 -0.340995,-0.03903 -0.340995,-0.193778 0,-0.06505 -0.04245,-0.117774 -0.09449,-0.117774 -0.05204,0 -0.09518,0.05615 -0.09586,0.125306 -0.0021,0.145847 -0.09175,0.193778 -0.34031,0.182138 -0.139685,-0.0068 -0.195833,-0.04108 -0.261566,-0.158173 -0.04656,-0.08217 -0.116404,-0.149271 -0.157488,-0.149271 -0.03971,0 -0.102709,0.09312 -0.14037,0.206788 -0.03697,0.113665 -0.12599,0.234862 -0.196517,0.269099 -0.07121,0.03424 -0.129414,0.106818 -0.130098,0.160227 a 0.13078323,0.13078323 0 0 1 -0.09175,0.119827 c -0.05067,0.01301 -0.136946,0.104079 -0.191724,0.20268 -0.136261,0.246502 -0.168443,0.267044 -0.409468,0.258827 -0.171867,-0.0068 -0.215005,-0.02876 -0.268414,-0.139684 -0.180083,-0.375232 -0.23897,-0.457399 -0.342364,-0.484104 -0.06231,-0.01575 -0.113665,-0.04451 -0.113665,-0.06368 0,-0.01917 -0.0719,-0.05546 -0.160912,-0.08011 -0.154064,-0.04382 -0.249241,-0.160226 -0.371123,-0.456029 -0.04998,-0.121197 -0.08217,-0.137631 -0.262936,-0.137631 -0.356059,0 -0.432748,-0.04588 -0.432748,-0.256773 0,-0.158857 -0.02739,-0.198572 -0.138315,-0.198572 -0.206104,0 -0.313606,-0.06847 -0.377971,-0.241024 -0.132837,-0.356059 -0.162965,-0.406044 -0.246502,-0.406044 -0.04793,0 -0.08765,0.03013 -0.08765,0.0671 0,0.03697 -0.03903,0.07737 -0.08764,0.0897 -0.04793,0.01233 -0.136261,0.136261 -0.195148,0.273891 -0.05957,0.139 -0.147216,0.285532 -0.195832,0.325931 a 0.28758616,0.28758616 0 0 0 -0.08765,0.195148 c 0,0.08559 -0.04177,0.125305 -0.141739,0.134891 -0.07806,0.0075 -0.141739,0.04108 -0.141739,0.07327 0,0.03287 -0.03903,0.06505 -0.08696,0.07258 -0.04793,0.0075 -0.114349,0.09723 -0.149271,0.199256 -0.0808,0.239655 -0.117773,0.269098 -0.336886,0.269098 -0.128045,0 -0.182823,-0.01643 -0.182823,-0.05478 0,-0.05341 -0.155433,-0.11298 -0.296488,-0.11298 -0.03834,0 -0.08217,0.03561 -0.09929,0.07806 -0.0226,0.05957 -0.07874,0.08011 -0.24171,0.08559 -0.160226,0.0055 -0.212266,-0.0041 -0.212266,-0.04108 0,-0.02602 -0.06436,-0.109556 -0.142423,-0.186246 a 0.51970927,0.51970927 0 0 1 -0.141724,-0.320369 c 0,-0.172552 -0.01369,-0.184877 -0.24034,-0.210897 -0.317029,-0.03629 -0.325931,-0.03561 -0.325931,0.02191 0,0.119142 -0.374547,0.187615 -0.550522,0.09997 -0.04725,-0.0226 -0.11298,-0.165704 -0.147217,-0.317029 -0.06847,-0.30539 -0.133522,-0.407414 -0.258142,-0.407414 -0.04588,0 -0.08354,0.04519 -0.08354,0.09997 0,0.106133 -0.121197,0.226646 -0.340311,0.338941 -0.07258,0.03766 -0.132837,0.11298 -0.133522,0.167759 -0.0021,0.12599 -0.10134,0.166389 -0.386187,0.156118 -0.164335,-0.0062 -0.237601,-0.02739 -0.273207,-0.07874 -0.09449,-0.139685 -0.237601,-0.06984 -0.288271,0.142424 -0.02876,0.118458 -0.08354,0.232808 -0.121197,0.253349 -0.03834,0.02054 -0.09997,0.160912 -0.136946,0.311552 -0.06436,0.258143 -0.07943,0.273892 -0.27663,0.280739 -0.196517,0.0075 -0.210897,0.02191 -0.236232,0.228015 -0.02533,0.204734 -0.04177,0.221167 -0.230068,0.228014 -0.149956,0.0055 -0.2287,-0.01095 -0.299912,-0.06026 -0.09244,-0.06436 -0.09655,-0.063 -0.104079,0.03629 -0.0089,0.129414 -0.140369,0.195148 -0.360167,0.180768 -0.194463,-0.01301 -0.37797,0.09792 -0.484103,0.29101 -0.08285,0.15064 -0.155434,0.179399 -0.443705,0.179399 -0.217059,0 -0.230753,0.0082 -0.230753,0.132838 0,0.09792 -0.03834,0.136261 -0.147902,0.146532 a 0.85454172,0.85454172 0 0 1 -0.234177,-0.0068 c -0.06847,-0.0178 -0.167074,-0.371123 -0.280739,-1.003128 -0.0027,-0.01369 -0.0671,-0.04519 -0.143793,-0.07053 -0.136946,-0.04588 -0.139685,-0.04588 -0.27663,0 -0.07669,0.02533 -0.14037,0.09586 -0.141739,0.155434 -0.0034,0.123936 -0.184877,0.205418 -0.407414,0.183507 -0.08217,-0.0075 -0.162281,-0.04451 -0.179399,-0.08148 -0.01849,-0.04108 -0.09449,-0.06984 -0.195833,-0.07532 -0.140369,-0.0068 -0.165019,0.01164 -0.166389,0.119828 -0.0021,0.145847 -0.08217,0.191039 -0.337571,0.1883 -0.875768,-0.0068 -0.837424,-0.0014 -0.894941,-0.143793 a 0.52313291,0.52313291 0 0 0 -0.205418,-0.216374 l -0.150641,-0.08354 -0.0082,0.109556 c -0.0041,0.05957 -0.06984,0.130099 -0.146532,0.155434 -0.076,0.02534 -0.139684,0.09723 -0.141738,0.160226 -0.0021,0.0808 -0.05683,0.12736 -0.191725,0.161597 -0.118458,0.03013 -0.188985,0.08011 -0.188985,0.133522 0,0.134207 -0.275261,0.321822 -0.473147,0.321822 -0.09244,0 -0.193779,-0.01712 -0.225276,-0.03766 z"
   style="fill:#005d5d;fill-opacity:1;stroke:none;stroke-width:0.0475761;stroke-opacity:1"
   id="path1513" />
    <path
   d="M 11.323069,24.192229 H 99.189541"
   style="fill:none;stroke:#005d5d;stroke-width:0.684729;stroke-linecap:square;stroke-linejoin:round;stroke-dasharray:none;stroke-opacity:1;paint-order:markers fill stroke;stop-color:#000000"
   id="path1515" />
    <path
   d="M 11.323069,19.8442 H 99.189541"
   style="fill:none;stroke:#8a3ffc;stroke-width:0.684729;stroke-linecap:square;stroke-linejoin:round;stroke-dasharray:none;stroke-opacity:1;paint-order:markers fill stroke;stop-color:#000000"
   id="path1517" />
    
    <text
   xml:space="preserve"
   x="-52.835365"
   y="3.7907302"
   style="font-style:normal;font-variant:normal;font-weight:400;font-stretch:normal;font-size:5.79737px;line-height:normal;font-family:'IBM Plex Sans';-inkscape-font-specification:'IBM Plex Sans, Normal ';font-variant-ligatures:normal;font-variant-caps:normal;font-variant-numeric:normal;font-variant-east-asian:normal;text-decoration-color:#000000;fill:#002d9c;fill-opacity:1;stroke:#4589ff;stroke-width:0.684729;stroke-linecap:square;stroke-linejoin:round;stroke-dasharray:none;stroke-opacity:1;paint-order:markers fill stroke;stop-color:#000000"
   transform="rotate(-91.085)"
   id="text1523"><tspan
     x="-52.835365"
     y="3.7907302"
     style="font-style:normal;font-variant:normal;font-weight:400;font-stretch:normal;font-size:5.79737px;font-family:'IBM Plex Sans';-inkscape-font-specification:'IBM Plex Sans, Normal ';font-variant-ligatures:normal;font-variant-caps:normal;font-variant-numeric:normal;font-variant-east-asian:normal;fill:#002d9c;fill-opacity:1;stroke:none;stroke-width:0.684729"
     id="tspan1521">more profit</tspan></text>
    <text
   xml:space="preserve"
   x="46.778381"
   y="83.054588"
   style="font-style:normal;font-variant:normal;font-weight:400;font-stretch:normal;font-size:5.79737px;line-height:normal;font-family:'IBM Plex Sans';-inkscape-font-specification:'IBM Plex Sans, Normal ';font-variant-ligatures:normal;font-variant-caps:normal;font-variant-numeric:normal;font-variant-east-asian:normal;text-decoration-color:#000000;fill:#002d9c;fill-opacity:1;stroke:#4589ff;stroke-width:0.684729;stroke-linecap:square;stroke-linejoin:round;stroke-dasharray:none;stroke-opacity:1;paint-order:markers fill stroke;stop-color:#000000"
   transform="rotate(-1.085)"
   id="text1527"><tspan
     x="46.778381"
     y="83.054588"
     style="font-style:normal;font-variant:normal;font-weight:400;font-stretch:normal;font-size:5.79737px;font-family:'IBM Plex Sans';-inkscape-font-specification:'IBM Plex Sans, Normal ';font-variant-ligatures:normal;font-variant-caps:normal;font-variant-numeric:normal;font-variant-east-asian:normal;fill:#002d9c;fill-opacity:1;stroke:none;stroke-width:0.684729"
     id="tspan1525">time</tspan></text>
    <text
   xml:space="preserve"
   x="46.28606"
   y="18.735252"
   style="font-style:normal;font-variant:normal;font-weight:400;font-stretch:normal;font-size:5.79737px;line-height:normal;font-family:'IBM Plex Sans';-inkscape-font-specification:'IBM Plex Sans, Normal ';font-variant-ligatures:normal;font-variant-caps:normal;font-variant-numeric:normal;font-variant-east-asian:normal;text-decoration-color:#000000;fill:#002d9c;fill-opacity:1;stroke:#4589ff;stroke-width:0.684729;stroke-linecap:square;stroke-linejoin:round;stroke-dasharray:none;stroke-opacity:1;paint-order:markers fill stroke;stop-color:#000000"
   transform="rotate(-1.085)"
   id="text1531"><tspan
     x="46.28606"
     y="18.735252"
     style="font-style:normal;font-variant:normal;font-weight:400;font-stretch:normal;font-size:5.79737px;font-family:'IBM Plex Sans';-inkscape-font-specification:'IBM Plex Sans, Normal ';font-variant-ligatures:normal;font-variant-caps:normal;font-variant-numeric:normal;font-variant-east-asian:normal;fill:#002d9c;fill-opacity:1;stroke:none;stroke-width:0.684729"
     id="tspan1529">Operating constraint</tspan></text>
    <text
   xml:space="preserve"
   x="99.285446"
   y="31.912178"
   style="font-style:normal;font-variant:normal;font-weight:400;font-stretch:normal;font-size:5.79737px;line-height:normal;font-family:'IBM Plex Sans';-inkscape-font-specification:'IBM Plex Sans, Normal ';font-variant-ligatures:normal;font-variant-caps:normal;font-variant-numeric:normal;font-variant-east-asian:normal;text-decoration-color:#000000;fill:#002d9c;fill-opacity:1;stroke:#4589ff;stroke-width:0.684729;stroke-linecap:square;stroke-linejoin:round;stroke-dasharray:none;stroke-opacity:1;paint-order:markers fill stroke;stop-color:#000000"
   transform="rotate(-1.085)"
   id="text1535"><tspan
     x="99.285446"
     y="31.912178"
     style="font-style:normal;font-variant:normal;font-weight:400;font-stretch:normal;font-size:5.79737px;font-family:'IBM Plex Sans';-inkscape-font-specification:'IBM Plex Sans, Normal ';font-variant-ligatures:normal;font-variant-caps:normal;font-variant-numeric:normal;font-variant-east-asian:normal;text-align:end;text-anchor:end;fill:#002d9c;fill-opacity:1;stroke:none;stroke-width:0.684729"
     id="tspan1533">SP</tspan></text>
    <text
   xml:space="preserve"
   x="46.723602"
   y="46.978954"
   style="font-style:normal;font-variant:normal;font-weight:400;font-stretch:normal;font-size:5.79737px;line-height:normal;font-family:'IBM Plex Sans';-inkscape-font-specification:'IBM Plex Sans, Normal ';font-variant-ligatures:normal;font-variant-caps:normal;font-variant-numeric:normal;font-variant-east-asian:normal;text-decoration-color:#000000;fill:#002d9c;fill-opacity:1;stroke:#4589ff;stroke-width:0.684729;stroke-linecap:square;stroke-linejoin:round;stroke-dasharray:none;stroke-opacity:1;paint-order:markers fill stroke;stop-color:#000000"
   transform="rotate(-1.085)"
   id="text1539"><tspan
     x="46.723602"
     y="46.978954"
     style="font-style:normal;font-variant:normal;font-weight:400;font-stretch:normal;font-size:5.79737px;font-family:'IBM Plex Sans';-inkscape-font-specification:'IBM Plex Sans, Normal ';font-variant-ligatures:normal;font-variant-caps:normal;font-variant-numeric:normal;font-variant-east-asian:normal;fill:#002d9c;fill-opacity:1;stroke:none;stroke-width:0.684729"
     id="tspan1537">PV tightly controlled</tspan></text>
    <path
   d="M 46.197683,44.121265 H 38.0453 L 27.175228,27.995898"
   style="fill:none;fill-opacity:1;stroke:#002d9c;stroke-width:0.684729;stroke-linecap:square;stroke-linejoin:round;stroke-dasharray:none;stroke-opacity:1;paint-order:markers fill stroke;stop-color:#000000"
   id="path1541" />
<path
   style="fill:none;stroke:#002d9c;stroke-width:0.684725;stroke-linecap:square;stroke-linejoin:round;marker-start:url(#TriangleStart);marker-end:url(#TriangleStart);paint-order:markers fill stroke;stop-color:#000000;stroke-opacity:1"
   d="M 10.58387,2.3797099 V 73.940797 h 86.054472"
   id="path938"
   sodipodi:nodetypes="ccc" /></svg>
