<?xml version="1.0" encoding="UTF-8" standalone="no"?>
<svg
   xml:space="preserve"
   width="99.999947mm"
   height="80.745735mm"
   viewBox="0 0 99.999689 80.745651"
   version="1.1"
   id="svg37"
   sodipodi:docname="01-recap-fig1-pv_poorly_controlled.svg"
   inkscape:version="1.2.2 (732a01da63, 2022-12-09)"
   inkscape:export-filename="01-recap-fig1-pv_poorly_controlled.png"
   inkscape:export-xdpi="300"
   inkscape:export-ydpi="300"
   xmlns:inkscape="http://www.inkscape.org/namespaces/inkscape"
   xmlns:sodipodi="http://sodipodi.sourceforge.net/DTD/sodipodi-0.dtd"
   xmlns="http://www.w3.org/2000/svg"
   xmlns:svg="http://www.w3.org/2000/svg"><sodipodi:namedview
   id="namedview39"
   pagecolor="#ffffff"
   bordercolor="#000000"
   borderopacity="0.25"
   inkscape:showpageshadow="2"
   inkscape:pageopacity="0.0"
   inkscape:pagecheckerboard="0"
   inkscape:deskcolor="#d1d1d1"
   showgrid="true"
   inkscape:zoom="4.3884168"
   inkscape:cx="98.668841"
   inkscape:cy="175.68978"
   inkscape:window-width="4096"
   inkscape:window-height="2097"
   inkscape:window-x="-8"
   inkscape:window-y="-8"
   inkscape:window-maximized="1"
   inkscape:current-layer="svg37"
   inkscape:document-units="mm"><inkscape:grid
     type="xygrid"
     id="grid882"
     originx="0.00056567436"
     originy="-0.4176883" /></sodipodi:namedview>
    <defs
   id="defs5"><marker
   style="overflow:visible"
   id="TriangleStart"
   refX="0"
   refY="0"
   orient="auto-start-reverse"
   inkscape:stockid="TriangleStart"
   markerWidth="5.3244081"
   markerHeight="4.1550002"
   viewBox="0 0 5.3244081 6.1553851"
   inkscape:isstock="true"
   inkscape:collect="always"
   preserveAspectRatio="none"><path
     transform="scale(0.5)"
     style="fill:context-stroke;fill-rule:evenodd;stroke:context-stroke;stroke-width:1pt"
     d="M 5.77,0 -2.88,5 V -5 Z"
     id="path135" /></marker>
        <marker
   id="a"
   markerHeight="3.155"
   markerUnits="userSpaceOnUse"
   markerWidth="5.3239999"
   orient="auto-start-reverse"
   preserveAspectRatio="none"
   refX="0"
   refY="0"
   style="overflow:visible"
   viewBox="0 0 5.324 6.155">
            <path
   d="M 5.77,0 -2.88,5 V -5 Z"
   style="fill:context-stroke;fill-rule:evenodd;stroke:context-stroke;stroke-width:1pt"
   transform="scale(0.5)"
   id="path2" />
        </marker>
    </defs>
    <path
   d="m 22.03281,44.747847 c -0.0308,-0.0685 -0.0568,-0.260199 -0.0568,-0.425899 0,-0.32799 -0.232119,-0.762099 -0.495739,-0.927808 -0.12736,-0.0808 -0.16707,-0.22596 -0.17187,-0.631319 -0.0089,-0.680619 -0.166389,-1.03394 -0.175979,-0.393719 -0.0034,0.246499 -0.0493,0.469719 -0.101337,0.496429 -0.0514,0.0274 -0.0945,0.221169 -0.0945,0.431379 0,0.448499 -0.0685,0.631318 -0.235549,0.631318 -0.18008,0 -0.21227,-0.121875 -0.287591,-1.098987 -0.0589,-0.757309 -0.0945,-0.894259 -0.237598,-0.925748 -0.256091,-0.0555 -0.466979,-0.705269 -0.466979,-1.438614 0,-0.566269 -0.0192,-0.637479 -0.164331,-0.614199 -0.0979,0.0151 -0.18488,0.121875 -0.21364,0.261571 -0.0657,0.317028 -0.410839,0.334148 -0.454657,0.0226 -0.0157,-0.116401 -0.101338,-0.232121 -0.188981,-0.254721 -0.23623,-0.063 -0.40399,-0.537509 -0.501219,-1.421494 -0.0479,-0.432749 -0.12804,-0.938078 -0.1794,-1.122952 -0.0507,-0.18488 -0.0924,-0.55805 -0.0924,-0.830579 0,-0.313609 -0.0514,-0.551209 -0.139,-0.64844 -0.076,-0.0835 -0.13969,-0.290328 -0.14174,-0.458769 -0.0027,-0.299228 -0.134209,-0.798388 -0.292379,-1.110628 -0.0438,-0.0863 -0.10065,-0.35195 -0.12599,-0.590239 -0.14722,-1.379041 -0.321819,-2.045966 -0.534089,-2.045966 -0.0972,0 -0.180769,0.3047 -0.184189,0.668979 -0.0034,0.416999 -0.12668,0.579968 -0.351269,0.464249 -0.118462,-0.0616 -0.17666,-0.20679 -0.19652,-0.491639 -0.0226,-0.324559 -0.0616,-0.405358 -0.19378,-0.405358 -0.308809,0 -0.391669,-0.17187 -0.395089,-0.822359 -0.0021,-0.431379 -0.0466,-0.681989 -0.141049,-0.786068 -0.102712,-0.1123 -0.139,-0.376599 -0.139,-0.996968 0,-0.914109 -0.0171,-0.942868 -0.523819,-0.878509 -0.370439,0.0472 -0.474519,-0.0678 -0.547779,-0.603928 -0.0342,-0.26157 -0.113675,-0.455339 -0.20131,-0.495739 -0.10545,-0.0493 -0.143789,-0.20199 -0.143789,-0.570378 0,-0.276631 -0.0349,-0.52039 -0.0774,-0.54299 -0.0425,-0.0219 -0.191719,0.0479 -0.330719,0.15612 -0.19994,0.154059 -0.25335,0.26773 -0.25335,0.536829 0,0.358109 -0.15817,0.552578 -0.364279,0.446439 -0.18077,-0.0931 -0.292379,-0.594338 -0.294429,-1.327686 -0.0021,-0.50533 -0.0342,-0.661449 -0.143791,-0.697049 -0.102708,-0.0322 -0.143109,-0.16913 -0.145159,-0.489579 -0.0021,-0.26499 -0.0589,-0.505329 -0.14174,-0.596399 -0.076,-0.0842 -0.141739,-0.278679 -0.145849,-0.432749 -0.0068,-0.25746 -0.0137,-0.26431 -0.0863,-0.0835 a 4.4027983,4.4027983 0 0 0 -0.13763,0.41837 c -0.0493,0.184879 -0.101339,0.217739 -0.314289,0.196519 -0.21637,-0.0205 -0.26431,0.01025 -0.31566,0.211579 -0.0342,0.1301 -0.0664,-0.443018 -0.0726,-1.272909 -0.0062,-0.829208 0.0151,-1.563917 0.0466,-1.632389 0.0315,-0.0685 0.136951,-0.124625 0.235551,-0.124625 0.136259,0 0.179399,0.0568 0.179399,0.23623 0,0.312239 0.241029,0.312239 0.316349,0 0.039,-0.164329 0.1123,-0.23623 0.237599,-0.23623 0.20405,0 0.24582,0.14037 0.383449,1.298244 0.0849,0.712118 0.143791,0.968887 0.2917,1.259898 0.0438,0.0863 0.106825,0.325251 0.13969,0.530659 0.0466,0.290329 0.0979,0.373859 0.230749,0.373859 0.115037,0 0.19035,-0.0781 0.22802,-0.236228 0.0452,-0.186251 0.106125,-0.236231 0.291689,-0.236231 0.2691,0 0.386869,0.145851 0.479309,0.5916 0.089,0.437539 0.25198,0.842218 0.39646,0.988748 0.0671,0.0685 0.121875,0.183508 0.121875,0.256089 0,0.0842 0.0774,0.131468 0.21774,0.131468 0.27663,0 0.443709,0.139002 0.443709,0.369751 0,0.101337 0.0575,0.18077 0.1301,0.18077 0.175289,0 0.245129,0.247869 0.246499,0.870978 0,0.284159 0.0411,0.709379 0.089,0.944928 0.0479,0.234859 0.11435,0.595709 0.147219,0.801129 0.0472,0.293749 0.0972,0.373858 0.23555,0.373858 0.0959,0 0.19378,0.0438 0.21706,0.0979 0.0931,0.215009 0.445759,-0.270469 0.445759,-0.612148 0,-0.36701 0.175969,-0.567639 0.361538,-0.41289 0.0616,0.0507 0.110925,0.27731 0.110925,0.50328 0,0.258139 0.0438,0.422478 0.118463,0.443018 0.0733,0.0205 0.14037,0.26705 0.17871,0.655969 0.13831,1.412593 0.270469,2.268502 0.361539,2.344508 0.0534,0.0445 0.0972,0.284158 0.0972,0.532717 0,0.24856 0.0383,0.471779 0.0856,0.495739 0.191719,0.0986 0.384129,0.938078 0.480679,2.089788 0.108188,1.299613 0.247869,1.889165 0.448499,1.889165 0.0685,0 0.148589,0.106125 0.180079,0.23623 0.0979,0.406729 0.20336,0.258829 0.26773,-0.37386 0.0767,-0.758678 0.102713,-0.825098 0.308129,-0.792228 0.12531,0.0199 0.18351,0.14037 0.23829,0.497799 0.127359,0.821668 0.241029,1.797408 0.249929,2.138402 0.0068,0.278 0.0411,0.33278 0.2198,0.354001 0.15064,0.0178 0.225959,0.0918 0.260199,0.254718 0.0705,0.340309 0.283479,0.356739 0.283479,0.0219 0,-0.207468 0.0459,-0.282789 0.19104,-0.314289 0.28895,-0.063 0.470409,0.146531 0.470409,0.54162 0,0.481359 0.18762,0.938758 0.420419,1.02435 0.15132,0.0548 0.199939,0.1568 0.223219,0.46425 0.0336,0.451919 0.20679,0.689518 0.20679,0.283479 0,-0.192409 0.0479,-0.269099 0.18898,-0.299909 0.16981,-0.037 0.18899,-0.1075 0.18899,-0.691579 0,-0.462188 0.0383,-0.676508 0.132149,-0.741558 0.0924,-0.0637 0.15338,-0.374549 0.19994,-1.013397 0.0685,-0.936708 0.142419,-1.142125 0.383449,-1.065435 0.0924,0.0294 0.13421,0.170499 0.13421,0.449869 0,0.223909 0.0589,0.477259 0.1301,0.562159 0.0719,0.0856 0.149269,0.225959 0.172549,0.312919 0.0226,0.0863 0.0746,-0.16776 0.115025,-0.565588 0.0507,-0.4978 0.11435,-0.735399 0.204729,-0.764159 0.18967,-0.0603 0.32182,0.200629 0.32319,0.636108 7e-4,0.20816 0.0281,0.514229 0.0616,0.679939 0.0767,0.390299 0.217059,0.224589 0.221169,-0.261569 0.0034,-0.40741 0.110238,-0.592979 0.306069,-0.53066 0.0979,0.0315 0.15543,0.241711 0.20063,0.734709 0.0349,0.380019 0.0815,0.705268 0.102713,0.723069 0.110238,0.0918 0.24171,-0.110938 0.297169,-0.4574 0.0712,-0.447808 0.20336,-0.570378 0.574489,-0.534768 0.21706,0.0205 0.27663,0.0746 0.33209,0.301279 l 0.167069,0.668298 c 0.0534,0.21637 0.12325,0.668289 0.15338,1.00381 0.039,0.430689 0.0918,0.609409 0.180079,0.609409 0.171179,0 0.493009,-0.582019 0.588869,-1.061328 0.0623,-0.319079 0.12599,-0.413579 0.334829,-0.497109 0.217059,-0.0863 0.257459,-0.15201 0.257459,-0.417679 0,-0.443699 0.14037,-0.629949 0.45398,-0.603249 0.249239,0.0212 0.255399,0.01163 0.282789,-0.458769 0.024,-0.423159 0.0548,-0.491639 0.259509,-0.568329 0.21911,-0.0835 0.23212,-0.124625 0.23212,-0.743618 0,-0.36017 0.0383,-0.688839 0.0856,-0.729918 0.0472,-0.0411 0.13489,-0.58818 0.19515,-1.215392 0.0774,-0.810718 0.150639,-1.175678 0.250611,-1.259898 0.125308,-0.104075 0.156118,-0.100663 0.277308,0.0356 0.0746,0.0835 0.135581,0.21227 0.135581,0.286219 0,0.074 0.063,0.15406 0.138998,0.17803 0.228019,0.0733 0.427959,-0.1705 0.430009,-0.524499 0.0034,-0.456709 0.14379,-0.913428 0.313611,-1.023668 0.0787,-0.0507 0.157488,-0.18077 0.173918,-0.28895 0.0171,-0.110925 0.0918,-0.196519 0.17118,-0.196519 0.178031,0 0.366331,0.445069 0.373181,0.879878 0.0027,0.18145 0.0479,0.421789 0.0986,0.534089 0.0787,0.17255 0.12325,0.19172 0.276629,0.12325 0.26225,-0.1164 0.481359,-0.0185 0.543669,0.24308 0.037,0.152699 0.1123,0.225959 0.23144,0.225959 0.13695,0 0.17803,0.0589 0.17803,0.256089 0.0021,0.39304 0.109563,0.845638 0.200629,0.845638 0.0452,0 0.0822,-0.191719 0.0822,-0.425898 0,-0.52245 0.0644,-0.675829 0.283479,-0.675829 0.24308,0 0.28348,0.152009 0.28348,1.068859 0,0.780588 0.0986,1.051056 0.227329,0.623099 0.0329,-0.108187 0.101337,-0.196521 0.15201,-0.196521 0.0514,0 0.0931,-0.0815 0.0931,-0.180769 0,-0.1 0.0431,-0.21706 0.0959,-0.261569 0.0534,-0.0445 0.13695,-0.45877 0.18556,-0.920279 0.0486,-0.461509 0.132839,-0.908628 0.186929,-0.992858 0.0541,-0.0835 0.0979,-0.345099 0.0979,-0.580649 0,-0.284849 0.0479,-0.461508 0.14174,-0.526558 0.106125,-0.0733 0.14174,-0.27047 0.14174,-0.788119 0,-0.580648 0.026,-0.698418 0.162969,-0.742248 0.23281,-0.0746 0.403989,0.15954 0.403989,0.551889 0,0.197199 0.0568,0.369069 0.14174,0.427959 0.0918,0.063 0.14174,0.237599 0.14174,0.495739 0,0.469039 0.16981,0.918908 0.401249,1.062697 0.1212,0.0753 0.165699,0.214319 0.165699,0.521079 0,0.679248 0.0842,0.910688 0.332089,0.910688 0.24034,0 0.26225,0.065 0.43823,1.3181 0.0698,0.49095 0.14242,0.727869 0.223219,0.727869 0.15612,0 0.23418,0.180079 0.23418,0.540249 0,0.15954 0.0596,0.361539 0.132149,0.447809 0.0726,0.087 0.16297,0.360169 0.19994,0.608038 0.037,0.24787 0.0959,0.45055 0.130099,0.45055 0.0856,0 0.29306,-0.771689 0.29649,-1.104467 0.0021,-0.150639 0.0657,-0.342359 0.14174,-0.425899 0.0767,-0.0842 0.138999,-0.319769 0.138999,-0.526559 0,-0.205419 0.0425,-0.395769 0.0945,-0.422479 0.0514,-0.0267 0.0945,-0.260199 0.0945,-0.517649 0,-0.429329 0.0205,-0.477259 0.246499,-0.562848 0.21158,-0.0801 0.26499,-0.0726 0.377291,0.0561 0.0726,0.0822 0.131468,0.230069 0.131468,0.328669 0,0.127359 0.0411,0.166389 0.14174,0.134209 0.0979,-0.0315 0.141741,-0.159539 0.141741,-0.415629 0,-0.460818 0.19035,-0.719648 0.414938,-0.564218 a 0.40809766,0.40809766 0 0 1 0.152011,0.300599 c 0,0.13558 0.0411,0.18214 0.132838,0.1527 0.150641,-0.0479 0.434121,0.178029 0.434121,0.347839 0,0.0616 0.0959,0.147899 0.212269,0.190359 0.17803,0.065 0.21706,0.148591 0.24034,0.521759 0.0233,0.363589 0.0616,0.451919 0.212269,0.484789 0.12325,0.0274 0.184878,0.108188 0.184878,0.24445 0,0.396459 0.180771,0.19789 0.243762,-0.26841 0.0575,-0.424529 0.0856,-0.472459 0.282109,-0.472459 0.176659,0 0.223909,-0.0479 0.247869,-0.255399 0.0219,-0.19378 0.0746,-0.2554 0.215689,-0.2554 0.15338,0 0.20336,0.0822 0.28348,0.46562 0.0534,0.256089 0.150639,0.480678 0.21501,0.498478 0.065,0.0178 0.119137,0.12668 0.1212,0.24239 a 0.60940753,0.60940753 0 0 0 0.12804,0.346469 c 0.118463,0.1301 0.13215,0.1301 0.271839,0 a 0.68267338,0.68267338 0 0 0 0.17872,-0.330039 c 0.0219,-0.1301 0.109563,-0.20884 0.268409,-0.23966 0.23623,-0.0459 0.23623,-0.0479 0.35469,-1.498183 0.160229,-1.963114 0.213629,-2.384223 0.314979,-2.471868 0.0479,-0.0411 0.0863,-0.152009 0.0863,-0.246499 0,-0.0938 0.0582,-0.211579 0.129409,-0.260199 0.0746,-0.052 0.15475,-0.33004 0.19036,-0.659389 0.14242,-1.329741 0.19857,-1.47422 0.574489,-1.47422 0.411519,0 0.522449,0.22185 0.522449,1.049003 0,0.418371 0.0383,0.76073 0.0842,0.76073 0.11435,0 0.199259,-0.201309 0.199259,-0.472459 0,-0.143791 0.0596,-0.241711 0.16502,-0.271151 0.156119,-0.0431 0.398509,-0.407409 0.543669,-0.816878 0.0507,-0.14379 0.111613,-0.17392 0.280739,-0.139 0.18214,0.0383 0.224589,0.0068 0.273889,-0.199939 0.0329,-0.13489 0.0589,-0.572429 0.0589,-0.972998 0,-0.531349 0.0363,-0.753198 0.13352,-0.820309 0.074,-0.0507 0.1616,-0.258829 0.19583,-0.462188 0.0342,-0.20336 0.12531,-0.440969 0.20268,-0.527239 0.139689,-0.155429 0.143109,-0.155429 0.277319,-0.0048 0.0746,0.0842 0.135579,0.20816 0.135579,0.27663 0,0.0678 0.0959,0.158169 0.21227,0.201309 0.173922,0.063 0.225282,0.164339 0.280052,0.549838 0.14722,1.038733 0.22528,1.450255 0.28348,1.498871 0.0342,0.0274 0.0911,-0.20063 0.127355,-0.50738 0.0548,-0.460818 0.0959,-0.558738 0.23281,-0.558738 0.19789,0 0.25335,0.104075 0.33757,0.629948 0.0931,0.586809 0.21843,0.606669 0.362911,0.0589 0.0452,-0.17529 0.108875,-0.21637 0.3273,-0.21637 0.30607,0 0.38345,0.13695 0.3855,0.688149 5e-4,0.282109 0.0308,0.334829 0.19035,0.334829 0.135575,0 0.188985,-0.0527 0.188985,-0.187619 0,-0.222539 0.22322,-0.399199 0.42385,-0.335519 0.103388,0.0336 0.143111,0.165019 0.143111,0.481358 0,0.23966 0.0425,0.434799 0.0938,0.434799 0.052,0 0.0945,-0.14037 0.0945,-0.312239 0,-0.171179 0.0897,-0.455349 0.19926,-0.630638 0.31155,-0.4978 0.642275,-1.684431 0.647745,-2.325336 0.002,-0.217059 0.0603,-0.465618 0.1301,-0.550518 0.0787,-0.0965 0.17118,-0.646379 0.24308,-1.453679 0.14379,-1.600207 0.158861,-1.670733 0.365651,-1.637183 0.20542,0.0322 0.26431,0.387559 0.35332,2.108962 0.0459,0.883298 0.108875,1.354393 0.19789,1.472849 0.0719,0.0959 0.1301,0.23075 0.1301,0.299909 0,0.0692 0.0425,0.103387 0.0945,0.0767 0.052,-0.0267 0.0959,-0.232809 0.0979,-0.456708 0.0015,-0.23418 0.0616,-0.47383 0.14174,-0.56148 0.076,-0.0842 0.14037,-0.296489 0.14242,-0.472458 0.0015,-0.17529 0.0507,-0.47863 0.1075,-0.673089 0.0568,-0.19515 0.13489,-0.867548 0.173235,-1.495446 0.0383,-0.627898 0.136261,-1.371508 0.217061,-1.652931 0.36291,-1.253052 0.34921,-1.227032 0.58065,-1.153081 0.0801,0.0253 0.14585,0.13626 0.14585,0.245819 0,0.14242 0.0507,0.19857 0.17666,0.19857 0.15475,0 0.18488,-0.0876 0.24308,-0.706639 0.0363,-0.388929 0.1075,-0.728548 0.15749,-0.754568 0.234181,-0.120512 0.349211,0.15406 0.414936,0.992858 0.0664,0.853168 0.23555,1.281125 0.23555,0.597768 0,-0.451918 0.0719,-0.601188 0.29033,-0.601188 0.27389,0 0.34579,0.20542 0.41905,1.198273 0.0657,0.883298 0.0767,0.918908 0.25335,0.840158 0.393721,-0.17529 0.484101,-0.0137 0.609411,1.090086 0.0527,0.464249 0.136945,0.592979 0.269775,0.412889 0.0685,-0.0911 0.42316,-0.102713 0.58133,-0.0185 0.0678,0.0363 0.16707,0.692259 0.26431,1.744002 0.119825,1.300982 0.188301,1.705656 0.297861,1.773444 0.17118,0.103387 0.31498,0.579279 0.321815,1.065436 0.0025,0.19515 0.0678,0.42316 0.14379,0.5067 0.0767,0.0842 0.139,0.217059 0.139,0.295799 0,0.248559 0.16502,0.152699 0.22938,-0.13352 0.0568,-0.250609 0.0911,-0.275259 0.38345,-0.275259 0.394401,0 0.453291,0.0733 0.534771,0.668978 0.0616,0.451919 0.14311,0.820308 0.23075,1.051742 0.0767,0.20131 0.416315,-0.270471 0.416315,-0.57723 0,-0.335519 0.14037,-0.592289 0.32388,-0.592289 0.18899,0 0.24308,0.18282 0.24308,0.82784 0,0.600509 0.12325,0.839478 0.22185,0.430009 0.039,-0.162971 0.112301,-0.234861 0.237601,-0.234861 0.22938,0 0.28074,0.116401 0.36085,0.81277 0.0705,0.614199 0.19172,0.500539 0.20884,-0.19652 0.01225,-0.473829 0.0822,-0.61626 0.303335,-0.61626 0.124625,0 0.17871,0.0555 0.17871,0.184881 0,0.2691 0.19036,0.681987 0.39235,0.849748 0.0959,0.0801 0.174611,0.23418 0.174611,0.34236 0,0.108187 0.0356,0.196519 0.0787,0.196519 0.0438,0 0.13489,-0.67788 0.20268,-1.505716 0.106125,-1.289341 0.14927,-1.523519 0.29923,-1.63102 0.14379,-0.102713 0.17461,-0.23966 0.17461,-0.775799 0,-0.358799 0.0322,-0.655289 0.0712,-0.660079 0.748406,-0.0911 0.873706,-0.0068 0.873706,0.58887 0,0.195149 0.0425,0.376598 0.0945,0.403308 0.052,0.0267 0.0945,0.13489 0.0945,0.24034 0,0.113662 0.0548,0.19241 0.13421,0.19241 0.074,0 0.1616,0.104075 0.19515,0.230749 0.0336,0.12668 0.121875,0.272519 0.19652,0.324559 a 0.37317652,0.37317652 0 0 1 0.13558,0.275949 c 0,0.100662 0.0425,0.20473 0.0945,0.23144 0.0514,0.0267 0.0945,0.25883 0.0945,0.516289 0,0.523128 0.16639,0.634058 0.34921,0.231439 0.0582,-0.130099 0.173921,-0.236229 0.256091,-0.236229 0.0952,0 0.15064,-0.0685 0.15064,-0.187619 0,-0.102712 0.063,-0.230751 0.14105,-0.28485 a 0.38824049,0.38824049 0 0 0 0.14174,-0.28759 0.24650188,0.24650188 0 0 1 0.405355,-0.193089 c 0.0603,0.05 0.13968,0.347159 0.17597,0.660079 0.20131,1.727567 0.19857,1.714557 0.37729,1.793985 0.0959,0.0431 0.175291,0.16228 0.175291,0.26362 0,0.102713 0.0616,0.20542 0.13695,0.22938 0.0924,0.0301 0.14585,0.191719 0.16433,0.500538 0.026,0.40467 0.0534,0.45877 0.24171,0.48136 a 0.31086636,0.31086636 0 0 1 0.275255,0.236229 c 0.0342,0.1164 0.115038,0.246499 0.178035,0.289639 0.217055,0.14859 0.319075,0.802499 0.520385,3.331885 0.104763,1.320155 0.136951,1.497498 0.243081,1.337958 0.0733,-0.109563 0.123937,-0.458769 0.12599,-0.862758 0.0025,-0.502589 0.0397,-0.704588 0.14379,-0.776478 0.26841,-0.18488 0.4259,-0.0342 0.42796,0.410149 0.0015,0.393719 0.262245,1.304406 0.275255,0.962038 0.0035,-0.089 0.0685,-0.23075 0.14516,-0.314969 a 0.58886566,0.58886566 0 0 0 0.14174,-0.325249 c 0.0015,-0.0945 0.0479,-0.195151 0.101338,-0.223221 0.18762,-0.0959 0.36222,0.13284 0.4259,0.55874 0.0356,0.234859 0.102025,0.427268 0.1479,0.427268 0.0459,0 0.0842,-0.0267 0.0856,-0.0589 0,-0.0329 0.0452,-0.289639 0.0986,-0.570378 0.0541,-0.28142 0.13831,-0.990118 0.18762,-1.574875 0.113676,-1.331794 0.181451,-1.95695 0.238291,-2.18291 0.0609,-0.24582 0.306755,-0.22254 0.384125,0.0363 0.0356,0.117775 0.14311,0.283479 0.23829,0.369069 0.0959,0.0856 0.17324,0.207469 0.17324,0.271839 0,0.0644 0.0609,0.172549 0.13489,0.241029 0.0965,0.089 0.15475,0.45466 0.20336,1.287288 0.037,0.640218 0.104075,1.18184 0.1479,1.20512 0.0445,0.0226 0.0808,0.12804 0.0808,0.232811 0,0.172549 0.0404,0.192409 0.377971,0.192409 0.32456,0 0.37797,-0.0233 0.37797,-0.17118 0,-0.0931 0.074,-0.23829 0.165015,-0.32182 0.13695,-0.125989 0.17118,-0.338259 0.1972,-1.225662 0.0171,-0.590918 0.0753,-1.118845 0.12941,-1.172937 0.124625,-0.12531 0.4752,-0.12736 0.623101,-0.0034 0.0685,0.0575 0.112975,0.335519 0.112975,0.705269 0,0.532718 0.0246,0.622418 0.19172,0.696368 0.2554,0.11435 0.375225,0.0377 0.375225,-0.24171 0,-0.127359 0.0425,-0.231439 0.0945,-0.231439 0.052,0 0.0959,-0.15064 0.0986,-0.334149 0.004,-0.34716 0.18967,-1.03394 0.3047,-1.129801 0.0363,-0.0301 0.28485,-0.0582 0.552581,-0.063 0.43549,-0.0067 0.49643,0.0137 0.5786,0.188989 0.0507,0.108875 0.1301,0.258829 0.17598,0.333459 0.0466,0.0753 0.0842,0.34921 0.0842,0.610089 0,0.345099 0.0342,0.473149 0.12736,0.473149 0.0959,0 0.14379,-0.22801 0.193775,-0.924378 0.037,-0.508749 0.109563,-1.083923 0.16365,-1.279071 0.0534,-0.19446 0.14653,-0.680619 0.20747,-1.079129 0.0753,-0.49506 0.160231,-0.757309 0.266361,-0.826469 0.123937,-0.0808 0.16844,-0.317029 0.2198,-1.181841 0.0452,-0.757989 0.119137,-1.204435 0.2465,-1.494075 0.0993,-0.22733 0.18145,-0.495059 0.18145,-0.594348 0,-0.0993 0.0637,-0.20062 0.14105,-0.22596 a 0.21363495,0.21363495 0 0 0 0.14174,-0.1883 c 0,-0.0787 0.0637,-0.196519 0.14174,-0.261569 0.0863,-0.0719 0.14174,-0.264309 0.14174,-0.491639 0,-0.39851 0.201985,-0.681989 0.434116,-0.607349 0.0733,0.0233 0.13626,0.13558 0.14037,0.249929 0.0035,0.11435 0.0644,0.33209 0.13421,0.48342 l 0.12736,0.275949 0.0067,-0.401249 c 0.0067,-0.28759 0.0582,-0.438909 0.18488,-0.534769 0.16434,-0.12325 0.19035,-0.123937 0.33141,-0.0068 0.087,0.0726 0.15269,0.255399 0.15269,0.425219 0,0.629949 0.110925,1.028461 0.2869,1.028461 0.145851,0 0.175291,-0.113675 0.234176,-0.902468 0.0705,-0.931918 0.22048,-1.313307 0.42042,-1.064751 0.052,0.065 0.0959,0.28348 0.0959,0.486159 0.0015,0.329359 0.0315,0.380029 0.28485,0.486159 0.28074,0.1164 0.28348,0.115025 0.28348,-0.100662 0,-0.119826 0.0815,-0.278679 0.18008,-0.353319 0.14859,-0.1123 0.19172,-0.297169 0.24856,-1.05448 0.0377,-0.515599 0.112976,-0.943559 0.171176,-0.974369 0.169815,-0.0904 0.3451,0.0965 0.3451,0.3677 0,0.424529 0.115025,0.986008 0.20131,0.986008 0.0452,0 0.0822,-0.13968 0.0822,-0.308809 0,-0.44781 0.0753,-0.557369 0.38756,-0.557369 0.21021,0 0.27389,-0.0363 0.27389,-0.15749 0,-0.087 0.0787,-0.223219 0.17461,-0.30334 0.0965,-0.0808 0.203361,-0.239659 0.238291,-0.354009 0.0342,-0.115025 0.125305,-0.208159 0.202675,-0.208159 0.106825,0 0.14105,-0.1075 0.14516,-0.452599 0.0025,-0.24924 0.0561,-0.576539 0.118462,-0.727869 0.0959,-0.232809 0.15749,-0.275949 0.396461,-0.275949 0.3095,0 0.28074,0.0808 0.47246,-1.337957 0.0959,-0.705268 0.119137,-0.747038 0.41358,-0.747038 0.2376,0 0.28211,-0.0404 0.375915,-0.33483 0.0582,-0.18419 0.1164,-0.510809 0.1301,-0.727178 0.0178,-0.28964 0.0644,-0.3992 0.178031,-0.417 0.21432,-0.0342 0.25677,0.102712 0.32867,1.065436 0.0507,0.688148 0.0965,0.873028 0.24445,0.991489 0.1705,0.13626 0.19378,0.13695 0.35606,0.0151 0.13968,-0.105451 0.18899,-0.110238 0.25198,-0.0274 0.0986,0.1301 0.22254,0.918216 0.28416,1.807679 l 0.0466,0.68062 0.377966,-0.0164 c 0.445761,-0.0192 0.550521,-0.128039 0.552581,-0.5738 0,-0.181448 0.0438,-0.351949 0.0959,-0.378659 0.052,-0.0267 0.0945,-0.216368 0.0945,-0.422477 0,-0.447131 0.194461,-0.718959 0.428641,-0.599139 0.20884,0.106125 0.41837,0.627209 0.42042,1.044209 0,0.21774 0.0486,0.351949 0.13558,0.379339 0.18077,0.0582 0.215005,0.14995 0.340305,0.910688 0.0589,0.360169 0.14242,0.690208 0.18488,0.733348 0.0425,0.0438 0.104763,0.3273 0.13832,0.629949 0.0336,0.30334 0.0993,0.692259 0.14722,0.865498 0.0472,0.17324 0.114351,0.668979 0.149271,1.102413 0.0534,0.663498 0.0794,0.755938 0.16707,0.589548 0.13695,-0.261569 0.25198,-0.319079 0.4574,-0.227329 0.13489,0.0596 0.1705,0.173239 0.1705,0.540938 0,0.47041 0.1116,0.664869 0.238285,0.41426 0.0377,-0.0753 0.0972,-0.538199 0.13215,-1.027777 0.0411,-0.584067 0.104763,-0.912058 0.18351,-0.951768 0.15338,-0.0794 0.545731,-0.0178 0.668301,0.10545 0.052,0.052 0.106825,0.62105 0.1212,1.263324 0.0171,0.766898 0.0616,1.178415 0.1301,1.198273 0.0685,0.0185 0.12325,-0.19857 0.1568,-0.623099 0.0609,-0.769639 0.12325,-0.927808 0.36291,-0.927808 0.145845,0 0.179395,0.0582 0.179395,0.308129 0,0.4437 0.20131,1.107888 0.335521,1.107888 0.124625,0 0.16091,-0.239659 0.33415,-2.203453 0.0596,-0.671029 0.124625,-1.234563 0.14379,-1.253052 0.0205,-0.0171 0.0342,0.992168 0.0322,2.243168 -0.0035,2.158262 -0.0644,2.765615 -0.30607,3.07922 -0.11435,0.1479 -0.350581,0.0274 -0.350581,-0.1794 0,-0.1075 -0.0829,-0.222539 -0.1972,-0.273889 -0.108187,-0.0479 -0.205415,-0.0753 -0.215685,-0.0616 -0.13694,0.19172 -0.27184,0.75663 -0.31634,1.328372 -0.052,0.66693 -0.0685,0.71143 -0.25335,0.68884 -0.18145,-0.0212 -0.20405,-0.0924 -0.2691,-0.849058 -0.0383,-0.455349 -0.0959,-1.313992 -0.12736,-1.90902 -0.0315,-0.595719 -0.0959,-1.08187 -0.14242,-1.08187 -0.0466,0 -0.0849,0.169809 -0.0849,0.377289 0,0.208159 -0.0425,0.413578 -0.0952,0.457398 -0.110925,0.0924 -0.27663,1.39616 -0.28005,2.208246 -0.0025,0.666238 -0.0561,0.812768 -0.29443,0.812768 -0.21638,0 -0.24719,-0.113662 -0.3184,-1.180469 -0.07908,-1.188072 -0.15781,-1.73106 -0.252305,-1.73106 -0.0452,0 -0.0822,0.0664 -0.0822,0.1479 0,0.0808 -0.0685,0.194459 -0.152005,0.252659 -0.293061,0.202679 -0.414951,-0.10545 -0.414951,-1.050373 0,-0.471089 -0.0397,-0.917538 -0.0883,-0.992858 -0.0479,-0.076 -0.117775,-0.534088 -0.15475,-1.01819 -0.0445,-0.586809 -0.109562,-0.909318 -0.19515,-0.968888 -0.0753,-0.0514 -0.12804,-0.24308 -0.12804,-0.460819 0,-0.439599 -0.14996,-0.834679 -0.39235,-1.036676 -0.12325,-0.102713 -0.17461,-0.261569 -0.17461,-0.53888 0,-0.28211 -0.037,-0.393719 -0.1301,-0.393719 -0.1,0 -0.147215,0.215689 -0.198566,0.909318 -0.0548,0.72513 -0.102712,0.936709 -0.23897,1.042841 a 0.61967838,0.61967838 0 0 0 -0.20268,0.330039 c -0.0294,0.175289 -0.0808,0.198569 -0.480681,0.212269 -0.339631,0.01225 -0.467671,-0.0164 -0.529981,-0.117775 -0.0452,-0.0733 -0.110925,-0.558739 -0.145155,-1.078445 -0.0342,-0.51903 -0.1,-1.068175 -0.145165,-1.219499 l -0.0822,-0.275261 -0.0096,0.245821 c -0.011,0.275949 -0.217735,0.463558 -0.433425,0.394398 -0.1123,-0.0356 -0.14379,-0.189669 -0.14379,-0.714168 0,-0.580649 -0.0233,-0.679248 -0.18214,-0.749778 -0.27047,-0.120513 -0.28964,-0.1075 -0.28964,0.199259 0,0.2465 -0.026,0.277999 -0.212261,0.25609 -0.1527,-0.0185 -0.22117,-0.087 -0.2424,-0.24171 -0.0582,-0.419048 -0.191035,-0.209529 -0.249925,0.393029 -0.0329,0.335519 -0.0972,0.751829 -0.14379,0.925068 a 6.5405175,6.5405175 0 0 0 -0.13763,0.760049 c -0.0294,0.245819 -0.0787,0.502588 -0.110238,0.571059 -0.0726,0.15749 -0.3095,0.16228 -0.38071,0.0067 -0.0692,-0.15064 -0.22322,-0.15406 -0.22322,-0.0047 0,0.0616 -0.0767,0.13284 -0.1705,0.15749 -0.22596,0.0603 -0.36838,0.427958 -0.44302,1.146233 -0.0767,0.7354 -0.120513,0.865498 -0.290316,0.865498 -0.0808,0 -0.13558,0.0781 -0.13558,0.19309 0,0.106126 -0.0548,0.221171 -0.121875,0.256091 -0.108875,0.0555 -0.20747,0.270469 -0.40194,0.873708 -0.037,0.11435 -0.117088,0.17255 -0.21637,0.1568 -0.12325,-0.0205 -0.17118,-0.15749 -0.22459,-0.645699 -0.0815,-0.74704 -0.15064,-0.929858 -0.16091,-0.423849 -0.0055,0.256088 -0.063,0.414259 -0.18693,0.511489 -0.191041,0.150638 -0.256771,0.476569 -0.351271,1.730991 -0.0589,0.785378 -0.180765,0.990118 -0.443695,0.747718 -0.1164,-0.1075 -0.15886,-0.342359 -0.1794,-1.003126 -0.026,-0.826469 -0.0363,-0.862758 -0.23965,-0.887408 -0.20679,-0.0246 -0.21227,-0.0068 -0.21227,0.679939 0,0.766208 -0.0253,0.801128 -0.571751,0.801128 -0.339615,0 -0.467665,-0.18351 -0.467665,-0.668289 0,-0.454659 -0.14516,-0.400569 -0.23281,0.087 -0.0863,0.477259 -0.13832,0.581329 -0.29375,0.581329 -0.22117,0 -0.32388,-0.28416 -0.32388,-0.899728 0,-0.47726 -0.0281,-0.595709 -0.14174,-0.595709 -0.0876,0 -0.141741,0.0746 -0.141741,0.195829 a 0.36290565,0.36290565 0 0 1 -0.1883,0.29443 c -0.14996,0.0781 -0.188985,0.18351 -0.188985,0.506009 0,0.247869 -0.0452,0.419739 -0.11435,0.438909 -0.0781,0.0219 -0.15954,0.582018 -0.2602,1.796725 -0.14105,1.708395 -0.15201,1.766597 -0.35058,1.789877 -0.28759,0.0342 -0.34442,0.375229 -0.602561,3.630426 -0.0938,1.18321 -0.1657,1.421496 -0.43001,1.421496 -0.180075,0 -0.210205,-0.15612 -0.380015,-1.941889 l -0.0609,-0.643638 -0.41221,0.0322 c -0.234181,0.0185 -0.412211,-0.0014 -0.412211,-0.0452 0,-0.0425 -0.0425,-0.0774 -0.0945,-0.0774 -0.052,0 -0.0945,0.119138 -0.0945,0.265669 0,0.14585 -0.0637,0.310179 -0.14174,0.363589 -0.0931,0.0644 -0.14174,0.239659 -0.14174,0.513549 0,0.453969 -0.0657,0.509439 -0.602555,0.509439 -0.429331,0 -0.530661,-0.12325 -0.530661,-0.645017 0,-0.251292 -0.037,-0.456711 -0.0822,-0.456711 -0.087,0 -0.19857,0.447131 -0.20062,0.803189 0,0.116401 -0.0582,0.240339 -0.12873,0.275259 -0.0808,0.0397 -0.1479,0.280739 -0.18145,0.65323 -0.0712,0.787436 -0.1164,0.865496 -0.492995,0.865496 -0.35127,0 -0.4259,0.0959 -0.4259,0.547779 0,0.334149 -0.195151,0.543669 -0.352641,0.377969 -0.052,-0.0548 -0.12325,-0.471087 -0.15749,-0.925748 -0.0342,-0.454659 -0.100662,-0.932598 -0.14585,-1.062697 -0.0459,-0.130098 -0.110237,-0.604617 -0.14379,-1.055164 -0.0383,-0.51218 -0.1123,-0.880559 -0.1972,-0.981898 -0.0753,-0.089 -0.13968,-0.304699 -0.14379,-0.47931 l -0.0067,-0.316349 -0.123938,0.314979 c -0.0685,0.172551 -0.177335,0.899048 -0.242385,1.613219 -0.202,2.196605 -0.22733,2.363679 -0.37112,2.437631 -0.20336,0.104762 -0.47657,-0.0534 -0.47657,-0.276631 0,-0.27389 -0.254721,-0.24582 -0.328671,0.0356 -0.0329,0.126681 -0.121875,0.249241 -0.19652,0.273211 -0.0746,0.024 -0.13558,0.129408 -0.13558,0.234178 0,0.243079 -0.249235,0.330039 -0.376595,0.131469 -0.0527,-0.0822 -0.0959,-0.343729 -0.0959,-0.581338 0,-0.866178 -0.14106,-0.724439 -0.26225,0.264309 -0.200555,1.632373 -0.25328,1.91448 -0.361465,1.943923 -0.253351,0.06916 -0.344421,-0.243077 -0.424531,-1.451621 -0.0459,-0.681989 -0.125305,-1.647455 -0.17803,-2.145253 a 19.753021,19.753021 0 0 1 -0.0959,-1.662517 c 0,-0.879189 -0.0705,-1.248944 -0.23623,-1.248944 -0.065,0 -0.14379,0.106125 -0.17529,0.23555 -0.0308,0.130099 -0.112975,0.236229 -0.18145,0.236229 -0.2554,0 -0.35195,-0.195829 -0.35195,-0.712798 0,-0.288269 -0.0274,-0.686779 -0.0596,-0.885348 -0.0514,-0.310869 -0.0924,-0.364279 -0.296491,-0.384819 -0.199255,-0.0199 -0.256765,-0.0876 -0.353995,-0.417681 -0.0644,-0.215688 -0.14448,-0.764837 -0.17871,-1.218814 -0.102713,-1.374932 -0.2513,-1.736469 -0.38071,-0.927118 -0.0726,0.456719 -0.18899,0.623788 -0.38961,0.559418 -0.0849,-0.0274 -0.169811,0.0383 -0.234861,0.18077 -0.119825,0.26225 -0.23966,0.33757 -0.461505,0.28964 -0.12736,-0.0281 -0.18282,-0.18762 -0.26294,-0.757999 -0.12736,-0.903158 -0.20884,-1.177731 -0.37112,-1.257845 -0.0705,-0.0342 -0.12804,-0.147218 -0.12804,-0.249929 0,-0.118462 -0.0698,-0.206098 -0.18898,-0.237598 -0.103388,-0.0274 -0.188991,-0.101338 -0.188991,-0.164331 0,-0.17255 -0.22596,-0.740879 -0.29512,-0.740879 -0.0794,0 -0.173915,0.30128 -0.175965,0.561479 0,0.112975 -0.0616,0.248561 -0.13626,0.299911 -0.0897,0.0616 -0.15132,0.321818 -0.18419,0.776476 -0.16707,2.341769 -0.27389,2.848467 -0.60256,2.848467 -0.0671,0 -0.1479,-0.109563 -0.18008,-0.24308 -0.0596,-0.248559 -0.0787,-0.260199 -0.524501,-0.342359 -0.2287,-0.0411 -0.265665,-0.0185 -0.336885,0.21021 -0.0548,0.178029 -0.13489,0.256769 -0.26225,0.256769 -0.15406,0 -0.18762,-0.065 -0.21227,-0.413579 -0.0336,-0.493008 -0.2061,-0.557368 -0.20816,-0.0781 -0.0015,0.434799 -0.12325,0.601189 -0.350581,0.483419 -0.13147,-0.0685 -0.17803,-0.227329 -0.21501,-0.741558 -0.026,-0.360169 -0.0897,-0.665559 -0.14174,-0.679249 -0.20884,-0.0541 -0.35127,0.1301 -0.41084,0.53203 -0.0445,0.306759 -0.10475,0.429328 -0.220475,0.447808 -0.23829,0.0383 -0.34579,-0.204049 -0.45398,-1.018189 -0.216371,-1.635129 -0.294431,-1.956267 -0.475201,-1.956267 -0.1301,0 -0.18351,0.0863 -0.23144,0.377968 -0.0774,0.46699 -0.16433,0.59024 -0.39029,0.55395 -0.115038,-0.0185 -0.19857,-0.12325 -0.241025,-0.30265 -0.17871,-0.757308 -0.469041,-1.589252 -0.603931,-1.730991 -0.13695,-0.14242 -0.31977,-1.283179 -0.40536,-2.517058 -0.0534,-0.773739 -0.0863,-0.907948 -0.22801,-0.931228 -0.109563,-0.0171 -0.16502,0.024 -0.16502,0.122563 0,0.0815 -0.0637,0.21637 -0.14174,0.30128 -0.138305,0.1479 -0.145845,0.14859 -0.277995,0.0068 -0.0753,-0.0815 -0.16023,-0.33826 -0.18898,-0.571059 -0.130101,-1.041471 -0.185561,-1.327687 -0.215011,-1.092826 -0.0767,0.6142 -0.1301,0.747038 -0.30334,0.747038 -0.14105,0 -0.18351,-0.0822 -0.2287,-0.451917 -0.13695,-1.105836 -0.18488,-1.363294 -0.26225,-1.403693 -0.0452,-0.0233 -0.0822,0.132839 -0.0822,0.346471 0,0.260199 -0.05,0.423159 -0.15201,0.493007 -0.26704,0.184881 -0.387555,-0.0959 -0.460815,-1.071598 -0.0609,-0.814829 -0.0849,-0.902469 -0.246501,-0.902469 -0.14516,0 -0.18077,0.0582 -0.18145,0.29512 -0.0015,0.438229 -0.0938,0.649118 -0.28279,0.649118 -0.202,0 -0.28279,-0.152009 -0.28279,-0.534088 0,-0.196519 -0.0301,-0.25883 -0.0979,-0.202679 -0.0541,0.0452 -0.15749,0.662818 -0.22939,1.373564 -0.0719,0.710056 -0.17529,1.450937 -0.2287,1.645399 -0.0534,0.195151 -0.0986,0.626528 -0.101338,0.958619 -0.0025,0.401939 -0.0472,0.640217 -0.132835,0.712117 -0.0856,0.0705 -0.1527,0.420421 -0.19857,1.025037 -0.0459,0.618309 -0.110238,0.946978 -0.1972,1.006551 -0.16639,0.115025 -0.32525,0.0308 -0.32525,-0.17324 0,-0.0876 -0.063,-0.25335 -0.139001,-0.369069 -0.24924,-0.373859 -0.52245,-1.209915 -0.52245,-1.598839 0,-0.20953 -0.0411,-0.380709 -0.0924,-0.380709 -0.109562,0 -0.138315,0.109563 -0.29169,1.135277 -0.0644,0.430009 -0.173915,0.87235 -0.243755,0.983958 -0.0698,0.111613 -0.12668,0.367009 -0.12736,0.56832 0,0.2513 -0.0445,0.379339 -0.14242,0.410839 -0.0774,0.0247 -0.14174,0.13215 -0.14174,0.239658 0,0.106825 -0.0425,0.216371 -0.0938,0.243081 -0.0541,0.0274 -0.0945,0.421789 -0.0945,0.914798 0,0.476569 -0.0445,0.934658 -0.0979,1.01819 -0.1164,0.180769 -0.3992,0.198569 -0.56148,0.0363 -0.101338,-0.101337 -0.13352,-0.10065 -0.26499,0.0089 -0.13695,0.113663 -0.16023,0.111613 -0.27389,-0.0178 -0.0685,-0.0774 -0.124613,-0.3095 -0.124613,-0.51492 0,-0.295119 -0.037,-0.382759 -0.17666,-0.419738 -0.13695,-0.0363 -0.19172,-0.15475 -0.24102,-0.51423 -0.0822,-0.605298 -0.24376,-0.694998 -0.24376,-0.135579 0,0.330039 -0.0438,0.458769 -0.19446,0.572429 -0.223221,0.168439 -0.493001,0.0842 -0.542991,-0.1705 -0.109562,-0.562849 -0.27115,-0.2465 -0.29033,0.569699 -0.01163,0.495059 -0.15954,0.718958 -0.420415,0.635429 -0.0972,-0.0308 -0.14174,-0.32045 -0.18077,-1.169515 -0.0527,-1.135277 -0.207473,-1.797409 -0.421112,-1.797409 -0.063,0 -0.162279,-0.14653 -0.220479,-0.325929 -0.089,-0.27526 -0.124625,-0.30881 -0.232809,-0.216381 -0.0842,0.0726 -0.15886,0.49232 -0.22185,1.250314 -0.102712,1.234563 -0.28211,2.14525 -0.450549,2.284935 -0.0781,0.0644 -0.15886,0.0308 -0.306759,-0.12531 l -0.20131,-0.212949 v 0.371809 c 0,0.301279 -0.0342,0.380019 -0.18145,0.411519 -0.13489,0.0294 -0.1972,0.13763 -0.245129,0.425899 -0.0349,0.21227 -0.14037,0.465619 -0.23486,0.562849 -0.164339,0.168439 -0.178029,0.170499 -0.356059,0.0363 -0.15954,-0.120512 -0.19309,-0.289639 -0.25061,-1.258529 -0.0363,-0.615568 -0.0911,-1.203066 -0.120513,-1.305776 -0.111612,-0.382079 -0.251298,0.0856 -0.291698,0.972998 -0.0253,0.554629 -0.087,0.929178 -0.171179,1.040787 -0.0726,0.0959 -0.13215,0.247189 -0.13215,0.336889 0,0.089 -0.0603,0.181449 -0.13284,0.205419 -0.0972,0.0308 -0.150641,0.26841 -0.195151,0.882618 -0.112287,1.531051 -0.235549,2.377375 -0.380017,2.610181 -0.0781,0.125991 -0.14242,0.301281 -0.14242,0.390291 0,0.108875 -0.0616,0.161599 -0.188981,0.161599 -0.16091,0 -0.18898,0.052 -0.18898,0.358799 0,0.19857 -0.0411,0.42453 -0.0924,0.50465 -0.0514,0.0794 -0.117775,0.403988 -0.147899,0.722388 -0.0787,0.834678 -0.113675,0.932598 -0.327988,0.932598 -0.156121,0 -0.188301,-0.0561 -0.195149,-0.334829 A 33.907709,33.907709 0 0 0 43.95503,40.073242 c -0.089,-0.920958 -0.137632,-1.140755 -0.251981,-1.140755 -0.0842,0 -0.15406,0.087 -0.17118,0.216369 -0.0171,0.119138 -0.0808,0.2198 -0.142419,0.22459 -0.0616,0.0048 -0.19652,0.0137 -0.300598,0.0199 -0.160231,0.01025 -0.195831,0.0822 -0.236231,0.483419 l -0.0472,0.472458 -0.445759,0.0096 c -0.532719,0.01163 -0.510809,0.0527 -0.590239,-1.111312 -0.0733,-1.074338 -0.12325,-1.298243 -0.294429,-1.298243 -0.10065,0 -0.13352,0.1164 -0.13352,0.472459 0,0.445069 -0.013,0.471779 -0.225959,0.471779 -0.27252,0 -0.34099,-0.12736 -0.34099,-0.636108 0,-0.21227 -0.0425,-0.38687 -0.0945,-0.38687 -0.052,0 -0.0952,0.18556 -0.0959,0.41289 -0.0021,0.479308 -0.0918,0.636798 -0.340309,0.597078 -0.13968,-0.0219 -0.19583,-0.13284 -0.26157,-0.519018 -0.0466,-0.26978 -0.1164,-0.49095 -0.157489,-0.49095 -0.0397,0 -0.102712,0.30539 -0.14037,0.679249 -0.037,0.373859 -0.12599,0.772369 -0.196519,0.885348 -0.0712,0.113675 -0.12941,0.349209 -0.1301,0.524499 0,0.175289 -0.0411,0.353318 -0.0918,0.395088 -0.0507,0.0425 -0.136949,0.34168 -0.191729,0.665559 -0.13626,0.810029 -0.168439,0.877139 -0.40947,0.849059 -0.171869,-0.0205 -0.214999,-0.0938 -0.268409,-0.4574 -0.180079,-1.232508 -0.238969,-1.50366 -0.342369,-1.589936 -0.0623,-0.052 -0.113663,-0.14653 -0.113663,-0.210209 0,-0.0637 -0.0719,-0.18214 -0.160908,-0.26362 -0.15406,-0.14242 -0.249241,-0.524499 -0.371121,-1.4975 -0.05,-0.397829 -0.0822,-0.451919 -0.262938,-0.451919 -0.356059,0 -0.43275,-0.150638 -0.43275,-0.842218 0,-0.521757 -0.0274,-0.653918 -0.13832,-0.653918 -0.2061,0 -0.313609,-0.22459 -0.377969,-0.790857 -0.13284,-1.170885 -0.16297,-1.33385 -0.246498,-1.33385 -0.0479,0 -0.0876,0.0993 -0.0876,0.220479 0,0.1212 -0.039,0.25403 -0.0876,0.29512 -0.0479,0.0411 -0.13626,0.446439 -0.19515,0.901097 -0.0596,0.45466 -0.14722,0.935338 -0.19583,1.068177 -0.0479,0.13284 -0.0876,0.421109 -0.0876,0.640909 0,0.282109 -0.0418,0.412209 -0.14174,0.444389 -0.0781,0.0246 -0.141739,0.132839 -0.141739,0.239659 0,0.106825 -0.039,0.215009 -0.087,0.239659 -0.0479,0.024 -0.11435,0.3184 -0.14927,0.653229 -0.0808,0.788809 -0.117775,0.884668 -0.336889,0.884668 -0.12804,0 -0.18282,-0.0548 -0.18282,-0.18077 0,-0.175969 -0.15543,-0.369749 -0.296489,-0.369749 -0.0383,0 -0.0822,0.115025 -0.0993,0.255399 -0.0226,0.196521 -0.0787,0.262251 -0.241709,0.28074 -0.16023,0.0199 -0.21227,-0.013 -0.21227,-0.13352 0,-0.087 -0.0644,-0.362909 -0.14242,-0.612148 -0.0781,-0.249239 -0.14174,-0.723069 -0.14174,-1.053796 0,-0.566959 -0.0137,-0.605299 -0.240339,-0.691579 -0.317029,-0.120513 -0.325929,-0.118462 -0.325929,0.0712 0,0.391669 -0.37455,0.615569 -0.550519,0.329359 -0.0472,-0.0753 -0.112975,-0.545048 -0.14722,-1.042841 -0.0685,-1.002441 -0.133519,-1.337957 -0.258139,-1.337957 -0.0459,0 -0.0835,0.14859 -0.0835,0.328669 0,0.348529 -0.1212,0.74636 -0.34031,1.114052 -0.0726,0.12325 -0.132839,0.370439 -0.133519,0.551209 -0.0021,0.413579 -0.101338,0.545728 -0.386189,0.512179 -0.164329,-0.0199 -0.237599,-0.089 -0.273209,-0.25883 -0.0945,-0.459449 -0.2376,-0.228699 -0.28827,0.468349 -0.0288,0.38893 -0.0835,0.763469 -0.1212,0.831258 -0.0383,0.0678 -0.1,0.527241 -0.136949,1.022983 -0.0644,0.84906 -0.0794,0.901098 -0.27663,0.924378 -0.196519,0.0233 -0.210899,0.0698 -0.236229,0.74772 -0.0253,0.671029 -0.0418,0.724439 -0.23007,0.747039 -0.14996,0.0178 -0.228699,-0.0342 -0.299909,-0.196522 -0.0924,-0.212268 -0.0965,-0.206788 -0.104075,0.118463 -0.0089,0.424529 -0.140369,0.641588 -0.360169,0.593658 -0.19446,-0.0411 -0.37797,0.321139 -0.484099,0.955878 -0.0829,0.493009 -0.15543,0.590238 -0.443709,0.590238 -0.21706,0 -0.23075,0.026 -0.23075,0.4348 0,0.323189 -0.0383,0.447809 -0.147901,0.482728 -0.0822,0.026 -0.186928,0.0151 -0.234178,-0.0246 -0.0685,-0.0561 -0.167069,-1.217446 -0.280739,-3.29354 -0.0028,-0.0431 -0.0671,-0.14722 -0.14379,-0.23144 -0.136949,-0.150639 -0.139689,-0.150639 -0.276631,0 -0.0767,0.0842 -0.140368,0.31429 -0.141738,0.511491 -0.0034,0.407409 -0.184881,0.674457 -0.407409,0.602557 -0.0822,-0.0253 -0.162281,-0.14585 -0.179401,-0.267039 -0.0185,-0.13489 -0.0945,-0.230748 -0.195828,-0.246498 -0.14037,-0.0226 -0.165019,0.0363 -0.166389,0.392347 -0.0021,0.479311 -0.0822,0.625839 -0.33757,0.618989 -0.875768,-0.0247 -0.837418,-0.0034 -0.894938,-0.475199 -0.0294,-0.238288 -0.121876,-0.556677 -0.205421,-0.708688 l -0.15064,-0.27526 -0.0083,0.358801 c -0.0041,0.197198 -0.0698,0.427269 -0.14653,0.511487 -0.076,0.0842 -0.13968,0.321141 -0.14174,0.527241 -0.0021,0.265669 -0.0568,0.418367 -0.191719,0.530657 a 0.570378,0.570378 0 0 0 -0.18899,0.438231 c 0,0.441647 -0.27526,1.057218 -0.473149,1.057218 -0.0924,0 -0.193779,-0.0561 -0.225269,-0.124625 z"
   style="fill:#005d5d;fill-opacity:1;stroke:none;stroke-width:0.0862216;stroke-opacity:1"
   id="path7" />
    <path
   d="M 11.322986,32.932872 H 99.189281"
   style="fill:none;stroke:#005d5d;stroke-width:0.684725;stroke-linecap:square;stroke-linejoin:round;stroke-dasharray:none;stroke-opacity:1;paint-order:markers fill stroke;stop-color:#000000"
   id="path9" />
    <path
   d="M 11.322986,18.439244 H 99.189281"
   style="fill:none;stroke:#a56eff;stroke-width:0.684725;stroke-linecap:square;stroke-linejoin:round;stroke-dasharray:none;stroke-opacity:1;paint-order:markers fill stroke;stop-color:#000000"
   id="path11" />
    
    <text
   xml:space="preserve"
   x="-51.430588"
   y="3.8172655"
   style="font-style:normal;font-variant:normal;font-weight:400;font-stretch:normal;font-size:5.79735px;line-height:normal;font-family:'IBM Plex Sans';-inkscape-font-specification:'IBM Plex Sans, Normal ';font-variant-ligatures:normal;font-variant-caps:normal;font-variant-numeric:normal;font-variant-east-asian:normal;text-decoration-color:#000000;fill:#002d9c;fill-opacity:1;stroke:#4589ff;stroke-width:0.684725;stroke-linecap:square;stroke-linejoin:round;stroke-dasharray:none;stroke-opacity:1;paint-order:markers fill stroke;stop-color:#000000"
   transform="rotate(-91.085)"
   id="text17"><tspan
     x="-51.430588"
     y="3.8172655"
     style="font-style:normal;font-variant:normal;font-weight:400;font-stretch:normal;font-size:5.79735px;font-family:'IBM Plex Sans';-inkscape-font-specification:'IBM Plex Sans, Normal ';font-variant-ligatures:normal;font-variant-caps:normal;font-variant-numeric:normal;font-variant-east-asian:normal;fill:#002d9c;fill-opacity:1;stroke:none;stroke-width:0.684725"
     id="tspan15">more profit</tspan></text>
    <text
   xml:space="preserve"
   x="46.804832"
   y="81.649757"
   style="font-style:normal;font-variant:normal;font-weight:400;font-stretch:normal;font-size:5.79735px;line-height:normal;font-family:'IBM Plex Sans';-inkscape-font-specification:'IBM Plex Sans, Normal ';font-variant-ligatures:normal;font-variant-caps:normal;font-variant-numeric:normal;font-variant-east-asian:normal;text-decoration-color:#000000;fill:#002d9c;fill-opacity:1;stroke:#4589ff;stroke-width:0.684725;stroke-linecap:square;stroke-linejoin:round;stroke-dasharray:none;stroke-opacity:1;paint-order:markers fill stroke;stop-color:#000000"
   transform="rotate(-1.085)"
   id="text21"><tspan
     x="46.804832"
     y="81.649757"
     style="font-style:normal;font-variant:normal;font-weight:400;font-stretch:normal;font-size:5.79735px;font-family:'IBM Plex Sans';-inkscape-font-specification:'IBM Plex Sans, Normal ';font-variant-ligatures:normal;font-variant-caps:normal;font-variant-numeric:normal;font-variant-east-asian:normal;fill:#002d9c;fill-opacity:1;stroke:none;stroke-width:0.684725"
     id="tspan19">time</tspan></text>
    <text
   xml:space="preserve"
   x="46.312515"
   y="17.330551"
   style="font-style:normal;font-variant:normal;font-weight:400;font-stretch:normal;font-size:5.79735px;line-height:normal;font-family:'IBM Plex Sans';-inkscape-font-specification:'IBM Plex Sans, Normal ';font-variant-ligatures:normal;font-variant-caps:normal;font-variant-numeric:normal;font-variant-east-asian:normal;text-decoration-color:#000000;fill:#002d9c;fill-opacity:1;stroke:#4589ff;stroke-width:0.684725;stroke-linecap:square;stroke-linejoin:round;stroke-dasharray:none;stroke-opacity:1;paint-order:markers fill stroke;stop-color:#000000"
   transform="rotate(-1.085)"
   id="text25"><tspan
     x="46.312515"
     y="17.330551"
     style="font-style:normal;font-variant:normal;font-weight:400;font-stretch:normal;font-size:5.79735px;font-family:'IBM Plex Sans';-inkscape-font-specification:'IBM Plex Sans, Normal ';font-variant-ligatures:normal;font-variant-caps:normal;font-variant-numeric:normal;font-variant-east-asian:normal;fill:#002d9c;fill-opacity:1;stroke:none;stroke-width:0.684725"
     id="tspan23">Operating constraint</tspan></text>
    <text
   xml:space="preserve"
   x="99.1194"
   y="40.650322"
   style="font-style:normal;font-variant:normal;font-weight:400;font-stretch:normal;font-size:5.79735px;line-height:normal;font-family:'IBM Plex Sans';-inkscape-font-specification:'IBM Plex Sans, Normal ';font-variant-ligatures:normal;font-variant-caps:normal;font-variant-numeric:normal;font-variant-east-asian:normal;text-decoration-color:#000000;fill:#002d9c;fill-opacity:1;stroke:#4589ff;stroke-width:0.684725;stroke-linecap:square;stroke-linejoin:round;stroke-dasharray:none;stroke-opacity:1;paint-order:markers fill stroke;stop-color:#000000"
   transform="rotate(-1.085)"
   id="text29"><tspan
     x="99.1194"
     y="40.650322"
     style="font-style:normal;font-variant:normal;font-weight:400;font-stretch:normal;font-size:5.79735px;font-family:'IBM Plex Sans';-inkscape-font-specification:'IBM Plex Sans, Normal ';font-variant-ligatures:normal;font-variant-caps:normal;font-variant-numeric:normal;font-variant-east-asian:normal;text-align:end;text-anchor:end;fill:#002d9c;fill-opacity:1;stroke:none;stroke-width:0.684725"
     id="tspan27">SP</tspan></text>
    <text
   xml:space="preserve"
   x="46.413166"
   y="55.715004"
   style="font-style:normal;font-variant:normal;font-weight:400;font-stretch:normal;font-size:5.79735px;line-height:normal;font-family:'IBM Plex Sans';-inkscape-font-specification:'IBM Plex Sans, Normal ';font-variant-ligatures:normal;font-variant-caps:normal;font-variant-numeric:normal;font-variant-east-asian:normal;text-decoration-color:#000000;fill:#002d9c;fill-opacity:1;stroke:#4589ff;stroke-width:0.684725;stroke-linecap:square;stroke-linejoin:round;stroke-dasharray:none;stroke-opacity:1;paint-order:markers fill stroke;stop-color:#000000"
   transform="rotate(-1.085)"
   id="text33"><tspan
     x="46.413166"
     y="55.715004"
     style="font-style:normal;font-variant:normal;font-weight:400;font-stretch:normal;font-size:5.79735px;font-family:'IBM Plex Sans';-inkscape-font-specification:'IBM Plex Sans, Normal ';font-variant-ligatures:normal;font-variant-caps:normal;font-variant-numeric:normal;font-variant-east-asian:normal;fill:#002d9c;fill-opacity:1;stroke:none;stroke-width:0.684725"
     id="tspan31">PV poorly controlled</tspan></text>
    <path
   d="M 46.19753,52.861183 H 38.045164 L 28.081009,43.802238"
   style="fill:none;fill-opacity:1;stroke:#002d9c;stroke-width:0.684725;stroke-linecap:square;stroke-linejoin:round;stroke-dasharray:none;stroke-opacity:1;paint-order:markers fill stroke;stop-color:#000000"
   id="path35" />
<path
   style="fill:none;stroke:#002d9c;stroke-width:0.684725;stroke-linecap:square;stroke-linejoin:round;marker-start:url(#TriangleStart);marker-end:url(#TriangleStart);paint-order:markers fill stroke;stop-color:#000000;fill-opacity:1;stroke-opacity:1"
   d="M 10.870293,2.4315096 V 73.992597 h 86.054472"
   id="path938"
   sodipodi:nodetypes="ccc" /></svg>
