<?xml version="1.0" encoding="UTF-8" standalone="no"?>
<!-- Generator: Adobe Illustrator 27.7.0, SVG Export Plug-In . SVG Version: 6.00 Build 0)  -->

<svg
   version="1.1"
   id="Layer_1"
   x="0px"
   y="0px"
   viewBox="0 0 254.25653 252.77225"
   xml:space="preserve"
   sodipodi:docname="cee_icon.svg"
   width="254.25653"
   height="252.77225"
   inkscape:version="1.3.2 (091e20e, 2023-11-25, custom)"
   xmlns:inkscape="http://www.inkscape.org/namespaces/inkscape"
   xmlns:sodipodi="http://sodipodi.sourceforge.net/DTD/sodipodi-0.dtd"
   xmlns="http://www.w3.org/2000/svg"
   xmlns:svg="http://www.w3.org/2000/svg"><defs
   id="defs30" /><sodipodi:namedview
   id="namedview30"
   pagecolor="#ffffff"
   bordercolor="#000000"
   borderopacity="0.25"
   inkscape:showpageshadow="2"
   inkscape:pageopacity="0.0"
   inkscape:pagecheckerboard="0"
   inkscape:deskcolor="#d1d1d1"
   inkscape:zoom="7.1942099"
   inkscape:cx="141.36368"
   inkscape:cy="170.20632"
   inkscape:window-width="4096"
   inkscape:window-height="2097"
   inkscape:window-x="-8"
   inkscape:window-y="-8"
   inkscape:window-maximized="1"
   inkscape:current-layer="Layer_1" />
<style
   type="text/css"
   id="style1">
	.st0{fill:#0F62FE;}
	.st1{fill:none;stroke:#0F62FE;stroke-width:10;stroke-miterlimit:10;}
</style>


<path
   class="st0"
   d="m 117.60537,250.48619 c 15.21193,-6.28925 19.55636,-27.50459 8.73397,-39.56243 -11.28059,-14.67524 -37.400412,-9.98792 -43.021783,7.63696 -5.342991,14.38794 4.112386,32.13641 19.814683,33.94572 4.89028,0.72755 9.94958,-0.0626 14.47313,-2.02025 z m -70.04,-29.42 c 3.639323,-11.45433 19.61285,-29.51268 4.949434,-38.17664 -8.878631,-1.59921 -24.800923,-14.67605 -30.149434,-4.53336 1.295023,9.14288 29.222948,9.04677 10.16875,15.50287 -10.121808,6.65887 -26.6458638,8.07988 -32.48125027,18.34588 7.51875077,11.03008 22.74886127,-6.0717 33.10359427,-7.55063 5.523747,-2.32989 16.491611,-8.90049 10.033593,2.06006 -2.866966,5.17466 -6.873277,18.69529 4.375313,14.35182 z m 117.13,-4.76 c 15.65008,-7.0334 15.11212,-31.96248 -0.4325,-38.76104 -14.51534,-7.96688 -34.46011,5.62297 -31.30535,22.24958 0.91913,14.84379 18.90189,23.82959 31.73785,16.51146 z m 49,1.37 c 4.87204,-7.11519 -14.15888,-26.14577 2.05911,-18.53646 11.85288,3.6089 23.13735,9.60567 35.45015,11.39794 9.63813,-10.33706 -14.41432,-13.24089 -21.30886,-17.06576 -6.16078,-3.22652 -26.94652,-6.45545 -11.0804,-11.02572 8.02651,-0.17989 15.89787,-13.8773 3.7075,-12.61875 -9.86875,5.4658 -24.73312,7.26356 -29.2675,18.78875 5.68134,8.34125 7.54692,32.50147 20.44,29.06 z m -92.91,-28.07 c 15.665,-6.99793 24.11634,-26.27785 17.73258,-42.40479 -6.69959,-17.59858 -28.83674,-27.09138 -45.80301,-18.33863 -13.193963,6.72539 -21.860683,21.75047 -18.48582,36.56608 3.27632,19.22086 25.56835,32.80364 43.97959,25.22914 z m 62.58,-31.37 c 15.50917,-6.13704 8.87389,-31.48967 -7.64023,-28.75479 -16.93985,0.37397 -17.75568,28.22148 -0.87004,29.62104 2.84245,0.49517 5.83752,0.25067 8.51027,-0.86625 z m -113.1,-19.11 c 16.382731,-7.20926 17.113274,-32.23766 2.1,-41.285157 -10.430962,-6.324664 -26.442638,-4.140635 -32.934297,6.971677 -10.902344,14.58662 1.814251,38.52559 20.266641,36.96723 3.660587,-0.10921 7.276775,-1.06036 10.567656,-2.65375 z m 140.44,-20.66 c 9.13885,-14.91273 -32.05212,-5.34075 -12.58976,-16.82392 9.00712,-8.392185 21.36871,-14.29573 27.90976,-24.696082 -6.5085,-11.98797 -18.71744,7.347754 -26.66691,10.934839 -5.02769,3.978387 -10.05539,7.956774 -15.08309,11.935161 0.66851,-6.675256 1.84874,-13.33102 1.83,-20.05 -10.94694,-10.295976 -11.01066,11.726261 -11.99951,18.755581 0.0843,4.905061 -3.46641,10.822241 1.18951,14.454421 8.75344,6.20563 24.99771,6.90878 35.41,5.49 z m -67.45,-1.21 c 12.55592,-5.12523 10.23121,-25.79842 -3.08781,-27.994064 -12.32447,-3.686171 -23.50543,11.532074 -16.51264,22.186894 3.82158,6.48506 12.84893,9.64963 19.60045,5.80717 z m -25.78,-66.940002 c 6.02544,-3.329217 17.19519,-19.424132 3.68914,-16.110078 -4.56282,2.500483 -10.16937,10.507702 -13.46914,11.723028 -0.34118,-14.554289 0.87335,-29.256048 -0.94873,-43.6858996 -5.06458,-5.9454484 -11.277757,2.4825097 -9.05127,7.9963996 0,12.165517 0,24.331033 0,36.49655 -4.93185,-4.649002 -9.305919,-10.045297 -15.04,-13.72 -12.850653,7.808331 10.31927,19.584854 15.365,26.945 8.23619,5.400107 14.05764,-5.313243 19.455,-9.645 z"
   id="path30" />

</svg>
