<?xml version="1.0" encoding="utf-8"?>
<!-- Generator: Adobe Illustrator 27.7.0, SVG Export Plug-In . SVG Version: 6.00 Build 0)  -->
<svg version="1.1" id="Layer_1" xmlns="http://www.w3.org/2000/svg" xmlns:xlink="http://www.w3.org/1999/xlink" x="0px" y="0px"
	 viewBox="0 0 829 288" style="enable-background:new 0 0 829 288;" xml:space="preserve">
<style type="text/css">
	.st0{fill:#0F62FE;}
	.st1{fill:none;stroke:#0F62FE;stroke-width:10;stroke-miterlimit:10;}
</style>
<g>
	<path class="st0" d="M819,10v268H10V10H819 M829,0H0v288h829V0L829,0z"/>
</g>
<g>
	<path class="st0" d="M333.66,78.78c-3.41,0-6.48-0.54-9.22-1.62c-2.74-1.08-5.06-2.69-6.98-4.82c-1.92-2.13-3.41-4.8-4.46-7.99
		c-1.06-3.19-1.58-6.92-1.58-11.2c0-4.22,0.53-7.98,1.58-11.27c1.06-3.29,2.54-6.05,4.46-8.28c1.92-2.23,4.25-3.92,6.98-5.08
		c2.74-1.15,5.81-1.73,9.22-1.73c4.66,0,8.5,0.95,11.52,2.84c3.02,1.9,5.45,4.88,7.27,8.96l-9.43,4.9c-0.67-2.11-1.72-3.8-3.13-5.08
		c-1.42-1.27-3.49-1.91-6.23-1.91c-3.22,0-5.8,1.04-7.74,3.13c-1.94,2.09-2.92,5.12-2.92,9.11v8.06c0,3.98,0.97,7.02,2.92,9.11
		c1.94,2.09,4.52,3.13,7.74,3.13c2.69,0,4.84-0.73,6.44-2.2c1.61-1.46,2.8-3.23,3.56-5.29l8.93,5.18c-1.87,3.84-4.33,6.8-7.38,8.89
		C342.16,77.74,338.31,78.78,333.66,78.78z"/>
	<path class="st0" d="M390,57h-19v21h-11V28h11v20h19V28h11v50h-11V57z"/>
	<path class="st0" d="M412,78V28h34v10h-23v10h20v9h-20v11h23v10H412z"/>
	<path class="st0" d="M493,45h0.11l-3.67,7.29l-9.79,17.78l-9.58-17.71L466.26,45H466v33h-10V27h11.38l12.09,24h0.14l11.94-24H503
		v51h-10V45z"/>
	<path class="st0" d="M513,78v-9h6V37h-6v-9h23v8h-6v33h7v9H513z"/>
	<path class="st0" d="M565.66,78.78c-3.41,0-6.48-0.54-9.22-1.62c-2.74-1.08-5.06-2.69-6.98-4.82c-1.92-2.13-3.41-4.8-4.46-7.99
		c-1.06-3.19-1.58-6.92-1.58-11.2c0-4.22,0.53-7.98,1.58-11.27c1.06-3.29,2.54-6.05,4.46-8.28c1.92-2.23,4.25-3.92,6.98-5.08
		c2.74-1.15,5.81-1.73,9.22-1.73c4.66,0,8.5,0.95,11.52,2.84c3.02,1.9,5.45,4.88,7.27,8.96l-9.43,4.9c-0.67-2.11-1.72-3.8-3.13-5.08
		c-1.42-1.27-3.49-1.91-6.23-1.91c-3.22,0-5.8,1.04-7.74,3.13c-1.94,2.09-2.92,5.12-2.92,9.11v8.06c0,3.98,0.97,7.02,2.92,9.11
		c1.94,2.09,4.52,3.13,7.74,3.13c2.69,0,4.84-0.73,6.44-2.2c1.61-1.46,2.8-3.23,3.56-5.29l8.93,5.18c-1.87,3.84-4.33,6.8-7.38,8.89
		C574.16,77.74,570.31,78.78,565.66,78.78z"/>
	<path class="st0" d="M623.12,78l-3.61-12h-16.84l-3.61,12h-10.92l16.48-50h13.47l16.26,50H623.12z M611.19,38h-0.36l-5.52,19h11.47
		L611.19,38z"/>
	<path class="st0" d="M641,78V27h11v41h19v10H641z"/>
	<path class="st0" d="M313,164v-50h34v10h-23v10h20v10h-20v10h23v10H313z"/>
	<path class="st0" d="M372.08,140.13L367.22,130H367v34h-10v-50h12.75l13.36,23.87l4.69,10.13H388v-34h10v50h-12.05L372.08,140.13z"
		/>
	<path class="st0" d="M441,156h-0.14c-0.38,2.57-1.68,4.71-3.88,6.41c-2.21,1.7-5.2,2.55-8.99,2.55c-2.88,0-5.56-0.56-8.06-1.68
		c-2.49-1.12-4.67-2.77-6.54-4.95c-1.87-2.18-3.33-4.9-4.39-8.16c-1.05-3.25-1.58-7.02-1.58-11.29c0-4.27,0.55-8.06,1.65-11.36
		c1.1-3.3,2.65-6.07,4.64-8.3c1.99-2.23,4.37-3.93,7.16-5.1c2.78-1.17,5.87-1.75,9.28-1.75c4.51,0,8.39,0.98,11.65,2.95
		c3.26,1.97,5.83,4.92,7.7,8.85l-8.92,5.17c-0.77-1.99-1.97-3.68-3.6-5.06c-1.63-1.38-3.91-2.08-6.83-2.08c-3.4,0-6.11,1-8.13,2.99
		c-2.01,1.99-3.02,5.13-3.02,9.4v8.16c0,4.22,1.01,7.35,3.02,9.36c2.01,2.02,4.72,3.02,8.13,3.02c1.34,0,2.61-0.16,3.81-0.47
		c1.2-0.32,2.25-0.8,3.16-1.46c0.91-0.66,1.62-1.44,2.12-2.37c0.5-0.92,0.76-2.02,0.76-3.28V145h-10v-9h20v28h-9V156z"/>
	<path class="st0" d="M459,164v-8h6v-33h-6v-9h23v9h-6v32h7v9H459z"/>
	<path class="st0" d="M507.08,140.13L502.22,130H502v34h-10v-50h12.75l13.36,23.87l4.69,10.13H523v-34h10v50h-12.05L507.08,140.13z"
		/>
	<path class="st0" d="M544,164v-50h34v10h-23v10h20v10h-20v10h23v10H544z"/>
	<path class="st0" d="M588,164v-50h34v10h-24v10h20v10h-20v10h24v10H588z"/>
	<path class="st0" d="M642,164h-11v-50h23.71c2.29,0,4.37,0.38,6.23,1.15c1.86,0.76,3.45,1.85,4.76,3.26
		c1.31,1.41,2.33,3.09,3.04,5.05c0.72,1.96,1.07,4.13,1.07,6.52c0,3.39-0.75,6.35-2.26,8.88c-1.5,2.53-3.79,4.37-6.84,5.52
		l9.81,19.63h-12.3l-8.58-18H642V164z M653.67,137c1.65,0,2.96-0.42,3.9-1.25c0.95-0.83,1.42-2.06,1.42-3.68v-3.14
		c0-1.62-0.47-2.84-1.42-3.68c-0.95-0.83-2.25-1.25-3.9-1.25H642v13H653.67z"/>
	<path class="st0" d="M678,164v-8h6v-33h-6v-9h24v9h-6v32h6v9H678z"/>
	<path class="st0" d="M726.08,140.13L721.22,130H721v34h-10v-50h12.75l13.36,23.87l4.69,10.13H742v-34h10v50h-12.05L726.08,140.13z"
		/>
	<path class="st0" d="M795,156h-0.14c-0.38,2.57-1.68,4.71-3.88,6.41c-2.21,1.7-5.2,2.55-8.99,2.55c-2.88,0-5.56-0.56-8.06-1.68
		c-2.49-1.12-4.67-2.77-6.54-4.95c-1.87-2.18-3.33-4.9-4.39-8.16c-1.05-3.25-1.58-7.02-1.58-11.29c0-4.27,0.55-8.06,1.65-11.36
		c1.1-3.3,2.65-6.07,4.64-8.3c1.99-2.23,4.37-3.93,7.16-5.1c2.78-1.17,5.87-1.75,9.28-1.75c4.51,0,8.39,0.98,11.65,2.95
		c3.26,1.97,5.83,4.92,7.7,8.85l-8.92,5.17c-0.77-1.99-1.97-3.68-3.6-5.06c-1.63-1.38-3.91-2.08-6.83-2.08c-3.4,0-6.11,1-8.13,2.99
		c-2.01,1.99-3.02,5.13-3.02,9.4v8.16c0,4.22,1.01,7.35,3.02,9.36c2.01,2.02,4.72,3.02,8.13,3.02c1.34,0,2.61-0.16,3.81-0.47
		c1.2-0.32,2.25-0.8,3.16-1.46c0.91-0.66,1.62-1.44,2.12-2.37c0.5-0.92,0.76-2.02,0.76-3.28V145h-10v-9h20v28h-9V156z"/>
	<path class="st0" d="M313,251v-51h34v10h-23v10h20v10h-20v11h23v10H313z"/>
	<path class="st0" d="M357,201h18.84c3.29,0,6.3,0.53,9.03,1.58c2.72,1.05,5.04,2.61,6.95,4.69c1.91,2.08,3.39,4.68,4.44,7.81
		c1.05,3.13,1.58,6.77,1.58,10.92s-0.53,7.8-1.58,10.92c-1.05,3.13-2.53,5.73-4.44,7.81c-1.91,2.08-4.23,3.64-6.95,4.69
		c-2.72,1.05-5.73,1.58-9.03,1.58H357V201z M375.21,241c3.35,0,5.99-0.92,7.91-2.75c1.92-1.83,2.88-4.78,2.88-8.84v-7.82
		c0-4.06-0.96-7-2.88-8.84c-1.92-1.84-4.56-2.75-7.91-2.75H367v31H375.21z"/>
	<path class="st0" d="M417,200v30.82c0,3.55,0.69,6.21,2.07,7.96c1.38,1.75,3.69,2.63,6.93,2.63c3.24,0,5.55-0.88,6.93-2.63
		c1.38-1.75,2.07-4.4,2.07-7.96V200h11v29.66c0,3.7-0.34,6.9-1.03,9.61c-0.69,2.71-1.81,4.95-3.38,6.7
		c-1.57,1.75-3.58,3.05-6.05,3.89c-2.47,0.84-5.48,1.26-9.04,1.26c-3.56,0-6.57-0.42-9.04-1.26c-2.47-0.84-4.48-2.13-6.05-3.89
		c-1.57-1.75-2.69-3.98-3.38-6.7c-0.69-2.71-1.03-5.92-1.03-9.61V200H417z"/>
	<path class="st0" d="M477.66,251.58c-3.41,0-6.48-0.54-9.22-1.62c-2.74-1.08-5.06-2.69-6.98-4.82c-1.92-2.13-3.41-4.8-4.46-7.99
		c-1.06-3.19-1.58-6.92-1.58-11.2c0-4.22,0.53-7.98,1.58-11.27c1.06-3.29,2.54-6.05,4.46-8.28c1.92-2.23,4.25-3.92,6.98-5.08
		c2.74-1.15,5.81-1.73,9.22-1.73c4.66,0,8.5,0.95,11.52,2.84c3.02,1.9,5.45,4.88,7.27,8.96l-9.43,4.9c-0.67-2.11-1.72-3.8-3.13-5.08
		c-1.42-1.27-3.49-1.91-6.23-1.91c-3.22,0-5.8,1.04-7.74,3.13c-1.94,2.09-2.92,5.12-2.92,9.11v8.06c0,3.98,0.97,7.02,2.92,9.11
		c1.94,2.09,4.52,3.13,7.74,3.13c2.69,0,4.84-0.73,6.44-2.2c1.61-1.46,2.8-3.23,3.56-5.29l8.93,5.18c-1.87,3.84-4.33,6.8-7.38,8.89
		C486.16,250.54,482.31,251.58,477.66,251.58z"/>
	<path class="st0" d="M534.2,251l-3.61-12h-16.84l-3.61,12h-10.92l16.48-50h13.47l16.26,50H534.2z M522.27,210h-0.36l-5.52,19h11.47
		L522.27,210z"/>
	<path class="st0" d="M569,210v41h-11v-41h-14v-10h38v10H569z"/>
	<path class="st0" d="M588,251v-9h6v-33h-6v-9h23v9h-6v33h7v9H588z"/>
	<path class="st0" d="M640.86,251.58c-3.31,0-6.34-0.55-9.07-1.66c-2.74-1.1-5.06-2.75-6.98-4.93c-1.92-2.18-3.41-4.9-4.46-8.14
		c-1.06-3.24-1.58-7-1.58-11.27c0-4.27,0.53-8.03,1.58-11.27c1.06-3.24,2.54-5.95,4.46-8.14c1.92-2.18,4.25-3.83,6.98-4.93
		c2.74-1.1,5.76-1.66,9.07-1.66c3.31,0,6.34,0.55,9.07,1.66c2.74,1.1,5.06,2.75,6.98,4.93c1.92,2.18,3.41,4.9,4.46,8.14
		c1.06,3.24,1.58,7,1.58,11.27c0,4.27-0.53,8.03-1.58,11.27c-1.06,3.24-2.54,5.95-4.46,8.14c-1.92,2.18-4.25,3.83-6.98,4.93
		C647.19,251.03,644.17,251.58,640.86,251.58z M640.5,241.84c3.31,0,5.89-1.08,7.73-3.24c1.84-2.16,2.77-5.25,2.77-9.28v-7.48
		c0-4.03-0.92-7.12-2.77-9.28c-1.85-2.16-4.42-3.24-7.73-3.24c-3.31,0-5.89,1.08-7.73,3.24c-1.85,2.16-2.77,5.25-2.77,9.28v7.48
		c0,4.03,0.92,7.12,2.77,9.28C634.61,240.76,637.19,241.84,640.5,241.84z"/>
	<path class="st0" d="M687.08,227.13L682.22,217H682v34h-10v-50h12.75l13.36,23.17l4.69,9.83H703v-33h10v50h-12.05L687.08,227.13z"
		/>
</g>
<path class="st0" d="M134.91,268.23c5.52-2.38,11.49-8.76,13.38-14.32c5.55-16.28-5.87-33.55-22.48-34
	c-10.62-0.29-19.29,4.63-23.83,13.5c-2.26,4.43-2.59,5.96-2.57,12c0.02,5.79,0.4,7.64,2.28,11.23
	C108.18,268.96,122,273.78,134.91,268.23L134.91,268.23z M64.87,238.81c1.55-1.14,11.78-26.98,11.72-29.61
	c-0.02-0.85-0.74-2.86-1.59-4.46c-1.42-2.66-2.72-3.36-14.79-7.9c-16.88-6.36-20.54-6.49-20.54-0.74c0,3.13,1.84,4.52,10.31,7.72
	c4.02,1.52,7.61,3.05,7.99,3.39c0.38,0.34-8.17,4.57-19.01,9.4c-10.83,4.83-20.13,9.22-20.67,9.75c-1.66,1.66-1.14,5.57,0.94,7.02
	c1.05,0.74,2.38,1.34,2.95,1.34c0.57,0,9.86-4.01,20.65-8.91c10.78-4.9,19.72-8.64,19.85-8.3c0.13,0.33-1.12,4.18-2.79,8.56
	c-3.47,9.09-3.5,9.33-1.69,11.9C59.68,240.09,62.62,240.46,64.87,238.81L64.87,238.81z M182,234.05c18-9.4,14.31-36.14-5.6-40.56
	c-10.21-2.26-21.64,3.93-25.09,13.6c-1.5,4.19-1.49,12.39,0.01,15.97c1.75,4.18,7.28,9.97,11.26,11.78
	C168.05,237.35,176.34,237.01,182,234.05L182,234.05z M231,235.42c1.81-1.81,1.13-5.4-2.48-13.1c-1.93-4.12-3.34-7.66-3.14-7.86
	c0.2-0.2,9.49,2.97,20.64,7.05c21.7,7.95,24.15,8.35,25.21,4.12c1.22-4.88,0.12-5.57-21.92-13.64c-11.39-4.17-20.71-7.75-20.71-7.95
	c0-0.2,3.38-1.93,7.52-3.85c4.14-1.92,8.2-4.08,9.02-4.8c2.18-1.9,1.93-5.88-0.48-7.46c-2.56-1.68-4.05-1.22-18.83,5.83
	c-9.5,4.52-12.13,6.17-13.53,8.47c-0.96,1.57-1.74,3.43-1.74,4.13c0,1.33,10.6,24.79,12.72,28.16
	C224.64,236.67,229.21,237.21,231,235.42L231,235.42z M138.09,207.35c7.24-3.39,13.49-9.67,16.93-17.03
	c2.29-4.9,2.69-6.74,2.71-12.67c0.04-8.71-1.17-12.84-5.75-19.52c-4.04-5.91-10.75-11.08-17.19-13.26
	c-4.92-1.66-14.15-1.85-19.51-0.38c-9.29,2.53-19.37,12.07-22.88,21.66c-2.02,5.52-1.81,16.33,0.43,22.18
	c3.74,9.76,13.13,18.36,23.18,21.2C122.38,211.33,131.51,210.43,138.09,207.35L138.09,207.35z M200.67,175.98
	c6.19-2.59,10.24-10.8,8.72-17.71c-0.76-3.47-5.18-8.53-8.77-10.03c-6.34-2.65-14.54-0.43-18.4,4.99
	c-2.68,3.77-3.23,11.34-1.13,15.76C184.26,175.68,193.5,178.97,200.67,175.98z M87.57,156.87c14.38-6.94,17.54-26.76,6.03-37.87
	c-5.82-5.61-8.6-6.71-16.98-6.71c-8.75,0-12.52,1.64-17.95,7.8c-5.66,6.43-7.31,14.06-4.83,22.39
	C58.17,157.06,73.57,163.63,87.57,156.87L87.57,156.87z M228.01,136.21c2.22-2.01,2.03-5.98-0.36-7.49
	c-1.06-0.67-5.93-1.69-10.81-2.27c-4.88-0.58-8.55-1.33-8.16-1.68c0.39-0.34,8.35-6.67,17.68-14.07
	c15.26-12.09,16.97-13.7,16.97-16.01c0-3.37-3.43-5.85-6.29-4.55c-1.06,0.48-9.47,6.85-18.69,14.15l-16.77,13.27l1.1-9.51
	c0.61-5.23,0.93-9.97,0.73-10.54c-0.21-0.56-1.36-1.67-2.57-2.46c-2.01-1.32-2.36-1.32-4.28-0.07c-2.66,1.75-2.68,1.81-4.79,18.44
	L190,127.43l2.6,3.29c2.55,3.22,2.76,3.3,10.98,4.31c4.61,0.56,10.51,1.33,13.11,1.71C224.22,137.82,226.34,137.72,228.01,136.21
	L228.01,136.21z M160.56,135c8.81-4.26,11.2-15.6,4.88-23.12c-3.11-3.7-6.37-5.16-11.48-5.16c-5.1,0-8.37,1.47-11.48,5.16
	c-6.33,7.53-4.03,18.73,4.74,23.07C151.92,137.27,155.84,137.28,160.56,135L160.56,135z M134.78,68.06
	c6.57-6.56,11.05-11.68,11.05-12.64c0-0.89-0.62-2.3-1.38-3.14c-2.67-2.95-5.08-1.92-12.47,5.29L125,64.39V42.26
	c0-23.35,0.03-23.14-3.94-24.36c-1.37-0.42-2.41-0.02-3.96,1.53l-2.1,2.1v42.95l-6.89-6.86c-3.79-3.77-7.46-6.86-8.15-6.86
	c-2.36,0-4.96,2.53-4.96,4.83c0,1.75,2.3,4.54,10.61,12.87c10.45,10.48,10.67,10.63,14.36,10.63
	C123.68,79.09,123.88,78.94,134.78,68.06L134.78,68.06z"/>
<line class="st1" x1="289" y1="9" x2="289" y2="279"/>
</svg>
