<svg xmlns="http://www.w3.org/2000/svg" width="600" height="230"><path d="M-455.792 346.439c3.266-1.405 6.794-5.178 7.913-8.464 3.28-9.624-3.471-19.834-13.29-20.1-6.278-.171-11.406 2.735-14.087 7.983-1.337 2.616-1.53 3.525-1.518 7.097.012 3.423.235 4.516 1.35 6.637 3.827 7.283 11.996 10.132 19.632 6.847zm-41.407-17.388c.917-.672 6.963-15.95 6.927-17.503-.012-.502-.435-1.689-.94-2.638-.84-1.574-1.607-1.984-8.743-4.673-9.977-3.76-12.14-3.838-12.14-.437 0 1.852 1.09 2.67 6.096 4.566 2.375.9 4.5 1.801 4.724 2.004.224.202-4.832 2.704-11.236 5.558-6.403 2.855-11.901 5.45-12.218 5.766-.98.98-.671 3.295.554 4.153.621.435 1.406.791 1.743.791.338 0 5.83-2.37 12.207-5.268 6.375-2.898 11.656-5.106 11.734-4.909.078.198-.665 2.474-1.651 5.058-2.05 5.371-2.07 5.513-1.002 7.038.876 1.25 2.615 1.469 3.945.494zm68.985-2.816c10.644-5.56 8.46-21.366-3.313-23.977-6.036-1.338-12.792 2.324-14.834 8.04-.884 2.475-.882 7.323.003 9.442 1.033 2.47 4.304 5.896 6.654 6.966 3.244 1.478 8.144 1.277 11.49-.47zm29.303.81c1.069-1.069.666-3.195-1.466-7.744-1.141-2.436-1.977-4.527-1.857-4.647.12-.12 5.61 1.756 12.2 4.169 12.827 4.697 14.277 4.934 14.904 2.436.724-2.886.07-3.293-12.958-8.064-6.735-2.466-12.245-4.58-12.245-4.698 0-.117 2-1.142 4.445-2.277 2.445-1.135 4.845-2.413 5.334-2.84 1.29-1.126 1.14-3.479-.281-4.41-1.515-.993-2.396-.72-11.134 3.444-5.615 2.675-7.17 3.65-8 5.01-.565.928-1.03 2.026-1.03 2.44-.002.786 6.265 14.656 7.521 16.647.805 1.274 3.51 1.59 4.567.533zm-55-16.597c4.279-2.002 7.973-5.719 10.009-10.07 1.356-2.897 1.589-3.983 1.605-7.488.023-5.152-.694-7.588-3.397-11.538-2.39-3.493-6.355-6.55-10.163-7.837-2.91-.984-8.365-1.091-11.534-.227-5.495 1.498-11.45 7.138-13.525 12.808-1.194 3.263-1.072 9.652.252 13.11 2.209 5.77 7.764 10.853 13.701 12.534 3.759 1.065 9.159.53 13.052-1.292zm36.995-18.546c3.66-1.53 6.052-6.385 5.155-10.468-.451-2.053-3.065-5.04-5.185-5.927-3.751-1.567-8.597-.252-10.878 2.952-1.587 2.23-1.909 6.705-.67 9.317 1.876 3.952 7.337 5.898 11.578 4.126zm-66.864-11.294c8.503-4.104 10.37-15.823 3.567-22.386-3.44-3.319-5.082-3.967-10.038-3.965-5.174.002-7.402.971-10.609 4.614-3.345 3.801-4.32 8.313-2.858 13.234 2.558 8.614 11.664 12.497 19.938 8.503zm83.026-12.216c1.314-1.19 1.2-3.537-.214-4.429-.629-.396-3.504-1.001-6.39-1.344-2.885-.342-5.057-.789-4.826-.993.231-.203 4.936-3.946 10.454-8.316 9.021-7.146 10.033-8.1 10.033-9.463 0-1.99-2.03-3.458-3.72-2.688-.626.285-5.598 4.049-11.05 8.363l-9.912 7.845.652-5.624c.358-3.094.551-5.897.43-6.23-.122-.333-.806-.988-1.52-1.456-1.19-.78-1.398-.783-2.528-.043-1.575 1.032-1.585 1.07-2.831 10.9l-1.052 8.287 1.539 1.943c1.509 1.905 1.632 1.953 6.494 2.548 2.726.333 6.213.788 7.75 1.01 4.453.644 5.701.586 6.691-.31zm-39.876-.727c5.208-2.521 6.623-9.225 2.884-13.668-1.838-2.185-3.767-3.053-6.784-3.053s-4.946.868-6.784 3.053c-3.744 4.449-2.382 11.07 2.805 13.638 2.772 1.372 5.09 1.38 7.88.03zm-14.702-39.193c4.007-4 6.738-7.123 6.738-7.707 0-.541-.378-1.401-.84-1.912-1.626-1.796-3.1-1.17-7.604 3.225l-4.256 4.154v-13.49c0-14.238.02-14.11-2.405-14.854-.835-.256-1.472-.01-2.413.93l-1.279 1.279v26.186l-4.201-4.18c-2.311-2.298-4.546-4.18-4.967-4.18-1.441 0-3.024 1.54-3.024 2.943 0 1.066 1.405 2.77 6.47 7.846 6.374 6.388 6.504 6.484 8.756 6.484 2.256 0 2.378-.091 9.025-6.724z" style="fill:#0f62fe;stroke-width:.508011" transform="translate(583.228 -157.793)"/><g aria-label="CHEMICAL ENGINEERING EDUCATION" style="font-weight:700;font-size:46.5549px;font-family:&quot;IBM Plex Sans&quot;;-inkscape-font-specification:&quot;IBM Plex Sans, Bold&quot;;fill:#0f62fe;stroke-width:.872906"><path d="M237.66 73.613q-3.305 0-5.959-1.025-2.654-1.07-4.516-3.119-1.862-2.095-2.886-5.167-1.024-3.12-1.024-7.263 0-4.097 1.024-7.262 1.024-3.213 2.886-5.354 1.862-2.188 4.516-3.306Q234.355 40 237.661 40q4.515 0 7.448 1.862 2.933 1.816 4.702 5.773l-6.099 3.166q-.652-2.049-2.048-3.26-1.35-1.256-4.004-1.256-3.12 0-5.028 2.048-1.862 2.002-1.862 5.866v5.214q0 3.864 1.862 5.913 1.909 2.002 5.028 2.002 2.607 0 4.143-1.397 1.583-1.443 2.328-3.445l5.773 3.352q-1.816 3.724-4.795 5.773-2.933 2.002-7.449 2.002zM274.299 59.74h-12.384v13.314h-7.076V40.559h7.076V53.5H274.3V40.559h7.076v32.495H274.3zM288.545 73.054V40.559h22.113v6.285h-15.037V53.5h12.896v6.238H295.62v7.03h15.037v6.285zM341.105 51.732h-.14l-2.374 4.748-6.331 11.5-6.192-11.453-2.467-5.121h-.14v21.648h-6.657V40.559h7.495l7.96 15.223h.094l7.868-15.223h7.542v32.495h-6.658zM353.675 73.054v-5.633h4.19V46.19h-4.19V40.56h15.456v5.633h-4.19V67.42h4.19v5.633zM388.172 73.613q-3.305 0-5.959-1.025-2.653-1.07-4.516-3.119-1.862-2.095-2.886-5.167-1.024-3.12-1.024-7.263 0-4.097 1.024-7.262 1.024-3.213 2.886-5.354 1.863-2.188 4.516-3.306Q384.867 40 388.173 40q4.515 0 7.448 1.862 2.933 1.816 4.702 5.773l-6.099 3.166q-.651-2.049-2.048-3.26-1.35-1.256-4.004-1.256-3.119 0-5.028 2.048-1.862 2.002-1.862 5.866v5.214q0 3.864 1.862 5.913 1.909 2.002 5.028 2.002 2.607 0 4.144-1.397 1.582-1.443 2.327-3.445l5.773 3.352q-1.816 3.724-4.795 5.773-2.933 2.002-7.449 2.002zM424.997 73.054l-2.328-7.728h-10.847l-2.328 7.728h-7.17l10.709-32.495h8.752l10.568 32.495zm-7.681-26.07h-.233l-3.585 12.336h7.449zM436.869 73.054V40.559h7.076v26.21h12.384v6.285zM224.532 131.248V98.752h22.113v6.285h-15.037v6.658h12.896v6.238h-12.896v7.03h15.037v6.285zM262.707 115.884l-3.12-6.517h-.14v21.88h-6.657V98.753h7.729l8.892 15.363 3.119 6.518h.14v-21.88h6.657v32.495h-7.728zM307.12 126.08h-.233q-.372 2.467-2.514 4.097-2.141 1.63-5.819 1.63-2.793 0-5.214-1.071-2.421-1.071-4.237-3.166-1.815-2.095-2.84-5.214-1.024-3.12-1.024-7.216 0-4.097 1.071-7.263 1.07-3.166 2.98-5.307 1.955-2.142 4.655-3.26 2.7-1.116 6.006-1.116 4.376 0 7.542 1.908 3.165 1.863 4.98 5.634l-5.772 3.305q-.745-1.909-2.328-3.212-1.583-1.35-4.422-1.35-3.306 0-5.261 1.908-1.955 1.909-1.955 6.006v5.214q0 4.05 1.955 6.006 1.955 1.908 5.26 1.908 1.304 0 2.468-.279 1.164-.326 2.048-.931.885-.652 1.35-1.536.513-.885.513-2.095v-1.63h-6.052v-5.912h12.802v18.11h-5.959zM318.712 131.248v-5.634h4.19v-21.229h-4.19v-5.633h15.456v5.633h-4.19v21.23h4.19v5.633zM349.997 115.884l-3.12-6.517h-.139v21.88h-6.657V98.753h7.728l8.892 15.363 3.12 6.518h.139v-21.88h6.657v32.495h-7.728zM373.787 131.248V98.752H395.9v6.285h-15.037v6.658h12.896v6.238h-12.896v7.03H395.9v6.285zM402.046 131.248V98.752h22.113v6.285h-15.037v6.658h12.896v6.238h-12.896v7.03h15.037v6.285zM437.38 131.248h-7.076V98.752h15.41q2.235 0 4.05.745 1.816.745 3.073 2.142 1.303 1.35 2.002 3.259.698 1.908.698 4.236 0 3.305-1.49 5.773-1.443 2.467-4.422 3.585l6.378 12.756h-7.868l-5.68-11.918h-5.074zm7.45-17.877q1.582 0 2.467-.792.931-.838.931-2.42v-2.05q0-1.582-.931-2.373-.885-.838-2.467-.838h-7.45v8.473zM460.425 131.248v-5.634h4.19v-21.229h-4.19v-5.633h15.457v5.633h-4.19v21.23h4.19v5.633zM491.71 115.884l-3.119-6.517h-.14v21.88h-6.657V98.753h7.728l8.892 15.363 3.12 6.518h.139v-21.88h6.657v32.495h-7.728zM536.124 126.08h-.233q-.373 2.467-2.514 4.097-2.142 1.63-5.82 1.63-2.793 0-5.214-1.071-2.42-1.071-4.236-3.166-1.816-2.095-2.84-5.214-1.024-3.12-1.024-7.216 0-4.097 1.07-7.263 1.071-3.166 2.98-5.307 1.955-2.142 4.656-3.26 2.7-1.116 6.005-1.116 4.376 0 7.542 1.908 3.166 1.863 4.981 5.634l-5.772 3.305q-.745-1.909-2.328-3.212-1.583-1.35-4.423-1.35-3.305 0-5.26 1.908-1.956 1.909-1.956 6.006v5.214q0 4.05 1.956 6.006 1.955 1.908 5.26 1.908 1.304 0 2.468-.279 1.164-.326 2.048-.931.885-.652 1.35-1.536.512-.885.512-2.095v-1.63h-6.052v-5.912h12.803v18.11h-5.96zM224.532 189.441v-32.495h22.113v6.285h-15.037v6.657h12.896v6.239h-12.896v7.03h15.037v6.284zM252.79 156.946h12.244q3.213 0 5.866 1.024 2.654 1.024 4.516 3.073 1.862 2.002 2.887 5.074 1.024 3.026 1.024 7.077 0 4.05-1.024 7.122-1.025 3.027-2.887 5.075-1.862 2.002-4.516 3.026-2.653 1.024-5.866 1.024H252.79zm12.244 26.21q3.166 0 4.982-1.769 1.815-1.769 1.815-5.68v-5.027q0-3.911-1.815-5.68-1.816-1.77-4.982-1.77h-5.167v19.926zM291.943 156.946v19.925q0 3.445 1.35 5.168 1.35 1.676 4.516 1.676t4.516-1.676q1.35-1.723 1.35-5.168v-19.925h6.89v19.18q0 3.585-.698 6.239-.652 2.607-2.188 4.33-1.537 1.675-3.957 2.513-2.421.792-5.913.792-3.492 0-5.912-.792-2.421-.838-3.958-2.514-1.536-1.722-2.234-4.33-.652-2.653-.652-6.237v-19.181zM330.677 190q-3.306 0-5.96-1.024-2.653-1.071-4.515-3.12-1.862-2.094-2.886-5.167-1.025-3.12-1.025-7.263 0-4.096 1.025-7.262 1.024-3.213 2.886-5.354 1.862-2.188 4.516-3.305 2.653-1.118 5.959-1.118 4.516 0 7.449 1.862 2.933 1.816 4.702 5.773l-6.099 3.166q-.652-2.048-2.048-3.259-1.35-1.257-4.004-1.257-3.12 0-5.028 2.049-1.862 2.001-1.862 5.865v5.215q0 3.864 1.862 5.912 1.909 2.002 5.028 2.002 2.607 0 4.143-1.397 1.583-1.443 2.328-3.445l5.773 3.352q-1.816 3.725-4.795 5.773-2.933 2.002-7.45 2.002zM367.502 189.441l-2.328-7.728h-10.847l-2.328 7.728h-7.17l10.708-32.495h8.753l10.568 32.495zm-7.682-26.07h-.232l-3.585 12.337h7.449zM389.895 163.23v26.211h-7.077v-26.21h-8.799v-6.285h24.675v6.285zM402.092 189.441v-5.633h4.19V162.58h-4.19v-5.633h15.456v5.633h-4.19v21.23h4.19v5.632zM436.496 190q-3.212 0-5.866-1.07-2.653-1.072-4.516-3.167-1.862-2.141-2.886-5.26-1.024-3.166-1.024-7.31 0-4.143 1.024-7.262 1.024-3.166 2.886-5.26 1.863-2.142 4.516-3.213 2.654-1.07 5.866-1.07 3.212 0 5.866 1.07 2.654 1.07 4.516 3.212 1.862 2.095 2.886 5.261 1.024 3.12 1.024 7.263t-1.024 7.309q-1.024 3.119-2.886 5.26-1.862 2.095-4.516 3.166-2.654 1.07-5.866 1.07zm0-6.285q3.212 0 4.981-2.095 1.816-2.095 1.816-6.006v-4.841q0-3.91-1.816-6.006-1.769-2.095-4.98-2.095-3.213 0-5.029 2.095-1.769 2.095-1.769 6.006v4.841q0 3.911 1.77 6.006 1.815 2.095 5.027 2.095zM466.617 174.078l-3.119-6.518h-.14v21.881h-6.657v-32.495h7.728l8.892 15.363 3.12 6.518h.139v-21.881h6.657v32.495h-7.728z"/></g><path d="M-583.228 157.793v230h600v-230zm10 10h580v210h-580Z" style="fill:#0f62fe;stroke-width:112.927" transform="translate(583.228 -157.793)"/></svg>