<?xml version="1.0" encoding="utf-8" standalone="no"?>
<!DOCTYPE svg PUBLIC "-//W3C//DTD SVG 1.1//EN"
  "http://www.w3.org/Graphics/SVG/1.1/DTD/svg11.dtd">
<svg xmlns:xlink="http://www.w3.org/1999/xlink" width="360pt" height="360pt" viewBox="0 0 360 360" xmlns="http://www.w3.org/2000/svg" version="1.1">
 <metadata>
  <rdf:RDF xmlns:dc="http://purl.org/dc/elements/1.1/" xmlns:cc="http://creativecommons.org/ns#" xmlns:rdf="http://www.w3.org/1999/02/22-rdf-syntax-ns#">
   <cc:Work>
    <dc:type rdf:resource="http://purl.org/dc/dcmitype/StillImage"/>
    <dc:date>2025-08-24T21:04:46.810142</dc:date>
    <dc:format>image/svg+xml</dc:format>
    <dc:creator>
     <cc:Agent>
      <dc:title>Matplotlib v3.10.3, https://matplotlib.org/</dc:title>
     </cc:Agent>
    </dc:creator>
   </cc:Work>
  </rdf:RDF>
 </metadata>
 <defs>
  <style type="text/css">*{stroke-linejoin: round; stroke-linecap: butt}</style>
 </defs>
 <g id="figure_1">
  <g id="patch_1">
   <path d="M 0 360 
L 360 360 
L 360 0 
L 0 0 
L 0 360 
z
" style="fill: none"/>
  </g>
  <g id="axes_1">
   <g id="patch_2">
    <path d="M 46.01 319.48 
L 340.2 319.48 
L 340.2 10.8 
L 46.01 10.8 
L 46.01 319.48 
z
" style="fill: none"/>
   </g>
   <g id="matplotlib.axis_1">
    <g id="xtick_1">
     <g id="line2d_1">
      <defs>
       <path id="m387b5760c0" d="M 0 0 
L 0 3.5 
" style="stroke: #000000; stroke-width: 0.8"/>
      </defs>
      <g>
       <use xlink:href="#m387b5760c0" x="46.01" y="319.48" style="stroke: #000000; stroke-width: 0.8"/>
      </g>
     </g>
     <g id="text_1">
      <!-- 0 -->
      <g transform="translate(43.01 333.88) scale(0.1 -0.1)">
       <defs>
        <path id="IBMPlexSans-30" d="M 1920 -77 
Q 1120 -77 752 531 
Q 384 1139 384 2234 
Q 384 3328 752 3936 
Q 1120 4544 1920 4544 
Q 2720 4544 3088 3936 
Q 3456 3328 3456 2234 
Q 3456 1139 3088 531 
Q 2720 -77 1920 -77 
z
M 1920 390 
Q 2182 390 2368 499 
Q 2554 608 2669 806 
Q 2784 1005 2838 1273 
Q 2893 1542 2893 1869 
L 2893 2598 
Q 2893 2925 2838 3193 
Q 2784 3462 2669 3660 
Q 2554 3859 2368 3968 
Q 2182 4077 1920 4077 
Q 1658 4077 1472 3968 
Q 1286 3859 1171 3660 
Q 1056 3462 1001 3193 
Q 947 2925 947 2598 
L 947 1869 
Q 947 1542 1001 1273 
Q 1056 1005 1171 806 
Q 1286 608 1472 499 
Q 1658 390 1920 390 
z
" transform="scale(0.015625)"/>
       </defs>
       <use xlink:href="#IBMPlexSans-30"/>
      </g>
     </g>
    </g>
    <g id="xtick_2">
     <g id="line2d_2">
      <g>
       <use xlink:href="#m387b5760c0" x="95.041667" y="319.48" style="stroke: #000000; stroke-width: 0.8"/>
      </g>
     </g>
     <g id="text_2">
      <!-- 20 -->
      <g transform="translate(89.041667 333.88) scale(0.1 -0.1)">
       <defs>
        <path id="IBMPlexSans-32" d="M 3411 0 
L 480 0 
L 480 550 
L 1939 1894 
Q 2253 2182 2464 2505 
Q 2675 2829 2675 3155 
L 2675 3232 
Q 2675 3603 2470 3833 
Q 2266 4064 1850 4064 
Q 1645 4064 1491 4006 
Q 1338 3949 1226 3846 
Q 1114 3744 1040 3606 
Q 966 3469 922 3309 
L 442 3494 
Q 506 3693 618 3881 
Q 730 4070 899 4217 
Q 1069 4365 1309 4454 
Q 1549 4544 1875 4544 
Q 2202 4544 2458 4448 
Q 2714 4352 2886 4179 
Q 3059 4006 3152 3769 
Q 3245 3533 3245 3245 
Q 3245 2982 3171 2758 
Q 3098 2534 2970 2332 
Q 2842 2131 2659 1939 
Q 2477 1747 2266 1555 
L 1062 474 
L 3411 474 
L 3411 0 
z
" transform="scale(0.015625)"/>
       </defs>
       <use xlink:href="#IBMPlexSans-32"/>
       <use xlink:href="#IBMPlexSans-30" transform="translate(59.999985 0)"/>
      </g>
     </g>
    </g>
    <g id="xtick_3">
     <g id="line2d_3">
      <g>
       <use xlink:href="#m387b5760c0" x="144.073333" y="319.48" style="stroke: #000000; stroke-width: 0.8"/>
      </g>
     </g>
     <g id="text_3">
      <!-- 40 -->
      <g transform="translate(138.073333 333.88) scale(0.1 -0.1)">
       <defs>
        <path id="IBMPlexSans-34" d="M 2400 0 
L 2400 877 
L 243 877 
L 243 1350 
L 2112 4467 
L 2912 4467 
L 2912 1325 
L 3558 1325 
L 3558 877 
L 2912 877 
L 2912 0 
L 2400 0 
z
M 749 1325 
L 2400 1325 
L 2400 4051 
L 2368 4051 
L 749 1325 
z
" transform="scale(0.015625)"/>
       </defs>
       <use xlink:href="#IBMPlexSans-34"/>
       <use xlink:href="#IBMPlexSans-30" transform="translate(59.999985 0)"/>
      </g>
     </g>
    </g>
    <g id="xtick_4">
     <g id="line2d_4">
      <g>
       <use xlink:href="#m387b5760c0" x="193.105" y="319.48" style="stroke: #000000; stroke-width: 0.8"/>
      </g>
     </g>
     <g id="text_4">
      <!-- 60 -->
      <g transform="translate(187.105 333.88) scale(0.1 -0.1)">
       <defs>
        <path id="IBMPlexSans-36" d="M 1926 -77 
Q 1581 -77 1302 41 
Q 1024 160 829 381 
Q 634 602 531 922 
Q 429 1242 429 1638 
Q 429 2138 576 2576 
Q 723 3014 956 3376 
Q 1190 3738 1472 4016 
Q 1754 4294 2022 4467 
L 2714 4467 
Q 2355 4205 2073 3955 
Q 1792 3706 1581 3434 
Q 1370 3162 1222 2851 
Q 1075 2541 986 2150 
L 1018 2138 
Q 1178 2413 1430 2595 
Q 1683 2778 2093 2778 
Q 2381 2778 2624 2682 
Q 2867 2586 3040 2406 
Q 3213 2227 3312 1971 
Q 3411 1715 3411 1402 
Q 3411 1075 3305 803 
Q 3200 531 3005 336 
Q 2810 141 2534 32 
Q 2259 -77 1926 -77 
z
M 1920 390 
Q 2362 390 2608 633 
Q 2854 877 2854 1331 
L 2854 1382 
Q 2854 1837 2608 2080 
Q 2362 2323 1920 2323 
Q 1478 2323 1232 2080 
Q 986 1837 986 1382 
L 986 1331 
Q 986 877 1232 633 
Q 1478 390 1920 390 
z
" transform="scale(0.015625)"/>
       </defs>
       <use xlink:href="#IBMPlexSans-36"/>
       <use xlink:href="#IBMPlexSans-30" transform="translate(59.999985 0)"/>
      </g>
     </g>
    </g>
    <g id="xtick_5">
     <g id="line2d_5">
      <g>
       <use xlink:href="#m387b5760c0" x="242.136667" y="319.48" style="stroke: #000000; stroke-width: 0.8"/>
      </g>
     </g>
     <g id="text_5">
      <!-- 80 -->
      <g transform="translate(236.136667 333.88) scale(0.1 -0.1)">
       <defs>
        <path id="IBMPlexSans-38" d="M 1920 -77 
Q 1536 -77 1248 22 
Q 960 122 765 294 
Q 570 467 470 704 
Q 371 941 371 1216 
Q 371 1677 620 1945 
Q 870 2214 1274 2323 
L 1274 2374 
Q 922 2496 714 2768 
Q 506 3040 506 3424 
Q 506 3936 877 4240 
Q 1248 4544 1920 4544 
Q 2592 4544 2963 4240 
Q 3334 3936 3334 3424 
Q 3334 3040 3126 2768 
Q 2918 2496 2566 2374 
L 2566 2323 
Q 2970 2214 3219 1945 
Q 3469 1677 3469 1216 
Q 3469 941 3369 704 
Q 3270 467 3075 294 
Q 2880 122 2592 22 
Q 2304 -77 1920 -77 
z
M 1920 390 
Q 2387 390 2643 598 
Q 2899 806 2899 1190 
L 2899 1325 
Q 2899 1709 2643 1917 
Q 2387 2125 1920 2125 
Q 1453 2125 1197 1917 
Q 941 1709 941 1325 
L 941 1190 
Q 941 806 1197 598 
Q 1453 390 1920 390 
z
M 1920 2573 
Q 2342 2573 2560 2752 
Q 2778 2931 2778 3277 
L 2778 3373 
Q 2778 3718 2560 3897 
Q 2342 4077 1920 4077 
Q 1498 4077 1280 3897 
Q 1062 3718 1062 3373 
L 1062 3277 
Q 1062 2931 1280 2752 
Q 1498 2573 1920 2573 
z
" transform="scale(0.015625)"/>
       </defs>
       <use xlink:href="#IBMPlexSans-38"/>
       <use xlink:href="#IBMPlexSans-30" transform="translate(59.999985 0)"/>
      </g>
     </g>
    </g>
    <g id="xtick_6">
     <g id="line2d_6">
      <g>
       <use xlink:href="#m387b5760c0" x="291.168333" y="319.48" style="stroke: #000000; stroke-width: 0.8"/>
      </g>
     </g>
     <g id="text_6">
      <!-- 100 -->
      <g transform="translate(282.168333 333.88) scale(0.1 -0.1)">
       <defs>
        <path id="IBMPlexSans-31" d="M 563 0 
L 563 474 
L 1811 474 
L 1811 4070 
L 1766 4070 
L 640 3021 
L 326 3360 
L 1510 4467 
L 2349 4467 
L 2349 474 
L 3501 474 
L 3501 0 
L 563 0 
z
" transform="scale(0.015625)"/>
       </defs>
       <use xlink:href="#IBMPlexSans-31"/>
       <use xlink:href="#IBMPlexSans-30" transform="translate(59.999985 0)"/>
       <use xlink:href="#IBMPlexSans-30" transform="translate(119.999969 0)"/>
      </g>
     </g>
    </g>
    <g id="xtick_7">
     <g id="line2d_7">
      <g>
       <use xlink:href="#m387b5760c0" x="340.2" y="319.48" style="stroke: #000000; stroke-width: 0.8"/>
      </g>
     </g>
     <g id="text_7">
      <!-- 120 -->
      <g transform="translate(331.2 333.88) scale(0.1 -0.1)">
       <use xlink:href="#IBMPlexSans-31"/>
       <use xlink:href="#IBMPlexSans-32" transform="translate(59.999985 0)"/>
       <use xlink:href="#IBMPlexSans-30" transform="translate(119.999969 0)"/>
      </g>
     </g>
    </g>
    <g id="xtick_8">
     <g id="line2d_8">
      <defs>
       <path id="m41c8b1bb3e" d="M 0 0 
L 0 2 
" style="stroke: #000000; stroke-width: 0.6"/>
      </defs>
      <g>
       <use xlink:href="#m41c8b1bb3e" x="58.267917" y="319.48" style="stroke: #000000; stroke-width: 0.6"/>
      </g>
     </g>
    </g>
    <g id="xtick_9">
     <g id="line2d_9">
      <g>
       <use xlink:href="#m41c8b1bb3e" x="70.525833" y="319.48" style="stroke: #000000; stroke-width: 0.6"/>
      </g>
     </g>
    </g>
    <g id="xtick_10">
     <g id="line2d_10">
      <g>
       <use xlink:href="#m41c8b1bb3e" x="82.78375" y="319.48" style="stroke: #000000; stroke-width: 0.6"/>
      </g>
     </g>
    </g>
    <g id="xtick_11">
     <g id="line2d_11">
      <g>
       <use xlink:href="#m41c8b1bb3e" x="107.299583" y="319.48" style="stroke: #000000; stroke-width: 0.6"/>
      </g>
     </g>
    </g>
    <g id="xtick_12">
     <g id="line2d_12">
      <g>
       <use xlink:href="#m41c8b1bb3e" x="119.5575" y="319.48" style="stroke: #000000; stroke-width: 0.6"/>
      </g>
     </g>
    </g>
    <g id="xtick_13">
     <g id="line2d_13">
      <g>
       <use xlink:href="#m41c8b1bb3e" x="131.815417" y="319.48" style="stroke: #000000; stroke-width: 0.6"/>
      </g>
     </g>
    </g>
    <g id="xtick_14">
     <g id="line2d_14">
      <g>
       <use xlink:href="#m41c8b1bb3e" x="156.33125" y="319.48" style="stroke: #000000; stroke-width: 0.6"/>
      </g>
     </g>
    </g>
    <g id="xtick_15">
     <g id="line2d_15">
      <g>
       <use xlink:href="#m41c8b1bb3e" x="168.589167" y="319.48" style="stroke: #000000; stroke-width: 0.6"/>
      </g>
     </g>
    </g>
    <g id="xtick_16">
     <g id="line2d_16">
      <g>
       <use xlink:href="#m41c8b1bb3e" x="180.847083" y="319.48" style="stroke: #000000; stroke-width: 0.6"/>
      </g>
     </g>
    </g>
    <g id="xtick_17">
     <g id="line2d_17">
      <g>
       <use xlink:href="#m41c8b1bb3e" x="205.362917" y="319.48" style="stroke: #000000; stroke-width: 0.6"/>
      </g>
     </g>
    </g>
    <g id="xtick_18">
     <g id="line2d_18">
      <g>
       <use xlink:href="#m41c8b1bb3e" x="217.620833" y="319.48" style="stroke: #000000; stroke-width: 0.6"/>
      </g>
     </g>
    </g>
    <g id="xtick_19">
     <g id="line2d_19">
      <g>
       <use xlink:href="#m41c8b1bb3e" x="229.87875" y="319.48" style="stroke: #000000; stroke-width: 0.6"/>
      </g>
     </g>
    </g>
    <g id="xtick_20">
     <g id="line2d_20">
      <g>
       <use xlink:href="#m41c8b1bb3e" x="254.394583" y="319.48" style="stroke: #000000; stroke-width: 0.6"/>
      </g>
     </g>
    </g>
    <g id="xtick_21">
     <g id="line2d_21">
      <g>
       <use xlink:href="#m41c8b1bb3e" x="266.6525" y="319.48" style="stroke: #000000; stroke-width: 0.6"/>
      </g>
     </g>
    </g>
    <g id="xtick_22">
     <g id="line2d_22">
      <g>
       <use xlink:href="#m41c8b1bb3e" x="278.910417" y="319.48" style="stroke: #000000; stroke-width: 0.6"/>
      </g>
     </g>
    </g>
    <g id="xtick_23">
     <g id="line2d_23">
      <g>
       <use xlink:href="#m41c8b1bb3e" x="303.42625" y="319.48" style="stroke: #000000; stroke-width: 0.6"/>
      </g>
     </g>
    </g>
    <g id="xtick_24">
     <g id="line2d_24">
      <g>
       <use xlink:href="#m41c8b1bb3e" x="315.684167" y="319.48" style="stroke: #000000; stroke-width: 0.6"/>
      </g>
     </g>
    </g>
    <g id="xtick_25">
     <g id="line2d_25">
      <g>
       <use xlink:href="#m41c8b1bb3e" x="327.942083" y="319.48" style="stroke: #000000; stroke-width: 0.6"/>
      </g>
     </g>
    </g>
    <g id="text_8">
     <!-- Time -->
     <g transform="translate(181.884688 347.28) scale(0.1 -0.1)">
      <defs>
       <path id="IBMPlexSans-54" d="M 2099 3994 
L 2099 0 
L 1562 0 
L 1562 3994 
L 141 3994 
L 141 4467 
L 3520 4467 
L 3520 3994 
L 2099 3994 
z
" transform="scale(0.015625)"/>
       <path id="IBMPlexSans-69" d="M 800 4077 
Q 634 4077 560 4157 
Q 486 4237 486 4365 
L 486 4448 
Q 486 4576 560 4656 
Q 634 4736 800 4736 
Q 966 4736 1040 4656 
Q 1114 4576 1114 4448 
L 1114 4365 
Q 1114 4237 1040 4157 
Q 966 4077 800 4077 
z
M 544 3302 
L 1056 3302 
L 1056 0 
L 544 0 
L 544 3302 
z
" transform="scale(0.015625)"/>
       <path id="IBMPlexSans-6d" d="M 544 0 
L 544 3302 
L 1056 3302 
L 1056 2765 
L 1082 2765 
Q 1139 2893 1212 3005 
Q 1286 3117 1392 3200 
Q 1498 3283 1638 3331 
Q 1779 3379 1971 3379 
Q 2298 3379 2573 3222 
Q 2848 3066 2982 2707 
L 2995 2707 
Q 3085 2976 3331 3177 
Q 3578 3379 4000 3379 
Q 4506 3379 4790 3049 
Q 5075 2720 5075 2118 
L 5075 0 
L 4563 0 
L 4563 2029 
Q 4563 2470 4390 2694 
Q 4218 2918 3840 2918 
Q 3686 2918 3548 2880 
Q 3411 2842 3302 2765 
Q 3194 2688 3130 2569 
Q 3066 2451 3066 2291 
L 3066 0 
L 2554 0 
L 2554 2029 
Q 2554 2470 2381 2694 
Q 2208 2918 1843 2918 
Q 1690 2918 1549 2880 
Q 1408 2842 1299 2765 
Q 1190 2688 1123 2569 
Q 1056 2451 1056 2291 
L 1056 0 
L 544 0 
z
" transform="scale(0.015625)"/>
       <path id="IBMPlexSans-65" d="M 1786 -77 
Q 1446 -77 1174 44 
Q 902 166 707 393 
Q 512 621 406 937 
Q 301 1254 301 1651 
Q 301 2042 406 2362 
Q 512 2682 707 2909 
Q 902 3136 1174 3257 
Q 1446 3379 1786 3379 
Q 2118 3379 2380 3257 
Q 2643 3136 2828 2921 
Q 3014 2707 3113 2412 
Q 3213 2118 3213 1766 
L 3213 1523 
L 838 1523 
L 838 1370 
Q 838 1158 905 976 
Q 973 794 1097 659 
Q 1222 525 1404 448 
Q 1587 371 1818 371 
Q 2131 371 2364 518 
Q 2598 666 2726 941 
L 3091 678 
Q 2931 339 2592 131 
Q 2253 -77 1786 -77 
z
M 1786 2950 
Q 1574 2950 1401 2876 
Q 1229 2803 1104 2668 
Q 979 2534 908 2352 
Q 838 2170 838 1952 
L 838 1907 
L 2662 1907 
L 2662 1978 
Q 2662 2419 2422 2684 
Q 2182 2950 1786 2950 
z
" transform="scale(0.015625)"/>
      </defs>
      <use xlink:href="#IBMPlexSans-54"/>
      <use xlink:href="#IBMPlexSans-69" transform="translate(57.199997 0)"/>
      <use xlink:href="#IBMPlexSans-6d" transform="translate(82.199982 0)"/>
      <use xlink:href="#IBMPlexSans-65" transform="translate(169.499969 0)"/>
     </g>
    </g>
   </g>
   <g id="matplotlib.axis_2">
    <g id="ytick_1">
     <g id="line2d_26">
      <defs>
       <path id="mc53a2b444f" d="M 0 0 
L -3.5 0 
" style="stroke: #000000; stroke-width: 0.8"/>
      </defs>
      <g>
       <use xlink:href="#mc53a2b444f" x="46.01" y="319.48" style="stroke: #000000; stroke-width: 0.8"/>
      </g>
     </g>
     <g id="text_9">
      <!-- 0.0 -->
      <g transform="translate(24.289688 323.18) scale(0.1 -0.1)">
       <defs>
        <path id="IBMPlexSans-2e" d="M 870 -77 
Q 666 -77 573 25 
Q 480 128 480 294 
L 480 378 
Q 480 544 573 646 
Q 666 749 870 749 
Q 1075 749 1168 646 
Q 1261 544 1261 378 
L 1261 294 
Q 1261 128 1168 25 
Q 1075 -77 870 -77 
z
" transform="scale(0.015625)"/>
       </defs>
       <use xlink:href="#IBMPlexSans-30"/>
       <use xlink:href="#IBMPlexSans-2e" transform="translate(59.999985 0)"/>
       <use xlink:href="#IBMPlexSans-30" transform="translate(87.199982 0)"/>
      </g>
     </g>
    </g>
    <g id="ytick_2">
     <g id="line2d_27">
      <g>
       <use xlink:href="#mc53a2b444f" x="46.01" y="278.322667" style="stroke: #000000; stroke-width: 0.8"/>
      </g>
     </g>
     <g id="text_10">
      <!-- 0.2 -->
      <g transform="translate(24.289688 282.022667) scale(0.1 -0.1)">
       <use xlink:href="#IBMPlexSans-30"/>
       <use xlink:href="#IBMPlexSans-2e" transform="translate(59.999985 0)"/>
       <use xlink:href="#IBMPlexSans-32" transform="translate(87.199982 0)"/>
      </g>
     </g>
    </g>
    <g id="ytick_3">
     <g id="line2d_28">
      <g>
       <use xlink:href="#mc53a2b444f" x="46.01" y="237.165333" style="stroke: #000000; stroke-width: 0.8"/>
      </g>
     </g>
     <g id="text_11">
      <!-- 0.4 -->
      <g transform="translate(24.289688 240.865333) scale(0.1 -0.1)">
       <use xlink:href="#IBMPlexSans-30"/>
       <use xlink:href="#IBMPlexSans-2e" transform="translate(59.999985 0)"/>
       <use xlink:href="#IBMPlexSans-34" transform="translate(87.199982 0)"/>
      </g>
     </g>
    </g>
    <g id="ytick_4">
     <g id="line2d_29">
      <g>
       <use xlink:href="#mc53a2b444f" x="46.01" y="196.008" style="stroke: #000000; stroke-width: 0.8"/>
      </g>
     </g>
     <g id="text_12">
      <!-- 0.6 -->
      <g transform="translate(24.289688 199.708) scale(0.1 -0.1)">
       <use xlink:href="#IBMPlexSans-30"/>
       <use xlink:href="#IBMPlexSans-2e" transform="translate(59.999985 0)"/>
       <use xlink:href="#IBMPlexSans-36" transform="translate(87.199982 0)"/>
      </g>
     </g>
    </g>
    <g id="ytick_5">
     <g id="line2d_30">
      <g>
       <use xlink:href="#mc53a2b444f" x="46.01" y="154.850667" style="stroke: #000000; stroke-width: 0.8"/>
      </g>
     </g>
     <g id="text_13">
      <!-- 0.8 -->
      <g transform="translate(24.289688 158.550667) scale(0.1 -0.1)">
       <use xlink:href="#IBMPlexSans-30"/>
       <use xlink:href="#IBMPlexSans-2e" transform="translate(59.999985 0)"/>
       <use xlink:href="#IBMPlexSans-38" transform="translate(87.199982 0)"/>
      </g>
     </g>
    </g>
    <g id="ytick_6">
     <g id="line2d_31">
      <g>
       <use xlink:href="#mc53a2b444f" x="46.01" y="113.693333" style="stroke: #000000; stroke-width: 0.8"/>
      </g>
     </g>
     <g id="text_14">
      <!-- 1.0 -->
      <g transform="translate(24.289688 117.393333) scale(0.1 -0.1)">
       <use xlink:href="#IBMPlexSans-31"/>
       <use xlink:href="#IBMPlexSans-2e" transform="translate(59.999985 0)"/>
       <use xlink:href="#IBMPlexSans-30" transform="translate(87.199982 0)"/>
      </g>
     </g>
    </g>
    <g id="ytick_7">
     <g id="line2d_32">
      <g>
       <use xlink:href="#mc53a2b444f" x="46.01" y="72.536" style="stroke: #000000; stroke-width: 0.8"/>
      </g>
     </g>
     <g id="text_15">
      <!-- 1.2 -->
      <g transform="translate(24.289688 76.236) scale(0.1 -0.1)">
       <use xlink:href="#IBMPlexSans-31"/>
       <use xlink:href="#IBMPlexSans-2e" transform="translate(59.999985 0)"/>
       <use xlink:href="#IBMPlexSans-32" transform="translate(87.199982 0)"/>
      </g>
     </g>
    </g>
    <g id="ytick_8">
     <g id="line2d_33">
      <g>
       <use xlink:href="#mc53a2b444f" x="46.01" y="31.378667" style="stroke: #000000; stroke-width: 0.8"/>
      </g>
     </g>
     <g id="text_16">
      <!-- 1.4 -->
      <g transform="translate(24.289688 35.078667) scale(0.1 -0.1)">
       <use xlink:href="#IBMPlexSans-31"/>
       <use xlink:href="#IBMPlexSans-2e" transform="translate(59.999985 0)"/>
       <use xlink:href="#IBMPlexSans-34" transform="translate(87.199982 0)"/>
      </g>
     </g>
    </g>
    <g id="ytick_9">
     <g id="line2d_34">
      <defs>
       <path id="m8c6b6c7a0c" d="M 0 0 
L -2 0 
" style="stroke: #000000; stroke-width: 0.6"/>
      </defs>
      <g>
       <use xlink:href="#m8c6b6c7a0c" x="46.01" y="309.190667" style="stroke: #000000; stroke-width: 0.6"/>
      </g>
     </g>
    </g>
    <g id="ytick_10">
     <g id="line2d_35">
      <g>
       <use xlink:href="#m8c6b6c7a0c" x="46.01" y="298.901333" style="stroke: #000000; stroke-width: 0.6"/>
      </g>
     </g>
    </g>
    <g id="ytick_11">
     <g id="line2d_36">
      <g>
       <use xlink:href="#m8c6b6c7a0c" x="46.01" y="288.612" style="stroke: #000000; stroke-width: 0.6"/>
      </g>
     </g>
    </g>
    <g id="ytick_12">
     <g id="line2d_37">
      <g>
       <use xlink:href="#m8c6b6c7a0c" x="46.01" y="268.033333" style="stroke: #000000; stroke-width: 0.6"/>
      </g>
     </g>
    </g>
    <g id="ytick_13">
     <g id="line2d_38">
      <g>
       <use xlink:href="#m8c6b6c7a0c" x="46.01" y="257.744" style="stroke: #000000; stroke-width: 0.6"/>
      </g>
     </g>
    </g>
    <g id="ytick_14">
     <g id="line2d_39">
      <g>
       <use xlink:href="#m8c6b6c7a0c" x="46.01" y="247.454667" style="stroke: #000000; stroke-width: 0.6"/>
      </g>
     </g>
    </g>
    <g id="ytick_15">
     <g id="line2d_40">
      <g>
       <use xlink:href="#m8c6b6c7a0c" x="46.01" y="226.876" style="stroke: #000000; stroke-width: 0.6"/>
      </g>
     </g>
    </g>
    <g id="ytick_16">
     <g id="line2d_41">
      <g>
       <use xlink:href="#m8c6b6c7a0c" x="46.01" y="216.586667" style="stroke: #000000; stroke-width: 0.6"/>
      </g>
     </g>
    </g>
    <g id="ytick_17">
     <g id="line2d_42">
      <g>
       <use xlink:href="#m8c6b6c7a0c" x="46.01" y="206.297333" style="stroke: #000000; stroke-width: 0.6"/>
      </g>
     </g>
    </g>
    <g id="ytick_18">
     <g id="line2d_43">
      <g>
       <use xlink:href="#m8c6b6c7a0c" x="46.01" y="185.718667" style="stroke: #000000; stroke-width: 0.6"/>
      </g>
     </g>
    </g>
    <g id="ytick_19">
     <g id="line2d_44">
      <g>
       <use xlink:href="#m8c6b6c7a0c" x="46.01" y="175.429333" style="stroke: #000000; stroke-width: 0.6"/>
      </g>
     </g>
    </g>
    <g id="ytick_20">
     <g id="line2d_45">
      <g>
       <use xlink:href="#m8c6b6c7a0c" x="46.01" y="165.14" style="stroke: #000000; stroke-width: 0.6"/>
      </g>
     </g>
    </g>
    <g id="ytick_21">
     <g id="line2d_46">
      <g>
       <use xlink:href="#m8c6b6c7a0c" x="46.01" y="144.561333" style="stroke: #000000; stroke-width: 0.6"/>
      </g>
     </g>
    </g>
    <g id="ytick_22">
     <g id="line2d_47">
      <g>
       <use xlink:href="#m8c6b6c7a0c" x="46.01" y="134.272" style="stroke: #000000; stroke-width: 0.6"/>
      </g>
     </g>
    </g>
    <g id="ytick_23">
     <g id="line2d_48">
      <g>
       <use xlink:href="#m8c6b6c7a0c" x="46.01" y="123.982667" style="stroke: #000000; stroke-width: 0.6"/>
      </g>
     </g>
    </g>
    <g id="ytick_24">
     <g id="line2d_49">
      <g>
       <use xlink:href="#m8c6b6c7a0c" x="46.01" y="103.404" style="stroke: #000000; stroke-width: 0.6"/>
      </g>
     </g>
    </g>
    <g id="ytick_25">
     <g id="line2d_50">
      <g>
       <use xlink:href="#m8c6b6c7a0c" x="46.01" y="93.114667" style="stroke: #000000; stroke-width: 0.6"/>
      </g>
     </g>
    </g>
    <g id="ytick_26">
     <g id="line2d_51">
      <g>
       <use xlink:href="#m8c6b6c7a0c" x="46.01" y="82.825333" style="stroke: #000000; stroke-width: 0.6"/>
      </g>
     </g>
    </g>
    <g id="ytick_27">
     <g id="line2d_52">
      <g>
       <use xlink:href="#m8c6b6c7a0c" x="46.01" y="62.246667" style="stroke: #000000; stroke-width: 0.6"/>
      </g>
     </g>
    </g>
    <g id="ytick_28">
     <g id="line2d_53">
      <g>
       <use xlink:href="#m8c6b6c7a0c" x="46.01" y="51.957333" style="stroke: #000000; stroke-width: 0.6"/>
      </g>
     </g>
    </g>
    <g id="ytick_29">
     <g id="line2d_54">
      <g>
       <use xlink:href="#m8c6b6c7a0c" x="46.01" y="41.668" style="stroke: #000000; stroke-width: 0.6"/>
      </g>
     </g>
    </g>
    <g id="ytick_30">
     <g id="line2d_55">
      <g>
       <use xlink:href="#m8c6b6c7a0c" x="46.01" y="21.089333" style="stroke: #000000; stroke-width: 0.6"/>
      </g>
     </g>
    </g>
    <g id="ytick_31">
     <g id="line2d_56">
      <g>
       <use xlink:href="#m8c6b6c7a0c" x="46.01" y="10.8" style="stroke: #000000; stroke-width: 0.6"/>
      </g>
     </g>
    </g>
    <g id="text_17">
     <!-- y(t) -->
     <g transform="translate(18.289688 172.74) rotate(-90) scale(0.1 -0.1)">
      <defs>
       <path id="IBMPlexSans-79" d="M 2579 3302 
L 3085 3302 
L 1606 -768 
Q 1549 -915 1491 -1014 
Q 1434 -1114 1350 -1171 
Q 1267 -1229 1142 -1254 
Q 1018 -1280 838 -1280 
L 576 -1280 
L 576 -832 
L 1094 -832 
L 1344 -128 
L 109 3302 
L 621 3302 
L 1414 1056 
L 1568 518 
L 1600 518 
L 1779 1056 
L 2579 3302 
z
" transform="scale(0.015625)"/>
       <path id="IBMPlexSans-28" d="M 531 1997 
Q 531 2458 620 2886 
Q 710 3315 867 3683 
Q 1024 4051 1235 4352 
Q 1446 4653 1690 4864 
L 2176 4864 
Q 1907 4621 1692 4313 
Q 1478 4006 1328 3660 
Q 1178 3315 1094 2956 
Q 1011 2598 1011 2266 
L 1011 1715 
Q 1011 1376 1094 1017 
Q 1178 659 1331 313 
Q 1485 -32 1699 -339 
Q 1914 -646 2176 -877 
L 1690 -877 
Q 1453 -678 1241 -377 
Q 1030 -77 873 294 
Q 717 666 624 1098 
Q 531 1530 531 1997 
z
" transform="scale(0.015625)"/>
       <path id="IBMPlexSans-74" d="M 1274 0 
Q 1005 0 867 150 
Q 730 301 730 544 
L 730 2854 
L 186 2854 
L 186 3302 
L 493 3302 
Q 659 3302 720 3369 
Q 781 3437 781 3603 
L 781 4218 
L 1242 4218 
L 1242 3302 
L 1965 3302 
L 1965 2854 
L 1242 2854 
L 1242 448 
L 1914 448 
L 1914 0 
L 1274 0 
z
" transform="scale(0.015625)"/>
       <path id="IBMPlexSans-29" d="M 1613 1997 
Q 1613 1530 1520 1098 
Q 1427 666 1270 294 
Q 1114 -77 902 -377 
Q 691 -678 454 -877 
L -32 -877 
Q 230 -646 444 -339 
Q 659 -32 812 313 
Q 966 659 1049 1017 
Q 1133 1376 1133 1715 
L 1133 2266 
Q 1133 2598 1049 2956 
Q 966 3315 816 3660 
Q 666 4006 451 4313 
Q 237 4621 -32 4864 
L 454 4864 
Q 698 4653 909 4352 
Q 1120 4051 1277 3683 
Q 1434 3315 1523 2886 
Q 1613 2458 1613 1997 
z
" transform="scale(0.015625)"/>
      </defs>
      <use xlink:href="#IBMPlexSans-79"/>
      <use xlink:href="#IBMPlexSans-28" transform="translate(49.899994 0)"/>
      <use xlink:href="#IBMPlexSans-74" transform="translate(83.399979 0)"/>
      <use xlink:href="#IBMPlexSans-29" transform="translate(118.499969 0)"/>
     </g>
    </g>
   </g>
   <g id="line2d_57">
    <path d="M 46.01 319.48 
L 46.893453 319.352592 
L 47.776907 318.993601 
L 48.954845 318.208603 
L 50.132783 317.131398 
L 51.605205 315.454397 
L 53.372112 313.067238 
L 55.433504 309.90771 
L 58.378348 304.94276 
L 63.0901 296.46144 
L 73.397057 277.799734 
L 78.992262 268.191278 
L 84.292983 259.547047 
L 89.299219 251.80337 
L 94.305455 244.460016 
L 99.311692 237.502068 
L 104.317928 230.911993 
L 109.324164 224.671595 
L 114.624885 218.425292 
L 119.925606 212.530299 
L 125.226326 206.966999 
L 130.527047 201.716794 
L 136.122252 196.495155 
L 141.717457 191.583258 
L 147.312663 186.962736 
L 153.202352 182.394827 
L 159.092042 178.111699 
L 164.981732 174.095598 
L 171.165906 170.147879 
L 177.35008 166.458172 
L 183.828739 162.851138 
L 190.601882 159.343517 
L 197.375025 156.086179 
L 204.442653 152.934761 
L 211.804765 149.900888 
L 219.461361 146.994218 
L 227.412442 144.22247 
L 235.658008 141.591486 
L 244.198058 139.105316 
L 253.032593 136.76632 
L 262.456096 134.508191 
L 272.174084 132.410722 
L 282.481041 130.416611 
L 293.376967 128.539076 
L 304.861862 126.787769 
L 317.23021 125.132073 
L 330.482012 123.589707 
L 340.2 122.59247 
L 340.2 122.59247 
" clip-path="url(#p1d46d92bb9)" style="fill: none; stroke: #65489d; stroke-width: 2; stroke-linecap: square"/>
   </g>
   <g id="line2d_58">
    <path d="M 46.01 319.48 
L 46.893453 319.34955 
L 47.776907 318.970532 
L 48.66036 318.360704 
L 49.838298 317.217494 
L 51.016236 315.731125 
L 52.488659 313.443239 
L 53.961081 310.735568 
L 55.727988 307.01173 
L 57.789379 302.123268 
L 60.145255 295.968824 
L 63.0901 287.65354 
L 67.212883 275.299735 
L 80.464685 235.100885 
L 84.881952 222.67792 
L 88.71025 212.552046 
L 92.244064 203.781252 
L 95.777878 195.583796 
L 99.311692 187.963798 
L 102.551021 181.47999 
L 105.79035 175.463408 
L 109.02968 169.897723 
L 112.269009 164.763492 
L 115.508338 160.039175 
L 118.747668 155.701955 
L 121.986997 151.728385 
L 125.226326 148.09489 
L 128.465656 144.778161 
L 131.704985 141.755448 
L 135.238799 138.767475 
L 138.772613 136.076027 
L 142.306426 133.655338 
L 146.134725 131.310448 
L 149.963023 129.226339 
L 154.085806 127.243332 
L 158.208589 125.502057 
L 162.625856 123.873664 
L 167.337608 122.374063 
L 172.343844 121.013635 
L 177.644565 119.797497 
L 183.534254 118.674953 
L 190.012913 117.670994 
L 197.080541 116.799812 
L 205.326106 116.016763 
L 214.74961 115.356379 
L 225.94002 114.807921 
L 239.486306 114.377255 
L 257.155375 114.052957 
L 282.186557 113.83664 
L 324.886807 113.722556 
L 340.2 113.70977 
L 340.2 113.70977 
" clip-path="url(#p1d46d92bb9)" style="fill: none; stroke: #388ecc; stroke-width: 2; stroke-linecap: square"/>
   </g>
   <g id="line2d_59">
    <path d="M 46.01 319.48 
L 46.893453 319.347988 
L 47.776907 318.958369 
L 48.66036 318.320759 
L 49.543814 317.444747 
L 50.721752 315.922393 
L 51.89969 314.015713 
L 53.372112 311.125896 
L 54.844535 307.713525 
L 56.611441 302.988556 
L 58.378348 297.64388 
L 60.43974 290.718275 
L 62.795616 282.024236 
L 65.74046 270.211484 
L 69.274274 255.018774 
L 74.574995 231.061875 
L 83.40953 191.098152 
L 87.532312 173.521064 
L 91.066126 159.373719 
L 94.305455 147.295376 
L 97.2503 137.134302 
L 100.195145 127.805001 
L 102.845506 120.147019 
L 105.495866 113.202324 
L 107.851742 107.631306 
L 110.207618 102.624055 
L 112.563493 98.172972 
L 114.624885 94.725323 
L 116.686276 91.684261 
L 118.747668 89.037606 
L 120.809059 86.771486 
L 122.87045 84.87057 
L 124.637357 83.519356 
L 126.404264 82.413255 
L 128.171171 81.540763 
L 129.938078 80.890009 
L 131.704985 80.448831 
L 133.766376 80.182505 
L 135.827768 80.164762 
L 137.889159 80.375675 
L 139.950551 80.795375 
L 142.306426 81.505452 
L 144.956787 82.563606 
L 147.607147 83.857844 
L 150.846476 85.70426 
L 154.674775 88.176107 
L 159.386527 91.507094 
L 177.644565 104.725676 
L 182.061832 107.516599 
L 186.184615 109.872052 
L 190.012913 111.821989 
L 193.841211 113.532178 
L 197.66951 114.998748 
L 201.497808 116.223878 
L 205.326106 117.214871 
L 209.154404 117.983251 
L 213.277187 118.578896 
L 217.39997 118.955468 
L 221.817237 119.143279 
L 226.823473 119.125211 
L 232.418679 118.869483 
L 238.897337 118.342661 
L 247.731872 117.380197 
L 272.468569 114.55837 
L 281.892072 113.780381 
L 291.021091 113.253437 
L 300.444595 112.933834 
L 311.046036 112.803939 
L 324.003353 112.880502 
L 340.2 113.161419 
L 340.2 113.161419 
" clip-path="url(#p1d46d92bb9)" style="fill: none; stroke: #105e5d; stroke-width: 2; stroke-linecap: square"/>
   </g>
   <g id="line2d_60">
    <path d="M 46.01 319.48 
L 46.893453 319.347196 
L 47.776907 318.952123 
L 48.66036 318.299972 
L 49.543814 317.396173 
L 50.721752 315.809462 
L 51.89969 313.799457 
L 53.077628 311.38079 
L 54.55005 307.806009 
L 56.022472 303.647393 
L 57.789379 297.931587 
L 59.556286 291.47853 
L 61.617678 283.096955 
L 63.973554 272.510904 
L 66.623914 259.492277 
L 69.568759 243.896131 
L 73.397057 222.300267 
L 78.992262 189.247686 
L 86.648859 144.127313 
L 90.771642 121.179631 
L 94.305455 102.804117 
L 97.2503 88.62317 
L 99.900661 76.863488 
L 102.551021 66.141199 
L 104.906897 57.535928 
L 106.968288 50.751486 
L 109.02968 44.681889 
L 111.091071 39.339705 
L 112.857978 35.345117 
L 114.624885 31.891467 
L 116.391792 28.977222 
L 117.864214 26.957757 
L 119.336637 25.306164 
L 120.809059 24.017429 
L 121.986997 23.243597 
L 123.164935 22.694421 
L 124.342873 22.365818 
L 125.520811 22.253303 
L 126.698749 22.352004 
L 127.876687 22.65668 
L 129.054625 23.161749 
L 130.527047 24.065854 
L 131.999469 25.261616 
L 133.471892 26.736159 
L 135.238799 28.854573 
L 137.005706 31.330659 
L 139.067097 34.637703 
L 141.128488 38.355618 
L 143.484364 43.053034 
L 146.134725 48.831668 
L 149.374054 56.473268 
L 153.202352 66.105777 
L 159.386527 82.375906 
L 166.454154 100.832212 
L 170.576937 110.989176 
L 174.110751 119.109245 
L 177.055596 125.366474 
L 180.00044 131.095681 
L 182.650801 135.759488 
L 185.006677 139.489246 
L 187.362553 142.811633 
L 189.423944 145.375938 
L 191.485335 147.615441 
L 193.546727 149.528019 
L 195.608118 151.113898 
L 197.375025 152.215014 
L 199.141932 153.080709 
L 200.908839 153.714898 
L 202.675746 154.122543 
L 204.442653 154.309584 
L 206.20956 154.282873 
L 207.976466 154.050113 
L 210.037858 153.52949 
L 212.099249 152.754656 
L 214.160641 151.741437 
L 216.516517 150.313197 
L 218.872392 148.622043 
L 221.522753 146.439593 
L 224.467598 143.7146 
L 227.706927 140.417766 
L 231.82971 135.884483 
L 238.013884 128.690682 
L 246.553934 118.784662 
L 250.971201 114.002912 
L 254.799499 110.180326 
L 258.333313 106.978312 
L 261.572643 104.355928 
L 264.517487 102.253596 
L 267.462332 100.433824 
L 270.112693 99.045138 
L 272.763053 97.896015 
L 275.413413 96.98691 
L 278.063774 96.315528 
L 280.714134 95.876989 
L 283.364494 95.664028 
L 286.014855 95.667193 
L 288.9597 95.910258 
L 291.904545 96.38789 
L 295.143874 97.159863 
L 298.383203 98.161404 
L 301.917017 99.478678 
L 306.0398 101.256195 
L 311.046036 103.667702 
L 319.291602 107.937154 
L 327.831652 112.282669 
L 333.132372 114.733145 
L 337.844124 116.664221 
L 340.2 117.526636 
L 340.2 117.526636 
" clip-path="url(#p1d46d92bb9)" style="fill: none; stroke: #9f1d54; stroke-width: 2; stroke-linecap: square"/>
   </g>
   <g id="line2d_61">
    <path d="M 46.01 113.693333 
L 340.2 113.693333 
" clip-path="url(#p1d46d92bb9)" style="fill: none; stroke-dasharray: 7.4,3.2; stroke-dashoffset: 0; stroke: #535353; stroke-width: 2"/>
   </g>
   <g id="patch_3">
    <path d="M 46.01 319.48 
L 46.01 10.8 
" style="fill: none; stroke: #000000; stroke-width: 0.8; stroke-linejoin: miter; stroke-linecap: square"/>
   </g>
   <g id="patch_4">
    <path d="M 340.2 319.48 
L 340.2 10.8 
" style="fill: none; stroke: #000000; stroke-width: 0.8; stroke-linejoin: miter; stroke-linecap: square"/>
   </g>
   <g id="patch_5">
    <path d="M 46.01 319.48 
L 340.2 319.48 
" style="fill: none; stroke: #000000; stroke-width: 0.8; stroke-linejoin: miter; stroke-linecap: square"/>
   </g>
   <g id="patch_6">
    <path d="M 46.01 10.8 
L 340.2 10.8 
" style="fill: none; stroke: #000000; stroke-width: 0.8; stroke-linejoin: miter; stroke-linecap: square"/>
   </g>
   <g id="legend_1">
    <g id="patch_7">
     <path d="M 261.6 314.48 
L 333.2 314.48 
Q 335.2 314.48 335.2 312.48 
L 335.2 254.68 
Q 335.2 252.68 333.2 252.68 
L 261.6 252.68 
Q 259.6 252.68 259.6 254.68 
L 259.6 312.48 
Q 259.6 314.48 261.6 314.48 
L 261.6 314.48 
z
" style="fill: none; opacity: 0.8; stroke: #cccccc; stroke-linejoin: miter"/>
    </g>
    <g id="line2d_62">
     <path d="M 263.6 260.78 
L 273.6 260.78 
L 283.6 260.78 
" style="fill: none; stroke: #65489d; stroke-width: 2; stroke-linecap: square"/>
    </g>
    <g id="text_18">
     <!-- $\xi = 2$ -->
     <g transform="translate(291.6 264.28) scale(0.1 -0.1)">
      <defs>
       <path id="DejaVuSans-Oblique-3be" d="M 2016 397 
Q 2428 394 2628 159 
Q 2844 -88 2772 -463 
Q 2700 -822 2422 -1072 
Q 2119 -1344 1609 -1344 
Q 1656 -1109 1700 -872 
Q 1913 -888 2072 -750 
Q 2194 -641 2216 -525 
Q 2247 -359 2175 -222 
Q 2100 -91 1922 -91 
Q -25 -91 241 1275 
Q 422 2213 1516 2488 
Q 663 2600 822 3413 
Q 941 4028 1678 4284 
L 1028 4284 
L 1141 4863 
L 3606 4863 
L 3494 4284 
Q 1528 4284 1350 3375 
Q 1234 2778 2881 2750 
L 2778 2219 
Q 1009 2288 819 1275 
Q 659 428 2016 397 
z
" transform="scale(0.015625)"/>
       <path id="DejaVuSans-3d" d="M 678 2906 
L 4684 2906 
L 4684 2381 
L 678 2381 
L 678 2906 
z
M 678 1631 
L 4684 1631 
L 4684 1100 
L 678 1100 
L 678 1631 
z
" transform="scale(0.015625)"/>
       <path id="DejaVuSans-32" d="M 1228 531 
L 3431 531 
L 3431 0 
L 469 0 
L 469 531 
Q 828 903 1448 1529 
Q 2069 2156 2228 2338 
Q 2531 2678 2651 2914 
Q 2772 3150 2772 3378 
Q 2772 3750 2511 3984 
Q 2250 4219 1831 4219 
Q 1534 4219 1204 4116 
Q 875 4013 500 3803 
L 500 4441 
Q 881 4594 1212 4672 
Q 1544 4750 1819 4750 
Q 2544 4750 2975 4387 
Q 3406 4025 3406 3419 
Q 3406 3131 3298 2873 
Q 3191 2616 2906 2266 
Q 2828 2175 2409 1742 
Q 1991 1309 1228 531 
z
" transform="scale(0.015625)"/>
      </defs>
      <use xlink:href="#DejaVuSans-Oblique-3be" transform="translate(0 0.015625)"/>
      <use xlink:href="#DejaVuSans-3d" transform="translate(75.244141 0.015625)"/>
      <use xlink:href="#DejaVuSans-32" transform="translate(178.515625 0.015625)"/>
     </g>
    </g>
    <g id="line2d_63">
     <path d="M 263.6 275.48 
L 273.6 275.48 
L 283.6 275.48 
" style="fill: none; stroke: #388ecc; stroke-width: 2; stroke-linecap: square"/>
    </g>
    <g id="text_19">
     <!-- $\xi = 1$ -->
     <g transform="translate(291.6 278.98) scale(0.1 -0.1)">
      <defs>
       <path id="DejaVuSans-31" d="M 794 531 
L 1825 531 
L 1825 4091 
L 703 3866 
L 703 4441 
L 1819 4666 
L 2450 4666 
L 2450 531 
L 3481 531 
L 3481 0 
L 794 0 
L 794 531 
z
" transform="scale(0.015625)"/>
      </defs>
      <use xlink:href="#DejaVuSans-Oblique-3be" transform="translate(0 0.015625)"/>
      <use xlink:href="#DejaVuSans-3d" transform="translate(75.244141 0.015625)"/>
      <use xlink:href="#DejaVuSans-31" transform="translate(178.515625 0.015625)"/>
     </g>
    </g>
    <g id="line2d_64">
     <path d="M 263.6 290.18 
L 273.6 290.18 
L 283.6 290.18 
" style="fill: none; stroke: #105e5d; stroke-width: 2; stroke-linecap: square"/>
    </g>
    <g id="text_20">
     <!-- $\xi = 0.5$ -->
     <g transform="translate(291.6 293.68) scale(0.1 -0.1)">
      <defs>
       <path id="DejaVuSans-30" d="M 2034 4250 
Q 1547 4250 1301 3770 
Q 1056 3291 1056 2328 
Q 1056 1369 1301 889 
Q 1547 409 2034 409 
Q 2525 409 2770 889 
Q 3016 1369 3016 2328 
Q 3016 3291 2770 3770 
Q 2525 4250 2034 4250 
z
M 2034 4750 
Q 2819 4750 3233 4129 
Q 3647 3509 3647 2328 
Q 3647 1150 3233 529 
Q 2819 -91 2034 -91 
Q 1250 -91 836 529 
Q 422 1150 422 2328 
Q 422 3509 836 4129 
Q 1250 4750 2034 4750 
z
" transform="scale(0.015625)"/>
       <path id="DejaVuSans-2e" d="M 684 794 
L 1344 794 
L 1344 0 
L 684 0 
L 684 794 
z
" transform="scale(0.015625)"/>
       <path id="DejaVuSans-35" d="M 691 4666 
L 3169 4666 
L 3169 4134 
L 1269 4134 
L 1269 2991 
Q 1406 3038 1543 3061 
Q 1681 3084 1819 3084 
Q 2600 3084 3056 2656 
Q 3513 2228 3513 1497 
Q 3513 744 3044 326 
Q 2575 -91 1722 -91 
Q 1428 -91 1123 -41 
Q 819 9 494 109 
L 494 744 
Q 775 591 1075 516 
Q 1375 441 1709 441 
Q 2250 441 2565 725 
Q 2881 1009 2881 1497 
Q 2881 1984 2565 2268 
Q 2250 2553 1709 2553 
Q 1456 2553 1204 2497 
Q 953 2441 691 2322 
L 691 4666 
z
" transform="scale(0.015625)"/>
      </defs>
      <use xlink:href="#DejaVuSans-Oblique-3be" transform="translate(0 0.015625)"/>
      <use xlink:href="#DejaVuSans-3d" transform="translate(75.244141 0.015625)"/>
      <use xlink:href="#DejaVuSans-30" transform="translate(178.515625 0.015625)"/>
      <use xlink:href="#DejaVuSans-2e" transform="translate(242.138672 0.015625)"/>
      <use xlink:href="#DejaVuSans-35" transform="translate(273.925781 0.015625)"/>
     </g>
    </g>
    <g id="line2d_65">
     <path d="M 263.6 304.88 
L 273.6 304.88 
L 283.6 304.88 
" style="fill: none; stroke: #9f1d54; stroke-width: 2; stroke-linecap: square"/>
    </g>
    <g id="text_21">
     <!-- $\xi = 0.25$ -->
     <g transform="translate(291.6 308.38) scale(0.1 -0.1)">
      <use xlink:href="#DejaVuSans-Oblique-3be" transform="translate(0 0.015625)"/>
      <use xlink:href="#DejaVuSans-3d" transform="translate(75.244141 0.015625)"/>
      <use xlink:href="#DejaVuSans-30" transform="translate(178.515625 0.015625)"/>
      <use xlink:href="#DejaVuSans-2e" transform="translate(242.138672 0.015625)"/>
      <use xlink:href="#DejaVuSans-32" transform="translate(268.425781 0.015625)"/>
      <use xlink:href="#DejaVuSans-35" transform="translate(332.048828 0.015625)"/>
     </g>
    </g>
   </g>
  </g>
 </g>
 <defs>
  <clipPath id="p1d46d92bb9">
   <rect x="46.01" y="10.8" width="294.19" height="308.68"/>
  </clipPath>
 </defs>
</svg>
