<?xml version="1.0" encoding="utf-8" standalone="no"?>
<!DOCTYPE svg PUBLIC "-//W3C//DTD SVG 1.1//EN"
  "http://www.w3.org/Graphics/SVG/1.1/DTD/svg11.dtd">
<svg xmlns:xlink="http://www.w3.org/1999/xlink" width="360pt" height="360pt" viewBox="0 0 360 360" xmlns="http://www.w3.org/2000/svg" version="1.1">
 <metadata>
  <rdf:RDF xmlns:dc="http://purl.org/dc/elements/1.1/" xmlns:cc="http://creativecommons.org/ns#" xmlns:rdf="http://www.w3.org/1999/02/22-rdf-syntax-ns#">
   <cc:Work>
    <dc:type rdf:resource="http://purl.org/dc/dcmitype/StillImage"/>
    <dc:date>2025-08-25T01:00:44.262620</dc:date>
    <dc:format>image/svg+xml</dc:format>
    <dc:creator>
     <cc:Agent>
      <dc:title>Matplotlib v3.10.3, https://matplotlib.org/</dc:title>
     </cc:Agent>
    </dc:creator>
   </cc:Work>
  </rdf:RDF>
 </metadata>
 <defs>
  <style type="text/css">*{stroke-linejoin: round; stroke-linecap: butt}</style>
 </defs>
 <g id="figure_1">
  <g id="patch_1">
   <path d="M 0 360 
L 360 360 
L 360 0 
L 0 0 
L 0 360 
z
" style="fill: none"/>
  </g>
  <g id="axes_1">
   <g id="patch_2">
    <path d="M 47.57 319.48 
L 343.2 319.48 
L 343.2 14.52 
L 47.57 14.52 
L 47.57 319.48 
z
" style="fill: none"/>
   </g>
   <g id="matplotlib.axis_1">
    <g id="xtick_1">
     <g id="line2d_1">
      <defs>
       <path id="m4bfd72c340" d="M 0 0 
L 0 3.5 
" style="stroke: #000000; stroke-width: 0.8"/>
      </defs>
      <g>
       <use xlink:href="#m4bfd72c340" x="47.57" y="319.48" style="stroke: #000000; stroke-width: 0.8"/>
      </g>
     </g>
     <g id="text_1">
      <!-- 0 -->
      <g transform="translate(44.57 333.88) scale(0.1 -0.1)">
       <defs>
        <path id="IBMPlexSans-30" d="M 1920 -77 
Q 1120 -77 752 531 
Q 384 1139 384 2234 
Q 384 3328 752 3936 
Q 1120 4544 1920 4544 
Q 2720 4544 3088 3936 
Q 3456 3328 3456 2234 
Q 3456 1139 3088 531 
Q 2720 -77 1920 -77 
z
M 1920 390 
Q 2182 390 2368 499 
Q 2554 608 2669 806 
Q 2784 1005 2838 1273 
Q 2893 1542 2893 1869 
L 2893 2598 
Q 2893 2925 2838 3193 
Q 2784 3462 2669 3660 
Q 2554 3859 2368 3968 
Q 2182 4077 1920 4077 
Q 1658 4077 1472 3968 
Q 1286 3859 1171 3660 
Q 1056 3462 1001 3193 
Q 947 2925 947 2598 
L 947 1869 
Q 947 1542 1001 1273 
Q 1056 1005 1171 806 
Q 1286 608 1472 499 
Q 1658 390 1920 390 
z
" transform="scale(0.015625)"/>
       </defs>
       <use xlink:href="#IBMPlexSans-30"/>
      </g>
     </g>
    </g>
    <g id="xtick_2">
     <g id="line2d_2">
      <g>
       <use xlink:href="#m4bfd72c340" x="84.52375" y="319.48" style="stroke: #000000; stroke-width: 0.8"/>
      </g>
     </g>
     <g id="text_2">
      <!-- 5 -->
      <g transform="translate(81.52375 333.88) scale(0.1 -0.1)">
       <defs>
        <path id="IBMPlexSans-35" d="M 3187 3994 
L 1229 3994 
L 1101 2291 
L 1146 2291 
Q 1306 2515 1507 2649 
Q 1709 2784 2061 2784 
Q 2349 2784 2592 2688 
Q 2835 2592 3014 2416 
Q 3194 2240 3293 1984 
Q 3392 1728 3392 1402 
Q 3392 1075 3289 803 
Q 3187 531 2992 336 
Q 2797 141 2518 32 
Q 2240 -77 1888 -77 
Q 1606 -77 1392 -13 
Q 1178 51 1011 160 
Q 845 269 720 403 
Q 595 538 493 685 
L 896 992 
Q 979 858 1072 749 
Q 1165 640 1277 563 
Q 1389 486 1536 444 
Q 1683 403 1888 403 
Q 2349 403 2585 646 
Q 2822 890 2822 1331 
L 2822 1395 
Q 2822 1837 2585 2080 
Q 2349 2323 1888 2323 
Q 1581 2323 1405 2211 
Q 1229 2099 1088 1946 
L 634 2010 
L 794 4467 
L 3187 4467 
L 3187 3994 
z
" transform="scale(0.015625)"/>
       </defs>
       <use xlink:href="#IBMPlexSans-35"/>
      </g>
     </g>
    </g>
    <g id="xtick_3">
     <g id="line2d_3">
      <g>
       <use xlink:href="#m4bfd72c340" x="121.4775" y="319.48" style="stroke: #000000; stroke-width: 0.8"/>
      </g>
     </g>
     <g id="text_3">
      <!-- 10 -->
      <g transform="translate(115.4775 333.88) scale(0.1 -0.1)">
       <defs>
        <path id="IBMPlexSans-31" d="M 563 0 
L 563 474 
L 1811 474 
L 1811 4070 
L 1766 4070 
L 640 3021 
L 326 3360 
L 1510 4467 
L 2349 4467 
L 2349 474 
L 3501 474 
L 3501 0 
L 563 0 
z
" transform="scale(0.015625)"/>
       </defs>
       <use xlink:href="#IBMPlexSans-31"/>
       <use xlink:href="#IBMPlexSans-30" transform="translate(59.999985 0)"/>
      </g>
     </g>
    </g>
    <g id="xtick_4">
     <g id="line2d_4">
      <g>
       <use xlink:href="#m4bfd72c340" x="158.43125" y="319.48" style="stroke: #000000; stroke-width: 0.8"/>
      </g>
     </g>
     <g id="text_4">
      <!-- 15 -->
      <g transform="translate(152.43125 333.88) scale(0.1 -0.1)">
       <use xlink:href="#IBMPlexSans-31"/>
       <use xlink:href="#IBMPlexSans-35" transform="translate(59.999985 0)"/>
      </g>
     </g>
    </g>
    <g id="xtick_5">
     <g id="line2d_5">
      <g>
       <use xlink:href="#m4bfd72c340" x="195.385" y="319.48" style="stroke: #000000; stroke-width: 0.8"/>
      </g>
     </g>
     <g id="text_5">
      <!-- 20 -->
      <g transform="translate(189.385 333.88) scale(0.1 -0.1)">
       <defs>
        <path id="IBMPlexSans-32" d="M 3411 0 
L 480 0 
L 480 550 
L 1939 1894 
Q 2253 2182 2464 2505 
Q 2675 2829 2675 3155 
L 2675 3232 
Q 2675 3603 2470 3833 
Q 2266 4064 1850 4064 
Q 1645 4064 1491 4006 
Q 1338 3949 1226 3846 
Q 1114 3744 1040 3606 
Q 966 3469 922 3309 
L 442 3494 
Q 506 3693 618 3881 
Q 730 4070 899 4217 
Q 1069 4365 1309 4454 
Q 1549 4544 1875 4544 
Q 2202 4544 2458 4448 
Q 2714 4352 2886 4179 
Q 3059 4006 3152 3769 
Q 3245 3533 3245 3245 
Q 3245 2982 3171 2758 
Q 3098 2534 2970 2332 
Q 2842 2131 2659 1939 
Q 2477 1747 2266 1555 
L 1062 474 
L 3411 474 
L 3411 0 
z
" transform="scale(0.015625)"/>
       </defs>
       <use xlink:href="#IBMPlexSans-32"/>
       <use xlink:href="#IBMPlexSans-30" transform="translate(59.999985 0)"/>
      </g>
     </g>
    </g>
    <g id="xtick_6">
     <g id="line2d_6">
      <g>
       <use xlink:href="#m4bfd72c340" x="232.33875" y="319.48" style="stroke: #000000; stroke-width: 0.8"/>
      </g>
     </g>
     <g id="text_6">
      <!-- 25 -->
      <g transform="translate(226.33875 333.88) scale(0.1 -0.1)">
       <use xlink:href="#IBMPlexSans-32"/>
       <use xlink:href="#IBMPlexSans-35" transform="translate(59.999985 0)"/>
      </g>
     </g>
    </g>
    <g id="xtick_7">
     <g id="line2d_7">
      <g>
       <use xlink:href="#m4bfd72c340" x="269.2925" y="319.48" style="stroke: #000000; stroke-width: 0.8"/>
      </g>
     </g>
     <g id="text_7">
      <!-- 30 -->
      <g transform="translate(263.2925 333.88) scale(0.1 -0.1)">
       <defs>
        <path id="IBMPlexSans-33" d="M 1670 2573 
Q 2125 2573 2352 2781 
Q 2579 2989 2579 3315 
L 2579 3360 
Q 2579 3712 2358 3888 
Q 2138 4064 1779 4064 
Q 1434 4064 1216 3913 
Q 998 3763 858 3507 
L 461 3814 
Q 544 3949 662 4080 
Q 781 4211 941 4313 
Q 1101 4416 1312 4480 
Q 1523 4544 1792 4544 
Q 2074 4544 2323 4470 
Q 2573 4397 2755 4253 
Q 2938 4109 3043 3897 
Q 3149 3686 3149 3418 
Q 3149 3200 3081 3027 
Q 3014 2854 2899 2726 
Q 2784 2598 2627 2508 
Q 2470 2419 2291 2374 
L 2291 2349 
Q 2470 2310 2640 2224 
Q 2810 2138 2941 2000 
Q 3072 1862 3152 1667 
Q 3232 1472 3232 1222 
Q 3232 934 3123 694 
Q 3014 454 2816 284 
Q 2618 115 2336 19 
Q 2054 -77 1715 -77 
Q 1427 -77 1203 -13 
Q 979 51 806 160 
Q 634 269 502 403 
Q 371 538 269 685 
L 672 992 
Q 755 858 854 749 
Q 954 640 1075 563 
Q 1197 486 1350 444 
Q 1504 403 1709 403 
Q 2182 403 2425 617 
Q 2669 832 2669 1229 
L 2669 1280 
Q 2669 1677 2425 1891 
Q 2182 2106 1709 2106 
L 1184 2106 
L 1184 2573 
L 1670 2573 
z
" transform="scale(0.015625)"/>
       </defs>
       <use xlink:href="#IBMPlexSans-33"/>
       <use xlink:href="#IBMPlexSans-30" transform="translate(59.999985 0)"/>
      </g>
     </g>
    </g>
    <g id="xtick_8">
     <g id="line2d_8">
      <g>
       <use xlink:href="#m4bfd72c340" x="306.24625" y="319.48" style="stroke: #000000; stroke-width: 0.8"/>
      </g>
     </g>
     <g id="text_8">
      <!-- 35 -->
      <g transform="translate(300.24625 333.88) scale(0.1 -0.1)">
       <use xlink:href="#IBMPlexSans-33"/>
       <use xlink:href="#IBMPlexSans-35" transform="translate(59.999985 0)"/>
      </g>
     </g>
    </g>
    <g id="xtick_9">
     <g id="line2d_9">
      <g>
       <use xlink:href="#m4bfd72c340" x="343.2" y="319.48" style="stroke: #000000; stroke-width: 0.8"/>
      </g>
     </g>
     <g id="text_9">
      <!-- 40 -->
      <g transform="translate(337.2 333.88) scale(0.1 -0.1)">
       <defs>
        <path id="IBMPlexSans-34" d="M 2400 0 
L 2400 877 
L 243 877 
L 243 1350 
L 2112 4467 
L 2912 4467 
L 2912 1325 
L 3558 1325 
L 3558 877 
L 2912 877 
L 2912 0 
L 2400 0 
z
M 749 1325 
L 2400 1325 
L 2400 4051 
L 2368 4051 
L 749 1325 
z
" transform="scale(0.015625)"/>
       </defs>
       <use xlink:href="#IBMPlexSans-34"/>
       <use xlink:href="#IBMPlexSans-30" transform="translate(59.999985 0)"/>
      </g>
     </g>
    </g>
    <g id="xtick_10">
     <g id="line2d_10">
      <defs>
       <path id="me4afb975f7" d="M 0 0 
L 0 2 
" style="stroke: #000000; stroke-width: 0.6"/>
      </defs>
      <g>
       <use xlink:href="#me4afb975f7" x="54.96075" y="319.48" style="stroke: #000000; stroke-width: 0.6"/>
      </g>
     </g>
    </g>
    <g id="xtick_11">
     <g id="line2d_11">
      <g>
       <use xlink:href="#me4afb975f7" x="62.3515" y="319.48" style="stroke: #000000; stroke-width: 0.6"/>
      </g>
     </g>
    </g>
    <g id="xtick_12">
     <g id="line2d_12">
      <g>
       <use xlink:href="#me4afb975f7" x="69.74225" y="319.48" style="stroke: #000000; stroke-width: 0.6"/>
      </g>
     </g>
    </g>
    <g id="xtick_13">
     <g id="line2d_13">
      <g>
       <use xlink:href="#me4afb975f7" x="77.133" y="319.48" style="stroke: #000000; stroke-width: 0.6"/>
      </g>
     </g>
    </g>
    <g id="xtick_14">
     <g id="line2d_14">
      <g>
       <use xlink:href="#me4afb975f7" x="91.9145" y="319.48" style="stroke: #000000; stroke-width: 0.6"/>
      </g>
     </g>
    </g>
    <g id="xtick_15">
     <g id="line2d_15">
      <g>
       <use xlink:href="#me4afb975f7" x="99.30525" y="319.48" style="stroke: #000000; stroke-width: 0.6"/>
      </g>
     </g>
    </g>
    <g id="xtick_16">
     <g id="line2d_16">
      <g>
       <use xlink:href="#me4afb975f7" x="106.696" y="319.48" style="stroke: #000000; stroke-width: 0.6"/>
      </g>
     </g>
    </g>
    <g id="xtick_17">
     <g id="line2d_17">
      <g>
       <use xlink:href="#me4afb975f7" x="114.08675" y="319.48" style="stroke: #000000; stroke-width: 0.6"/>
      </g>
     </g>
    </g>
    <g id="xtick_18">
     <g id="line2d_18">
      <g>
       <use xlink:href="#me4afb975f7" x="128.86825" y="319.48" style="stroke: #000000; stroke-width: 0.6"/>
      </g>
     </g>
    </g>
    <g id="xtick_19">
     <g id="line2d_19">
      <g>
       <use xlink:href="#me4afb975f7" x="136.259" y="319.48" style="stroke: #000000; stroke-width: 0.6"/>
      </g>
     </g>
    </g>
    <g id="xtick_20">
     <g id="line2d_20">
      <g>
       <use xlink:href="#me4afb975f7" x="143.64975" y="319.48" style="stroke: #000000; stroke-width: 0.6"/>
      </g>
     </g>
    </g>
    <g id="xtick_21">
     <g id="line2d_21">
      <g>
       <use xlink:href="#me4afb975f7" x="151.0405" y="319.48" style="stroke: #000000; stroke-width: 0.6"/>
      </g>
     </g>
    </g>
    <g id="xtick_22">
     <g id="line2d_22">
      <g>
       <use xlink:href="#me4afb975f7" x="165.822" y="319.48" style="stroke: #000000; stroke-width: 0.6"/>
      </g>
     </g>
    </g>
    <g id="xtick_23">
     <g id="line2d_23">
      <g>
       <use xlink:href="#me4afb975f7" x="173.21275" y="319.48" style="stroke: #000000; stroke-width: 0.6"/>
      </g>
     </g>
    </g>
    <g id="xtick_24">
     <g id="line2d_24">
      <g>
       <use xlink:href="#me4afb975f7" x="180.6035" y="319.48" style="stroke: #000000; stroke-width: 0.6"/>
      </g>
     </g>
    </g>
    <g id="xtick_25">
     <g id="line2d_25">
      <g>
       <use xlink:href="#me4afb975f7" x="187.99425" y="319.48" style="stroke: #000000; stroke-width: 0.6"/>
      </g>
     </g>
    </g>
    <g id="xtick_26">
     <g id="line2d_26">
      <g>
       <use xlink:href="#me4afb975f7" x="202.77575" y="319.48" style="stroke: #000000; stroke-width: 0.6"/>
      </g>
     </g>
    </g>
    <g id="xtick_27">
     <g id="line2d_27">
      <g>
       <use xlink:href="#me4afb975f7" x="210.1665" y="319.48" style="stroke: #000000; stroke-width: 0.6"/>
      </g>
     </g>
    </g>
    <g id="xtick_28">
     <g id="line2d_28">
      <g>
       <use xlink:href="#me4afb975f7" x="217.55725" y="319.48" style="stroke: #000000; stroke-width: 0.6"/>
      </g>
     </g>
    </g>
    <g id="xtick_29">
     <g id="line2d_29">
      <g>
       <use xlink:href="#me4afb975f7" x="224.948" y="319.48" style="stroke: #000000; stroke-width: 0.6"/>
      </g>
     </g>
    </g>
    <g id="xtick_30">
     <g id="line2d_30">
      <g>
       <use xlink:href="#me4afb975f7" x="239.7295" y="319.48" style="stroke: #000000; stroke-width: 0.6"/>
      </g>
     </g>
    </g>
    <g id="xtick_31">
     <g id="line2d_31">
      <g>
       <use xlink:href="#me4afb975f7" x="247.12025" y="319.48" style="stroke: #000000; stroke-width: 0.6"/>
      </g>
     </g>
    </g>
    <g id="xtick_32">
     <g id="line2d_32">
      <g>
       <use xlink:href="#me4afb975f7" x="254.511" y="319.48" style="stroke: #000000; stroke-width: 0.6"/>
      </g>
     </g>
    </g>
    <g id="xtick_33">
     <g id="line2d_33">
      <g>
       <use xlink:href="#me4afb975f7" x="261.90175" y="319.48" style="stroke: #000000; stroke-width: 0.6"/>
      </g>
     </g>
    </g>
    <g id="xtick_34">
     <g id="line2d_34">
      <g>
       <use xlink:href="#me4afb975f7" x="276.68325" y="319.48" style="stroke: #000000; stroke-width: 0.6"/>
      </g>
     </g>
    </g>
    <g id="xtick_35">
     <g id="line2d_35">
      <g>
       <use xlink:href="#me4afb975f7" x="284.074" y="319.48" style="stroke: #000000; stroke-width: 0.6"/>
      </g>
     </g>
    </g>
    <g id="xtick_36">
     <g id="line2d_36">
      <g>
       <use xlink:href="#me4afb975f7" x="291.46475" y="319.48" style="stroke: #000000; stroke-width: 0.6"/>
      </g>
     </g>
    </g>
    <g id="xtick_37">
     <g id="line2d_37">
      <g>
       <use xlink:href="#me4afb975f7" x="298.8555" y="319.48" style="stroke: #000000; stroke-width: 0.6"/>
      </g>
     </g>
    </g>
    <g id="xtick_38">
     <g id="line2d_38">
      <g>
       <use xlink:href="#me4afb975f7" x="313.637" y="319.48" style="stroke: #000000; stroke-width: 0.6"/>
      </g>
     </g>
    </g>
    <g id="xtick_39">
     <g id="line2d_39">
      <g>
       <use xlink:href="#me4afb975f7" x="321.02775" y="319.48" style="stroke: #000000; stroke-width: 0.6"/>
      </g>
     </g>
    </g>
    <g id="xtick_40">
     <g id="line2d_40">
      <g>
       <use xlink:href="#me4afb975f7" x="328.4185" y="319.48" style="stroke: #000000; stroke-width: 0.6"/>
      </g>
     </g>
    </g>
    <g id="xtick_41">
     <g id="line2d_41">
      <g>
       <use xlink:href="#me4afb975f7" x="335.80925" y="319.48" style="stroke: #000000; stroke-width: 0.6"/>
      </g>
     </g>
    </g>
    <g id="text_10">
     <!-- Time -->
     <g transform="translate(184.164687 347.28) scale(0.1 -0.1)">
      <defs>
       <path id="IBMPlexSans-54" d="M 2099 3994 
L 2099 0 
L 1562 0 
L 1562 3994 
L 141 3994 
L 141 4467 
L 3520 4467 
L 3520 3994 
L 2099 3994 
z
" transform="scale(0.015625)"/>
       <path id="IBMPlexSans-69" d="M 800 4077 
Q 634 4077 560 4157 
Q 486 4237 486 4365 
L 486 4448 
Q 486 4576 560 4656 
Q 634 4736 800 4736 
Q 966 4736 1040 4656 
Q 1114 4576 1114 4448 
L 1114 4365 
Q 1114 4237 1040 4157 
Q 966 4077 800 4077 
z
M 544 3302 
L 1056 3302 
L 1056 0 
L 544 0 
L 544 3302 
z
" transform="scale(0.015625)"/>
       <path id="IBMPlexSans-6d" d="M 544 0 
L 544 3302 
L 1056 3302 
L 1056 2765 
L 1082 2765 
Q 1139 2893 1212 3005 
Q 1286 3117 1392 3200 
Q 1498 3283 1638 3331 
Q 1779 3379 1971 3379 
Q 2298 3379 2573 3222 
Q 2848 3066 2982 2707 
L 2995 2707 
Q 3085 2976 3331 3177 
Q 3578 3379 4000 3379 
Q 4506 3379 4790 3049 
Q 5075 2720 5075 2118 
L 5075 0 
L 4563 0 
L 4563 2029 
Q 4563 2470 4390 2694 
Q 4218 2918 3840 2918 
Q 3686 2918 3548 2880 
Q 3411 2842 3302 2765 
Q 3194 2688 3130 2569 
Q 3066 2451 3066 2291 
L 3066 0 
L 2554 0 
L 2554 2029 
Q 2554 2470 2381 2694 
Q 2208 2918 1843 2918 
Q 1690 2918 1549 2880 
Q 1408 2842 1299 2765 
Q 1190 2688 1123 2569 
Q 1056 2451 1056 2291 
L 1056 0 
L 544 0 
z
" transform="scale(0.015625)"/>
       <path id="IBMPlexSans-65" d="M 1786 -77 
Q 1446 -77 1174 44 
Q 902 166 707 393 
Q 512 621 406 937 
Q 301 1254 301 1651 
Q 301 2042 406 2362 
Q 512 2682 707 2909 
Q 902 3136 1174 3257 
Q 1446 3379 1786 3379 
Q 2118 3379 2380 3257 
Q 2643 3136 2828 2921 
Q 3014 2707 3113 2412 
Q 3213 2118 3213 1766 
L 3213 1523 
L 838 1523 
L 838 1370 
Q 838 1158 905 976 
Q 973 794 1097 659 
Q 1222 525 1404 448 
Q 1587 371 1818 371 
Q 2131 371 2364 518 
Q 2598 666 2726 941 
L 3091 678 
Q 2931 339 2592 131 
Q 2253 -77 1786 -77 
z
M 1786 2950 
Q 1574 2950 1401 2876 
Q 1229 2803 1104 2668 
Q 979 2534 908 2352 
Q 838 2170 838 1952 
L 838 1907 
L 2662 1907 
L 2662 1978 
Q 2662 2419 2422 2684 
Q 2182 2950 1786 2950 
z
" transform="scale(0.015625)"/>
      </defs>
      <use xlink:href="#IBMPlexSans-54"/>
      <use xlink:href="#IBMPlexSans-69" transform="translate(57.199997 0)"/>
      <use xlink:href="#IBMPlexSans-6d" transform="translate(82.199982 0)"/>
      <use xlink:href="#IBMPlexSans-65" transform="translate(169.499969 0)"/>
     </g>
    </g>
   </g>
   <g id="matplotlib.axis_2">
    <g id="ytick_1">
     <g id="line2d_42">
      <defs>
       <path id="m4e0953f334" d="M 0 0 
L -3.5 0 
" style="stroke: #000000; stroke-width: 0.8"/>
      </defs>
      <g>
       <use xlink:href="#m4e0953f334" x="47.57" y="319.48" style="stroke: #000000; stroke-width: 0.8"/>
      </g>
     </g>
     <g id="text_11">
      <!-- 0.0 -->
      <g transform="translate(25.849688 323.18) scale(0.1 -0.1)">
       <defs>
        <path id="IBMPlexSans-2e" d="M 870 -77 
Q 666 -77 573 25 
Q 480 128 480 294 
L 480 378 
Q 480 544 573 646 
Q 666 749 870 749 
Q 1075 749 1168 646 
Q 1261 544 1261 378 
L 1261 294 
Q 1261 128 1168 25 
Q 1075 -77 870 -77 
z
" transform="scale(0.015625)"/>
       </defs>
       <use xlink:href="#IBMPlexSans-30"/>
       <use xlink:href="#IBMPlexSans-2e" transform="translate(59.999985 0)"/>
       <use xlink:href="#IBMPlexSans-30" transform="translate(87.199982 0)"/>
      </g>
     </g>
    </g>
    <g id="ytick_2">
     <g id="line2d_43">
      <g>
       <use xlink:href="#m4e0953f334" x="47.57" y="275.914286" style="stroke: #000000; stroke-width: 0.8"/>
      </g>
     </g>
     <g id="text_12">
      <!-- 0.2 -->
      <g transform="translate(25.849688 279.614286) scale(0.1 -0.1)">
       <use xlink:href="#IBMPlexSans-30"/>
       <use xlink:href="#IBMPlexSans-2e" transform="translate(59.999985 0)"/>
       <use xlink:href="#IBMPlexSans-32" transform="translate(87.199982 0)"/>
      </g>
     </g>
    </g>
    <g id="ytick_3">
     <g id="line2d_44">
      <g>
       <use xlink:href="#m4e0953f334" x="47.57" y="232.348571" style="stroke: #000000; stroke-width: 0.8"/>
      </g>
     </g>
     <g id="text_13">
      <!-- 0.4 -->
      <g transform="translate(25.849688 236.048571) scale(0.1 -0.1)">
       <use xlink:href="#IBMPlexSans-30"/>
       <use xlink:href="#IBMPlexSans-2e" transform="translate(59.999985 0)"/>
       <use xlink:href="#IBMPlexSans-34" transform="translate(87.199982 0)"/>
      </g>
     </g>
    </g>
    <g id="ytick_4">
     <g id="line2d_45">
      <g>
       <use xlink:href="#m4e0953f334" x="47.57" y="188.782857" style="stroke: #000000; stroke-width: 0.8"/>
      </g>
     </g>
     <g id="text_14">
      <!-- 0.6 -->
      <g transform="translate(25.849688 192.482857) scale(0.1 -0.1)">
       <defs>
        <path id="IBMPlexSans-36" d="M 1926 -77 
Q 1581 -77 1302 41 
Q 1024 160 829 381 
Q 634 602 531 922 
Q 429 1242 429 1638 
Q 429 2138 576 2576 
Q 723 3014 956 3376 
Q 1190 3738 1472 4016 
Q 1754 4294 2022 4467 
L 2714 4467 
Q 2355 4205 2073 3955 
Q 1792 3706 1581 3434 
Q 1370 3162 1222 2851 
Q 1075 2541 986 2150 
L 1018 2138 
Q 1178 2413 1430 2595 
Q 1683 2778 2093 2778 
Q 2381 2778 2624 2682 
Q 2867 2586 3040 2406 
Q 3213 2227 3312 1971 
Q 3411 1715 3411 1402 
Q 3411 1075 3305 803 
Q 3200 531 3005 336 
Q 2810 141 2534 32 
Q 2259 -77 1926 -77 
z
M 1920 390 
Q 2362 390 2608 633 
Q 2854 877 2854 1331 
L 2854 1382 
Q 2854 1837 2608 2080 
Q 2362 2323 1920 2323 
Q 1478 2323 1232 2080 
Q 986 1837 986 1382 
L 986 1331 
Q 986 877 1232 633 
Q 1478 390 1920 390 
z
" transform="scale(0.015625)"/>
       </defs>
       <use xlink:href="#IBMPlexSans-30"/>
       <use xlink:href="#IBMPlexSans-2e" transform="translate(59.999985 0)"/>
       <use xlink:href="#IBMPlexSans-36" transform="translate(87.199982 0)"/>
      </g>
     </g>
    </g>
    <g id="ytick_5">
     <g id="line2d_46">
      <g>
       <use xlink:href="#m4e0953f334" x="47.57" y="145.217143" style="stroke: #000000; stroke-width: 0.8"/>
      </g>
     </g>
     <g id="text_15">
      <!-- 0.8 -->
      <g transform="translate(25.849688 148.917143) scale(0.1 -0.1)">
       <defs>
        <path id="IBMPlexSans-38" d="M 1920 -77 
Q 1536 -77 1248 22 
Q 960 122 765 294 
Q 570 467 470 704 
Q 371 941 371 1216 
Q 371 1677 620 1945 
Q 870 2214 1274 2323 
L 1274 2374 
Q 922 2496 714 2768 
Q 506 3040 506 3424 
Q 506 3936 877 4240 
Q 1248 4544 1920 4544 
Q 2592 4544 2963 4240 
Q 3334 3936 3334 3424 
Q 3334 3040 3126 2768 
Q 2918 2496 2566 2374 
L 2566 2323 
Q 2970 2214 3219 1945 
Q 3469 1677 3469 1216 
Q 3469 941 3369 704 
Q 3270 467 3075 294 
Q 2880 122 2592 22 
Q 2304 -77 1920 -77 
z
M 1920 390 
Q 2387 390 2643 598 
Q 2899 806 2899 1190 
L 2899 1325 
Q 2899 1709 2643 1917 
Q 2387 2125 1920 2125 
Q 1453 2125 1197 1917 
Q 941 1709 941 1325 
L 941 1190 
Q 941 806 1197 598 
Q 1453 390 1920 390 
z
M 1920 2573 
Q 2342 2573 2560 2752 
Q 2778 2931 2778 3277 
L 2778 3373 
Q 2778 3718 2560 3897 
Q 2342 4077 1920 4077 
Q 1498 4077 1280 3897 
Q 1062 3718 1062 3373 
L 1062 3277 
Q 1062 2931 1280 2752 
Q 1498 2573 1920 2573 
z
" transform="scale(0.015625)"/>
       </defs>
       <use xlink:href="#IBMPlexSans-30"/>
       <use xlink:href="#IBMPlexSans-2e" transform="translate(59.999985 0)"/>
       <use xlink:href="#IBMPlexSans-38" transform="translate(87.199982 0)"/>
      </g>
     </g>
    </g>
    <g id="ytick_6">
     <g id="line2d_47">
      <g>
       <use xlink:href="#m4e0953f334" x="47.57" y="101.651429" style="stroke: #000000; stroke-width: 0.8"/>
      </g>
     </g>
     <g id="text_16">
      <!-- 1.0 -->
      <g transform="translate(25.849688 105.351429) scale(0.1 -0.1)">
       <use xlink:href="#IBMPlexSans-31"/>
       <use xlink:href="#IBMPlexSans-2e" transform="translate(59.999985 0)"/>
       <use xlink:href="#IBMPlexSans-30" transform="translate(87.199982 0)"/>
      </g>
     </g>
    </g>
    <g id="ytick_7">
     <g id="line2d_48">
      <g>
       <use xlink:href="#m4e0953f334" x="47.57" y="58.085714" style="stroke: #000000; stroke-width: 0.8"/>
      </g>
     </g>
     <g id="text_17">
      <!-- 1.2 -->
      <g transform="translate(25.849688 61.785714) scale(0.1 -0.1)">
       <use xlink:href="#IBMPlexSans-31"/>
       <use xlink:href="#IBMPlexSans-2e" transform="translate(59.999985 0)"/>
       <use xlink:href="#IBMPlexSans-32" transform="translate(87.199982 0)"/>
      </g>
     </g>
    </g>
    <g id="ytick_8">
     <g id="line2d_49">
      <g>
       <use xlink:href="#m4e0953f334" x="47.57" y="14.52" style="stroke: #000000; stroke-width: 0.8"/>
      </g>
     </g>
     <g id="text_18">
      <!-- 1.4 -->
      <g transform="translate(25.849688 18.22) scale(0.1 -0.1)">
       <use xlink:href="#IBMPlexSans-31"/>
       <use xlink:href="#IBMPlexSans-2e" transform="translate(59.999985 0)"/>
       <use xlink:href="#IBMPlexSans-34" transform="translate(87.199982 0)"/>
      </g>
     </g>
    </g>
    <g id="ytick_9">
     <g id="line2d_50">
      <defs>
       <path id="ma297e2212a" d="M 0 0 
L -2 0 
" style="stroke: #000000; stroke-width: 0.6"/>
      </defs>
      <g>
       <use xlink:href="#ma297e2212a" x="47.57" y="308.588571" style="stroke: #000000; stroke-width: 0.6"/>
      </g>
     </g>
    </g>
    <g id="ytick_10">
     <g id="line2d_51">
      <g>
       <use xlink:href="#ma297e2212a" x="47.57" y="297.697143" style="stroke: #000000; stroke-width: 0.6"/>
      </g>
     </g>
    </g>
    <g id="ytick_11">
     <g id="line2d_52">
      <g>
       <use xlink:href="#ma297e2212a" x="47.57" y="286.805714" style="stroke: #000000; stroke-width: 0.6"/>
      </g>
     </g>
    </g>
    <g id="ytick_12">
     <g id="line2d_53">
      <g>
       <use xlink:href="#ma297e2212a" x="47.57" y="265.022857" style="stroke: #000000; stroke-width: 0.6"/>
      </g>
     </g>
    </g>
    <g id="ytick_13">
     <g id="line2d_54">
      <g>
       <use xlink:href="#ma297e2212a" x="47.57" y="254.131429" style="stroke: #000000; stroke-width: 0.6"/>
      </g>
     </g>
    </g>
    <g id="ytick_14">
     <g id="line2d_55">
      <g>
       <use xlink:href="#ma297e2212a" x="47.57" y="243.24" style="stroke: #000000; stroke-width: 0.6"/>
      </g>
     </g>
    </g>
    <g id="ytick_15">
     <g id="line2d_56">
      <g>
       <use xlink:href="#ma297e2212a" x="47.57" y="221.457143" style="stroke: #000000; stroke-width: 0.6"/>
      </g>
     </g>
    </g>
    <g id="ytick_16">
     <g id="line2d_57">
      <g>
       <use xlink:href="#ma297e2212a" x="47.57" y="210.565714" style="stroke: #000000; stroke-width: 0.6"/>
      </g>
     </g>
    </g>
    <g id="ytick_17">
     <g id="line2d_58">
      <g>
       <use xlink:href="#ma297e2212a" x="47.57" y="199.674286" style="stroke: #000000; stroke-width: 0.6"/>
      </g>
     </g>
    </g>
    <g id="ytick_18">
     <g id="line2d_59">
      <g>
       <use xlink:href="#ma297e2212a" x="47.57" y="177.891429" style="stroke: #000000; stroke-width: 0.6"/>
      </g>
     </g>
    </g>
    <g id="ytick_19">
     <g id="line2d_60">
      <g>
       <use xlink:href="#ma297e2212a" x="47.57" y="167" style="stroke: #000000; stroke-width: 0.6"/>
      </g>
     </g>
    </g>
    <g id="ytick_20">
     <g id="line2d_61">
      <g>
       <use xlink:href="#ma297e2212a" x="47.57" y="156.108571" style="stroke: #000000; stroke-width: 0.6"/>
      </g>
     </g>
    </g>
    <g id="ytick_21">
     <g id="line2d_62">
      <g>
       <use xlink:href="#ma297e2212a" x="47.57" y="134.325714" style="stroke: #000000; stroke-width: 0.6"/>
      </g>
     </g>
    </g>
    <g id="ytick_22">
     <g id="line2d_63">
      <g>
       <use xlink:href="#ma297e2212a" x="47.57" y="123.434286" style="stroke: #000000; stroke-width: 0.6"/>
      </g>
     </g>
    </g>
    <g id="ytick_23">
     <g id="line2d_64">
      <g>
       <use xlink:href="#ma297e2212a" x="47.57" y="112.542857" style="stroke: #000000; stroke-width: 0.6"/>
      </g>
     </g>
    </g>
    <g id="ytick_24">
     <g id="line2d_65">
      <g>
       <use xlink:href="#ma297e2212a" x="47.57" y="90.76" style="stroke: #000000; stroke-width: 0.6"/>
      </g>
     </g>
    </g>
    <g id="ytick_25">
     <g id="line2d_66">
      <g>
       <use xlink:href="#ma297e2212a" x="47.57" y="79.868571" style="stroke: #000000; stroke-width: 0.6"/>
      </g>
     </g>
    </g>
    <g id="ytick_26">
     <g id="line2d_67">
      <g>
       <use xlink:href="#ma297e2212a" x="47.57" y="68.977143" style="stroke: #000000; stroke-width: 0.6"/>
      </g>
     </g>
    </g>
    <g id="ytick_27">
     <g id="line2d_68">
      <g>
       <use xlink:href="#ma297e2212a" x="47.57" y="47.194286" style="stroke: #000000; stroke-width: 0.6"/>
      </g>
     </g>
    </g>
    <g id="ytick_28">
     <g id="line2d_69">
      <g>
       <use xlink:href="#ma297e2212a" x="47.57" y="36.302857" style="stroke: #000000; stroke-width: 0.6"/>
      </g>
     </g>
    </g>
    <g id="ytick_29">
     <g id="line2d_70">
      <g>
       <use xlink:href="#ma297e2212a" x="47.57" y="25.411429" style="stroke: #000000; stroke-width: 0.6"/>
      </g>
     </g>
    </g>
    <g id="text_19">
     <!-- $y(t)$ -->
     <g transform="translate(19.749688 175.85) rotate(-90) scale(0.1 -0.1)">
      <defs>
       <path id="DejaVuSans-Oblique-79" d="M 1588 -325 
Q 1188 -997 936 -1164 
Q 684 -1331 294 -1331 
L -159 -1331 
L -63 -850 
L 269 -850 
Q 509 -850 678 -719 
Q 847 -588 1056 -206 
L 1234 128 
L 459 3500 
L 1069 3500 
L 1650 819 
L 3256 3500 
L 3859 3500 
L 1588 -325 
z
" transform="scale(0.015625)"/>
       <path id="DejaVuSans-28" d="M 1984 4856 
Q 1566 4138 1362 3434 
Q 1159 2731 1159 2009 
Q 1159 1288 1364 580 
Q 1569 -128 1984 -844 
L 1484 -844 
Q 1016 -109 783 600 
Q 550 1309 550 2009 
Q 550 2706 781 3412 
Q 1013 4119 1484 4856 
L 1984 4856 
z
" transform="scale(0.015625)"/>
       <path id="DejaVuSans-Oblique-74" d="M 2706 3500 
L 2619 3053 
L 1472 3053 
L 1100 1153 
Q 1081 1047 1072 975 
Q 1063 903 1063 863 
Q 1063 663 1183 572 
Q 1303 481 1569 481 
L 2150 481 
L 2053 0 
L 1503 0 
Q 991 0 739 200 
Q 488 400 488 806 
Q 488 878 497 964 
Q 506 1050 525 1153 
L 897 3053 
L 409 3053 
L 500 3500 
L 978 3500 
L 1172 4494 
L 1747 4494 
L 1556 3500 
L 2706 3500 
z
" transform="scale(0.015625)"/>
       <path id="DejaVuSans-29" d="M 513 4856 
L 1013 4856 
Q 1481 4119 1714 3412 
Q 1947 2706 1947 2009 
Q 1947 1309 1714 600 
Q 1481 -109 1013 -844 
L 513 -844 
Q 928 -128 1133 580 
Q 1338 1288 1338 2009 
Q 1338 2731 1133 3434 
Q 928 4138 513 4856 
z
" transform="scale(0.015625)"/>
      </defs>
      <use xlink:href="#DejaVuSans-Oblique-79" transform="translate(0 0.125)"/>
      <use xlink:href="#DejaVuSans-28" transform="translate(59.179688 0.125)"/>
      <use xlink:href="#DejaVuSans-Oblique-74" transform="translate(98.193359 0.125)"/>
      <use xlink:href="#DejaVuSans-29" transform="translate(137.402344 0.125)"/>
     </g>
    </g>
   </g>
   <g id="line2d_71">
    <path d="M 47.57 319.48 
L 76.466165 319.48 
L 77.207093 311.085008 
L 78.688947 281.825847 
L 80.170802 258.823615 
L 81.652657 240.740299 
L 83.134511 226.524013 
L 84.616366 215.347811 
L 86.098221 206.561585 
L 87.580075 199.654251 
L 89.06193 194.224017 
L 90.543784 189.955013 
L 92.025639 186.598914 
L 93.507494 183.9605 
L 94.989348 181.886299 
L 96.471203 180.255656 
L 97.953058 178.973717 
L 99.434912 177.965915 
L 100.916767 177.173627 
L 103.139549 176.291224 
L 105.362331 175.676147 
L 108.32604 175.135599 
L 112.030677 174.740247 
L 117.217168 174.467434 
L 125.367368 174.315929 
L 144.631479 174.263361 
L 343.2 174.260952 
L 343.2 174.260952 
" clip-path="url(#pc4e785222f)" style="fill: none; stroke: #65489d; stroke-width: 2; stroke-linecap: square"/>
   </g>
   <g id="line2d_72">
    <path d="M 47.57 319.48 
L 76.466165 319.48 
L 77.207093 310.529964 
L 79.429875 252.753614 
L 82.393584 176.066513 
L 83.875439 142.50385 
L 85.357293 113.795417 
L 86.839148 90.535602 
L 88.321003 72.881862 
L 89.06193 66.107728 
L 89.802857 60.639208 
L 90.543784 56.411057 
L 91.284712 53.346657 
L 92.025639 51.360467 
L 92.766566 50.360328 
L 93.507494 50.249607 
L 94.248421 50.929167 
L 94.989348 52.299152 
L 95.730276 54.260574 
L 96.471203 56.71672 
L 97.953058 62.744728 
L 100.17584 73.328551 
L 103.139549 87.490881 
L 104.621404 93.723684 
L 106.103258 99.074427 
L 107.585113 103.427475 
L 109.066967 106.748654 
L 109.807895 108.030092 
L 110.548822 109.069772 
L 111.289749 109.879365 
L 112.030677 110.472702 
L 112.771604 110.865317 
L 113.512531 111.07402 
L 114.253459 111.1165 
L 114.994386 111.010954 
L 116.476241 110.429165 
L 117.958095 109.472663 
L 120.180877 107.625562 
L 124.626441 103.747212 
L 126.849223 102.189557 
L 128.331078 101.375148 
L 129.812932 100.750607 
L 131.294787 100.310844 
L 132.776642 100.041351 
L 134.999424 99.90909 
L 137.222206 100.02603 
L 140.185915 100.415832 
L 148.336115 101.620963 
L 152.040752 101.89345 
L 156.486316 101.969842 
L 163.895589 101.792196 
L 173.527644 101.602136 
L 186.123409 101.633012 
L 211.314937 101.651355 
L 343.2 101.651428 
L 343.2 101.651428 
" clip-path="url(#pc4e785222f)" style="fill: none; stroke: #388ecc; stroke-width: 2; stroke-linecap: square"/>
   </g>
   <g id="line2d_73">
    <path d="M 47.57 319.48 
L 76.466165 319.48 
L 77.207093 253.489832 
L 78.688947 236.187407 
L 80.170802 215.959649 
L 86.839148 120.367087 
L 88.321003 103.26155 
L 89.802857 88.789294 
L 91.284712 77.143098 
L 92.766566 68.36646 
L 93.507494 65.032305 
L 94.248421 62.375341 
L 94.989348 60.369024 
L 95.730276 58.981839 
L 96.471203 58.17806 
L 97.21213 57.918487 
L 97.953058 58.161164 
L 98.693985 58.862067 
L 99.434912 59.975758 
L 100.17584 61.456002 
L 101.657694 65.330621 
L 103.139549 70.120768 
L 105.362331 78.273881 
L 109.066967 92.02451 
L 110.548822 96.924663 
L 112.030677 101.249841 
L 113.512531 104.908955 
L 114.994386 107.853306 
L 116.476241 110.071943 
L 117.217168 110.914676 
L 117.958095 111.586161 
L 118.699023 112.093115 
L 119.43995 112.443513 
L 120.180877 112.646391 
L 120.921805 112.711666 
L 121.662732 112.649951 
L 123.144586 112.190448 
L 124.626441 111.360321 
L 126.108296 110.253001 
L 128.331078 108.26821 
L 133.517569 103.448448 
L 135.740351 101.751571 
L 137.222206 100.826414 
L 138.70406 100.082033 
L 140.185915 99.521186 
L 141.667769 99.138478 
L 143.149624 98.921872 
L 145.372406 98.869944 
L 147.595188 99.081103 
L 150.558897 99.635634 
L 160.190952 101.748999 
L 163.154662 102.125215 
L 166.859298 102.341794 
L 170.563935 102.32539 
L 176.491353 102.029197 
L 185.382481 101.573252 
L 192.050827 101.47252 
L 202.42381 101.590333 
L 216.501429 101.696417 
L 343.2 101.651407 
L 343.2 101.651407 
" clip-path="url(#pc4e785222f)" style="fill: none; stroke: #105e5d; stroke-width: 2; stroke-linecap: square"/>
   </g>
   <g id="patch_3">
    <path d="M 47.57 319.48 
L 47.57 14.52 
" style="fill: none; stroke: #000000; stroke-width: 0.8; stroke-linejoin: miter; stroke-linecap: square"/>
   </g>
   <g id="patch_4">
    <path d="M 343.2 319.48 
L 343.2 14.52 
" style="fill: none; stroke: #000000; stroke-width: 0.8; stroke-linejoin: miter; stroke-linecap: square"/>
   </g>
   <g id="patch_5">
    <path d="M 47.57 319.48 
L 343.2 319.48 
" style="fill: none; stroke: #000000; stroke-width: 0.8; stroke-linejoin: miter; stroke-linecap: square"/>
   </g>
   <g id="patch_6">
    <path d="M 47.57 14.52 
L 343.2 14.52 
" style="fill: none; stroke: #000000; stroke-width: 0.8; stroke-linejoin: miter; stroke-linecap: square"/>
   </g>
   <g id="legend_1">
    <g id="patch_7">
     <path d="M 287.43125 65.72 
L 336.2 65.72 
Q 338.2 65.72 338.2 63.72 
L 338.2 21.52 
Q 338.2 19.52 336.2 19.52 
L 287.43125 19.52 
Q 285.43125 19.52 285.43125 21.52 
L 285.43125 63.72 
Q 285.43125 65.72 287.43125 65.72 
L 287.43125 65.72 
z
" style="fill: none; opacity: 0.8; stroke: #cccccc; stroke-linejoin: miter"/>
    </g>
    <g id="line2d_74">
     <path d="M 289.43125 27.42 
L 299.43125 27.42 
L 309.43125 27.42 
" style="fill: none; stroke: #65489d; stroke-width: 2; stroke-linecap: square"/>
    </g>
    <g id="text_20">
     <!-- P -->
     <g transform="translate(317.43125 30.92) scale(0.1 -0.1)">
      <defs>
       <path id="IBMPlexSans-50" d="M 595 0 
L 595 4467 
L 2374 4467 
Q 2976 4467 3299 4124 
Q 3622 3782 3622 3187 
Q 3622 2592 3299 2249 
Q 2976 1907 2374 1907 
L 1133 1907 
L 1133 0 
L 595 0 
z
M 1133 2381 
L 2374 2381 
Q 2694 2381 2870 2547 
Q 3046 2714 3046 3021 
L 3046 3354 
Q 3046 3661 2870 3827 
Q 2694 3994 2374 3994 
L 1133 3994 
L 1133 2381 
z
" transform="scale(0.015625)"/>
      </defs>
      <use xlink:href="#IBMPlexSans-50"/>
     </g>
    </g>
    <g id="line2d_75">
     <path d="M 289.43125 41.82 
L 299.43125 41.82 
L 309.43125 41.82 
" style="fill: none; stroke: #388ecc; stroke-width: 2; stroke-linecap: square"/>
    </g>
    <g id="text_21">
     <!-- PI -->
     <g transform="translate(317.43125 45.32) scale(0.1 -0.1)">
      <defs>
       <path id="IBMPlexSans-49" d="M 384 0 
L 384 448 
L 1011 448 
L 1011 4019 
L 384 4019 
L 384 4467 
L 2176 4467 
L 2176 4019 
L 1549 4019 
L 1549 448 
L 2176 448 
L 2176 0 
L 384 0 
z
" transform="scale(0.015625)"/>
      </defs>
      <use xlink:href="#IBMPlexSans-50"/>
      <use xlink:href="#IBMPlexSans-49" transform="translate(60.599991 0)"/>
     </g>
    </g>
    <g id="line2d_76">
     <path d="M 289.43125 56.22 
L 299.43125 56.22 
L 309.43125 56.22 
" style="fill: none; stroke: #105e5d; stroke-width: 2; stroke-linecap: square"/>
    </g>
    <g id="text_22">
     <!-- PID -->
     <g transform="translate(317.43125 59.72) scale(0.1 -0.1)">
      <defs>
       <path id="IBMPlexSans-44" d="M 595 4467 
L 2093 4467 
Q 2509 4467 2848 4326 
Q 3187 4186 3427 3907 
Q 3667 3629 3795 3209 
Q 3923 2790 3923 2234 
Q 3923 1677 3795 1257 
Q 3667 838 3427 560 
Q 3187 282 2848 141 
Q 2509 0 2093 0 
L 595 0 
L 595 4467 
z
M 2093 474 
Q 2368 474 2598 566 
Q 2829 659 2995 838 
Q 3162 1018 3254 1277 
Q 3347 1536 3347 1869 
L 3347 2598 
Q 3347 2931 3254 3190 
Q 3162 3450 2995 3629 
Q 2829 3808 2598 3901 
Q 2368 3994 2093 3994 
L 1133 3994 
L 1133 474 
L 2093 474 
z
" transform="scale(0.015625)"/>
      </defs>
      <use xlink:href="#IBMPlexSans-50"/>
      <use xlink:href="#IBMPlexSans-49" transform="translate(60.599991 0)"/>
      <use xlink:href="#IBMPlexSans-44" transform="translate(100.599976 0)"/>
     </g>
    </g>
   </g>
  </g>
 </g>
 <defs>
  <clipPath id="pc4e785222f">
   <rect x="47.57" y="14.52" width="295.63" height="304.96"/>
  </clipPath>
 </defs>
</svg>
