<?xml version="1.0" encoding="utf-8" standalone="no"?>
<!DOCTYPE svg PUBLIC "-//W3C//DTD SVG 1.1//EN"
  "http://www.w3.org/Graphics/SVG/1.1/DTD/svg11.dtd">
<svg xmlns:xlink="http://www.w3.org/1999/xlink" width="360pt" height="360pt" viewBox="0 0 360 360" xmlns="http://www.w3.org/2000/svg" version="1.1">
 <metadata>
  <rdf:RDF xmlns:dc="http://purl.org/dc/elements/1.1/" xmlns:cc="http://creativecommons.org/ns#" xmlns:rdf="http://www.w3.org/1999/02/22-rdf-syntax-ns#">
   <cc:Work>
    <dc:type rdf:resource="http://purl.org/dc/dcmitype/StillImage"/>
    <dc:date>2025-08-18T03:38:32.091278</dc:date>
    <dc:format>image/svg+xml</dc:format>
    <dc:creator>
     <cc:Agent>
      <dc:title>Matplotlib v3.10.3, https://matplotlib.org/</dc:title>
     </cc:Agent>
    </dc:creator>
   </cc:Work>
  </rdf:RDF>
 </metadata>
 <defs>
  <style type="text/css">*{stroke-linejoin: round; stroke-linecap: butt}</style>
 </defs>
 <g id="figure_1">
  <g id="patch_1">
   <path d="M 0 360 
L 360 360 
L 360 0 
L 0 0 
L 0 360 
z
" style="fill: none"/>
  </g>
  <g id="axes_1">
   <g id="patch_2">
    <path d="M 51.89 319.48 
L 349.2 319.48 
L 349.2 25.92 
L 51.89 25.92 
L 51.89 319.48 
z
" style="fill: none"/>
   </g>
   <g id="matplotlib.axis_1">
    <g id="xtick_1">
     <g id="line2d_1">
      <defs>
       <path id="mea9050bc87" d="M 0 0 
L 0 3.5 
" style="stroke: #000000; stroke-width: 0.8"/>
      </defs>
      <g>
       <use xlink:href="#mea9050bc87" x="65.404091" y="319.48" style="stroke: #000000; stroke-width: 0.8"/>
      </g>
     </g>
     <g id="text_1">
      <!-- 0 -->
      <g transform="translate(62.404091 333.88) scale(0.1 -0.1)">
       <defs>
        <path id="IBMPlexSans-30" d="M 1920 -77 
Q 1120 -77 752 531 
Q 384 1139 384 2234 
Q 384 3328 752 3936 
Q 1120 4544 1920 4544 
Q 2720 4544 3088 3936 
Q 3456 3328 3456 2234 
Q 3456 1139 3088 531 
Q 2720 -77 1920 -77 
z
M 1920 390 
Q 2182 390 2368 499 
Q 2554 608 2669 806 
Q 2784 1005 2838 1273 
Q 2893 1542 2893 1869 
L 2893 2598 
Q 2893 2925 2838 3193 
Q 2784 3462 2669 3660 
Q 2554 3859 2368 3968 
Q 2182 4077 1920 4077 
Q 1658 4077 1472 3968 
Q 1286 3859 1171 3660 
Q 1056 3462 1001 3193 
Q 947 2925 947 2598 
L 947 1869 
Q 947 1542 1001 1273 
Q 1056 1005 1171 806 
Q 1286 608 1472 499 
Q 1658 390 1920 390 
z
" transform="scale(0.015625)"/>
       </defs>
       <use xlink:href="#IBMPlexSans-30"/>
      </g>
     </g>
    </g>
    <g id="xtick_2">
     <g id="line2d_2">
      <g>
       <use xlink:href="#mea9050bc87" x="110.829607" y="319.48" style="stroke: #000000; stroke-width: 0.8"/>
      </g>
     </g>
     <g id="text_2">
      <!-- 20 -->
      <g transform="translate(104.829607 333.88) scale(0.1 -0.1)">
       <defs>
        <path id="IBMPlexSans-32" d="M 3411 0 
L 480 0 
L 480 550 
L 1939 1894 
Q 2253 2182 2464 2505 
Q 2675 2829 2675 3155 
L 2675 3232 
Q 2675 3603 2470 3833 
Q 2266 4064 1850 4064 
Q 1645 4064 1491 4006 
Q 1338 3949 1226 3846 
Q 1114 3744 1040 3606 
Q 966 3469 922 3309 
L 442 3494 
Q 506 3693 618 3881 
Q 730 4070 899 4217 
Q 1069 4365 1309 4454 
Q 1549 4544 1875 4544 
Q 2202 4544 2458 4448 
Q 2714 4352 2886 4179 
Q 3059 4006 3152 3769 
Q 3245 3533 3245 3245 
Q 3245 2982 3171 2758 
Q 3098 2534 2970 2332 
Q 2842 2131 2659 1939 
Q 2477 1747 2266 1555 
L 1062 474 
L 3411 474 
L 3411 0 
z
" transform="scale(0.015625)"/>
       </defs>
       <use xlink:href="#IBMPlexSans-32"/>
       <use xlink:href="#IBMPlexSans-30" transform="translate(59.999985 0)"/>
      </g>
     </g>
    </g>
    <g id="xtick_3">
     <g id="line2d_3">
      <g>
       <use xlink:href="#mea9050bc87" x="156.255122" y="319.48" style="stroke: #000000; stroke-width: 0.8"/>
      </g>
     </g>
     <g id="text_3">
      <!-- 40 -->
      <g transform="translate(150.255122 333.88) scale(0.1 -0.1)">
       <defs>
        <path id="IBMPlexSans-34" d="M 2400 0 
L 2400 877 
L 243 877 
L 243 1350 
L 2112 4467 
L 2912 4467 
L 2912 1325 
L 3558 1325 
L 3558 877 
L 2912 877 
L 2912 0 
L 2400 0 
z
M 749 1325 
L 2400 1325 
L 2400 4051 
L 2368 4051 
L 749 1325 
z
" transform="scale(0.015625)"/>
       </defs>
       <use xlink:href="#IBMPlexSans-34"/>
       <use xlink:href="#IBMPlexSans-30" transform="translate(59.999985 0)"/>
      </g>
     </g>
    </g>
    <g id="xtick_4">
     <g id="line2d_4">
      <g>
       <use xlink:href="#mea9050bc87" x="201.680638" y="319.48" style="stroke: #000000; stroke-width: 0.8"/>
      </g>
     </g>
     <g id="text_4">
      <!-- 60 -->
      <g transform="translate(195.680638 333.88) scale(0.1 -0.1)">
       <defs>
        <path id="IBMPlexSans-36" d="M 1926 -77 
Q 1581 -77 1302 41 
Q 1024 160 829 381 
Q 634 602 531 922 
Q 429 1242 429 1638 
Q 429 2138 576 2576 
Q 723 3014 956 3376 
Q 1190 3738 1472 4016 
Q 1754 4294 2022 4467 
L 2714 4467 
Q 2355 4205 2073 3955 
Q 1792 3706 1581 3434 
Q 1370 3162 1222 2851 
Q 1075 2541 986 2150 
L 1018 2138 
Q 1178 2413 1430 2595 
Q 1683 2778 2093 2778 
Q 2381 2778 2624 2682 
Q 2867 2586 3040 2406 
Q 3213 2227 3312 1971 
Q 3411 1715 3411 1402 
Q 3411 1075 3305 803 
Q 3200 531 3005 336 
Q 2810 141 2534 32 
Q 2259 -77 1926 -77 
z
M 1920 390 
Q 2362 390 2608 633 
Q 2854 877 2854 1331 
L 2854 1382 
Q 2854 1837 2608 2080 
Q 2362 2323 1920 2323 
Q 1478 2323 1232 2080 
Q 986 1837 986 1382 
L 986 1331 
Q 986 877 1232 633 
Q 1478 390 1920 390 
z
" transform="scale(0.015625)"/>
       </defs>
       <use xlink:href="#IBMPlexSans-36"/>
       <use xlink:href="#IBMPlexSans-30" transform="translate(59.999985 0)"/>
      </g>
     </g>
    </g>
    <g id="xtick_5">
     <g id="line2d_5">
      <g>
       <use xlink:href="#mea9050bc87" x="247.106154" y="319.48" style="stroke: #000000; stroke-width: 0.8"/>
      </g>
     </g>
     <g id="text_5">
      <!-- 80 -->
      <g transform="translate(241.106154 333.88) scale(0.1 -0.1)">
       <defs>
        <path id="IBMPlexSans-38" d="M 1920 -77 
Q 1536 -77 1248 22 
Q 960 122 765 294 
Q 570 467 470 704 
Q 371 941 371 1216 
Q 371 1677 620 1945 
Q 870 2214 1274 2323 
L 1274 2374 
Q 922 2496 714 2768 
Q 506 3040 506 3424 
Q 506 3936 877 4240 
Q 1248 4544 1920 4544 
Q 2592 4544 2963 4240 
Q 3334 3936 3334 3424 
Q 3334 3040 3126 2768 
Q 2918 2496 2566 2374 
L 2566 2323 
Q 2970 2214 3219 1945 
Q 3469 1677 3469 1216 
Q 3469 941 3369 704 
Q 3270 467 3075 294 
Q 2880 122 2592 22 
Q 2304 -77 1920 -77 
z
M 1920 390 
Q 2387 390 2643 598 
Q 2899 806 2899 1190 
L 2899 1325 
Q 2899 1709 2643 1917 
Q 2387 2125 1920 2125 
Q 1453 2125 1197 1917 
Q 941 1709 941 1325 
L 941 1190 
Q 941 806 1197 598 
Q 1453 390 1920 390 
z
M 1920 2573 
Q 2342 2573 2560 2752 
Q 2778 2931 2778 3277 
L 2778 3373 
Q 2778 3718 2560 3897 
Q 2342 4077 1920 4077 
Q 1498 4077 1280 3897 
Q 1062 3718 1062 3373 
L 1062 3277 
Q 1062 2931 1280 2752 
Q 1498 2573 1920 2573 
z
" transform="scale(0.015625)"/>
       </defs>
       <use xlink:href="#IBMPlexSans-38"/>
       <use xlink:href="#IBMPlexSans-30" transform="translate(59.999985 0)"/>
      </g>
     </g>
    </g>
    <g id="xtick_6">
     <g id="line2d_6">
      <g>
       <use xlink:href="#mea9050bc87" x="292.531669" y="319.48" style="stroke: #000000; stroke-width: 0.8"/>
      </g>
     </g>
     <g id="text_6">
      <!-- 100 -->
      <g transform="translate(283.531669 333.88) scale(0.1 -0.1)">
       <defs>
        <path id="IBMPlexSans-31" d="M 563 0 
L 563 474 
L 1811 474 
L 1811 4070 
L 1766 4070 
L 640 3021 
L 326 3360 
L 1510 4467 
L 2349 4467 
L 2349 474 
L 3501 474 
L 3501 0 
L 563 0 
z
" transform="scale(0.015625)"/>
       </defs>
       <use xlink:href="#IBMPlexSans-31"/>
       <use xlink:href="#IBMPlexSans-30" transform="translate(59.999985 0)"/>
       <use xlink:href="#IBMPlexSans-30" transform="translate(119.999969 0)"/>
      </g>
     </g>
    </g>
    <g id="xtick_7">
     <g id="line2d_7">
      <g>
       <use xlink:href="#mea9050bc87" x="337.957185" y="319.48" style="stroke: #000000; stroke-width: 0.8"/>
      </g>
     </g>
     <g id="text_7">
      <!-- 120 -->
      <g transform="translate(328.957185 333.88) scale(0.1 -0.1)">
       <use xlink:href="#IBMPlexSans-31"/>
       <use xlink:href="#IBMPlexSans-32" transform="translate(59.999985 0)"/>
       <use xlink:href="#IBMPlexSans-30" transform="translate(119.999969 0)"/>
      </g>
     </g>
    </g>
    <g id="xtick_8">
     <g id="line2d_8">
      <defs>
       <path id="m904f61f905" d="M 0 0 
L 0 2 
" style="stroke: #000000; stroke-width: 0.6"/>
      </defs>
      <g>
       <use xlink:href="#m904f61f905" x="54.047712" y="319.48" style="stroke: #000000; stroke-width: 0.6"/>
      </g>
     </g>
    </g>
    <g id="xtick_9">
     <g id="line2d_9">
      <g>
       <use xlink:href="#m904f61f905" x="76.76047" y="319.48" style="stroke: #000000; stroke-width: 0.6"/>
      </g>
     </g>
    </g>
    <g id="xtick_10">
     <g id="line2d_10">
      <g>
       <use xlink:href="#m904f61f905" x="88.116849" y="319.48" style="stroke: #000000; stroke-width: 0.6"/>
      </g>
     </g>
    </g>
    <g id="xtick_11">
     <g id="line2d_11">
      <g>
       <use xlink:href="#m904f61f905" x="99.473228" y="319.48" style="stroke: #000000; stroke-width: 0.6"/>
      </g>
     </g>
    </g>
    <g id="xtick_12">
     <g id="line2d_12">
      <g>
       <use xlink:href="#m904f61f905" x="122.185985" y="319.48" style="stroke: #000000; stroke-width: 0.6"/>
      </g>
     </g>
    </g>
    <g id="xtick_13">
     <g id="line2d_13">
      <g>
       <use xlink:href="#m904f61f905" x="133.542364" y="319.48" style="stroke: #000000; stroke-width: 0.6"/>
      </g>
     </g>
    </g>
    <g id="xtick_14">
     <g id="line2d_14">
      <g>
       <use xlink:href="#m904f61f905" x="144.898743" y="319.48" style="stroke: #000000; stroke-width: 0.6"/>
      </g>
     </g>
    </g>
    <g id="xtick_15">
     <g id="line2d_15">
      <g>
       <use xlink:href="#m904f61f905" x="167.611501" y="319.48" style="stroke: #000000; stroke-width: 0.6"/>
      </g>
     </g>
    </g>
    <g id="xtick_16">
     <g id="line2d_16">
      <g>
       <use xlink:href="#m904f61f905" x="178.96788" y="319.48" style="stroke: #000000; stroke-width: 0.6"/>
      </g>
     </g>
    </g>
    <g id="xtick_17">
     <g id="line2d_17">
      <g>
       <use xlink:href="#m904f61f905" x="190.324259" y="319.48" style="stroke: #000000; stroke-width: 0.6"/>
      </g>
     </g>
    </g>
    <g id="xtick_18">
     <g id="line2d_18">
      <g>
       <use xlink:href="#m904f61f905" x="213.037017" y="319.48" style="stroke: #000000; stroke-width: 0.6"/>
      </g>
     </g>
    </g>
    <g id="xtick_19">
     <g id="line2d_19">
      <g>
       <use xlink:href="#m904f61f905" x="224.393396" y="319.48" style="stroke: #000000; stroke-width: 0.6"/>
      </g>
     </g>
    </g>
    <g id="xtick_20">
     <g id="line2d_20">
      <g>
       <use xlink:href="#m904f61f905" x="235.749775" y="319.48" style="stroke: #000000; stroke-width: 0.6"/>
      </g>
     </g>
    </g>
    <g id="xtick_21">
     <g id="line2d_21">
      <g>
       <use xlink:href="#m904f61f905" x="258.462532" y="319.48" style="stroke: #000000; stroke-width: 0.6"/>
      </g>
     </g>
    </g>
    <g id="xtick_22">
     <g id="line2d_22">
      <g>
       <use xlink:href="#m904f61f905" x="269.818911" y="319.48" style="stroke: #000000; stroke-width: 0.6"/>
      </g>
     </g>
    </g>
    <g id="xtick_23">
     <g id="line2d_23">
      <g>
       <use xlink:href="#m904f61f905" x="281.17529" y="319.48" style="stroke: #000000; stroke-width: 0.6"/>
      </g>
     </g>
    </g>
    <g id="xtick_24">
     <g id="line2d_24">
      <g>
       <use xlink:href="#m904f61f905" x="303.888048" y="319.48" style="stroke: #000000; stroke-width: 0.6"/>
      </g>
     </g>
    </g>
    <g id="xtick_25">
     <g id="line2d_25">
      <g>
       <use xlink:href="#m904f61f905" x="315.244427" y="319.48" style="stroke: #000000; stroke-width: 0.6"/>
      </g>
     </g>
    </g>
    <g id="xtick_26">
     <g id="line2d_26">
      <g>
       <use xlink:href="#m904f61f905" x="326.600806" y="319.48" style="stroke: #000000; stroke-width: 0.6"/>
      </g>
     </g>
    </g>
    <g id="text_8">
     <!-- Month -->
     <g transform="translate(186.250469 347.28) scale(0.1 -0.1)">
      <defs>
       <path id="IBMPlexSans-4d" d="M 4077 3763 
L 4045 3763 
L 3667 3014 
L 2598 1069 
L 1530 3014 
L 1152 3763 
L 1120 3763 
L 1120 0 
L 595 0 
L 595 4467 
L 1312 4467 
L 2592 2061 
L 2624 2061 
L 3910 4467 
L 4602 4467 
L 4602 0 
L 4077 0 
L 4077 3763 
z
" transform="scale(0.015625)"/>
       <path id="IBMPlexSans-6f" d="M 1792 -77 
Q 1459 -77 1184 44 
Q 909 166 713 393 
Q 518 621 409 937 
Q 301 1254 301 1651 
Q 301 2042 409 2362 
Q 518 2682 713 2909 
Q 909 3136 1184 3257 
Q 1459 3379 1792 3379 
Q 2125 3379 2397 3257 
Q 2669 3136 2867 2909 
Q 3066 2682 3174 2362 
Q 3283 2042 3283 1651 
Q 3283 1254 3174 937 
Q 3066 621 2867 393 
Q 2669 166 2397 44 
Q 2125 -77 1792 -77 
z
M 1792 378 
Q 2208 378 2470 634 
Q 2733 890 2733 1414 
L 2733 1888 
Q 2733 2413 2470 2669 
Q 2208 2925 1792 2925 
Q 1376 2925 1113 2669 
Q 851 2413 851 1888 
L 851 1414 
Q 851 890 1113 634 
Q 1376 378 1792 378 
z
" transform="scale(0.015625)"/>
       <path id="IBMPlexSans-6e" d="M 544 0 
L 544 3302 
L 1056 3302 
L 1056 2765 
L 1082 2765 
Q 1203 3046 1424 3212 
Q 1645 3379 2016 3379 
Q 2528 3379 2825 3049 
Q 3123 2720 3123 2118 
L 3123 0 
L 2611 0 
L 2611 2029 
Q 2611 2918 1862 2918 
Q 1709 2918 1565 2880 
Q 1421 2842 1305 2765 
Q 1190 2688 1123 2569 
Q 1056 2451 1056 2291 
L 1056 0 
L 544 0 
z
" transform="scale(0.015625)"/>
       <path id="IBMPlexSans-74" d="M 1274 0 
Q 1005 0 867 150 
Q 730 301 730 544 
L 730 2854 
L 186 2854 
L 186 3302 
L 493 3302 
Q 659 3302 720 3369 
Q 781 3437 781 3603 
L 781 4218 
L 1242 4218 
L 1242 3302 
L 1965 3302 
L 1965 2854 
L 1242 2854 
L 1242 448 
L 1914 448 
L 1914 0 
L 1274 0 
z
" transform="scale(0.015625)"/>
       <path id="IBMPlexSans-68" d="M 544 4736 
L 1056 4736 
L 1056 2765 
L 1082 2765 
Q 1203 3046 1424 3212 
Q 1645 3379 2016 3379 
Q 2528 3379 2825 3049 
Q 3123 2720 3123 2118 
L 3123 0 
L 2611 0 
L 2611 2029 
Q 2611 2918 1862 2918 
Q 1709 2918 1565 2880 
Q 1421 2842 1305 2765 
Q 1190 2688 1123 2569 
Q 1056 2451 1056 2291 
L 1056 0 
L 544 0 
L 544 4736 
z
" transform="scale(0.015625)"/>
      </defs>
      <use xlink:href="#IBMPlexSans-4d"/>
      <use xlink:href="#IBMPlexSans-6f" transform="translate(81.199982 0)"/>
      <use xlink:href="#IBMPlexSans-6e" transform="translate(137.199966 0)"/>
      <use xlink:href="#IBMPlexSans-74" transform="translate(193.999954 0)"/>
      <use xlink:href="#IBMPlexSans-68" transform="translate(229.099945 0)"/>
     </g>
    </g>
   </g>
   <g id="matplotlib.axis_2">
    <g id="ytick_1">
     <g id="line2d_27">
      <defs>
       <path id="m0077108173" d="M 0 0 
L -3.5 0 
" style="stroke: #000000; stroke-width: 0.8"/>
      </defs>
      <g>
       <use xlink:href="#m0077108173" x="51.89" y="268.952209" style="stroke: #000000; stroke-width: 0.8"/>
      </g>
     </g>
     <g id="text_9">
      <!-- −1.0 -->
      <g transform="translate(24.169687 272.652209) scale(0.1 -0.1)">
       <defs>
        <path id="IBMPlexSans-2212" d="M 429 1734 
L 429 2170 
L 3411 2170 
L 3411 1734 
L 429 1734 
z
" transform="scale(0.015625)"/>
        <path id="IBMPlexSans-2e" d="M 870 -77 
Q 666 -77 573 25 
Q 480 128 480 294 
L 480 378 
Q 480 544 573 646 
Q 666 749 870 749 
Q 1075 749 1168 646 
Q 1261 544 1261 378 
L 1261 294 
Q 1261 128 1168 25 
Q 1075 -77 870 -77 
z
" transform="scale(0.015625)"/>
       </defs>
       <use xlink:href="#IBMPlexSans-2212"/>
       <use xlink:href="#IBMPlexSans-31" transform="translate(59.999985 0)"/>
       <use xlink:href="#IBMPlexSans-2e" transform="translate(119.999969 0)"/>
       <use xlink:href="#IBMPlexSans-30" transform="translate(147.199966 0)"/>
      </g>
     </g>
    </g>
    <g id="ytick_2">
     <g id="line2d_28">
      <g>
       <use xlink:href="#m0077108173" x="51.89" y="214.749636" style="stroke: #000000; stroke-width: 0.8"/>
      </g>
     </g>
     <g id="text_10">
      <!-- −0.5 -->
      <g transform="translate(24.169687 218.449636) scale(0.1 -0.1)">
       <defs>
        <path id="IBMPlexSans-35" d="M 3187 3994 
L 1229 3994 
L 1101 2291 
L 1146 2291 
Q 1306 2515 1507 2649 
Q 1709 2784 2061 2784 
Q 2349 2784 2592 2688 
Q 2835 2592 3014 2416 
Q 3194 2240 3293 1984 
Q 3392 1728 3392 1402 
Q 3392 1075 3289 803 
Q 3187 531 2992 336 
Q 2797 141 2518 32 
Q 2240 -77 1888 -77 
Q 1606 -77 1392 -13 
Q 1178 51 1011 160 
Q 845 269 720 403 
Q 595 538 493 685 
L 896 992 
Q 979 858 1072 749 
Q 1165 640 1277 563 
Q 1389 486 1536 444 
Q 1683 403 1888 403 
Q 2349 403 2585 646 
Q 2822 890 2822 1331 
L 2822 1395 
Q 2822 1837 2585 2080 
Q 2349 2323 1888 2323 
Q 1581 2323 1405 2211 
Q 1229 2099 1088 1946 
L 634 2010 
L 794 4467 
L 3187 4467 
L 3187 3994 
z
" transform="scale(0.015625)"/>
       </defs>
       <use xlink:href="#IBMPlexSans-2212"/>
       <use xlink:href="#IBMPlexSans-30" transform="translate(59.999985 0)"/>
       <use xlink:href="#IBMPlexSans-2e" transform="translate(119.999969 0)"/>
       <use xlink:href="#IBMPlexSans-35" transform="translate(147.199966 0)"/>
      </g>
     </g>
    </g>
    <g id="ytick_3">
     <g id="line2d_29">
      <g>
       <use xlink:href="#m0077108173" x="51.89" y="160.547063" style="stroke: #000000; stroke-width: 0.8"/>
      </g>
     </g>
     <g id="text_11">
      <!-- 0.0 -->
      <g transform="translate(30.169688 164.247063) scale(0.1 -0.1)">
       <use xlink:href="#IBMPlexSans-30"/>
       <use xlink:href="#IBMPlexSans-2e" transform="translate(59.999985 0)"/>
       <use xlink:href="#IBMPlexSans-30" transform="translate(87.199982 0)"/>
      </g>
     </g>
    </g>
    <g id="ytick_4">
     <g id="line2d_30">
      <g>
       <use xlink:href="#m0077108173" x="51.89" y="106.34449" style="stroke: #000000; stroke-width: 0.8"/>
      </g>
     </g>
     <g id="text_12">
      <!-- 0.5 -->
      <g transform="translate(30.169688 110.04449) scale(0.1 -0.1)">
       <use xlink:href="#IBMPlexSans-30"/>
       <use xlink:href="#IBMPlexSans-2e" transform="translate(59.999985 0)"/>
       <use xlink:href="#IBMPlexSans-35" transform="translate(87.199982 0)"/>
      </g>
     </g>
    </g>
    <g id="ytick_5">
     <g id="line2d_31">
      <g>
       <use xlink:href="#m0077108173" x="51.89" y="52.141917" style="stroke: #000000; stroke-width: 0.8"/>
      </g>
     </g>
     <g id="text_13">
      <!-- 1.0 -->
      <g transform="translate(30.169688 55.841917) scale(0.1 -0.1)">
       <use xlink:href="#IBMPlexSans-31"/>
       <use xlink:href="#IBMPlexSans-2e" transform="translate(59.999985 0)"/>
       <use xlink:href="#IBMPlexSans-30" transform="translate(87.199982 0)"/>
      </g>
     </g>
    </g>
    <g id="ytick_6">
     <g id="line2d_32">
      <defs>
       <path id="m706ffc6aba" d="M 0 0 
L -2 0 
" style="stroke: #000000; stroke-width: 0.6"/>
      </defs>
      <g>
       <use xlink:href="#m706ffc6aba" x="51.89" y="312.314268" style="stroke: #000000; stroke-width: 0.6"/>
      </g>
     </g>
    </g>
    <g id="ytick_7">
     <g id="line2d_33">
      <g>
       <use xlink:href="#m706ffc6aba" x="51.89" y="301.473753" style="stroke: #000000; stroke-width: 0.6"/>
      </g>
     </g>
    </g>
    <g id="ytick_8">
     <g id="line2d_34">
      <g>
       <use xlink:href="#m706ffc6aba" x="51.89" y="290.633238" style="stroke: #000000; stroke-width: 0.6"/>
      </g>
     </g>
    </g>
    <g id="ytick_9">
     <g id="line2d_35">
      <g>
       <use xlink:href="#m706ffc6aba" x="51.89" y="279.792724" style="stroke: #000000; stroke-width: 0.6"/>
      </g>
     </g>
    </g>
    <g id="ytick_10">
     <g id="line2d_36">
      <g>
       <use xlink:href="#m706ffc6aba" x="51.89" y="258.111695" style="stroke: #000000; stroke-width: 0.6"/>
      </g>
     </g>
    </g>
    <g id="ytick_11">
     <g id="line2d_37">
      <g>
       <use xlink:href="#m706ffc6aba" x="51.89" y="247.27118" style="stroke: #000000; stroke-width: 0.6"/>
      </g>
     </g>
    </g>
    <g id="ytick_12">
     <g id="line2d_38">
      <g>
       <use xlink:href="#m706ffc6aba" x="51.89" y="236.430665" style="stroke: #000000; stroke-width: 0.6"/>
      </g>
     </g>
    </g>
    <g id="ytick_13">
     <g id="line2d_39">
      <g>
       <use xlink:href="#m706ffc6aba" x="51.89" y="225.590151" style="stroke: #000000; stroke-width: 0.6"/>
      </g>
     </g>
    </g>
    <g id="ytick_14">
     <g id="line2d_40">
      <g>
       <use xlink:href="#m706ffc6aba" x="51.89" y="203.909121" style="stroke: #000000; stroke-width: 0.6"/>
      </g>
     </g>
    </g>
    <g id="ytick_15">
     <g id="line2d_41">
      <g>
       <use xlink:href="#m706ffc6aba" x="51.89" y="193.068607" style="stroke: #000000; stroke-width: 0.6"/>
      </g>
     </g>
    </g>
    <g id="ytick_16">
     <g id="line2d_42">
      <g>
       <use xlink:href="#m706ffc6aba" x="51.89" y="182.228092" style="stroke: #000000; stroke-width: 0.6"/>
      </g>
     </g>
    </g>
    <g id="ytick_17">
     <g id="line2d_43">
      <g>
       <use xlink:href="#m706ffc6aba" x="51.89" y="171.387578" style="stroke: #000000; stroke-width: 0.6"/>
      </g>
     </g>
    </g>
    <g id="ytick_18">
     <g id="line2d_44">
      <g>
       <use xlink:href="#m706ffc6aba" x="51.89" y="149.706548" style="stroke: #000000; stroke-width: 0.6"/>
      </g>
     </g>
    </g>
    <g id="ytick_19">
     <g id="line2d_45">
      <g>
       <use xlink:href="#m706ffc6aba" x="51.89" y="138.866034" style="stroke: #000000; stroke-width: 0.6"/>
      </g>
     </g>
    </g>
    <g id="ytick_20">
     <g id="line2d_46">
      <g>
       <use xlink:href="#m706ffc6aba" x="51.89" y="128.025519" style="stroke: #000000; stroke-width: 0.6"/>
      </g>
     </g>
    </g>
    <g id="ytick_21">
     <g id="line2d_47">
      <g>
       <use xlink:href="#m706ffc6aba" x="51.89" y="117.185004" style="stroke: #000000; stroke-width: 0.6"/>
      </g>
     </g>
    </g>
    <g id="ytick_22">
     <g id="line2d_48">
      <g>
       <use xlink:href="#m706ffc6aba" x="51.89" y="95.503975" style="stroke: #000000; stroke-width: 0.6"/>
      </g>
     </g>
    </g>
    <g id="ytick_23">
     <g id="line2d_49">
      <g>
       <use xlink:href="#m706ffc6aba" x="51.89" y="84.663461" style="stroke: #000000; stroke-width: 0.6"/>
      </g>
     </g>
    </g>
    <g id="ytick_24">
     <g id="line2d_50">
      <g>
       <use xlink:href="#m706ffc6aba" x="51.89" y="73.822946" style="stroke: #000000; stroke-width: 0.6"/>
      </g>
     </g>
    </g>
    <g id="ytick_25">
     <g id="line2d_51">
      <g>
       <use xlink:href="#m706ffc6aba" x="51.89" y="62.982431" style="stroke: #000000; stroke-width: 0.6"/>
      </g>
     </g>
    </g>
    <g id="ytick_26">
     <g id="line2d_52">
      <g>
       <use xlink:href="#m706ffc6aba" x="51.89" y="41.301402" style="stroke: #000000; stroke-width: 0.6"/>
      </g>
     </g>
    </g>
    <g id="ytick_27">
     <g id="line2d_53">
      <g>
       <use xlink:href="#m706ffc6aba" x="51.89" y="30.460888" style="stroke: #000000; stroke-width: 0.6"/>
      </g>
     </g>
    </g>
    <g id="text_14">
     <!-- Value -->
     <g transform="translate(18.169687 185.360937) rotate(-90) scale(0.1 -0.1)">
      <defs>
       <path id="IBMPlexSans-56" d="M 1613 0 
L 128 4467 
L 704 4467 
L 1440 2214 
L 1933 538 
L 1965 538 
L 2470 2214 
L 3213 4467 
L 3770 4467 
L 2266 0 
L 1613 0 
z
" transform="scale(0.015625)"/>
       <path id="IBMPlexSans-61" d="M 2944 0 
Q 2656 0 2531 153 
Q 2406 307 2374 538 
L 2342 538 
Q 2234 230 1984 76 
Q 1734 -77 1389 -77 
Q 864 -77 573 192 
Q 282 461 282 922 
Q 282 1389 624 1638 
Q 966 1888 1690 1888 
L 2342 1888 
L 2342 2214 
Q 2342 2566 2150 2752 
Q 1958 2938 1562 2938 
Q 1261 2938 1059 2803 
Q 858 2669 723 2445 
L 416 2733 
Q 550 3002 844 3190 
Q 1139 3379 1587 3379 
Q 2189 3379 2521 3084 
Q 2854 2790 2854 2266 
L 2854 448 
L 3232 448 
L 3232 0 
L 2944 0 
z
M 1472 358 
Q 1664 358 1824 403 
Q 1984 448 2099 531 
Q 2214 614 2278 723 
Q 2342 832 2342 960 
L 2342 1504 
L 1664 1504 
Q 1222 1504 1020 1376 
Q 819 1248 819 1005 
L 819 870 
Q 819 627 995 492 
Q 1171 358 1472 358 
z
" transform="scale(0.015625)"/>
       <path id="IBMPlexSans-6c" d="M 1088 0 
Q 819 0 681 150 
Q 544 301 544 531 
L 544 4736 
L 1056 4736 
L 1056 448 
L 1542 448 
L 1542 0 
L 1088 0 
z
" transform="scale(0.015625)"/>
       <path id="IBMPlexSans-75" d="M 2579 538 
L 2554 538 
Q 2502 422 2428 310 
Q 2355 198 2246 112 
Q 2138 26 1984 -25 
Q 1830 -77 1626 -77 
Q 1114 -77 813 252 
Q 512 582 512 1184 
L 512 3302 
L 1024 3302 
L 1024 1274 
Q 1024 384 1779 384 
Q 1933 384 2077 422 
Q 2221 461 2333 537 
Q 2445 614 2512 732 
Q 2579 851 2579 1018 
L 2579 3302 
L 3091 3302 
L 3091 0 
L 2579 0 
L 2579 538 
z
" transform="scale(0.015625)"/>
       <path id="IBMPlexSans-65" d="M 1786 -77 
Q 1446 -77 1174 44 
Q 902 166 707 393 
Q 512 621 406 937 
Q 301 1254 301 1651 
Q 301 2042 406 2362 
Q 512 2682 707 2909 
Q 902 3136 1174 3257 
Q 1446 3379 1786 3379 
Q 2118 3379 2380 3257 
Q 2643 3136 2828 2921 
Q 3014 2707 3113 2412 
Q 3213 2118 3213 1766 
L 3213 1523 
L 838 1523 
L 838 1370 
Q 838 1158 905 976 
Q 973 794 1097 659 
Q 1222 525 1404 448 
Q 1587 371 1818 371 
Q 2131 371 2364 518 
Q 2598 666 2726 941 
L 3091 678 
Q 2931 339 2592 131 
Q 2253 -77 1786 -77 
z
M 1786 2950 
Q 1574 2950 1401 2876 
Q 1229 2803 1104 2668 
Q 979 2534 908 2352 
Q 838 2170 838 1952 
L 838 1907 
L 2662 1907 
L 2662 1978 
Q 2662 2419 2422 2684 
Q 2182 2950 1786 2950 
z
" transform="scale(0.015625)"/>
      </defs>
      <use xlink:href="#IBMPlexSans-56"/>
      <use xlink:href="#IBMPlexSans-61" transform="translate(60.899994 0)"/>
      <use xlink:href="#IBMPlexSans-6c" transform="translate(114.299988 0)"/>
      <use xlink:href="#IBMPlexSans-75" transform="translate(141.499985 0)"/>
      <use xlink:href="#IBMPlexSans-65" transform="translate(198.299973 0)"/>
     </g>
    </g>
   </g>
   <g id="line2d_54">
    <path d="M 65.404091 187.353524 
L 67.675367 127.152496 
L 69.946642 50.537343 
L 72.217918 68.56599 
L 74.489194 60.502333 
L 76.76047 101.544749 
L 79.031746 177.796047 
L 81.303021 189.221519 
L 83.574297 244.232495 
L 85.845573 256.00834 
L 88.116849 233.018992 
L 90.388125 245.263799 
L 92.6594 128.237828 
L 94.930676 135.372398 
L 97.201952 58.333186 
L 99.473228 70.128468 
L 101.744503 43.921707 
L 104.015779 135.071025 
L 106.287055 168.997105 
L 108.558331 194.755144 
L 110.829607 295.477658 
L 113.100882 224.833444 
L 115.372158 193.872184 
L 117.643434 173.371208 
L 119.91471 140.091835 
L 122.185985 121.141193 
L 124.457261 50.700575 
L 126.728537 44.715334 
L 128.999813 74.801245 
L 131.271089 117.0464 
L 133.542364 170.351411 
L 135.81364 237.249997 
L 138.084916 202.41996 
L 140.356192 306.136364 
L 142.627468 245.683821 
L 144.898743 199.45421 
L 147.170019 137.243177 
L 149.441295 69.441719 
L 151.712571 58.521422 
L 153.983846 81.723552 
L 156.255122 65.708581 
L 158.526398 151.375996 
L 160.797674 121.793889 
L 163.06895 208.149804 
L 165.340225 253.912091 
L 167.611501 264.590531 
L 169.882777 237.315322 
L 172.154053 214.554098 
L 174.425328 98.487557 
L 176.696604 136.648638 
L 178.96788 84.558063 
L 181.239156 73.062758 
L 183.510432 84.675564 
L 185.781707 115.68506 
L 188.052983 173.598036 
L 190.324259 219.720215 
L 192.595535 259.01801 
L 194.866811 287.602627 
L 197.138086 229.790158 
L 199.409362 177.231256 
L 201.680638 175.265342 
L 203.951914 132.324191 
L 206.223189 94.018866 
L 208.494465 86.306876 
L 210.765741 124.366533 
L 213.037017 80.188821 
L 215.308293 148.649601 
L 217.579568 223.196972 
L 219.850844 227.598614 
L 222.12212 259.153936 
L 224.393396 241.387998 
L 226.664672 194.045233 
L 228.935947 134.720499 
L 231.207223 76.003946 
L 233.478499 39.263636 
L 235.749775 80.567337 
L 238.02105 98.985604 
L 240.292326 114.485784 
L 242.563602 157.068797 
L 244.834878 223.807479 
L 247.106154 252.46803 
L 249.377429 225.230416 
L 251.648705 191.157432 
L 253.919981 210.047586 
L 256.191257 178.107754 
L 258.462532 124.864729 
L 260.733808 112.411115 
L 263.005084 81.218122 
L 265.27636 73.992995 
L 267.547636 119.389503 
L 269.818911 127.088422 
L 272.090187 199.819862 
L 274.361463 222.613393 
L 276.632739 251.3027 
L 278.904015 199.996118 
L 281.17529 237.03626 
L 283.446566 168.774779 
L 285.717842 148.993478 
L 287.989118 63.0487 
L 290.260393 50.778118 
L 292.531669 99.41974 
L 294.802945 72.248 
L 297.074221 168.603262 
L 299.345497 241.400421 
L 301.616772 243.273355 
L 303.888048 237.514161 
L 306.159324 242.004676 
L 308.4306 142.510598 
L 310.701875 137.364984 
L 312.973151 70.265104 
L 315.244427 47.882496 
L 317.515703 119.50988 
L 319.786979 95.679519 
L 322.058254 191.130477 
L 324.32953 178.065246 
L 326.600806 173.688361 
L 328.872082 258.504457 
L 331.143358 264.526256 
L 333.414633 226.813696 
L 335.685909 182.571831 
" clip-path="url(#p489bf566ee)" style="fill: none; stroke: #65489d; stroke-width: 2; stroke-linecap: square"/>
   </g>
   <g id="patch_3">
    <path d="M 51.89 319.48 
L 51.89 25.92 
" style="fill: none; stroke: #000000; stroke-width: 0.8; stroke-linejoin: miter; stroke-linecap: square"/>
   </g>
   <g id="patch_4">
    <path d="M 349.2 319.48 
L 349.2 25.92 
" style="fill: none; stroke: #000000; stroke-width: 0.8; stroke-linejoin: miter; stroke-linecap: square"/>
   </g>
   <g id="patch_5">
    <path d="M 51.89 319.48 
L 349.2 319.48 
" style="fill: none; stroke: #000000; stroke-width: 0.8; stroke-linejoin: miter; stroke-linecap: square"/>
   </g>
   <g id="patch_6">
    <path d="M 51.89 25.92 
L 349.2 25.92 
" style="fill: none; stroke: #000000; stroke-width: 0.8; stroke-linejoin: miter; stroke-linecap: square"/>
   </g>
   <g id="text_15">
    <!-- Detrended series -->
    <g transform="translate(154.409688 19.92) scale(0.12 -0.12)">
     <defs>
      <path id="IBMPlexSans-44" d="M 595 4467 
L 2093 4467 
Q 2509 4467 2848 4326 
Q 3187 4186 3427 3907 
Q 3667 3629 3795 3209 
Q 3923 2790 3923 2234 
Q 3923 1677 3795 1257 
Q 3667 838 3427 560 
Q 3187 282 2848 141 
Q 2509 0 2093 0 
L 595 0 
L 595 4467 
z
M 2093 474 
Q 2368 474 2598 566 
Q 2829 659 2995 838 
Q 3162 1018 3254 1277 
Q 3347 1536 3347 1869 
L 3347 2598 
Q 3347 2931 3254 3190 
Q 3162 3450 2995 3629 
Q 2829 3808 2598 3901 
Q 2368 3994 2093 3994 
L 1133 3994 
L 1133 474 
L 2093 474 
z
" transform="scale(0.015625)"/>
      <path id="IBMPlexSans-72" d="M 544 0 
L 544 3302 
L 1056 3302 
L 1056 2694 
L 1088 2694 
Q 1178 2931 1408 3116 
Q 1638 3302 2042 3302 
L 2240 3302 
L 2240 2790 
L 1939 2790 
Q 1523 2790 1289 2633 
Q 1056 2477 1056 2240 
L 1056 0 
L 544 0 
z
" transform="scale(0.015625)"/>
      <path id="IBMPlexSans-64" d="M 2656 538 
L 2630 538 
Q 2330 -77 1664 -77 
Q 1357 -77 1107 44 
Q 858 166 682 390 
Q 506 614 413 934 
Q 320 1254 320 1651 
Q 320 2048 413 2368 
Q 506 2688 682 2912 
Q 858 3136 1107 3257 
Q 1357 3379 1664 3379 
Q 2010 3379 2256 3228 
Q 2502 3078 2630 2765 
L 2656 2765 
L 2656 4736 
L 3168 4736 
L 3168 0 
L 2656 0 
L 2656 538 
z
M 1805 384 
Q 1978 384 2134 429 
Q 2291 474 2406 560 
Q 2522 646 2589 771 
Q 2656 896 2656 1056 
L 2656 2285 
Q 2656 2419 2589 2537 
Q 2522 2656 2406 2739 
Q 2291 2822 2134 2870 
Q 1978 2918 1805 2918 
Q 1370 2918 1120 2646 
Q 870 2374 870 1933 
L 870 1370 
Q 870 928 1120 656 
Q 1370 384 1805 384 
z
" transform="scale(0.015625)"/>
      <path id="IBMPlexSans-20" transform="scale(0.015625)"/>
      <path id="IBMPlexSans-73" d="M 1536 -77 
Q 1075 -77 764 99 
Q 454 275 230 570 
L 595 864 
Q 787 621 1024 489 
Q 1261 358 1574 358 
Q 1901 358 2083 499 
Q 2266 640 2266 896 
Q 2266 1088 2141 1225 
Q 2016 1363 1690 1414 
L 1427 1453 
Q 1197 1485 1005 1552 
Q 813 1619 669 1731 
Q 525 1843 445 2009 
Q 365 2176 365 2406 
Q 365 2650 454 2832 
Q 544 3014 701 3136 
Q 858 3258 1075 3318 
Q 1293 3379 1542 3379 
Q 1946 3379 2218 3238 
Q 2490 3098 2694 2848 
L 2355 2541 
Q 2246 2694 2035 2819 
Q 1824 2944 1504 2944 
Q 1184 2944 1021 2806 
Q 858 2669 858 2432 
Q 858 2189 1021 2080 
Q 1184 1971 1491 1920 
L 1747 1882 
Q 2298 1798 2528 1564 
Q 2758 1331 2758 954 
Q 2758 474 2432 198 
Q 2106 -77 1536 -77 
z
" transform="scale(0.015625)"/>
      <path id="IBMPlexSans-69" d="M 800 4077 
Q 634 4077 560 4157 
Q 486 4237 486 4365 
L 486 4448 
Q 486 4576 560 4656 
Q 634 4736 800 4736 
Q 966 4736 1040 4656 
Q 1114 4576 1114 4448 
L 1114 4365 
Q 1114 4237 1040 4157 
Q 966 4077 800 4077 
z
M 544 3302 
L 1056 3302 
L 1056 0 
L 544 0 
L 544 3302 
z
" transform="scale(0.015625)"/>
     </defs>
     <use xlink:href="#IBMPlexSans-44"/>
     <use xlink:href="#IBMPlexSans-65" transform="translate(67.099991 0)"/>
     <use xlink:href="#IBMPlexSans-74" transform="translate(121.999985 0)"/>
     <use xlink:href="#IBMPlexSans-72" transform="translate(157.099976 0)"/>
     <use xlink:href="#IBMPlexSans-65" transform="translate(193.799973 0)"/>
     <use xlink:href="#IBMPlexSans-6e" transform="translate(248.699966 0)"/>
     <use xlink:href="#IBMPlexSans-64" transform="translate(305.499954 0)"/>
     <use xlink:href="#IBMPlexSans-65" transform="translate(363.499939 0)"/>
     <use xlink:href="#IBMPlexSans-64" transform="translate(418.399933 0)"/>
     <use xlink:href="#IBMPlexSans-20" transform="translate(476.399918 0)"/>
     <use xlink:href="#IBMPlexSans-73" transform="translate(499.999908 0)"/>
     <use xlink:href="#IBMPlexSans-65" transform="translate(548.699905 0)"/>
     <use xlink:href="#IBMPlexSans-72" transform="translate(603.599899 0)"/>
     <use xlink:href="#IBMPlexSans-69" transform="translate(640.299896 0)"/>
     <use xlink:href="#IBMPlexSans-65" transform="translate(665.299881 0)"/>
     <use xlink:href="#IBMPlexSans-73" transform="translate(720.199875 0)"/>
    </g>
   </g>
  </g>
 </g>
 <defs>
  <clipPath id="p489bf566ee">
   <rect x="51.89" y="25.92" width="297.31" height="293.56"/>
  </clipPath>
 </defs>
</svg>
