<?xml version="1.0" encoding="utf-8" standalone="no"?>
<!DOCTYPE svg PUBLIC "-//W3C//DTD SVG 1.1//EN"
  "http://www.w3.org/Graphics/SVG/1.1/DTD/svg11.dtd">
<svg xmlns:xlink="http://www.w3.org/1999/xlink" width="576pt" height="216pt" viewBox="0 0 576 216" xmlns="http://www.w3.org/2000/svg" version="1.1">
 <metadata>
  <rdf:RDF xmlns:dc="http://purl.org/dc/elements/1.1/" xmlns:cc="http://creativecommons.org/ns#" xmlns:rdf="http://www.w3.org/1999/02/22-rdf-syntax-ns#">
   <cc:Work>
    <dc:type rdf:resource="http://purl.org/dc/dcmitype/StillImage"/>
    <dc:date>2025-08-18T03:30:21.478778</dc:date>
    <dc:format>image/svg+xml</dc:format>
    <dc:creator>
     <cc:Agent>
      <dc:title>Matplotlib v3.10.3, https://matplotlib.org/</dc:title>
     </cc:Agent>
    </dc:creator>
   </cc:Work>
  </rdf:RDF>
 </metadata>
 <defs>
  <style type="text/css">*{stroke-linejoin: round; stroke-linecap: butt}</style>
 </defs>
 <g id="figure_1">
  <g id="patch_1">
   <path d="M 0 216 
L 576 216 
L 576 0 
L 0 0 
L 0 216 
z
" style="fill: none"/>
  </g>
  <g id="axes_1">
   <g id="patch_2">
    <path d="M 45.89 175.48 
L 565.2 175.48 
L 565.2 25.92 
L 45.89 25.92 
L 45.89 175.48 
z
" style="fill: none"/>
   </g>
   <g id="matplotlib.axis_1">
    <g id="xtick_1">
     <g id="line2d_1">
      <defs>
       <path id="m27dbd77fc9" d="M 0 0 
L 0 3.5 
" style="stroke: #000000; stroke-width: 0.8"/>
      </defs>
      <g>
       <use xlink:href="#m27dbd77fc9" x="45.89" y="175.48" style="stroke: #000000; stroke-width: 0.8"/>
      </g>
     </g>
     <g id="text_1">
      <!-- 0 -->
      <g transform="translate(42.89 189.88) scale(0.1 -0.1)">
       <defs>
        <path id="IBMPlexSans-30" d="M 1920 -77 
Q 1120 -77 752 531 
Q 384 1139 384 2234 
Q 384 3328 752 3936 
Q 1120 4544 1920 4544 
Q 2720 4544 3088 3936 
Q 3456 3328 3456 2234 
Q 3456 1139 3088 531 
Q 2720 -77 1920 -77 
z
M 1920 390 
Q 2182 390 2368 499 
Q 2554 608 2669 806 
Q 2784 1005 2838 1273 
Q 2893 1542 2893 1869 
L 2893 2598 
Q 2893 2925 2838 3193 
Q 2784 3462 2669 3660 
Q 2554 3859 2368 3968 
Q 2182 4077 1920 4077 
Q 1658 4077 1472 3968 
Q 1286 3859 1171 3660 
Q 1056 3462 1001 3193 
Q 947 2925 947 2598 
L 947 1869 
Q 947 1542 1001 1273 
Q 1056 1005 1171 806 
Q 1286 608 1472 499 
Q 1658 390 1920 390 
z
" transform="scale(0.015625)"/>
       </defs>
       <use xlink:href="#IBMPlexSans-30"/>
      </g>
     </g>
    </g>
    <g id="xtick_2">
     <g id="line2d_2">
      <g>
       <use xlink:href="#m27dbd77fc9" x="132.562045" y="175.48" style="stroke: #000000; stroke-width: 0.8"/>
      </g>
     </g>
     <g id="text_2">
      <!-- 5 -->
      <g transform="translate(129.562045 189.88) scale(0.1 -0.1)">
       <defs>
        <path id="IBMPlexSans-35" d="M 3187 3994 
L 1229 3994 
L 1101 2291 
L 1146 2291 
Q 1306 2515 1507 2649 
Q 1709 2784 2061 2784 
Q 2349 2784 2592 2688 
Q 2835 2592 3014 2416 
Q 3194 2240 3293 1984 
Q 3392 1728 3392 1402 
Q 3392 1075 3289 803 
Q 3187 531 2992 336 
Q 2797 141 2518 32 
Q 2240 -77 1888 -77 
Q 1606 -77 1392 -13 
Q 1178 51 1011 160 
Q 845 269 720 403 
Q 595 538 493 685 
L 896 992 
Q 979 858 1072 749 
Q 1165 640 1277 563 
Q 1389 486 1536 444 
Q 1683 403 1888 403 
Q 2349 403 2585 646 
Q 2822 890 2822 1331 
L 2822 1395 
Q 2822 1837 2585 2080 
Q 2349 2323 1888 2323 
Q 1581 2323 1405 2211 
Q 1229 2099 1088 1946 
L 634 2010 
L 794 4467 
L 3187 4467 
L 3187 3994 
z
" transform="scale(0.015625)"/>
       </defs>
       <use xlink:href="#IBMPlexSans-35"/>
      </g>
     </g>
    </g>
    <g id="xtick_3">
     <g id="line2d_3">
      <g>
       <use xlink:href="#m27dbd77fc9" x="219.234089" y="175.48" style="stroke: #000000; stroke-width: 0.8"/>
      </g>
     </g>
     <g id="text_3">
      <!-- 10 -->
      <g transform="translate(213.234089 189.88) scale(0.1 -0.1)">
       <defs>
        <path id="IBMPlexSans-31" d="M 563 0 
L 563 474 
L 1811 474 
L 1811 4070 
L 1766 4070 
L 640 3021 
L 326 3360 
L 1510 4467 
L 2349 4467 
L 2349 474 
L 3501 474 
L 3501 0 
L 563 0 
z
" transform="scale(0.015625)"/>
       </defs>
       <use xlink:href="#IBMPlexSans-31"/>
       <use xlink:href="#IBMPlexSans-30" transform="translate(59.999985 0)"/>
      </g>
     </g>
    </g>
    <g id="xtick_4">
     <g id="line2d_4">
      <g>
       <use xlink:href="#m27dbd77fc9" x="305.906134" y="175.48" style="stroke: #000000; stroke-width: 0.8"/>
      </g>
     </g>
     <g id="text_4">
      <!-- 15 -->
      <g transform="translate(299.906134 189.88) scale(0.1 -0.1)">
       <use xlink:href="#IBMPlexSans-31"/>
       <use xlink:href="#IBMPlexSans-35" transform="translate(59.999985 0)"/>
      </g>
     </g>
    </g>
    <g id="xtick_5">
     <g id="line2d_5">
      <g>
       <use xlink:href="#m27dbd77fc9" x="392.578178" y="175.48" style="stroke: #000000; stroke-width: 0.8"/>
      </g>
     </g>
     <g id="text_5">
      <!-- 20 -->
      <g transform="translate(386.578178 189.88) scale(0.1 -0.1)">
       <defs>
        <path id="IBMPlexSans-32" d="M 3411 0 
L 480 0 
L 480 550 
L 1939 1894 
Q 2253 2182 2464 2505 
Q 2675 2829 2675 3155 
L 2675 3232 
Q 2675 3603 2470 3833 
Q 2266 4064 1850 4064 
Q 1645 4064 1491 4006 
Q 1338 3949 1226 3846 
Q 1114 3744 1040 3606 
Q 966 3469 922 3309 
L 442 3494 
Q 506 3693 618 3881 
Q 730 4070 899 4217 
Q 1069 4365 1309 4454 
Q 1549 4544 1875 4544 
Q 2202 4544 2458 4448 
Q 2714 4352 2886 4179 
Q 3059 4006 3152 3769 
Q 3245 3533 3245 3245 
Q 3245 2982 3171 2758 
Q 3098 2534 2970 2332 
Q 2842 2131 2659 1939 
Q 2477 1747 2266 1555 
L 1062 474 
L 3411 474 
L 3411 0 
z
" transform="scale(0.015625)"/>
       </defs>
       <use xlink:href="#IBMPlexSans-32"/>
       <use xlink:href="#IBMPlexSans-30" transform="translate(59.999985 0)"/>
      </g>
     </g>
    </g>
    <g id="xtick_6">
     <g id="line2d_6">
      <g>
       <use xlink:href="#m27dbd77fc9" x="479.250223" y="175.48" style="stroke: #000000; stroke-width: 0.8"/>
      </g>
     </g>
     <g id="text_6">
      <!-- 25 -->
      <g transform="translate(473.250223 189.88) scale(0.1 -0.1)">
       <use xlink:href="#IBMPlexSans-32"/>
       <use xlink:href="#IBMPlexSans-35" transform="translate(59.999985 0)"/>
      </g>
     </g>
    </g>
    <g id="xtick_7">
     <g id="line2d_7">
      <defs>
       <path id="mfbebf07288" d="M 0 0 
L 0 2 
" style="stroke: #000000; stroke-width: 0.6"/>
      </defs>
      <g>
       <use xlink:href="#mfbebf07288" x="63.224409" y="175.48" style="stroke: #000000; stroke-width: 0.6"/>
      </g>
     </g>
    </g>
    <g id="xtick_8">
     <g id="line2d_8">
      <g>
       <use xlink:href="#mfbebf07288" x="80.558818" y="175.48" style="stroke: #000000; stroke-width: 0.6"/>
      </g>
     </g>
    </g>
    <g id="xtick_9">
     <g id="line2d_9">
      <g>
       <use xlink:href="#mfbebf07288" x="97.893227" y="175.48" style="stroke: #000000; stroke-width: 0.6"/>
      </g>
     </g>
    </g>
    <g id="xtick_10">
     <g id="line2d_10">
      <g>
       <use xlink:href="#mfbebf07288" x="115.227636" y="175.48" style="stroke: #000000; stroke-width: 0.6"/>
      </g>
     </g>
    </g>
    <g id="xtick_11">
     <g id="line2d_11">
      <g>
       <use xlink:href="#mfbebf07288" x="149.896453" y="175.48" style="stroke: #000000; stroke-width: 0.6"/>
      </g>
     </g>
    </g>
    <g id="xtick_12">
     <g id="line2d_12">
      <g>
       <use xlink:href="#mfbebf07288" x="167.230862" y="175.48" style="stroke: #000000; stroke-width: 0.6"/>
      </g>
     </g>
    </g>
    <g id="xtick_13">
     <g id="line2d_13">
      <g>
       <use xlink:href="#mfbebf07288" x="184.565271" y="175.48" style="stroke: #000000; stroke-width: 0.6"/>
      </g>
     </g>
    </g>
    <g id="xtick_14">
     <g id="line2d_14">
      <g>
       <use xlink:href="#mfbebf07288" x="201.89968" y="175.48" style="stroke: #000000; stroke-width: 0.6"/>
      </g>
     </g>
    </g>
    <g id="xtick_15">
     <g id="line2d_15">
      <g>
       <use xlink:href="#mfbebf07288" x="236.568498" y="175.48" style="stroke: #000000; stroke-width: 0.6"/>
      </g>
     </g>
    </g>
    <g id="xtick_16">
     <g id="line2d_16">
      <g>
       <use xlink:href="#mfbebf07288" x="253.902907" y="175.48" style="stroke: #000000; stroke-width: 0.6"/>
      </g>
     </g>
    </g>
    <g id="xtick_17">
     <g id="line2d_17">
      <g>
       <use xlink:href="#mfbebf07288" x="271.237316" y="175.48" style="stroke: #000000; stroke-width: 0.6"/>
      </g>
     </g>
    </g>
    <g id="xtick_18">
     <g id="line2d_18">
      <g>
       <use xlink:href="#mfbebf07288" x="288.571725" y="175.48" style="stroke: #000000; stroke-width: 0.6"/>
      </g>
     </g>
    </g>
    <g id="xtick_19">
     <g id="line2d_19">
      <g>
       <use xlink:href="#mfbebf07288" x="323.240542" y="175.48" style="stroke: #000000; stroke-width: 0.6"/>
      </g>
     </g>
    </g>
    <g id="xtick_20">
     <g id="line2d_20">
      <g>
       <use xlink:href="#mfbebf07288" x="340.574951" y="175.48" style="stroke: #000000; stroke-width: 0.6"/>
      </g>
     </g>
    </g>
    <g id="xtick_21">
     <g id="line2d_21">
      <g>
       <use xlink:href="#mfbebf07288" x="357.90936" y="175.48" style="stroke: #000000; stroke-width: 0.6"/>
      </g>
     </g>
    </g>
    <g id="xtick_22">
     <g id="line2d_22">
      <g>
       <use xlink:href="#mfbebf07288" x="375.243769" y="175.48" style="stroke: #000000; stroke-width: 0.6"/>
      </g>
     </g>
    </g>
    <g id="xtick_23">
     <g id="line2d_23">
      <g>
       <use xlink:href="#mfbebf07288" x="409.912587" y="175.48" style="stroke: #000000; stroke-width: 0.6"/>
      </g>
     </g>
    </g>
    <g id="xtick_24">
     <g id="line2d_24">
      <g>
       <use xlink:href="#mfbebf07288" x="427.246996" y="175.48" style="stroke: #000000; stroke-width: 0.6"/>
      </g>
     </g>
    </g>
    <g id="xtick_25">
     <g id="line2d_25">
      <g>
       <use xlink:href="#mfbebf07288" x="444.581405" y="175.48" style="stroke: #000000; stroke-width: 0.6"/>
      </g>
     </g>
    </g>
    <g id="xtick_26">
     <g id="line2d_26">
      <g>
       <use xlink:href="#mfbebf07288" x="461.915814" y="175.48" style="stroke: #000000; stroke-width: 0.6"/>
      </g>
     </g>
    </g>
    <g id="xtick_27">
     <g id="line2d_27">
      <g>
       <use xlink:href="#mfbebf07288" x="496.584631" y="175.48" style="stroke: #000000; stroke-width: 0.6"/>
      </g>
     </g>
    </g>
    <g id="xtick_28">
     <g id="line2d_28">
      <g>
       <use xlink:href="#mfbebf07288" x="513.91904" y="175.48" style="stroke: #000000; stroke-width: 0.6"/>
      </g>
     </g>
    </g>
    <g id="xtick_29">
     <g id="line2d_29">
      <g>
       <use xlink:href="#mfbebf07288" x="531.253449" y="175.48" style="stroke: #000000; stroke-width: 0.6"/>
      </g>
     </g>
    </g>
    <g id="xtick_30">
     <g id="line2d_30">
      <g>
       <use xlink:href="#mfbebf07288" x="548.587858" y="175.48" style="stroke: #000000; stroke-width: 0.6"/>
      </g>
     </g>
    </g>
    <g id="text_7">
     <!-- Days -->
     <g transform="translate(294.589531 203.28) scale(0.1 -0.1)">
      <defs>
       <path id="IBMPlexSans-44" d="M 595 4467 
L 2093 4467 
Q 2509 4467 2848 4326 
Q 3187 4186 3427 3907 
Q 3667 3629 3795 3209 
Q 3923 2790 3923 2234 
Q 3923 1677 3795 1257 
Q 3667 838 3427 560 
Q 3187 282 2848 141 
Q 2509 0 2093 0 
L 595 0 
L 595 4467 
z
M 2093 474 
Q 2368 474 2598 566 
Q 2829 659 2995 838 
Q 3162 1018 3254 1277 
Q 3347 1536 3347 1869 
L 3347 2598 
Q 3347 2931 3254 3190 
Q 3162 3450 2995 3629 
Q 2829 3808 2598 3901 
Q 2368 3994 2093 3994 
L 1133 3994 
L 1133 474 
L 2093 474 
z
" transform="scale(0.015625)"/>
       <path id="IBMPlexSans-61" d="M 2944 0 
Q 2656 0 2531 153 
Q 2406 307 2374 538 
L 2342 538 
Q 2234 230 1984 76 
Q 1734 -77 1389 -77 
Q 864 -77 573 192 
Q 282 461 282 922 
Q 282 1389 624 1638 
Q 966 1888 1690 1888 
L 2342 1888 
L 2342 2214 
Q 2342 2566 2150 2752 
Q 1958 2938 1562 2938 
Q 1261 2938 1059 2803 
Q 858 2669 723 2445 
L 416 2733 
Q 550 3002 844 3190 
Q 1139 3379 1587 3379 
Q 2189 3379 2521 3084 
Q 2854 2790 2854 2266 
L 2854 448 
L 3232 448 
L 3232 0 
L 2944 0 
z
M 1472 358 
Q 1664 358 1824 403 
Q 1984 448 2099 531 
Q 2214 614 2278 723 
Q 2342 832 2342 960 
L 2342 1504 
L 1664 1504 
Q 1222 1504 1020 1376 
Q 819 1248 819 1005 
L 819 870 
Q 819 627 995 492 
Q 1171 358 1472 358 
z
" transform="scale(0.015625)"/>
       <path id="IBMPlexSans-79" d="M 2579 3302 
L 3085 3302 
L 1606 -768 
Q 1549 -915 1491 -1014 
Q 1434 -1114 1350 -1171 
Q 1267 -1229 1142 -1254 
Q 1018 -1280 838 -1280 
L 576 -1280 
L 576 -832 
L 1094 -832 
L 1344 -128 
L 109 3302 
L 621 3302 
L 1414 1056 
L 1568 518 
L 1600 518 
L 1779 1056 
L 2579 3302 
z
" transform="scale(0.015625)"/>
       <path id="IBMPlexSans-73" d="M 1536 -77 
Q 1075 -77 764 99 
Q 454 275 230 570 
L 595 864 
Q 787 621 1024 489 
Q 1261 358 1574 358 
Q 1901 358 2083 499 
Q 2266 640 2266 896 
Q 2266 1088 2141 1225 
Q 2016 1363 1690 1414 
L 1427 1453 
Q 1197 1485 1005 1552 
Q 813 1619 669 1731 
Q 525 1843 445 2009 
Q 365 2176 365 2406 
Q 365 2650 454 2832 
Q 544 3014 701 3136 
Q 858 3258 1075 3318 
Q 1293 3379 1542 3379 
Q 1946 3379 2218 3238 
Q 2490 3098 2694 2848 
L 2355 2541 
Q 2246 2694 2035 2819 
Q 1824 2944 1504 2944 
Q 1184 2944 1021 2806 
Q 858 2669 858 2432 
Q 858 2189 1021 2080 
Q 1184 1971 1491 1920 
L 1747 1882 
Q 2298 1798 2528 1564 
Q 2758 1331 2758 954 
Q 2758 474 2432 198 
Q 2106 -77 1536 -77 
z
" transform="scale(0.015625)"/>
      </defs>
      <use xlink:href="#IBMPlexSans-44"/>
      <use xlink:href="#IBMPlexSans-61" transform="translate(67.099991 0)"/>
      <use xlink:href="#IBMPlexSans-79" transform="translate(120.499985 0)"/>
      <use xlink:href="#IBMPlexSans-73" transform="translate(170.399979 0)"/>
     </g>
    </g>
   </g>
   <g id="matplotlib.axis_2">
    <g id="ytick_1">
     <g id="line2d_31">
      <defs>
       <path id="m9cd8157c71" d="M 0 0 
L -3.5 0 
" style="stroke: #000000; stroke-width: 0.8"/>
      </defs>
      <g>
       <use xlink:href="#m9cd8157c71" x="45.89" y="165.209364" style="stroke: #000000; stroke-width: 0.8"/>
      </g>
     </g>
     <g id="text_8">
      <!-- 1.0 -->
      <g transform="translate(24.169688 168.909364) scale(0.1 -0.1)">
       <defs>
        <path id="IBMPlexSans-2e" d="M 870 -77 
Q 666 -77 573 25 
Q 480 128 480 294 
L 480 378 
Q 480 544 573 646 
Q 666 749 870 749 
Q 1075 749 1168 646 
Q 1261 544 1261 378 
L 1261 294 
Q 1261 128 1168 25 
Q 1075 -77 870 -77 
z
" transform="scale(0.015625)"/>
       </defs>
       <use xlink:href="#IBMPlexSans-31"/>
       <use xlink:href="#IBMPlexSans-2e" transform="translate(59.999985 0)"/>
       <use xlink:href="#IBMPlexSans-30" transform="translate(87.199982 0)"/>
      </g>
     </g>
    </g>
    <g id="ytick_2">
     <g id="line2d_32">
      <g>
       <use xlink:href="#m9cd8157c71" x="45.89" y="140.352842" style="stroke: #000000; stroke-width: 0.8"/>
      </g>
     </g>
     <g id="text_9">
      <!-- 1.5 -->
      <g transform="translate(24.169688 144.052842) scale(0.1 -0.1)">
       <use xlink:href="#IBMPlexSans-31"/>
       <use xlink:href="#IBMPlexSans-2e" transform="translate(59.999985 0)"/>
       <use xlink:href="#IBMPlexSans-35" transform="translate(87.199982 0)"/>
      </g>
     </g>
    </g>
    <g id="ytick_3">
     <g id="line2d_33">
      <g>
       <use xlink:href="#m9cd8157c71" x="45.89" y="115.49632" style="stroke: #000000; stroke-width: 0.8"/>
      </g>
     </g>
     <g id="text_10">
      <!-- 2.0 -->
      <g transform="translate(24.169688 119.19632) scale(0.1 -0.1)">
       <use xlink:href="#IBMPlexSans-32"/>
       <use xlink:href="#IBMPlexSans-2e" transform="translate(59.999985 0)"/>
       <use xlink:href="#IBMPlexSans-30" transform="translate(87.199982 0)"/>
      </g>
     </g>
    </g>
    <g id="ytick_4">
     <g id="line2d_34">
      <g>
       <use xlink:href="#m9cd8157c71" x="45.89" y="90.639798" style="stroke: #000000; stroke-width: 0.8"/>
      </g>
     </g>
     <g id="text_11">
      <!-- 2.5 -->
      <g transform="translate(24.169688 94.339798) scale(0.1 -0.1)">
       <use xlink:href="#IBMPlexSans-32"/>
       <use xlink:href="#IBMPlexSans-2e" transform="translate(59.999985 0)"/>
       <use xlink:href="#IBMPlexSans-35" transform="translate(87.199982 0)"/>
      </g>
     </g>
    </g>
    <g id="ytick_5">
     <g id="line2d_35">
      <g>
       <use xlink:href="#m9cd8157c71" x="45.89" y="65.783277" style="stroke: #000000; stroke-width: 0.8"/>
      </g>
     </g>
     <g id="text_12">
      <!-- 3.0 -->
      <g transform="translate(24.169688 69.483277) scale(0.1 -0.1)">
       <defs>
        <path id="IBMPlexSans-33" d="M 1670 2573 
Q 2125 2573 2352 2781 
Q 2579 2989 2579 3315 
L 2579 3360 
Q 2579 3712 2358 3888 
Q 2138 4064 1779 4064 
Q 1434 4064 1216 3913 
Q 998 3763 858 3507 
L 461 3814 
Q 544 3949 662 4080 
Q 781 4211 941 4313 
Q 1101 4416 1312 4480 
Q 1523 4544 1792 4544 
Q 2074 4544 2323 4470 
Q 2573 4397 2755 4253 
Q 2938 4109 3043 3897 
Q 3149 3686 3149 3418 
Q 3149 3200 3081 3027 
Q 3014 2854 2899 2726 
Q 2784 2598 2627 2508 
Q 2470 2419 2291 2374 
L 2291 2349 
Q 2470 2310 2640 2224 
Q 2810 2138 2941 2000 
Q 3072 1862 3152 1667 
Q 3232 1472 3232 1222 
Q 3232 934 3123 694 
Q 3014 454 2816 284 
Q 2618 115 2336 19 
Q 2054 -77 1715 -77 
Q 1427 -77 1203 -13 
Q 979 51 806 160 
Q 634 269 502 403 
Q 371 538 269 685 
L 672 992 
Q 755 858 854 749 
Q 954 640 1075 563 
Q 1197 486 1350 444 
Q 1504 403 1709 403 
Q 2182 403 2425 617 
Q 2669 832 2669 1229 
L 2669 1280 
Q 2669 1677 2425 1891 
Q 2182 2106 1709 2106 
L 1184 2106 
L 1184 2573 
L 1670 2573 
z
" transform="scale(0.015625)"/>
       </defs>
       <use xlink:href="#IBMPlexSans-33"/>
       <use xlink:href="#IBMPlexSans-2e" transform="translate(59.999985 0)"/>
       <use xlink:href="#IBMPlexSans-30" transform="translate(87.199982 0)"/>
      </g>
     </g>
    </g>
    <g id="ytick_6">
     <g id="line2d_36">
      <g>
       <use xlink:href="#m9cd8157c71" x="45.89" y="40.926755" style="stroke: #000000; stroke-width: 0.8"/>
      </g>
     </g>
     <g id="text_13">
      <!-- 3.5 -->
      <g transform="translate(24.169688 44.626755) scale(0.1 -0.1)">
       <use xlink:href="#IBMPlexSans-33"/>
       <use xlink:href="#IBMPlexSans-2e" transform="translate(59.999985 0)"/>
       <use xlink:href="#IBMPlexSans-35" transform="translate(87.199982 0)"/>
      </g>
     </g>
    </g>
    <g id="ytick_7">
     <g id="line2d_37">
      <defs>
       <path id="mbeab1070a4" d="M 0 0 
L -2 0 
" style="stroke: #000000; stroke-width: 0.6"/>
      </defs>
      <g>
       <use xlink:href="#mbeab1070a4" x="45.89" y="175.151973" style="stroke: #000000; stroke-width: 0.6"/>
      </g>
     </g>
    </g>
    <g id="ytick_8">
     <g id="line2d_38">
      <g>
       <use xlink:href="#mbeab1070a4" x="45.89" y="170.180669" style="stroke: #000000; stroke-width: 0.6"/>
      </g>
     </g>
    </g>
    <g id="ytick_9">
     <g id="line2d_39">
      <g>
       <use xlink:href="#mbeab1070a4" x="45.89" y="160.23806" style="stroke: #000000; stroke-width: 0.6"/>
      </g>
     </g>
    </g>
    <g id="ytick_10">
     <g id="line2d_40">
      <g>
       <use xlink:href="#mbeab1070a4" x="45.89" y="155.266755" style="stroke: #000000; stroke-width: 0.6"/>
      </g>
     </g>
    </g>
    <g id="ytick_11">
     <g id="line2d_41">
      <g>
       <use xlink:href="#mbeab1070a4" x="45.89" y="150.295451" style="stroke: #000000; stroke-width: 0.6"/>
      </g>
     </g>
    </g>
    <g id="ytick_12">
     <g id="line2d_42">
      <g>
       <use xlink:href="#mbeab1070a4" x="45.89" y="145.324147" style="stroke: #000000; stroke-width: 0.6"/>
      </g>
     </g>
    </g>
    <g id="ytick_13">
     <g id="line2d_43">
      <g>
       <use xlink:href="#mbeab1070a4" x="45.89" y="135.381538" style="stroke: #000000; stroke-width: 0.6"/>
      </g>
     </g>
    </g>
    <g id="ytick_14">
     <g id="line2d_44">
      <g>
       <use xlink:href="#mbeab1070a4" x="45.89" y="130.410234" style="stroke: #000000; stroke-width: 0.6"/>
      </g>
     </g>
    </g>
    <g id="ytick_15">
     <g id="line2d_45">
      <g>
       <use xlink:href="#mbeab1070a4" x="45.89" y="125.438929" style="stroke: #000000; stroke-width: 0.6"/>
      </g>
     </g>
    </g>
    <g id="ytick_16">
     <g id="line2d_46">
      <g>
       <use xlink:href="#mbeab1070a4" x="45.89" y="120.467625" style="stroke: #000000; stroke-width: 0.6"/>
      </g>
     </g>
    </g>
    <g id="ytick_17">
     <g id="line2d_47">
      <g>
       <use xlink:href="#mbeab1070a4" x="45.89" y="110.525016" style="stroke: #000000; stroke-width: 0.6"/>
      </g>
     </g>
    </g>
    <g id="ytick_18">
     <g id="line2d_48">
      <g>
       <use xlink:href="#mbeab1070a4" x="45.89" y="105.553712" style="stroke: #000000; stroke-width: 0.6"/>
      </g>
     </g>
    </g>
    <g id="ytick_19">
     <g id="line2d_49">
      <g>
       <use xlink:href="#mbeab1070a4" x="45.89" y="100.582407" style="stroke: #000000; stroke-width: 0.6"/>
      </g>
     </g>
    </g>
    <g id="ytick_20">
     <g id="line2d_50">
      <g>
       <use xlink:href="#mbeab1070a4" x="45.89" y="95.611103" style="stroke: #000000; stroke-width: 0.6"/>
      </g>
     </g>
    </g>
    <g id="ytick_21">
     <g id="line2d_51">
      <g>
       <use xlink:href="#mbeab1070a4" x="45.89" y="85.668494" style="stroke: #000000; stroke-width: 0.6"/>
      </g>
     </g>
    </g>
    <g id="ytick_22">
     <g id="line2d_52">
      <g>
       <use xlink:href="#mbeab1070a4" x="45.89" y="80.69719" style="stroke: #000000; stroke-width: 0.6"/>
      </g>
     </g>
    </g>
    <g id="ytick_23">
     <g id="line2d_53">
      <g>
       <use xlink:href="#mbeab1070a4" x="45.89" y="75.725885" style="stroke: #000000; stroke-width: 0.6"/>
      </g>
     </g>
    </g>
    <g id="ytick_24">
     <g id="line2d_54">
      <g>
       <use xlink:href="#mbeab1070a4" x="45.89" y="70.754581" style="stroke: #000000; stroke-width: 0.6"/>
      </g>
     </g>
    </g>
    <g id="ytick_25">
     <g id="line2d_55">
      <g>
       <use xlink:href="#mbeab1070a4" x="45.89" y="60.811972" style="stroke: #000000; stroke-width: 0.6"/>
      </g>
     </g>
    </g>
    <g id="ytick_26">
     <g id="line2d_56">
      <g>
       <use xlink:href="#mbeab1070a4" x="45.89" y="55.840668" style="stroke: #000000; stroke-width: 0.6"/>
      </g>
     </g>
    </g>
    <g id="ytick_27">
     <g id="line2d_57">
      <g>
       <use xlink:href="#mbeab1070a4" x="45.89" y="50.869363" style="stroke: #000000; stroke-width: 0.6"/>
      </g>
     </g>
    </g>
    <g id="ytick_28">
     <g id="line2d_58">
      <g>
       <use xlink:href="#mbeab1070a4" x="45.89" y="45.898059" style="stroke: #000000; stroke-width: 0.6"/>
      </g>
     </g>
    </g>
    <g id="ytick_29">
     <g id="line2d_59">
      <g>
       <use xlink:href="#mbeab1070a4" x="45.89" y="35.95545" style="stroke: #000000; stroke-width: 0.6"/>
      </g>
     </g>
    </g>
    <g id="ytick_30">
     <g id="line2d_60">
      <g>
       <use xlink:href="#mbeab1070a4" x="45.89" y="30.984146" style="stroke: #000000; stroke-width: 0.6"/>
      </g>
     </g>
    </g>
    <g id="ytick_31">
     <g id="line2d_61">
      <g>
       <use xlink:href="#mbeab1070a4" x="45.89" y="26.012841" style="stroke: #000000; stroke-width: 0.6"/>
      </g>
     </g>
    </g>
    <g id="text_14">
     <!-- Value -->
     <g transform="translate(18.169688 113.360937) rotate(-90) scale(0.1 -0.1)">
      <defs>
       <path id="IBMPlexSans-56" d="M 1613 0 
L 128 4467 
L 704 4467 
L 1440 2214 
L 1933 538 
L 1965 538 
L 2470 2214 
L 3213 4467 
L 3770 4467 
L 2266 0 
L 1613 0 
z
" transform="scale(0.015625)"/>
       <path id="IBMPlexSans-6c" d="M 1088 0 
Q 819 0 681 150 
Q 544 301 544 531 
L 544 4736 
L 1056 4736 
L 1056 448 
L 1542 448 
L 1542 0 
L 1088 0 
z
" transform="scale(0.015625)"/>
       <path id="IBMPlexSans-75" d="M 2579 538 
L 2554 538 
Q 2502 422 2428 310 
Q 2355 198 2246 112 
Q 2138 26 1984 -25 
Q 1830 -77 1626 -77 
Q 1114 -77 813 252 
Q 512 582 512 1184 
L 512 3302 
L 1024 3302 
L 1024 1274 
Q 1024 384 1779 384 
Q 1933 384 2077 422 
Q 2221 461 2333 537 
Q 2445 614 2512 732 
Q 2579 851 2579 1018 
L 2579 3302 
L 3091 3302 
L 3091 0 
L 2579 0 
L 2579 538 
z
" transform="scale(0.015625)"/>
       <path id="IBMPlexSans-65" d="M 1786 -77 
Q 1446 -77 1174 44 
Q 902 166 707 393 
Q 512 621 406 937 
Q 301 1254 301 1651 
Q 301 2042 406 2362 
Q 512 2682 707 2909 
Q 902 3136 1174 3257 
Q 1446 3379 1786 3379 
Q 2118 3379 2380 3257 
Q 2643 3136 2828 2921 
Q 3014 2707 3113 2412 
Q 3213 2118 3213 1766 
L 3213 1523 
L 838 1523 
L 838 1370 
Q 838 1158 905 976 
Q 973 794 1097 659 
Q 1222 525 1404 448 
Q 1587 371 1818 371 
Q 2131 371 2364 518 
Q 2598 666 2726 941 
L 3091 678 
Q 2931 339 2592 131 
Q 2253 -77 1786 -77 
z
M 1786 2950 
Q 1574 2950 1401 2876 
Q 1229 2803 1104 2668 
Q 979 2534 908 2352 
Q 838 2170 838 1952 
L 838 1907 
L 2662 1907 
L 2662 1978 
Q 2662 2419 2422 2684 
Q 2182 2950 1786 2950 
z
" transform="scale(0.015625)"/>
      </defs>
      <use xlink:href="#IBMPlexSans-56"/>
      <use xlink:href="#IBMPlexSans-61" transform="translate(60.899994 0)"/>
      <use xlink:href="#IBMPlexSans-6c" transform="translate(114.299988 0)"/>
      <use xlink:href="#IBMPlexSans-75" transform="translate(141.499985 0)"/>
      <use xlink:href="#IBMPlexSans-65" transform="translate(198.299973 0)"/>
     </g>
    </g>
   </g>
   <g id="line2d_62">
    <path d="M 45.89 102.890144 
L 46.612267 100.02547 
L 47.334534 86.672957 
L 48.056801 84.211262 
L 48.779068 95.38192 
L 50.223602 75.48396 
L 50.945869 81.265388 
L 51.668136 64.52351 
L 52.390403 82.523637 
L 53.11267 108.471176 
L 53.834937 114.637051 
L 54.557204 111.231194 
L 55.279471 118.58948 
L 56.001739 128.00117 
L 56.724006 153.83361 
L 57.446273 153.750757 
L 58.16854 160.89412 
L 58.890807 152.474424 
L 59.613074 155.897163 
L 60.335341 128.190229 
L 61.057608 141.597413 
L 61.779875 145.96757 
L 62.502142 118.316681 
L 63.224409 114.840501 
L 63.946676 106.374382 
L 64.668943 88.945202 
L 65.39121 103.319699 
L 66.113477 80.67939 
L 66.835744 87.595814 
L 67.558011 80.020249 
L 68.280278 59.188861 
L 69.002545 83.429879 
L 69.724812 82.014594 
L 70.447079 118.20737 
L 71.169346 117.301256 
L 71.891613 122.984744 
L 72.61388 104.744407 
L 73.336147 112.026555 
L 74.058414 144.459015 
L 74.780682 150.622667 
L 75.502949 162.165784 
L 76.225216 149.290786 
L 76.947483 149.133549 
L 78.392017 155.199654 
L 79.114284 139.2295 
L 79.836551 115.692905 
L 80.558818 111.498808 
L 81.281085 98.474427 
L 82.003352 70.671333 
L 82.725619 83.492022 
L 83.447886 86.754044 
L 84.170153 81.612461 
L 84.89242 74.475929 
L 85.614687 68.499715 
L 86.336954 80.82408 
L 87.059221 81.272417 
L 87.781488 102.525594 
L 88.503755 102.472512 
L 89.948289 128.867752 
L 90.670556 124.945271 
L 91.392823 128.334954 
L 92.11509 158.756887 
L 92.837357 166.464997 
L 93.559624 161.433101 
L 95.004159 140.749435 
L 95.726426 149.55884 
L 96.448693 129.924332 
L 97.17096 133.566462 
L 97.893227 111.703352 
L 98.615494 82.843323 
L 99.337761 72.724732 
L 100.060028 85.853651 
L 100.782295 84.040655 
L 101.504562 77.0206 
L 102.226829 73.932652 
L 102.949096 78.456267 
L 103.671363 64.247247 
L 104.39363 77.349599 
L 105.838164 117.261873 
L 106.560431 113.478174 
L 107.282698 118.063119 
L 108.004965 125.443152 
L 108.727232 130.343252 
L 109.449499 143.497447 
L 110.171766 153.843289 
L 110.894033 147.446309 
L 111.6163 136.48556 
L 112.338567 137.607932 
L 113.060834 140.329723 
L 113.783102 145.121244 
L 114.505369 130.881203 
L 115.227636 94.66695 
L 115.949903 86.093563 
L 116.67217 85.491804 
L 117.394437 86.792186 
L 118.116704 91.968376 
L 118.838971 78.715737 
L 119.561238 68.580537 
L 120.283505 74.964737 
L 121.005772 64.508517 
L 121.728039 87.271015 
L 122.450306 89.191338 
L 123.172573 108.211201 
L 123.89484 98.213108 
L 124.617107 116.079745 
L 125.339374 124.36144 
L 126.061641 136.78415 
L 126.783908 146.035035 
L 127.506175 153.62109 
L 128.228442 159.742351 
L 128.950709 139.17301 
L 129.672976 136.356503 
L 130.395243 141.970789 
L 131.11751 143.936533 
L 131.839777 116.438734 
L 132.562045 113.436111 
L 133.284312 97.887699 
L 134.006579 77.195469 
L 135.451113 85.092991 
L 136.17338 74.687006 
L 136.895647 66.862357 
L 137.617914 60.508346 
L 138.340181 59.950836 
L 139.062448 79.915159 
L 139.784715 103.436435 
L 140.506982 111.088042 
L 141.229249 113.912754 
L 141.951516 110.105364 
L 142.673783 129.258183 
L 143.39605 151.689868 
L 144.118317 152.257567 
L 144.840584 166.812966 
L 145.562851 164.105571 
L 146.285118 136.75872 
L 147.007385 140.830413 
L 147.729652 134.077396 
L 148.451919 142.067933 
L 149.174186 136.842505 
L 149.896453 118.803611 
L 150.61872 94.42522 
L 151.340987 82.990734 
L 152.063255 87.425034 
L 152.785522 85.629599 
L 153.507789 90.973527 
L 154.230056 69.403711 
L 154.952323 75.590081 
L 155.67459 67.592154 
L 156.396857 75.836271 
L 157.119124 89.699274 
L 157.841391 94.608199 
L 158.563658 120.638794 
L 159.285925 105.017211 
L 160.008192 111.230241 
L 160.730459 129.719316 
L 161.452726 158.850601 
L 162.174993 152.781578 
L 162.89726 134.68514 
L 163.619527 149.713475 
L 164.341794 130.98183 
L 165.064061 128.488419 
L 165.786328 142.309568 
L 166.508595 123.134635 
L 167.230862 116.522093 
L 167.953129 95.647773 
L 168.675396 86.050802 
L 169.397663 78.856237 
L 170.11993 83.217572 
L 170.842197 71.409822 
L 171.564465 75.529114 
L 172.286732 62.199576 
L 173.008999 57.98561 
L 173.731266 75.860011 
L 174.453533 106.725346 
L 175.1758 101.437602 
L 175.898067 111.606905 
L 176.620334 106.80692 
L 178.064868 126.944618 
L 178.787135 150.05723 
L 179.509402 168.681818 
L 180.231669 157.776218 
L 180.953936 132.101923 
L 181.676203 135.465853 
L 182.39847 127.3026 
L 183.120737 134.081836 
L 183.843004 132.073309 
L 184.565271 99.470773 
L 185.287538 94.617637 
L 186.009805 94.270023 
L 186.732072 63.906373 
L 187.454339 95.793239 
L 188.176606 72.784654 
L 188.898873 60.522256 
L 189.62114 59.129735 
L 190.343408 76.711071 
L 191.065675 71.478519 
L 191.787942 106.602821 
L 192.510209 115.423116 
L 193.232476 109.742048 
L 193.954743 102.806625 
L 195.399277 128.996901 
L 196.121544 153.240384 
L 196.843811 155.147771 
L 197.566078 155.046552 
L 198.288345 138.922701 
L 199.010612 128.122407 
L 199.732879 137.030004 
L 200.455146 131.581116 
L 201.177413 129.768179 
L 201.89968 110.965411 
L 202.621947 87.310568 
L 203.344214 79.422571 
L 204.066481 73.884355 
L 204.788748 79.221104 
L 205.511015 63.558409 
L 206.233282 68.165733 
L 206.955549 60.926751 
L 207.677816 70.920005 
L 208.400083 77.883326 
L 209.12235 89.767206 
L 209.844618 109.929828 
L 210.566885 106.421246 
L 211.289152 102.333962 
L 212.011419 118.189009 
L 212.733686 137.919688 
L 213.455953 141.681577 
L 214.17822 152.146076 
L 214.900487 142.615548 
L 215.622754 126.830558 
L 216.345021 123.010506 
L 217.067288 136.389025 
L 217.789555 138.050443 
L 219.234089 106.543903 
L 219.956356 100.77557 
L 220.678623 67.46477 
L 221.40089 77.163108 
L 222.123157 74.065208 
L 222.845424 84.288223 
L 223.567691 55.928633 
L 224.289958 62.624527 
L 225.012225 62.972401 
L 225.734492 87.509282 
L 226.456759 95.109707 
L 227.179026 105.128852 
L 227.901293 106.438807 
L 228.623561 103.428037 
L 229.345828 115.798396 
L 230.068095 125.777874 
L 230.790362 151.434665 
L 231.512629 159.302533 
L 232.957163 129.885614 
L 233.67943 121.275577 
L 234.401697 126.736301 
L 235.123964 146.30289 
L 236.568498 93.669522 
L 237.290765 85.147496 
L 238.735299 74.007825 
L 239.457566 82.314739 
L 240.179833 69.781735 
L 240.9021 64.63735 
L 241.624367 46.856074 
L 242.346634 57.450501 
L 243.068901 81.462635 
L 244.513435 95.441155 
L 245.235702 108.301271 
L 245.957969 108.878817 
L 246.680236 132.443783 
L 247.402503 125.323323 
L 248.124771 151.332228 
L 248.847038 166.707293 
L 249.569305 156.773844 
L 250.291572 135.239596 
L 251.013839 123.890347 
L 251.736106 132.475568 
L 252.458373 128.625788 
L 253.18064 130.72435 
L 253.902907 113.567695 
L 254.625174 78.015083 
L 255.347441 71.316666 
L 256.069708 75.546466 
L 256.791975 68.007315 
L 257.514242 80.6463 
L 258.236509 66.680097 
L 258.958776 48.595748 
L 259.681043 46.476658 
L 260.40331 75.007568 
L 261.125577 79.352145 
L 261.847844 105.919588 
L 262.570111 100.609129 
L 263.292378 106.005621 
L 264.014645 126.10337 
L 264.736912 129.142029 
L 265.459179 138.999634 
L 266.181446 150.992385 
L 266.903713 143.11531 
L 267.625981 122.195807 
L 268.348248 137.887354 
L 269.070515 141.984607 
L 270.515049 130.439418 
L 271.237316 92.531708 
L 271.959583 81.316265 
L 272.68185 80.435809 
L 273.404117 78.906846 
L 274.126384 55.23871 
L 274.848651 77.108468 
L 275.570918 68.234314 
L 276.293185 52.985889 
L 277.015452 54.427329 
L 277.737719 72.423065 
L 278.459986 97.657571 
L 279.182253 109.076439 
L 279.90452 97.628404 
L 280.626787 104.119259 
L 281.349054 125.505704 
L 282.071321 121.339357 
L 282.793588 139.179253 
L 283.515855 150.689288 
L 284.238122 143.536445 
L 284.960389 129.862559 
L 285.682656 132.697032 
L 286.404924 139.877203 
L 287.127191 127.750292 
L 287.849458 131.2532 
L 288.571725 98.663035 
L 289.293992 93.378364 
L 290.016259 73.737843 
L 290.738526 74.341937 
L 291.460793 62.286314 
L 292.18306 79.501852 
L 292.905327 72.108857 
L 293.627594 59.079349 
L 294.349861 66.572113 
L 295.794395 86.749832 
L 296.516662 93.681569 
L 297.238929 88.704261 
L 297.961196 108.214252 
L 298.683463 92.595879 
L 299.40573 114.296129 
L 300.127997 145.484277 
L 300.850264 164.985261 
L 301.572531 141.221172 
L 302.294798 130.053597 
L 303.017065 143.725172 
L 303.739332 128.278073 
L 304.461599 130.653573 
L 305.183866 125.386748 
L 305.906134 95.909661 
L 306.628401 74.140243 
L 307.350668 75.629185 
L 308.072935 70.62496 
L 308.795202 79.467796 
L 309.517469 76.436214 
L 310.239736 59.970603 
L 310.962003 49.36344 
L 311.68427 61.398678 
L 312.406537 88.594854 
L 313.128804 84.525294 
L 313.851071 110.349372 
L 315.295605 88.460522 
L 317.462406 153.868274 
L 318.184673 138.1759 
L 318.90694 139.733531 
L 319.629207 125.575216 
L 320.351474 118.67812 
L 321.073741 128.199781 
L 321.796008 130.468019 
L 322.518275 125.597802 
L 323.240542 122.574251 
L 323.962809 91.962485 
L 324.685076 71.528478 
L 325.407344 72.648841 
L 326.129611 70.581452 
L 326.851878 70.520968 
L 328.296412 46.39773 
L 329.018679 62.803709 
L 329.740946 73.234678 
L 330.463213 99.884122 
L 331.18548 90.19483 
L 331.907747 98.804535 
L 332.630014 97.0798 
L 333.352281 98.780597 
L 334.074548 119.038551 
L 334.796815 142.425493 
L 335.519082 140.035985 
L 336.241349 149.289041 
L 336.963616 125.370118 
L 337.685883 123.555405 
L 338.40815 138.907474 
L 339.130417 117.200172 
L 339.852684 122.789484 
L 340.574951 93.499079 
L 341.297218 82.779997 
L 342.019485 62.606455 
L 342.741752 60.56218 
L 343.464019 78.786163 
L 344.186287 79.994126 
L 344.908554 59.554804 
L 345.630821 44.947716 
L 346.353088 57.978565 
L 347.075355 74.674112 
L 347.797622 83.263845 
L 348.519889 117.047904 
L 349.242156 103.05351 
L 349.964423 110.057031 
L 350.68669 107.090153 
L 351.408957 131.584596 
L 352.131224 149.299561 
L 352.853491 147.553963 
L 353.575758 148.568483 
L 354.298025 127.709364 
L 355.020292 128.685411 
L 355.742559 128.660249 
L 356.464826 131.525917 
L 357.187093 109.742245 
L 357.90936 98.411342 
L 358.631627 74.743037 
L 359.353894 65.443262 
L 360.076161 75.36483 
L 360.798428 67.351993 
L 361.520695 64.984462 
L 362.242962 55.241761 
L 362.965229 53.256828 
L 363.687497 57.398403 
L 365.132031 69.639906 
L 365.854298 101.65135 
L 366.576565 93.117137 
L 367.298832 101.47499 
L 368.021099 102.441663 
L 368.743366 121.831673 
L 369.465633 132.084233 
L 370.1879 164.761787 
L 370.910167 141.106611 
L 371.632434 133.986094 
L 372.354701 123.407989 
L 373.076968 130.249426 
L 373.799235 129.963715 
L 374.521502 110.46609 
L 375.243769 82.422768 
L 375.966036 98.71722 
L 376.688303 70.341752 
L 377.41057 66.032165 
L 378.132837 70.572704 
L 378.855104 69.167145 
L 379.577371 66.679112 
L 380.299638 56.318996 
L 381.021905 47.815025 
L 381.744172 60.088658 
L 382.466439 84.195524 
L 383.188707 100.702168 
L 383.910974 95.394521 
L 385.355508 103.231494 
L 386.800042 143.631939 
L 387.522309 141.505097 
L 388.244576 144.424873 
L 388.966843 119.508186 
L 389.68911 112.791846 
L 390.411377 132.645383 
L 391.133644 121.049998 
L 391.855911 121.948228 
L 392.578178 87.619599 
L 393.300445 69.923804 
L 394.022712 68.748907 
L 394.744979 59.945698 
L 395.467246 72.828365 
L 396.189513 70.394123 
L 397.634047 49.345586 
L 398.356314 54.63859 
L 399.078581 65.965367 
L 399.800848 88.508627 
L 400.523115 87.7703 
L 401.245382 87.500649 
L 401.96765 100.45296 
L 402.689917 116.948163 
L 403.412184 117.713743 
L 404.134451 129.510854 
L 404.856718 143.150013 
L 405.578985 144.229344 
L 406.301252 122.639494 
L 407.023519 109.244823 
L 407.745786 136.854755 
L 408.468053 119.631595 
L 409.19032 115.900926 
L 409.912587 100.997564 
L 410.634854 71.956464 
L 411.357121 75.723536 
L 412.079388 64.156311 
L 412.801655 58.826562 
L 413.523922 63.287401 
L 414.246189 61.13254 
L 414.968456 60.569235 
L 415.690723 60.792169 
L 416.41299 79.851963 
L 417.135257 70.999511 
L 417.857524 94.33874 
L 418.579791 101.913454 
L 419.302058 105.441764 
L 420.024325 113.269924 
L 420.746592 124.621739 
L 421.46886 146.571132 
L 422.191127 128.438263 
L 422.913394 139.214832 
L 423.635661 129.470144 
L 424.357928 117.325007 
L 425.080195 111.051863 
L 425.802462 112.328374 
L 426.524729 116.205554 
L 427.246996 91.717865 
L 427.969263 73.563966 
L 428.69153 61.092556 
L 429.413797 63.469576 
L 430.136064 74.663303 
L 430.858331 73.007888 
L 431.580598 52.293725 
L 432.302865 55.132339 
L 433.025132 40.072904 
L 434.469666 89.585056 
L 435.191933 93.882501 
L 435.9142 96.908419 
L 436.636467 95.745467 
L 437.358734 97.264108 
L 438.081001 131.894149 
L 438.803268 149.938938 
L 439.525535 137.423324 
L 440.247803 133.969311 
L 440.97007 121.423034 
L 441.692337 115.310721 
L 442.414604 122.224617 
L 443.136871 115.243693 
L 443.859138 118.232719 
L 444.581405 92.148259 
L 445.303672 79.877951 
L 446.025939 72.475353 
L 446.748206 59.792717 
L 447.470473 62.38755 
L 448.19274 77.097705 
L 449.637274 43.135171 
L 450.359541 41.263467 
L 451.081808 69.099565 
L 451.804075 82.310043 
L 452.526342 101.029087 
L 453.248609 73.408178 
L 453.970876 90.229598 
L 454.693143 96.651909 
L 455.41541 115.222018 
L 456.137677 128.059081 
L 456.859944 134.415446 
L 457.582211 134.152539 
L 458.304478 116.097861 
L 459.026745 117.041282 
L 459.749013 110.211775 
L 460.47128 125.697632 
L 461.193547 114.615541 
L 461.915814 86.703861 
L 462.638081 63.146474 
L 463.360348 61.972973 
L 464.082615 68.701121 
L 464.804882 66.523743 
L 465.527149 65.337418 
L 466.249416 37.470424 
L 466.971683 37.616589 
L 467.69395 38.820984 
L 469.138484 84.084647 
L 469.860751 80.746586 
L 470.583018 78.803499 
L 471.305285 88.43865 
L 472.027552 102.509588 
L 472.749819 111.073816 
L 473.472086 136.791365 
L 474.194353 132.254487 
L 474.91662 135.965051 
L 475.638887 127.887651 
L 476.361154 112.413209 
L 477.083421 116.366095 
L 477.805688 105.018093 
L 478.527955 111.67387 
L 479.250223 90.464951 
L 479.97249 80.194951 
L 480.694757 76.000316 
L 481.417024 75.673032 
L 482.139291 61.189058 
L 482.861558 69.402069 
L 483.583825 42.218397 
L 484.306092 32.718182 
L 485.028359 49.383861 
L 485.750626 49.778205 
L 486.472893 77.256639 
L 487.19516 80.112564 
L 487.917427 91.82575 
L 488.639694 84.63154 
L 489.361961 108.368754 
L 490.084228 113.497013 
L 490.806495 136.454078 
L 491.528762 137.934951 
L 492.251029 124.95384 
L 492.973296 118.36951 
L 493.695563 116.197514 
L 494.41783 112.464747 
L 495.140097 112.234688 
L 495.862364 118.9188 
L 496.584631 85.477514 
L 497.306898 65.696586 
L 498.029166 66.672452 
L 498.751433 58.522411 
L 499.4737 73.522923 
L 500.195967 48.900684 
L 500.918234 51.398715 
L 501.640501 42.915523 
L 502.362768 37.332459 
L 503.085035 62.215159 
L 503.807302 73.490716 
L 504.529569 95.317459 
L 505.251836 93.397044 
L 505.974103 101.173268 
L 506.69637 101.892642 
L 507.418637 109.457682 
L 508.140904 130.368019 
L 508.863171 129.373092 
L 509.585438 136.322663 
L 510.307705 125.249341 
L 511.029972 118.120177 
L 511.752239 112.627852 
L 512.474506 114.572028 
L 513.196773 107.710613 
L 513.91904 84.008357 
L 514.641307 70.834923 
L 516.085841 50.674953 
L 516.808108 67.025691 
L 517.530376 57.277155 
L 518.252643 36.612074 
L 518.97491 40.575543 
L 519.697177 39.998359 
L 520.419444 64.680484 
L 521.141711 62.372648 
L 521.863978 103.288182 
L 522.586245 96.612736 
L 523.308512 97.653983 
L 524.030779 87.267152 
L 524.753046 113.523372 
L 525.475313 132.997356 
L 526.19758 144.530864 
L 526.919847 124.960722 
L 527.642114 116.818547 
L 528.364381 118.821824 
L 529.086648 127.025496 
L 529.808915 124.458857 
L 531.975716 68.166262 
L 532.697983 60.208755 
L 533.42025 72.600184 
L 534.142517 61.295973 
L 534.864784 65.344708 
L 535.587051 47.326391 
L 536.309318 36.873319 
L 537.031586 49.312065 
L 537.753853 66.791217 
L 538.47612 68.558759 
L 539.198387 82.895182 
L 539.920654 91.907175 
L 540.642921 111.174479 
L 541.365188 98.718022 
L 542.809722 121.683533 
L 543.531989 139.033358 
L 544.254256 131.476808 
L 544.976523 119.977367 
L 545.69879 106.411774 
L 546.421057 123.668803 
L 547.143324 116.083097 
L 547.865591 112.511317 
L 548.587858 84.660201 
L 549.310125 79.310646 
L 550.032392 55.27912 
L 550.754659 62.120002 
L 551.476926 62.336033 
L 552.199193 52.730352 
L 552.92146 38.114387 
L 553.643727 52.001278 
L 554.365994 35.795109 
L 555.088261 54.005818 
L 555.810529 77.171318 
L 556.532796 74.054694 
L 557.255063 84.758868 
L 557.97733 78.161889 
L 558.699597 101.777842 
L 559.421864 120.626378 
L 560.144131 119.920458 
L 560.866398 116.845446 
L 561.588665 120.961385 
L 562.310932 109.034844 
L 563.033199 115.199699 
L 563.755466 123.796438 
L 564.477733 115.93216 
L 565.2 93.426007 
L 565.2 93.426007 
" clip-path="url(#pd28e31b90c)" style="fill: none; stroke: #65489d; stroke-width: 2; stroke-linecap: square"/>
   </g>
   <g id="patch_3">
    <path d="M 45.89 175.48 
L 45.89 25.92 
" style="fill: none; stroke: #000000; stroke-width: 0.8; stroke-linejoin: miter; stroke-linecap: square"/>
   </g>
   <g id="patch_4">
    <path d="M 45.89 175.48 
L 565.2 175.48 
" style="fill: none; stroke: #000000; stroke-width: 0.8; stroke-linejoin: miter; stroke-linecap: square"/>
   </g>
   <g id="text_15">
    <!-- Raw series -->
    <g transform="translate(276.341875 19.92) scale(0.12 -0.12)">
     <defs>
      <path id="IBMPlexSans-52" d="M 1133 0 
L 595 0 
L 595 4467 
L 2374 4467 
Q 2963 4467 3292 4140 
Q 3622 3814 3622 3200 
Q 3622 2707 3395 2390 
Q 3168 2074 2726 1971 
L 3750 0 
L 3142 0 
L 2176 1920 
L 1133 1920 
L 1133 0 
z
M 2374 2381 
Q 2694 2381 2870 2547 
Q 3046 2714 3046 3021 
L 3046 3354 
Q 3046 3661 2870 3827 
Q 2694 3994 2374 3994 
L 1133 3994 
L 1133 2381 
L 2374 2381 
z
" transform="scale(0.015625)"/>
      <path id="IBMPlexSans-77" d="M 198 3302 
L 698 3302 
L 1050 1875 
L 1402 429 
L 1414 429 
L 1818 1875 
L 2234 3302 
L 2688 3302 
L 3117 1875 
L 3526 429 
L 3539 429 
L 3878 1875 
L 4237 3302 
L 4717 3302 
L 3840 0 
L 3206 0 
L 2746 1587 
L 2458 2592 
L 2445 2592 
L 2163 1587 
L 1702 0 
L 1082 0 
L 198 3302 
z
" transform="scale(0.015625)"/>
      <path id="IBMPlexSans-20" transform="scale(0.015625)"/>
      <path id="IBMPlexSans-72" d="M 544 0 
L 544 3302 
L 1056 3302 
L 1056 2694 
L 1088 2694 
Q 1178 2931 1408 3116 
Q 1638 3302 2042 3302 
L 2240 3302 
L 2240 2790 
L 1939 2790 
Q 1523 2790 1289 2633 
Q 1056 2477 1056 2240 
L 1056 0 
L 544 0 
z
" transform="scale(0.015625)"/>
      <path id="IBMPlexSans-69" d="M 800 4077 
Q 634 4077 560 4157 
Q 486 4237 486 4365 
L 486 4448 
Q 486 4576 560 4656 
Q 634 4736 800 4736 
Q 966 4736 1040 4656 
Q 1114 4576 1114 4448 
L 1114 4365 
Q 1114 4237 1040 4157 
Q 966 4077 800 4077 
z
M 544 3302 
L 1056 3302 
L 1056 0 
L 544 0 
L 544 3302 
z
" transform="scale(0.015625)"/>
     </defs>
     <use xlink:href="#IBMPlexSans-52"/>
     <use xlink:href="#IBMPlexSans-61" transform="translate(63.999985 0)"/>
     <use xlink:href="#IBMPlexSans-77" transform="translate(117.399979 0)"/>
     <use xlink:href="#IBMPlexSans-20" transform="translate(194.199966 0)"/>
     <use xlink:href="#IBMPlexSans-73" transform="translate(217.799957 0)"/>
     <use xlink:href="#IBMPlexSans-65" transform="translate(266.499954 0)"/>
     <use xlink:href="#IBMPlexSans-72" transform="translate(321.399948 0)"/>
     <use xlink:href="#IBMPlexSans-69" transform="translate(358.099945 0)"/>
     <use xlink:href="#IBMPlexSans-65" transform="translate(383.09993 0)"/>
     <use xlink:href="#IBMPlexSans-73" transform="translate(437.999924 0)"/>
    </g>
   </g>
  </g>
 </g>
 <defs>
  <clipPath id="pd28e31b90c">
   <rect x="45.89" y="25.92" width="519.31" height="149.56"/>
  </clipPath>
 </defs>
</svg>
