<?xml version="1.0" encoding="utf-8" standalone="no"?>
<!DOCTYPE svg PUBLIC "-//W3C//DTD SVG 1.1//EN"
  "http://www.w3.org/Graphics/SVG/1.1/DTD/svg11.dtd">
<svg xmlns:xlink="http://www.w3.org/1999/xlink" width="576pt" height="288pt" viewBox="0 0 576 288" xmlns="http://www.w3.org/2000/svg" version="1.1">
 <metadata>
  <rdf:RDF xmlns:dc="http://purl.org/dc/elements/1.1/" xmlns:cc="http://creativecommons.org/ns#" xmlns:rdf="http://www.w3.org/1999/02/22-rdf-syntax-ns#">
   <cc:Work>
    <dc:type rdf:resource="http://purl.org/dc/dcmitype/StillImage"/>
    <dc:date>2025-08-18T00:11:39.916773</dc:date>
    <dc:format>image/svg+xml</dc:format>
    <dc:creator>
     <cc:Agent>
      <dc:title>Matplotlib v3.10.3, https://matplotlib.org/</dc:title>
     </cc:Agent>
    </dc:creator>
   </cc:Work>
  </rdf:RDF>
 </metadata>
 <defs>
  <style type="text/css">*{stroke-linejoin: round; stroke-linecap: butt}</style>
 </defs>
 <g id="figure_1">
  <g id="patch_1">
   <path d="M 0 288 
L 576 288 
L 576 0 
L 0 0 
L 0 288 
z
" style="fill: none"/>
  </g>
  <g id="axes_1">
   <g id="patch_2">
    <path d="M 51.74 247.96 
L 565.2 247.96 
L 565.2 25.44 
L 51.74 25.44 
L 51.74 247.96 
z
" style="fill: none"/>
   </g>
   <g id="matplotlib.axis_1">
    <g id="xtick_1">
     <g id="line2d_1">
      <defs>
       <path id="m3393aa25ae" d="M 0 0 
L 0 3.5 
" style="stroke: #000000; stroke-width: 0.8"/>
      </defs>
      <g>
       <use xlink:href="#m3393aa25ae" x="75.079091" y="247.96" style="stroke: #000000; stroke-width: 0.8"/>
      </g>
     </g>
     <g id="text_1">
      <!-- 0 -->
      <g transform="translate(72.079091 262.36) scale(0.1 -0.1)">
       <defs>
        <path id="IBMPlexSans-30" d="M 1920 -77 
Q 1120 -77 752 531 
Q 384 1139 384 2234 
Q 384 3328 752 3936 
Q 1120 4544 1920 4544 
Q 2720 4544 3088 3936 
Q 3456 3328 3456 2234 
Q 3456 1139 3088 531 
Q 2720 -77 1920 -77 
z
M 1920 390 
Q 2182 390 2368 499 
Q 2554 608 2669 806 
Q 2784 1005 2838 1273 
Q 2893 1542 2893 1869 
L 2893 2598 
Q 2893 2925 2838 3193 
Q 2784 3462 2669 3660 
Q 2554 3859 2368 3968 
Q 2182 4077 1920 4077 
Q 1658 4077 1472 3968 
Q 1286 3859 1171 3660 
Q 1056 3462 1001 3193 
Q 947 2925 947 2598 
L 947 1869 
Q 947 1542 1001 1273 
Q 1056 1005 1171 806 
Q 1286 608 1472 499 
Q 1658 390 1920 390 
z
" transform="scale(0.015625)"/>
       </defs>
       <use xlink:href="#IBMPlexSans-30"/>
      </g>
     </g>
    </g>
    <g id="xtick_2">
     <g id="line2d_2">
      <g>
       <use xlink:href="#m3393aa25ae" x="149.369725" y="247.96" style="stroke: #000000; stroke-width: 0.8"/>
      </g>
     </g>
     <g id="text_2">
      <!-- 1 -->
      <g transform="translate(146.369725 262.36) scale(0.1 -0.1)">
       <defs>
        <path id="IBMPlexSans-31" d="M 563 0 
L 563 474 
L 1811 474 
L 1811 4070 
L 1766 4070 
L 640 3021 
L 326 3360 
L 1510 4467 
L 2349 4467 
L 2349 474 
L 3501 474 
L 3501 0 
L 563 0 
z
" transform="scale(0.015625)"/>
       </defs>
       <use xlink:href="#IBMPlexSans-31"/>
      </g>
     </g>
    </g>
    <g id="xtick_3">
     <g id="line2d_3">
      <g>
       <use xlink:href="#m3393aa25ae" x="223.660358" y="247.96" style="stroke: #000000; stroke-width: 0.8"/>
      </g>
     </g>
     <g id="text_3">
      <!-- 2 -->
      <g transform="translate(220.660358 262.36) scale(0.1 -0.1)">
       <defs>
        <path id="IBMPlexSans-32" d="M 3411 0 
L 480 0 
L 480 550 
L 1939 1894 
Q 2253 2182 2464 2505 
Q 2675 2829 2675 3155 
L 2675 3232 
Q 2675 3603 2470 3833 
Q 2266 4064 1850 4064 
Q 1645 4064 1491 4006 
Q 1338 3949 1226 3846 
Q 1114 3744 1040 3606 
Q 966 3469 922 3309 
L 442 3494 
Q 506 3693 618 3881 
Q 730 4070 899 4217 
Q 1069 4365 1309 4454 
Q 1549 4544 1875 4544 
Q 2202 4544 2458 4448 
Q 2714 4352 2886 4179 
Q 3059 4006 3152 3769 
Q 3245 3533 3245 3245 
Q 3245 2982 3171 2758 
Q 3098 2534 2970 2332 
Q 2842 2131 2659 1939 
Q 2477 1747 2266 1555 
L 1062 474 
L 3411 474 
L 3411 0 
z
" transform="scale(0.015625)"/>
       </defs>
       <use xlink:href="#IBMPlexSans-32"/>
      </g>
     </g>
    </g>
    <g id="xtick_4">
     <g id="line2d_4">
      <g>
       <use xlink:href="#m3393aa25ae" x="297.950992" y="247.96" style="stroke: #000000; stroke-width: 0.8"/>
      </g>
     </g>
     <g id="text_4">
      <!-- 3 -->
      <g transform="translate(294.950992 262.36) scale(0.1 -0.1)">
       <defs>
        <path id="IBMPlexSans-33" d="M 1670 2573 
Q 2125 2573 2352 2781 
Q 2579 2989 2579 3315 
L 2579 3360 
Q 2579 3712 2358 3888 
Q 2138 4064 1779 4064 
Q 1434 4064 1216 3913 
Q 998 3763 858 3507 
L 461 3814 
Q 544 3949 662 4080 
Q 781 4211 941 4313 
Q 1101 4416 1312 4480 
Q 1523 4544 1792 4544 
Q 2074 4544 2323 4470 
Q 2573 4397 2755 4253 
Q 2938 4109 3043 3897 
Q 3149 3686 3149 3418 
Q 3149 3200 3081 3027 
Q 3014 2854 2899 2726 
Q 2784 2598 2627 2508 
Q 2470 2419 2291 2374 
L 2291 2349 
Q 2470 2310 2640 2224 
Q 2810 2138 2941 2000 
Q 3072 1862 3152 1667 
Q 3232 1472 3232 1222 
Q 3232 934 3123 694 
Q 3014 454 2816 284 
Q 2618 115 2336 19 
Q 2054 -77 1715 -77 
Q 1427 -77 1203 -13 
Q 979 51 806 160 
Q 634 269 502 403 
Q 371 538 269 685 
L 672 992 
Q 755 858 854 749 
Q 954 640 1075 563 
Q 1197 486 1350 444 
Q 1504 403 1709 403 
Q 2182 403 2425 617 
Q 2669 832 2669 1229 
L 2669 1280 
Q 2669 1677 2425 1891 
Q 2182 2106 1709 2106 
L 1184 2106 
L 1184 2573 
L 1670 2573 
z
" transform="scale(0.015625)"/>
       </defs>
       <use xlink:href="#IBMPlexSans-33"/>
      </g>
     </g>
    </g>
    <g id="xtick_5">
     <g id="line2d_5">
      <g>
       <use xlink:href="#m3393aa25ae" x="372.241626" y="247.96" style="stroke: #000000; stroke-width: 0.8"/>
      </g>
     </g>
     <g id="text_5">
      <!-- 4 -->
      <g transform="translate(369.241626 262.36) scale(0.1 -0.1)">
       <defs>
        <path id="IBMPlexSans-34" d="M 2400 0 
L 2400 877 
L 243 877 
L 243 1350 
L 2112 4467 
L 2912 4467 
L 2912 1325 
L 3558 1325 
L 3558 877 
L 2912 877 
L 2912 0 
L 2400 0 
z
M 749 1325 
L 2400 1325 
L 2400 4051 
L 2368 4051 
L 749 1325 
z
" transform="scale(0.015625)"/>
       </defs>
       <use xlink:href="#IBMPlexSans-34"/>
      </g>
     </g>
    </g>
    <g id="xtick_6">
     <g id="line2d_6">
      <g>
       <use xlink:href="#m3393aa25ae" x="446.532259" y="247.96" style="stroke: #000000; stroke-width: 0.8"/>
      </g>
     </g>
     <g id="text_6">
      <!-- 5 -->
      <g transform="translate(443.532259 262.36) scale(0.1 -0.1)">
       <defs>
        <path id="IBMPlexSans-35" d="M 3187 3994 
L 1229 3994 
L 1101 2291 
L 1146 2291 
Q 1306 2515 1507 2649 
Q 1709 2784 2061 2784 
Q 2349 2784 2592 2688 
Q 2835 2592 3014 2416 
Q 3194 2240 3293 1984 
Q 3392 1728 3392 1402 
Q 3392 1075 3289 803 
Q 3187 531 2992 336 
Q 2797 141 2518 32 
Q 2240 -77 1888 -77 
Q 1606 -77 1392 -13 
Q 1178 51 1011 160 
Q 845 269 720 403 
Q 595 538 493 685 
L 896 992 
Q 979 858 1072 749 
Q 1165 640 1277 563 
Q 1389 486 1536 444 
Q 1683 403 1888 403 
Q 2349 403 2585 646 
Q 2822 890 2822 1331 
L 2822 1395 
Q 2822 1837 2585 2080 
Q 2349 2323 1888 2323 
Q 1581 2323 1405 2211 
Q 1229 2099 1088 1946 
L 634 2010 
L 794 4467 
L 3187 4467 
L 3187 3994 
z
" transform="scale(0.015625)"/>
       </defs>
       <use xlink:href="#IBMPlexSans-35"/>
      </g>
     </g>
    </g>
    <g id="xtick_7">
     <g id="line2d_7">
      <g>
       <use xlink:href="#m3393aa25ae" x="520.822893" y="247.96" style="stroke: #000000; stroke-width: 0.8"/>
      </g>
     </g>
     <g id="text_7">
      <!-- 6 -->
      <g transform="translate(517.822893 262.36) scale(0.1 -0.1)">
       <defs>
        <path id="IBMPlexSans-36" d="M 1926 -77 
Q 1581 -77 1302 41 
Q 1024 160 829 381 
Q 634 602 531 922 
Q 429 1242 429 1638 
Q 429 2138 576 2576 
Q 723 3014 956 3376 
Q 1190 3738 1472 4016 
Q 1754 4294 2022 4467 
L 2714 4467 
Q 2355 4205 2073 3955 
Q 1792 3706 1581 3434 
Q 1370 3162 1222 2851 
Q 1075 2541 986 2150 
L 1018 2138 
Q 1178 2413 1430 2595 
Q 1683 2778 2093 2778 
Q 2381 2778 2624 2682 
Q 2867 2586 3040 2406 
Q 3213 2227 3312 1971 
Q 3411 1715 3411 1402 
Q 3411 1075 3305 803 
Q 3200 531 3005 336 
Q 2810 141 2534 32 
Q 2259 -77 1926 -77 
z
M 1920 390 
Q 2362 390 2608 633 
Q 2854 877 2854 1331 
L 2854 1382 
Q 2854 1837 2608 2080 
Q 2362 2323 1920 2323 
Q 1478 2323 1232 2080 
Q 986 1837 986 1382 
L 986 1331 
Q 986 877 1232 633 
Q 1478 390 1920 390 
z
" transform="scale(0.015625)"/>
       </defs>
       <use xlink:href="#IBMPlexSans-36"/>
      </g>
     </g>
    </g>
    <g id="xtick_8">
     <g id="line2d_8">
      <defs>
       <path id="m5a3b508283" d="M 0 0 
L 0 2 
" style="stroke: #000000; stroke-width: 0.6"/>
      </defs>
      <g>
       <use xlink:href="#m5a3b508283" x="60.220964" y="247.96" style="stroke: #000000; stroke-width: 0.6"/>
      </g>
     </g>
    </g>
    <g id="xtick_9">
     <g id="line2d_9">
      <g>
       <use xlink:href="#m5a3b508283" x="89.937218" y="247.96" style="stroke: #000000; stroke-width: 0.6"/>
      </g>
     </g>
    </g>
    <g id="xtick_10">
     <g id="line2d_10">
      <g>
       <use xlink:href="#m5a3b508283" x="104.795344" y="247.96" style="stroke: #000000; stroke-width: 0.6"/>
      </g>
     </g>
    </g>
    <g id="xtick_11">
     <g id="line2d_11">
      <g>
       <use xlink:href="#m5a3b508283" x="119.653471" y="247.96" style="stroke: #000000; stroke-width: 0.6"/>
      </g>
     </g>
    </g>
    <g id="xtick_12">
     <g id="line2d_12">
      <g>
       <use xlink:href="#m5a3b508283" x="134.511598" y="247.96" style="stroke: #000000; stroke-width: 0.6"/>
      </g>
     </g>
    </g>
    <g id="xtick_13">
     <g id="line2d_13">
      <g>
       <use xlink:href="#m5a3b508283" x="164.227851" y="247.96" style="stroke: #000000; stroke-width: 0.6"/>
      </g>
     </g>
    </g>
    <g id="xtick_14">
     <g id="line2d_14">
      <g>
       <use xlink:href="#m5a3b508283" x="179.085978" y="247.96" style="stroke: #000000; stroke-width: 0.6"/>
      </g>
     </g>
    </g>
    <g id="xtick_15">
     <g id="line2d_15">
      <g>
       <use xlink:href="#m5a3b508283" x="193.944105" y="247.96" style="stroke: #000000; stroke-width: 0.6"/>
      </g>
     </g>
    </g>
    <g id="xtick_16">
     <g id="line2d_16">
      <g>
       <use xlink:href="#m5a3b508283" x="208.802232" y="247.96" style="stroke: #000000; stroke-width: 0.6"/>
      </g>
     </g>
    </g>
    <g id="xtick_17">
     <g id="line2d_17">
      <g>
       <use xlink:href="#m5a3b508283" x="238.518485" y="247.96" style="stroke: #000000; stroke-width: 0.6"/>
      </g>
     </g>
    </g>
    <g id="xtick_18">
     <g id="line2d_18">
      <g>
       <use xlink:href="#m5a3b508283" x="253.376612" y="247.96" style="stroke: #000000; stroke-width: 0.6"/>
      </g>
     </g>
    </g>
    <g id="xtick_19">
     <g id="line2d_19">
      <g>
       <use xlink:href="#m5a3b508283" x="268.234739" y="247.96" style="stroke: #000000; stroke-width: 0.6"/>
      </g>
     </g>
    </g>
    <g id="xtick_20">
     <g id="line2d_20">
      <g>
       <use xlink:href="#m5a3b508283" x="283.092865" y="247.96" style="stroke: #000000; stroke-width: 0.6"/>
      </g>
     </g>
    </g>
    <g id="xtick_21">
     <g id="line2d_21">
      <g>
       <use xlink:href="#m5a3b508283" x="312.809119" y="247.96" style="stroke: #000000; stroke-width: 0.6"/>
      </g>
     </g>
    </g>
    <g id="xtick_22">
     <g id="line2d_22">
      <g>
       <use xlink:href="#m5a3b508283" x="327.667246" y="247.96" style="stroke: #000000; stroke-width: 0.6"/>
      </g>
     </g>
    </g>
    <g id="xtick_23">
     <g id="line2d_23">
      <g>
       <use xlink:href="#m5a3b508283" x="342.525372" y="247.96" style="stroke: #000000; stroke-width: 0.6"/>
      </g>
     </g>
    </g>
    <g id="xtick_24">
     <g id="line2d_24">
      <g>
       <use xlink:href="#m5a3b508283" x="357.383499" y="247.96" style="stroke: #000000; stroke-width: 0.6"/>
      </g>
     </g>
    </g>
    <g id="xtick_25">
     <g id="line2d_25">
      <g>
       <use xlink:href="#m5a3b508283" x="387.099752" y="247.96" style="stroke: #000000; stroke-width: 0.6"/>
      </g>
     </g>
    </g>
    <g id="xtick_26">
     <g id="line2d_26">
      <g>
       <use xlink:href="#m5a3b508283" x="401.957879" y="247.96" style="stroke: #000000; stroke-width: 0.6"/>
      </g>
     </g>
    </g>
    <g id="xtick_27">
     <g id="line2d_27">
      <g>
       <use xlink:href="#m5a3b508283" x="416.816006" y="247.96" style="stroke: #000000; stroke-width: 0.6"/>
      </g>
     </g>
    </g>
    <g id="xtick_28">
     <g id="line2d_28">
      <g>
       <use xlink:href="#m5a3b508283" x="431.674133" y="247.96" style="stroke: #000000; stroke-width: 0.6"/>
      </g>
     </g>
    </g>
    <g id="xtick_29">
     <g id="line2d_29">
      <g>
       <use xlink:href="#m5a3b508283" x="461.390386" y="247.96" style="stroke: #000000; stroke-width: 0.6"/>
      </g>
     </g>
    </g>
    <g id="xtick_30">
     <g id="line2d_30">
      <g>
       <use xlink:href="#m5a3b508283" x="476.248513" y="247.96" style="stroke: #000000; stroke-width: 0.6"/>
      </g>
     </g>
    </g>
    <g id="xtick_31">
     <g id="line2d_31">
      <g>
       <use xlink:href="#m5a3b508283" x="491.10664" y="247.96" style="stroke: #000000; stroke-width: 0.6"/>
      </g>
     </g>
    </g>
    <g id="xtick_32">
     <g id="line2d_32">
      <g>
       <use xlink:href="#m5a3b508283" x="505.964766" y="247.96" style="stroke: #000000; stroke-width: 0.6"/>
      </g>
     </g>
    </g>
    <g id="xtick_33">
     <g id="line2d_33">
      <g>
       <use xlink:href="#m5a3b508283" x="535.68102" y="247.96" style="stroke: #000000; stroke-width: 0.6"/>
      </g>
     </g>
    </g>
    <g id="xtick_34">
     <g id="line2d_34">
      <g>
       <use xlink:href="#m5a3b508283" x="550.539147" y="247.96" style="stroke: #000000; stroke-width: 0.6"/>
      </g>
     </g>
    </g>
    <g id="text_8">
     <!-- Time -->
     <g transform="translate(297.249687 275.76) scale(0.1 -0.1)">
      <defs>
       <path id="IBMPlexSans-54" d="M 2099 3994 
L 2099 0 
L 1562 0 
L 1562 3994 
L 141 3994 
L 141 4467 
L 3520 4467 
L 3520 3994 
L 2099 3994 
z
" transform="scale(0.015625)"/>
       <path id="IBMPlexSans-69" d="M 800 4077 
Q 634 4077 560 4157 
Q 486 4237 486 4365 
L 486 4448 
Q 486 4576 560 4656 
Q 634 4736 800 4736 
Q 966 4736 1040 4656 
Q 1114 4576 1114 4448 
L 1114 4365 
Q 1114 4237 1040 4157 
Q 966 4077 800 4077 
z
M 544 3302 
L 1056 3302 
L 1056 0 
L 544 0 
L 544 3302 
z
" transform="scale(0.015625)"/>
       <path id="IBMPlexSans-6d" d="M 544 0 
L 544 3302 
L 1056 3302 
L 1056 2765 
L 1082 2765 
Q 1139 2893 1212 3005 
Q 1286 3117 1392 3200 
Q 1498 3283 1638 3331 
Q 1779 3379 1971 3379 
Q 2298 3379 2573 3222 
Q 2848 3066 2982 2707 
L 2995 2707 
Q 3085 2976 3331 3177 
Q 3578 3379 4000 3379 
Q 4506 3379 4790 3049 
Q 5075 2720 5075 2118 
L 5075 0 
L 4563 0 
L 4563 2029 
Q 4563 2470 4390 2694 
Q 4218 2918 3840 2918 
Q 3686 2918 3548 2880 
Q 3411 2842 3302 2765 
Q 3194 2688 3130 2569 
Q 3066 2451 3066 2291 
L 3066 0 
L 2554 0 
L 2554 2029 
Q 2554 2470 2381 2694 
Q 2208 2918 1843 2918 
Q 1690 2918 1549 2880 
Q 1408 2842 1299 2765 
Q 1190 2688 1123 2569 
Q 1056 2451 1056 2291 
L 1056 0 
L 544 0 
z
" transform="scale(0.015625)"/>
       <path id="IBMPlexSans-65" d="M 1786 -77 
Q 1446 -77 1174 44 
Q 902 166 707 393 
Q 512 621 406 937 
Q 301 1254 301 1651 
Q 301 2042 406 2362 
Q 512 2682 707 2909 
Q 902 3136 1174 3257 
Q 1446 3379 1786 3379 
Q 2118 3379 2380 3257 
Q 2643 3136 2828 2921 
Q 3014 2707 3113 2412 
Q 3213 2118 3213 1766 
L 3213 1523 
L 838 1523 
L 838 1370 
Q 838 1158 905 976 
Q 973 794 1097 659 
Q 1222 525 1404 448 
Q 1587 371 1818 371 
Q 2131 371 2364 518 
Q 2598 666 2726 941 
L 3091 678 
Q 2931 339 2592 131 
Q 2253 -77 1786 -77 
z
M 1786 2950 
Q 1574 2950 1401 2876 
Q 1229 2803 1104 2668 
Q 979 2534 908 2352 
Q 838 2170 838 1952 
L 838 1907 
L 2662 1907 
L 2662 1978 
Q 2662 2419 2422 2684 
Q 2182 2950 1786 2950 
z
" transform="scale(0.015625)"/>
      </defs>
      <use xlink:href="#IBMPlexSans-54"/>
      <use xlink:href="#IBMPlexSans-69" transform="translate(57.199997 0)"/>
      <use xlink:href="#IBMPlexSans-6d" transform="translate(82.199982 0)"/>
      <use xlink:href="#IBMPlexSans-65" transform="translate(169.499969 0)"/>
     </g>
    </g>
   </g>
   <g id="matplotlib.axis_2">
    <g id="ytick_1">
     <g id="line2d_35">
      <defs>
       <path id="m486119939c" d="M 0 0 
L -3.5 0 
" style="stroke: #000000; stroke-width: 0.8"/>
      </defs>
      <g>
       <use xlink:href="#m486119939c" x="51.74" y="219.070084" style="stroke: #000000; stroke-width: 0.8"/>
      </g>
     </g>
     <g id="text_9">
      <!-- −1.0 -->
      <g transform="translate(24.019688 222.770084) scale(0.1 -0.1)">
       <defs>
        <path id="IBMPlexSans-2212" d="M 429 1734 
L 429 2170 
L 3411 2170 
L 3411 1734 
L 429 1734 
z
" transform="scale(0.015625)"/>
        <path id="IBMPlexSans-2e" d="M 870 -77 
Q 666 -77 573 25 
Q 480 128 480 294 
L 480 378 
Q 480 544 573 646 
Q 666 749 870 749 
Q 1075 749 1168 646 
Q 1261 544 1261 378 
L 1261 294 
Q 1261 128 1168 25 
Q 1075 -77 870 -77 
z
" transform="scale(0.015625)"/>
       </defs>
       <use xlink:href="#IBMPlexSans-2212"/>
       <use xlink:href="#IBMPlexSans-31" transform="translate(59.999985 0)"/>
       <use xlink:href="#IBMPlexSans-2e" transform="translate(119.999969 0)"/>
       <use xlink:href="#IBMPlexSans-30" transform="translate(147.199966 0)"/>
      </g>
     </g>
    </g>
    <g id="ytick_2">
     <g id="line2d_36">
      <g>
       <use xlink:href="#m486119939c" x="51.74" y="179.026098" style="stroke: #000000; stroke-width: 0.8"/>
      </g>
     </g>
     <g id="text_10">
      <!-- −0.5 -->
      <g transform="translate(24.019688 182.726098) scale(0.1 -0.1)">
       <use xlink:href="#IBMPlexSans-2212"/>
       <use xlink:href="#IBMPlexSans-30" transform="translate(59.999985 0)"/>
       <use xlink:href="#IBMPlexSans-2e" transform="translate(119.999969 0)"/>
       <use xlink:href="#IBMPlexSans-35" transform="translate(147.199966 0)"/>
      </g>
     </g>
    </g>
    <g id="ytick_3">
     <g id="line2d_37">
      <g>
       <use xlink:href="#m486119939c" x="51.74" y="138.982112" style="stroke: #000000; stroke-width: 0.8"/>
      </g>
     </g>
     <g id="text_11">
      <!-- 0.0 -->
      <g transform="translate(30.019688 142.682112) scale(0.1 -0.1)">
       <use xlink:href="#IBMPlexSans-30"/>
       <use xlink:href="#IBMPlexSans-2e" transform="translate(59.999985 0)"/>
       <use xlink:href="#IBMPlexSans-30" transform="translate(87.199982 0)"/>
      </g>
     </g>
    </g>
    <g id="ytick_4">
     <g id="line2d_38">
      <g>
       <use xlink:href="#m486119939c" x="51.74" y="98.938126" style="stroke: #000000; stroke-width: 0.8"/>
      </g>
     </g>
     <g id="text_12">
      <!-- 0.5 -->
      <g transform="translate(30.019688 102.638126) scale(0.1 -0.1)">
       <use xlink:href="#IBMPlexSans-30"/>
       <use xlink:href="#IBMPlexSans-2e" transform="translate(59.999985 0)"/>
       <use xlink:href="#IBMPlexSans-35" transform="translate(87.199982 0)"/>
      </g>
     </g>
    </g>
    <g id="ytick_5">
     <g id="line2d_39">
      <g>
       <use xlink:href="#m486119939c" x="51.74" y="58.89414" style="stroke: #000000; stroke-width: 0.8"/>
      </g>
     </g>
     <g id="text_13">
      <!-- 1.0 -->
      <g transform="translate(30.019688 62.59414) scale(0.1 -0.1)">
       <use xlink:href="#IBMPlexSans-31"/>
       <use xlink:href="#IBMPlexSans-2e" transform="translate(59.999985 0)"/>
       <use xlink:href="#IBMPlexSans-30" transform="translate(87.199982 0)"/>
      </g>
     </g>
    </g>
    <g id="ytick_6">
     <g id="line2d_40">
      <defs>
       <path id="m2dacca9b4c" d="M 0 0 
L -2 0 
" style="stroke: #000000; stroke-width: 0.6"/>
      </defs>
      <g>
       <use xlink:href="#m2dacca9b4c" x="51.74" y="243.096476" style="stroke: #000000; stroke-width: 0.6"/>
      </g>
     </g>
    </g>
    <g id="ytick_7">
     <g id="line2d_41">
      <g>
       <use xlink:href="#m2dacca9b4c" x="51.74" y="235.087679" style="stroke: #000000; stroke-width: 0.6"/>
      </g>
     </g>
    </g>
    <g id="ytick_8">
     <g id="line2d_42">
      <g>
       <use xlink:href="#m2dacca9b4c" x="51.74" y="227.078882" style="stroke: #000000; stroke-width: 0.6"/>
      </g>
     </g>
    </g>
    <g id="ytick_9">
     <g id="line2d_43">
      <g>
       <use xlink:href="#m2dacca9b4c" x="51.74" y="211.061287" style="stroke: #000000; stroke-width: 0.6"/>
      </g>
     </g>
    </g>
    <g id="ytick_10">
     <g id="line2d_44">
      <g>
       <use xlink:href="#m2dacca9b4c" x="51.74" y="203.05249" style="stroke: #000000; stroke-width: 0.6"/>
      </g>
     </g>
    </g>
    <g id="ytick_11">
     <g id="line2d_45">
      <g>
       <use xlink:href="#m2dacca9b4c" x="51.74" y="195.043693" style="stroke: #000000; stroke-width: 0.6"/>
      </g>
     </g>
    </g>
    <g id="ytick_12">
     <g id="line2d_46">
      <g>
       <use xlink:href="#m2dacca9b4c" x="51.74" y="187.034895" style="stroke: #000000; stroke-width: 0.6"/>
      </g>
     </g>
    </g>
    <g id="ytick_13">
     <g id="line2d_47">
      <g>
       <use xlink:href="#m2dacca9b4c" x="51.74" y="171.017301" style="stroke: #000000; stroke-width: 0.6"/>
      </g>
     </g>
    </g>
    <g id="ytick_14">
     <g id="line2d_48">
      <g>
       <use xlink:href="#m2dacca9b4c" x="51.74" y="163.008504" style="stroke: #000000; stroke-width: 0.6"/>
      </g>
     </g>
    </g>
    <g id="ytick_15">
     <g id="line2d_49">
      <g>
       <use xlink:href="#m2dacca9b4c" x="51.74" y="154.999707" style="stroke: #000000; stroke-width: 0.6"/>
      </g>
     </g>
    </g>
    <g id="ytick_16">
     <g id="line2d_50">
      <g>
       <use xlink:href="#m2dacca9b4c" x="51.74" y="146.990909" style="stroke: #000000; stroke-width: 0.6"/>
      </g>
     </g>
    </g>
    <g id="ytick_17">
     <g id="line2d_51">
      <g>
       <use xlink:href="#m2dacca9b4c" x="51.74" y="130.973315" style="stroke: #000000; stroke-width: 0.6"/>
      </g>
     </g>
    </g>
    <g id="ytick_18">
     <g id="line2d_52">
      <g>
       <use xlink:href="#m2dacca9b4c" x="51.74" y="122.964518" style="stroke: #000000; stroke-width: 0.6"/>
      </g>
     </g>
    </g>
    <g id="ytick_19">
     <g id="line2d_53">
      <g>
       <use xlink:href="#m2dacca9b4c" x="51.74" y="114.95572" style="stroke: #000000; stroke-width: 0.6"/>
      </g>
     </g>
    </g>
    <g id="ytick_20">
     <g id="line2d_54">
      <g>
       <use xlink:href="#m2dacca9b4c" x="51.74" y="106.946923" style="stroke: #000000; stroke-width: 0.6"/>
      </g>
     </g>
    </g>
    <g id="ytick_21">
     <g id="line2d_55">
      <g>
       <use xlink:href="#m2dacca9b4c" x="51.74" y="90.929329" style="stroke: #000000; stroke-width: 0.6"/>
      </g>
     </g>
    </g>
    <g id="ytick_22">
     <g id="line2d_56">
      <g>
       <use xlink:href="#m2dacca9b4c" x="51.74" y="82.920532" style="stroke: #000000; stroke-width: 0.6"/>
      </g>
     </g>
    </g>
    <g id="ytick_23">
     <g id="line2d_57">
      <g>
       <use xlink:href="#m2dacca9b4c" x="51.74" y="74.911734" style="stroke: #000000; stroke-width: 0.6"/>
      </g>
     </g>
    </g>
    <g id="ytick_24">
     <g id="line2d_58">
      <g>
       <use xlink:href="#m2dacca9b4c" x="51.74" y="66.902937" style="stroke: #000000; stroke-width: 0.6"/>
      </g>
     </g>
    </g>
    <g id="ytick_25">
     <g id="line2d_59">
      <g>
       <use xlink:href="#m2dacca9b4c" x="51.74" y="50.885343" style="stroke: #000000; stroke-width: 0.6"/>
      </g>
     </g>
    </g>
    <g id="ytick_26">
     <g id="line2d_60">
      <g>
       <use xlink:href="#m2dacca9b4c" x="51.74" y="42.876545" style="stroke: #000000; stroke-width: 0.6"/>
      </g>
     </g>
    </g>
    <g id="ytick_27">
     <g id="line2d_61">
      <g>
       <use xlink:href="#m2dacca9b4c" x="51.74" y="34.867748" style="stroke: #000000; stroke-width: 0.6"/>
      </g>
     </g>
    </g>
    <g id="ytick_28">
     <g id="line2d_62">
      <g>
       <use xlink:href="#m2dacca9b4c" x="51.74" y="26.858951" style="stroke: #000000; stroke-width: 0.6"/>
      </g>
     </g>
    </g>
    <g id="text_14">
     <!-- Value -->
     <g transform="translate(18.019688 149.360937) rotate(-90) scale(0.1 -0.1)">
      <defs>
       <path id="IBMPlexSans-56" d="M 1613 0 
L 128 4467 
L 704 4467 
L 1440 2214 
L 1933 538 
L 1965 538 
L 2470 2214 
L 3213 4467 
L 3770 4467 
L 2266 0 
L 1613 0 
z
" transform="scale(0.015625)"/>
       <path id="IBMPlexSans-61" d="M 2944 0 
Q 2656 0 2531 153 
Q 2406 307 2374 538 
L 2342 538 
Q 2234 230 1984 76 
Q 1734 -77 1389 -77 
Q 864 -77 573 192 
Q 282 461 282 922 
Q 282 1389 624 1638 
Q 966 1888 1690 1888 
L 2342 1888 
L 2342 2214 
Q 2342 2566 2150 2752 
Q 1958 2938 1562 2938 
Q 1261 2938 1059 2803 
Q 858 2669 723 2445 
L 416 2733 
Q 550 3002 844 3190 
Q 1139 3379 1587 3379 
Q 2189 3379 2521 3084 
Q 2854 2790 2854 2266 
L 2854 448 
L 3232 448 
L 3232 0 
L 2944 0 
z
M 1472 358 
Q 1664 358 1824 403 
Q 1984 448 2099 531 
Q 2214 614 2278 723 
Q 2342 832 2342 960 
L 2342 1504 
L 1664 1504 
Q 1222 1504 1020 1376 
Q 819 1248 819 1005 
L 819 870 
Q 819 627 995 492 
Q 1171 358 1472 358 
z
" transform="scale(0.015625)"/>
       <path id="IBMPlexSans-6c" d="M 1088 0 
Q 819 0 681 150 
Q 544 301 544 531 
L 544 4736 
L 1056 4736 
L 1056 448 
L 1542 448 
L 1542 0 
L 1088 0 
z
" transform="scale(0.015625)"/>
       <path id="IBMPlexSans-75" d="M 2579 538 
L 2554 538 
Q 2502 422 2428 310 
Q 2355 198 2246 112 
Q 2138 26 1984 -25 
Q 1830 -77 1626 -77 
Q 1114 -77 813 252 
Q 512 582 512 1184 
L 512 3302 
L 1024 3302 
L 1024 1274 
Q 1024 384 1779 384 
Q 1933 384 2077 422 
Q 2221 461 2333 537 
Q 2445 614 2512 732 
Q 2579 851 2579 1018 
L 2579 3302 
L 3091 3302 
L 3091 0 
L 2579 0 
L 2579 538 
z
" transform="scale(0.015625)"/>
      </defs>
      <use xlink:href="#IBMPlexSans-56"/>
      <use xlink:href="#IBMPlexSans-61" transform="translate(60.899994 0)"/>
      <use xlink:href="#IBMPlexSans-6c" transform="translate(114.299988 0)"/>
      <use xlink:href="#IBMPlexSans-75" transform="translate(141.499985 0)"/>
      <use xlink:href="#IBMPlexSans-65" transform="translate(198.299973 0)"/>
     </g>
    </g>
   </g>
   <g id="line2d_63">
    <path d="M 75.079091 143.517453 
L 79.794059 63.896462 
L 84.509027 48.281308 
L 89.223994 56.248915 
L 93.938962 60.589873 
L 98.65393 54.899997 
L 103.368898 75.770216 
L 108.083866 59.239588 
L 112.798834 42.896454 
L 117.513802 57.834204 
L 122.22877 58.350237 
L 126.943737 54.504291 
L 131.658705 51.721419 
L 136.373673 74.891446 
L 141.088641 72.367552 
L 145.803609 57.20996 
L 150.518577 64.619441 
L 155.233545 48.386396 
L 159.948512 61.418308 
L 164.66348 74.387404 
L 169.378448 69.049406 
L 174.093416 80.915738 
L 178.808384 60.769204 
L 183.523352 60.40287 
L 188.23832 62.293576 
L 192.953287 50.253616 
L 197.668255 49.295438 
L 202.383223 60.258746 
L 207.098191 75.990469 
L 211.813159 53.950457 
L 216.528127 54.446372 
L 221.243095 56.416286 
L 225.958062 51.033668 
L 230.67303 68.223012 
L 235.387998 42.806425 
L 240.102966 66.578002 
L 244.817934 52.893765 
L 249.532902 72.407765 
L 254.24787 66.344441 
L 258.962837 46.749851 
L 263.677805 60.983634 
L 268.392773 52.16737 
L 273.107741 56.996412 
L 277.822709 59.734728 
L 282.537677 47.971339 
L 287.252645 60.789492 
L 291.967612 73.15571 
L 296.68258 65.327127 
L 301.397548 54.479757 
L 306.112516 55.726588 
L 310.827484 231.620336 
L 315.542452 224.871197 
L 320.25742 223.728973 
L 324.972388 221.997056 
L 329.687355 230.089497 
L 334.402323 224.102581 
L 339.117291 224.905378 
L 343.832259 212.891031 
L 348.547227 212.589996 
L 353.262195 220.237851 
L 357.977163 222.209852 
L 362.69213 217.949459 
L 367.407098 225.609869 
L 372.122066 228.25483 
L 376.837034 226.600125 
L 381.552002 224.154174 
L 386.26697 228.38811 
L 390.981938 217.772182 
L 395.696905 213.22594 
L 400.411873 231.780833 
L 405.126841 218.868834 
L 409.841809 220.831506 
L 414.556777 216.335011 
L 419.271745 219.173708 
L 423.986713 230.711666 
L 428.70168 229.180304 
L 433.416648 218.834437 
L 438.131616 210.830787 
L 442.846584 236.803062 
L 447.561552 216.30123 
L 452.27652 209.542643 
L 456.991488 220.295638 
L 461.706455 214.663624 
L 466.421423 224.700822 
L 471.136391 220.026064 
L 475.851359 232.051652 
L 480.566327 237.845455 
L 485.281295 211.519664 
L 489.996263 226.958709 
L 494.71123 222.718315 
L 499.426198 230.173819 
L 504.141166 230.362246 
L 508.856134 220.462315 
L 513.571102 224.91312 
L 518.28607 216.042991 
L 523.001038 215.445796 
L 527.716006 216.500465 
L 532.430973 217.159179 
L 537.145941 206.434059 
L 541.860909 227.620226 
" clip-path="url(#pe4e97b75bb)" style="fill: none; stroke: #65489d; stroke-opacity: 0.8; stroke-width: 2; stroke-linecap: square"/>
   </g>
   <g id="line2d_64">
    <path d="M 75.079091 141.061308 
L 79.794059 130.406175 
L 84.509027 130.362261 
L 89.223994 144.419121 
L 93.938962 142.597972 
L 98.65393 134.066692 
L 103.368898 120.304051 
L 108.083866 148.660699 
L 112.798834 130.281245 
L 117.513802 142.721839 
L 122.22877 135.972646 
L 126.943737 133.002082 
L 131.658705 132.642245 
L 136.373673 132.740573 
L 141.088641 127.59882 
L 145.803609 131.134324 
L 150.518577 137.751126 
L 155.233545 118.983814 
L 159.948512 118.391062 
L 164.66348 116.858881 
L 169.378448 135.142154 
L 174.093416 119.59978 
L 178.808384 115.771007 
L 183.523352 128.634504 
L 188.23832 119.493379 
L 192.953287 119.689033 
L 197.668255 103.195496 
L 202.383223 101.727039 
L 207.098191 129.660461 
L 211.813159 95.548643 
L 216.528127 122.042887 
L 221.243095 106.050047 
L 225.958062 105.322569 
L 230.67303 120.260403 
L 235.387998 107.52667 
L 240.102966 111.529399 
L 244.817934 105.419697 
L 249.532902 107.202836 
L 254.24787 98.660034 
L 258.962837 106.828445 
L 263.677805 107.967805 
L 268.392773 97.03621 
L 273.107741 100.357123 
L 277.822709 98.335482 
L 282.537677 108.709998 
L 287.252645 110.949786 
L 291.967612 106.316291 
L 296.68258 105.932582 
L 301.397548 93.85507 
L 306.112516 91.526152 
L 310.827484 99.776048 
L 315.542452 86.264732 
L 320.25742 85.955909 
L 324.972388 94.1574 
L 329.687355 101.880128 
L 334.402323 81.871922 
L 339.117291 94.1685 
L 343.832259 91.860424 
L 348.547227 94.781714 
L 353.262195 98.379067 
L 357.977163 102.205983 
L 362.69213 84.566464 
L 367.407098 95.100108 
L 372.122066 63.513874 
L 376.837034 95.906213 
L 381.552002 96.469221 
L 386.26697 81.504533 
L 390.981938 72.5332 
L 395.696905 83.454906 
L 400.411873 78.580249 
L 405.126841 97.11885 
L 409.841809 86.971336 
L 414.556777 89.334685 
L 419.271745 95.104383 
L 423.986713 78.181504 
L 428.70168 96.271758 
L 433.416648 88.089636 
L 438.131616 80.993743 
L 442.846584 82.540097 
L 447.561552 71.898773 
L 452.27652 71.817229 
L 456.991488 66.297336 
L 461.706455 66.620931 
L 466.421423 62.701112 
L 471.136391 71.044045 
L 475.851359 67.789307 
L 480.566327 65.314133 
L 485.281295 67.467273 
L 489.996263 70.973852 
L 494.71123 69.646299 
L 499.426198 72.722524 
L 504.141166 61.989252 
L 508.856134 65.309874 
L 513.571102 69.05918 
L 518.28607 68.242771 
L 523.001038 71.823856 
L 527.716006 53.481706 
L 532.430973 59.882446 
L 537.145941 66.6131 
L 541.860909 132.506617 
" clip-path="url(#pe4e97b75bb)" style="fill: none; stroke: #388ecc; stroke-opacity: 0.8; stroke-width: 2; stroke-linecap: square"/>
   </g>
   <g id="line2d_65">
    <path d="M 75.079091 136.278546 
L 79.794059 122.630382 
L 84.509027 128.118103 
L 89.223994 118.668189 
L 93.938962 135.287592 
L 98.65393 114.382162 
L 103.368898 115.96968 
L 108.083866 114.321936 
L 112.798834 107.076546 
L 117.513802 98.359212 
L 122.22877 84.162041 
L 126.943737 98.125366 
L 131.658705 83.469762 
L 136.373673 84.027767 
L 141.088641 79.446383 
L 145.803609 65.713492 
L 150.518577 66.619668 
L 155.233545 57.677349 
L 159.948512 67.368935 
L 164.66348 69.741767 
L 169.378448 64.298768 
L 174.093416 59.209587 
L 178.808384 58.696716 
L 183.523352 68.072249 
L 188.23832 58.260138 
L 192.953287 57.076386 
L 197.668255 38.984095 
L 202.383223 44.678052 
L 207.098191 67.425262 
L 211.813159 64.091543 
L 216.528127 75.019323 
L 221.243095 69.84348 
L 225.958062 64.696171 
L 230.67303 59.966457 
L 235.387998 78.142365 
L 240.102966 80.490086 
L 244.817934 95.652864 
L 249.532902 83.20664 
L 254.24787 94.090597 
L 258.962837 93.715185 
L 263.677805 100.590038 
L 268.392773 98.597661 
L 273.107741 116.360969 
L 277.822709 118.621666 
L 282.537677 94.537704 
L 287.252645 126.729429 
L 291.967612 130.121822 
L 296.68258 111.616633 
L 301.397548 108.103172 
L 306.112516 145.823926 
L 310.827484 144.472369 
L 315.542452 143.859509 
L 320.25742 137.791335 
L 324.972388 164.529874 
L 329.687355 163.509882 
L 334.402323 160.148273 
L 339.117291 167.609872 
L 343.832259 178.693103 
L 348.547227 181.193254 
L 353.262195 195.408048 
L 357.977163 190.396697 
L 362.69213 194.515733 
L 367.407098 194.200942 
L 372.122066 203.956066 
L 376.837034 198.936608 
L 381.552002 197.550308 
L 386.26697 207.095529 
L 390.981938 207.923291 
L 395.696905 212.425887 
L 400.411873 214.664636 
L 405.126841 221.953088 
L 409.841809 214.837677 
L 414.556777 219.034053 
L 419.271745 202.054429 
L 423.986713 206.459323 
L 428.70168 215.889205 
L 433.416648 224.68779 
L 438.131616 226.762446 
L 442.846584 207.272908 
L 447.561552 213.353991 
L 452.27652 209.950749 
L 456.991488 225.80473 
L 461.706455 202.148258 
L 466.421423 203.395538 
L 471.136391 213.113063 
L 475.851359 204.918455 
L 480.566327 195.702015 
L 485.281295 193.828945 
L 489.996263 192.801608 
L 494.71123 187.295722 
L 499.426198 184.298975 
L 504.141166 176.698781 
L 508.856134 161.618634 
L 513.571102 189.303652 
L 518.28607 165.869124 
L 523.001038 157.682393 
L 527.716006 151.768305 
L 532.430973 152.099234 
L 537.145941 158.130834 
L 541.860909 136.355263 
" clip-path="url(#pe4e97b75bb)" style="fill: none; stroke: #105e5d; stroke-opacity: 0.8; stroke-width: 2; stroke-linecap: square"/>
   </g>
   <g id="line2d_66">
    <path d="M 75.079091 142.554591 
L 79.794059 130.322993 
L 84.509027 135.112314 
L 89.223994 142.141798 
L 93.938962 142.681371 
L 98.65393 148.131729 
L 103.368898 131.799873 
L 108.083866 136.159146 
L 112.798834 151.50879 
L 117.513802 135.991819 
L 122.22877 138.108617 
L 126.943737 117.464166 
L 131.658705 142.911688 
L 136.373673 140.008996 
L 141.088641 118.767019 
L 145.803609 115.98153 
L 150.518577 132.005019 
L 155.233545 130.291879 
L 159.948512 119.485358 
L 164.66348 142.248964 
L 169.378448 137.708647 
L 174.093416 124.242091 
L 178.808384 108.772026 
L 183.523352 123.865489 
L 188.23832 118.758464 
L 192.953287 109.677588 
L 197.668255 101.075295 
L 202.383223 121.7598 
L 207.098191 116.46581 
L 211.813159 100.929528 
L 216.528127 126.904015 
L 221.243095 105.674372 
L 225.958062 121.250573 
L 230.67303 111.465441 
L 235.387998 113.420239 
L 240.102966 118.340703 
L 244.817934 117.732677 
L 249.532902 106.836497 
L 254.24787 100.268202 
L 258.962837 108.471336 
L 263.677805 106.061813 
L 268.392773 101.239949 
L 273.107741 112.786894 
L 277.822709 98.27238 
L 282.537677 96.825505 
L 287.252645 81.726573 
L 291.967612 104.781661 
L 296.68258 104.629234 
L 301.397548 93.993088 
L 306.112516 92.782572 
L 310.827484 102.819046 
L 315.542452 100.95352 
L 320.25742 92.581895 
L 324.972388 102.734687 
L 329.687355 98.585647 
L 334.402323 93.771264 
L 339.117291 85.703554 
L 343.832259 97.712963 
L 348.547227 106.81717 
L 353.262195 106.602557 
L 357.977163 100.530331 
L 362.69213 100.151872 
L 367.407098 90.064255 
L 372.122066 97.538539 
L 376.837034 92.836291 
L 381.552002 92.598597 
L 386.26697 89.118069 
L 390.981938 74.189492 
L 395.696905 78.670788 
L 400.411873 83.034045 
L 405.126841 86.046519 
L 409.841809 85.014956 
L 414.556777 78.111459 
L 419.271745 75.248853 
L 423.986713 86.3873 
L 428.70168 78.017239 
L 433.416648 93.771266 
L 438.131616 74.995894 
L 442.846584 69.778599 
L 447.561552 77.316541 
L 452.27652 59.716362 
L 456.991488 80.513249 
L 461.706455 70.905184 
L 466.421423 72.124564 
L 471.136391 71.831945 
L 475.851359 71.135295 
L 480.566327 68.55296 
L 485.281295 61.810643 
L 489.996263 56.758793 
L 494.71123 67.001856 
L 499.426198 59.645164 
L 504.141166 70.986204 
L 508.856134 58.422544 
L 513.571102 69.850592 
L 518.28607 54.204113 
L 523.001038 44.425443 
L 527.716006 62.298793 
L 532.430973 78.071715 
L 537.145941 64.092514 
L 541.860909 129.116274 
" clip-path="url(#pe4e97b75bb)" style="fill: none; stroke: #388ecc; stroke-opacity: 0.8; stroke-width: 2; stroke-linecap: square"/>
   </g>
   <g id="line2d_67">
    <path d="M 75.079091 139.422074 
L 79.794059 49.822657 
L 84.509027 48.766697 
L 89.223994 70.280757 
L 93.938962 61.395731 
L 98.65393 48.017223 
L 103.368898 54.825037 
L 108.083866 57.330318 
L 112.798834 60.637532 
L 117.513802 61.967924 
L 122.22877 56.585852 
L 126.943737 60.915353 
L 131.658705 59.235143 
L 136.373673 58.264659 
L 141.088641 64.324677 
L 145.803609 54.632424 
L 150.518577 35.554545 
L 155.233545 73.125666 
L 159.948512 56.299189 
L 164.66348 64.982348 
L 169.378448 54.26984 
L 174.093416 58.521271 
L 178.808384 52.7926 
L 183.523352 49.479746 
L 188.23832 57.353078 
L 192.953287 49.827763 
L 197.668255 77.669146 
L 202.383223 46.15653 
L 207.098191 55.890343 
L 211.813159 50.261911 
L 216.528127 68.663877 
L 221.243095 65.547607 
L 225.958062 57.72535 
L 230.67303 59.030593 
L 235.387998 56.627101 
L 240.102966 50.208478 
L 244.817934 73.031431 
L 249.532902 51.09502 
L 254.24787 58.827812 
L 258.962837 60.526188 
L 263.677805 70.676004 
L 268.392773 54.865325 
L 273.107741 78.22824 
L 277.822709 53.701284 
L 282.537677 70.844113 
L 287.252645 58.466006 
L 291.967612 59.848539 
L 296.68258 49.527546 
L 301.397548 60.324953 
L 306.112516 64.453355 
L 310.827484 223.127363 
L 315.542452 208.875824 
L 320.25742 214.774991 
L 324.972388 222.158517 
L 329.687355 220.963736 
L 334.402323 231.621288 
L 339.117291 215.958873 
L 343.832259 233.164092 
L 348.547227 213.049099 
L 353.262195 218.03998 
L 357.977163 199.953471 
L 362.69213 227.880847 
L 367.407098 219.892284 
L 372.122066 204.667963 
L 376.837034 209.528486 
L 381.552002 224.645906 
L 386.26697 217.276375 
L 390.981938 219.054072 
L 395.696905 216.811957 
L 400.411873 224.665674 
L 405.126841 219.785433 
L 409.841809 231.868562 
L 414.556777 217.987908 
L 419.271745 215.46596 
L 423.986713 220.89144 
L 428.70168 232.004699 
L 433.416648 211.153133 
L 438.131616 216.150677 
L 442.846584 224.884592 
L 447.561552 221.317356 
L 452.27652 231.088641 
L 456.991488 227.282386 
L 461.706455 223.377306 
L 466.421423 209.231911 
L 471.136391 224.191737 
L 475.851359 213.942743 
L 480.566327 223.38135 
L 485.281295 217.084323 
L 489.996263 220.202492 
L 494.71123 212.077951 
L 499.426198 223.35328 
L 504.141166 231.664144 
L 508.856134 230.137834 
L 513.571102 223.329783 
L 518.28607 229.073552 
L 523.001038 215.78478 
L 527.716006 222.800327 
L 532.430973 200.052342 
L 537.145941 232.987088 
L 541.860909 217.439228 
" clip-path="url(#pe4e97b75bb)" style="fill: none; stroke: #65489d; stroke-opacity: 0.8; stroke-width: 2; stroke-linecap: square"/>
   </g>
   <g id="line2d_68">
    <path d="M 75.079091 136.926584 
L 79.794059 151.904113 
L 84.509027 143.081009 
L 89.223994 130.373419 
L 93.938962 137.986109 
L 98.65393 139.038261 
L 103.368898 122.908917 
L 108.083866 141.706837 
L 112.798834 138.902605 
L 117.513802 130.008436 
L 122.22877 127.765344 
L 126.943737 126.108338 
L 131.658705 121.976558 
L 136.373673 126.875134 
L 141.088641 123.737164 
L 145.803609 128.923525 
L 150.518577 125.536463 
L 155.233545 124.368413 
L 159.948512 122.697985 
L 164.66348 117.424579 
L 169.378448 118.356675 
L 174.093416 121.639629 
L 178.808384 127.664911 
L 183.523352 119.83385 
L 188.23832 119.791235 
L 192.953287 117.210725 
L 197.668255 100.277294 
L 202.383223 121.334728 
L 207.098191 112.948941 
L 211.813159 106.964903 
L 216.528127 113.928152 
L 221.243095 95.180733 
L 225.958062 116.122731 
L 230.67303 109.690557 
L 235.387998 117.874625 
L 240.102966 113.483473 
L 244.817934 107.865552 
L 249.532902 102.272366 
L 254.24787 105.685708 
L 258.962837 97.348309 
L 263.677805 107.383893 
L 268.392773 108.474636 
L 273.107741 83.349728 
L 277.822709 101.039058 
L 282.537677 109.14964 
L 287.252645 108.138706 
L 291.967612 109.319251 
L 296.68258 93.459756 
L 301.397548 103.069804 
L 306.112516 98.32259 
L 310.827484 99.042269 
L 315.542452 91.866298 
L 320.25742 103.697104 
L 324.972388 104.720773 
L 329.687355 93.501412 
L 334.402323 89.675833 
L 339.117291 91.016641 
L 343.832259 99.353606 
L 348.547227 86.636047 
L 353.262195 97.210348 
L 357.977163 94.620844 
L 362.69213 97.19491 
L 367.407098 78.405295 
L 372.122066 82.944094 
L 376.837034 82.3628 
L 381.552002 76.410437 
L 386.26697 63.064193 
L 390.981938 98.470007 
L 395.696905 89.8857 
L 400.411873 88.098044 
L 405.126841 89.168295 
L 409.841809 90.175429 
L 414.556777 83.136175 
L 419.271745 89.670877 
L 423.986713 76.435089 
L 428.70168 77.895365 
L 433.416648 73.647975 
L 438.131616 72.625173 
L 442.846584 71.053138 
L 447.561552 78.064085 
L 452.27652 57.276751 
L 456.991488 71.578078 
L 461.706455 87.562883 
L 466.421423 79.865475 
L 471.136391 84.968017 
L 475.851359 70.080882 
L 480.566327 70.386256 
L 485.281295 72.353299 
L 489.996263 51.687704 
L 494.71123 62.587142 
L 499.426198 60.35969 
L 504.141166 72.822674 
L 508.856134 72.558875 
L 513.571102 63.453189 
L 518.28607 61.553408 
L 523.001038 76.99684 
L 527.716006 62.765091 
L 532.430973 60.399378 
L 537.145941 61.426195 
L 541.860909 145.496391 
" clip-path="url(#pe4e97b75bb)" style="fill: none; stroke: #388ecc; stroke-opacity: 0.8; stroke-width: 2; stroke-linecap: square"/>
   </g>
   <g id="patch_3">
    <path d="M 51.74 247.96 
L 51.74 25.44 
" style="fill: none; stroke: #000000; stroke-width: 0.8; stroke-linejoin: miter; stroke-linecap: square"/>
   </g>
   <g id="patch_4">
    <path d="M 51.74 247.96 
L 565.2 247.96 
" style="fill: none; stroke: #000000; stroke-width: 0.8; stroke-linejoin: miter; stroke-linecap: square"/>
   </g>
   <g id="text_15">
    <!-- Clustering synthetic time series -->
    <g transform="translate(223.82875 19.44) scale(0.12 -0.12)">
     <defs>
      <path id="IBMPlexSans-43" d="M 2170 -77 
Q 1318 -77 844 502 
Q 371 1082 371 2208 
Q 371 3334 844 3939 
Q 1318 4544 2170 4544 
Q 2733 4544 3113 4288 
Q 3494 4032 3706 3565 
L 3270 3302 
Q 3136 3648 2861 3856 
Q 2586 4064 2170 4064 
Q 1882 4064 1654 3955 
Q 1427 3846 1270 3644 
Q 1114 3443 1030 3164 
Q 947 2886 947 2541 
L 947 1875 
Q 947 1184 1267 793 
Q 1587 403 2170 403 
Q 2598 403 2886 624 
Q 3174 845 3309 1210 
L 3738 941 
Q 3526 467 3129 195 
Q 2733 -77 2170 -77 
z
" transform="scale(0.015625)"/>
      <path id="IBMPlexSans-73" d="M 1536 -77 
Q 1075 -77 764 99 
Q 454 275 230 570 
L 595 864 
Q 787 621 1024 489 
Q 1261 358 1574 358 
Q 1901 358 2083 499 
Q 2266 640 2266 896 
Q 2266 1088 2141 1225 
Q 2016 1363 1690 1414 
L 1427 1453 
Q 1197 1485 1005 1552 
Q 813 1619 669 1731 
Q 525 1843 445 2009 
Q 365 2176 365 2406 
Q 365 2650 454 2832 
Q 544 3014 701 3136 
Q 858 3258 1075 3318 
Q 1293 3379 1542 3379 
Q 1946 3379 2218 3238 
Q 2490 3098 2694 2848 
L 2355 2541 
Q 2246 2694 2035 2819 
Q 1824 2944 1504 2944 
Q 1184 2944 1021 2806 
Q 858 2669 858 2432 
Q 858 2189 1021 2080 
Q 1184 1971 1491 1920 
L 1747 1882 
Q 2298 1798 2528 1564 
Q 2758 1331 2758 954 
Q 2758 474 2432 198 
Q 2106 -77 1536 -77 
z
" transform="scale(0.015625)"/>
      <path id="IBMPlexSans-74" d="M 1274 0 
Q 1005 0 867 150 
Q 730 301 730 544 
L 730 2854 
L 186 2854 
L 186 3302 
L 493 3302 
Q 659 3302 720 3369 
Q 781 3437 781 3603 
L 781 4218 
L 1242 4218 
L 1242 3302 
L 1965 3302 
L 1965 2854 
L 1242 2854 
L 1242 448 
L 1914 448 
L 1914 0 
L 1274 0 
z
" transform="scale(0.015625)"/>
      <path id="IBMPlexSans-72" d="M 544 0 
L 544 3302 
L 1056 3302 
L 1056 2694 
L 1088 2694 
Q 1178 2931 1408 3116 
Q 1638 3302 2042 3302 
L 2240 3302 
L 2240 2790 
L 1939 2790 
Q 1523 2790 1289 2633 
Q 1056 2477 1056 2240 
L 1056 0 
L 544 0 
z
" transform="scale(0.015625)"/>
      <path id="IBMPlexSans-6e" d="M 544 0 
L 544 3302 
L 1056 3302 
L 1056 2765 
L 1082 2765 
Q 1203 3046 1424 3212 
Q 1645 3379 2016 3379 
Q 2528 3379 2825 3049 
Q 3123 2720 3123 2118 
L 3123 0 
L 2611 0 
L 2611 2029 
Q 2611 2918 1862 2918 
Q 1709 2918 1565 2880 
Q 1421 2842 1305 2765 
Q 1190 2688 1123 2569 
Q 1056 2451 1056 2291 
L 1056 0 
L 544 0 
z
" transform="scale(0.015625)"/>
      <path id="IBMPlexSans-67" d="M 3328 -365 
Q 3328 -877 2928 -1117 
Q 2528 -1357 1728 -1357 
Q 954 -1357 614 -1145 
Q 275 -934 275 -544 
Q 275 -275 416 -124 
Q 557 26 800 96 
L 800 166 
Q 506 307 506 627 
Q 506 877 666 1008 
Q 826 1139 1075 1203 
L 1075 1229 
Q 781 1370 617 1632 
Q 454 1894 454 2240 
Q 454 2490 544 2701 
Q 634 2912 797 3062 
Q 960 3213 1187 3296 
Q 1414 3379 1696 3379 
Q 2048 3379 2323 3251 
L 2323 3309 
Q 2323 3501 2412 3625 
Q 2502 3750 2707 3750 
L 3200 3750 
L 3200 3302 
L 2573 3302 
L 2573 3091 
Q 2752 2938 2851 2723 
Q 2950 2509 2950 2240 
Q 2950 1990 2860 1779 
Q 2771 1568 2608 1417 
Q 2445 1267 2214 1184 
Q 1984 1101 1702 1101 
Q 1542 1101 1382 1133 
Q 1216 1088 1081 1001 
Q 947 915 947 762 
Q 947 614 1088 563 
Q 1229 512 1453 512 
L 2157 512 
Q 2771 512 3049 278 
Q 3328 45 3328 -365 
z
M 2848 -403 
Q 2848 -205 2697 -86 
Q 2547 32 2163 32 
L 1062 32 
Q 755 -109 755 -416 
Q 755 -634 918 -787 
Q 1082 -941 1472 -941 
L 1946 -941 
Q 2374 -941 2611 -806 
Q 2848 -672 2848 -403 
z
M 1702 1510 
Q 2029 1510 2221 1667 
Q 2413 1824 2413 2150 
L 2413 2330 
Q 2413 2656 2221 2813 
Q 2029 2970 1702 2970 
Q 1376 2970 1184 2813 
Q 992 2656 992 2330 
L 992 2150 
Q 992 1824 1184 1667 
Q 1376 1510 1702 1510 
z
" transform="scale(0.015625)"/>
      <path id="IBMPlexSans-20" transform="scale(0.015625)"/>
      <path id="IBMPlexSans-79" d="M 2579 3302 
L 3085 3302 
L 1606 -768 
Q 1549 -915 1491 -1014 
Q 1434 -1114 1350 -1171 
Q 1267 -1229 1142 -1254 
Q 1018 -1280 838 -1280 
L 576 -1280 
L 576 -832 
L 1094 -832 
L 1344 -128 
L 109 3302 
L 621 3302 
L 1414 1056 
L 1568 518 
L 1600 518 
L 1779 1056 
L 2579 3302 
z
" transform="scale(0.015625)"/>
      <path id="IBMPlexSans-68" d="M 544 4736 
L 1056 4736 
L 1056 2765 
L 1082 2765 
Q 1203 3046 1424 3212 
Q 1645 3379 2016 3379 
Q 2528 3379 2825 3049 
Q 3123 2720 3123 2118 
L 3123 0 
L 2611 0 
L 2611 2029 
Q 2611 2918 1862 2918 
Q 1709 2918 1565 2880 
Q 1421 2842 1305 2765 
Q 1190 2688 1123 2569 
Q 1056 2451 1056 2291 
L 1056 0 
L 544 0 
L 544 4736 
z
" transform="scale(0.015625)"/>
      <path id="IBMPlexSans-63" d="M 1773 -77 
Q 1427 -77 1152 44 
Q 877 166 688 390 
Q 499 614 400 934 
Q 301 1254 301 1651 
Q 301 2048 400 2368 
Q 499 2688 688 2912 
Q 877 3136 1152 3257 
Q 1427 3379 1773 3379 
Q 2266 3379 2563 3164 
Q 2861 2950 3008 2605 
L 2579 2387 
Q 2490 2643 2285 2784 
Q 2080 2925 1773 2925 
Q 1542 2925 1369 2851 
Q 1197 2778 1081 2646 
Q 966 2515 908 2332 
Q 851 2150 851 1933 
L 851 1370 
Q 851 934 1084 656 
Q 1318 378 1773 378 
Q 2394 378 2669 954 
L 3040 704 
Q 2880 346 2563 134 
Q 2246 -77 1773 -77 
z
" transform="scale(0.015625)"/>
     </defs>
     <use xlink:href="#IBMPlexSans-43"/>
     <use xlink:href="#IBMPlexSans-6c" transform="translate(62.099991 0)"/>
     <use xlink:href="#IBMPlexSans-75" transform="translate(89.299988 0)"/>
     <use xlink:href="#IBMPlexSans-73" transform="translate(146.099976 0)"/>
     <use xlink:href="#IBMPlexSans-74" transform="translate(194.799973 0)"/>
     <use xlink:href="#IBMPlexSans-65" transform="translate(229.899963 0)"/>
     <use xlink:href="#IBMPlexSans-72" transform="translate(284.799957 0)"/>
     <use xlink:href="#IBMPlexSans-69" transform="translate(321.499954 0)"/>
     <use xlink:href="#IBMPlexSans-6e" transform="translate(346.499939 0)"/>
     <use xlink:href="#IBMPlexSans-67" transform="translate(403.299927 0)"/>
     <use xlink:href="#IBMPlexSans-20" transform="translate(456.099915 0)"/>
     <use xlink:href="#IBMPlexSans-73" transform="translate(479.699905 0)"/>
     <use xlink:href="#IBMPlexSans-79" transform="translate(528.399902 0)"/>
     <use xlink:href="#IBMPlexSans-6e" transform="translate(578.299896 0)"/>
     <use xlink:href="#IBMPlexSans-74" transform="translate(635.099884 0)"/>
     <use xlink:href="#IBMPlexSans-68" transform="translate(670.199875 0)"/>
     <use xlink:href="#IBMPlexSans-65" transform="translate(726.999863 0)"/>
     <use xlink:href="#IBMPlexSans-74" transform="translate(781.899857 0)"/>
     <use xlink:href="#IBMPlexSans-69" transform="translate(816.999847 0)"/>
     <use xlink:href="#IBMPlexSans-63" transform="translate(841.999832 0)"/>
     <use xlink:href="#IBMPlexSans-20" transform="translate(892.29982 0)"/>
     <use xlink:href="#IBMPlexSans-74" transform="translate(915.899811 0)"/>
     <use xlink:href="#IBMPlexSans-69" transform="translate(950.999802 0)"/>
     <use xlink:href="#IBMPlexSans-6d" transform="translate(975.999786 0)"/>
     <use xlink:href="#IBMPlexSans-65" transform="translate(1063.299774 0)"/>
     <use xlink:href="#IBMPlexSans-20" transform="translate(1118.199768 0)"/>
     <use xlink:href="#IBMPlexSans-73" transform="translate(1141.799759 0)"/>
     <use xlink:href="#IBMPlexSans-65" transform="translate(1190.499756 0)"/>
     <use xlink:href="#IBMPlexSans-72" transform="translate(1245.39975 0)"/>
     <use xlink:href="#IBMPlexSans-69" transform="translate(1282.099747 0)"/>
     <use xlink:href="#IBMPlexSans-65" transform="translate(1307.099731 0)"/>
     <use xlink:href="#IBMPlexSans-73" transform="translate(1361.999725 0)"/>
    </g>
   </g>
  </g>
 </g>
 <defs>
  <clipPath id="pe4e97b75bb">
   <rect x="51.74" y="25.44" width="513.46" height="222.52"/>
  </clipPath>
 </defs>
</svg>
