<?xml version="1.0" encoding="utf-8" standalone="no"?>
<!DOCTYPE svg PUBLIC "-//W3C//DTD SVG 1.1//EN"
  "http://www.w3.org/Graphics/SVG/1.1/DTD/svg11.dtd">
<svg xmlns:xlink="http://www.w3.org/1999/xlink" width="576pt" height="216pt" viewBox="0 0 576 216" xmlns="http://www.w3.org/2000/svg" version="1.1">
 <metadata>
  <rdf:RDF xmlns:dc="http://purl.org/dc/elements/1.1/" xmlns:cc="http://creativecommons.org/ns#" xmlns:rdf="http://www.w3.org/1999/02/22-rdf-syntax-ns#">
   <cc:Work>
    <dc:type rdf:resource="http://purl.org/dc/dcmitype/StillImage"/>
    <dc:date>2025-08-18T03:30:21.551583</dc:date>
    <dc:format>image/svg+xml</dc:format>
    <dc:creator>
     <cc:Agent>
      <dc:title>Matplotlib v3.10.3, https://matplotlib.org/</dc:title>
     </cc:Agent>
    </dc:creator>
   </cc:Work>
  </rdf:RDF>
 </metadata>
 <defs>
  <style type="text/css">*{stroke-linejoin: round; stroke-linecap: butt}</style>
 </defs>
 <g id="figure_1">
  <g id="patch_1">
   <path d="M 0 216 
L 576 216 
L 576 0 
L 0 0 
L 0 216 
z
" style="fill: none"/>
  </g>
  <g id="axes_1">
   <g id="patch_2">
    <path d="M 45.89 175.48 
L 565.2 175.48 
L 565.2 26.16 
L 45.89 26.16 
L 45.89 175.48 
z
" style="fill: none"/>
   </g>
   <g id="matplotlib.axis_1">
    <g id="xtick_1">
     <g id="line2d_1">
      <defs>
       <path id="mc8172fa92f" d="M 0 0 
L 0 3.5 
" style="stroke: #000000; stroke-width: 0.8"/>
      </defs>
      <g>
       <use xlink:href="#mc8172fa92f" x="45.89" y="175.48" style="stroke: #000000; stroke-width: 0.8"/>
      </g>
     </g>
     <g id="text_1">
      <!-- 0 -->
      <g transform="translate(42.89 189.88) scale(0.1 -0.1)">
       <defs>
        <path id="IBMPlexSans-30" d="M 1920 -77 
Q 1120 -77 752 531 
Q 384 1139 384 2234 
Q 384 3328 752 3936 
Q 1120 4544 1920 4544 
Q 2720 4544 3088 3936 
Q 3456 3328 3456 2234 
Q 3456 1139 3088 531 
Q 2720 -77 1920 -77 
z
M 1920 390 
Q 2182 390 2368 499 
Q 2554 608 2669 806 
Q 2784 1005 2838 1273 
Q 2893 1542 2893 1869 
L 2893 2598 
Q 2893 2925 2838 3193 
Q 2784 3462 2669 3660 
Q 2554 3859 2368 3968 
Q 2182 4077 1920 4077 
Q 1658 4077 1472 3968 
Q 1286 3859 1171 3660 
Q 1056 3462 1001 3193 
Q 947 2925 947 2598 
L 947 1869 
Q 947 1542 1001 1273 
Q 1056 1005 1171 806 
Q 1286 608 1472 499 
Q 1658 390 1920 390 
z
" transform="scale(0.015625)"/>
       </defs>
       <use xlink:href="#IBMPlexSans-30"/>
      </g>
     </g>
    </g>
    <g id="xtick_2">
     <g id="line2d_2">
      <g>
       <use xlink:href="#mc8172fa92f" x="132.562045" y="175.48" style="stroke: #000000; stroke-width: 0.8"/>
      </g>
     </g>
     <g id="text_2">
      <!-- 5 -->
      <g transform="translate(129.562045 189.88) scale(0.1 -0.1)">
       <defs>
        <path id="IBMPlexSans-35" d="M 3187 3994 
L 1229 3994 
L 1101 2291 
L 1146 2291 
Q 1306 2515 1507 2649 
Q 1709 2784 2061 2784 
Q 2349 2784 2592 2688 
Q 2835 2592 3014 2416 
Q 3194 2240 3293 1984 
Q 3392 1728 3392 1402 
Q 3392 1075 3289 803 
Q 3187 531 2992 336 
Q 2797 141 2518 32 
Q 2240 -77 1888 -77 
Q 1606 -77 1392 -13 
Q 1178 51 1011 160 
Q 845 269 720 403 
Q 595 538 493 685 
L 896 992 
Q 979 858 1072 749 
Q 1165 640 1277 563 
Q 1389 486 1536 444 
Q 1683 403 1888 403 
Q 2349 403 2585 646 
Q 2822 890 2822 1331 
L 2822 1395 
Q 2822 1837 2585 2080 
Q 2349 2323 1888 2323 
Q 1581 2323 1405 2211 
Q 1229 2099 1088 1946 
L 634 2010 
L 794 4467 
L 3187 4467 
L 3187 3994 
z
" transform="scale(0.015625)"/>
       </defs>
       <use xlink:href="#IBMPlexSans-35"/>
      </g>
     </g>
    </g>
    <g id="xtick_3">
     <g id="line2d_3">
      <g>
       <use xlink:href="#mc8172fa92f" x="219.234089" y="175.48" style="stroke: #000000; stroke-width: 0.8"/>
      </g>
     </g>
     <g id="text_3">
      <!-- 10 -->
      <g transform="translate(213.234089 189.88) scale(0.1 -0.1)">
       <defs>
        <path id="IBMPlexSans-31" d="M 563 0 
L 563 474 
L 1811 474 
L 1811 4070 
L 1766 4070 
L 640 3021 
L 326 3360 
L 1510 4467 
L 2349 4467 
L 2349 474 
L 3501 474 
L 3501 0 
L 563 0 
z
" transform="scale(0.015625)"/>
       </defs>
       <use xlink:href="#IBMPlexSans-31"/>
       <use xlink:href="#IBMPlexSans-30" transform="translate(59.999985 0)"/>
      </g>
     </g>
    </g>
    <g id="xtick_4">
     <g id="line2d_4">
      <g>
       <use xlink:href="#mc8172fa92f" x="305.906134" y="175.48" style="stroke: #000000; stroke-width: 0.8"/>
      </g>
     </g>
     <g id="text_4">
      <!-- 15 -->
      <g transform="translate(299.906134 189.88) scale(0.1 -0.1)">
       <use xlink:href="#IBMPlexSans-31"/>
       <use xlink:href="#IBMPlexSans-35" transform="translate(59.999985 0)"/>
      </g>
     </g>
    </g>
    <g id="xtick_5">
     <g id="line2d_5">
      <g>
       <use xlink:href="#mc8172fa92f" x="392.578178" y="175.48" style="stroke: #000000; stroke-width: 0.8"/>
      </g>
     </g>
     <g id="text_5">
      <!-- 20 -->
      <g transform="translate(386.578178 189.88) scale(0.1 -0.1)">
       <defs>
        <path id="IBMPlexSans-32" d="M 3411 0 
L 480 0 
L 480 550 
L 1939 1894 
Q 2253 2182 2464 2505 
Q 2675 2829 2675 3155 
L 2675 3232 
Q 2675 3603 2470 3833 
Q 2266 4064 1850 4064 
Q 1645 4064 1491 4006 
Q 1338 3949 1226 3846 
Q 1114 3744 1040 3606 
Q 966 3469 922 3309 
L 442 3494 
Q 506 3693 618 3881 
Q 730 4070 899 4217 
Q 1069 4365 1309 4454 
Q 1549 4544 1875 4544 
Q 2202 4544 2458 4448 
Q 2714 4352 2886 4179 
Q 3059 4006 3152 3769 
Q 3245 3533 3245 3245 
Q 3245 2982 3171 2758 
Q 3098 2534 2970 2332 
Q 2842 2131 2659 1939 
Q 2477 1747 2266 1555 
L 1062 474 
L 3411 474 
L 3411 0 
z
" transform="scale(0.015625)"/>
       </defs>
       <use xlink:href="#IBMPlexSans-32"/>
       <use xlink:href="#IBMPlexSans-30" transform="translate(59.999985 0)"/>
      </g>
     </g>
    </g>
    <g id="xtick_6">
     <g id="line2d_6">
      <g>
       <use xlink:href="#mc8172fa92f" x="479.250223" y="175.48" style="stroke: #000000; stroke-width: 0.8"/>
      </g>
     </g>
     <g id="text_6">
      <!-- 25 -->
      <g transform="translate(473.250223 189.88) scale(0.1 -0.1)">
       <use xlink:href="#IBMPlexSans-32"/>
       <use xlink:href="#IBMPlexSans-35" transform="translate(59.999985 0)"/>
      </g>
     </g>
    </g>
    <g id="xtick_7">
     <g id="line2d_7">
      <defs>
       <path id="m38eae09aa5" d="M 0 0 
L 0 2 
" style="stroke: #000000; stroke-width: 0.6"/>
      </defs>
      <g>
       <use xlink:href="#m38eae09aa5" x="63.224409" y="175.48" style="stroke: #000000; stroke-width: 0.6"/>
      </g>
     </g>
    </g>
    <g id="xtick_8">
     <g id="line2d_8">
      <g>
       <use xlink:href="#m38eae09aa5" x="80.558818" y="175.48" style="stroke: #000000; stroke-width: 0.6"/>
      </g>
     </g>
    </g>
    <g id="xtick_9">
     <g id="line2d_9">
      <g>
       <use xlink:href="#m38eae09aa5" x="97.893227" y="175.48" style="stroke: #000000; stroke-width: 0.6"/>
      </g>
     </g>
    </g>
    <g id="xtick_10">
     <g id="line2d_10">
      <g>
       <use xlink:href="#m38eae09aa5" x="115.227636" y="175.48" style="stroke: #000000; stroke-width: 0.6"/>
      </g>
     </g>
    </g>
    <g id="xtick_11">
     <g id="line2d_11">
      <g>
       <use xlink:href="#m38eae09aa5" x="149.896453" y="175.48" style="stroke: #000000; stroke-width: 0.6"/>
      </g>
     </g>
    </g>
    <g id="xtick_12">
     <g id="line2d_12">
      <g>
       <use xlink:href="#m38eae09aa5" x="167.230862" y="175.48" style="stroke: #000000; stroke-width: 0.6"/>
      </g>
     </g>
    </g>
    <g id="xtick_13">
     <g id="line2d_13">
      <g>
       <use xlink:href="#m38eae09aa5" x="184.565271" y="175.48" style="stroke: #000000; stroke-width: 0.6"/>
      </g>
     </g>
    </g>
    <g id="xtick_14">
     <g id="line2d_14">
      <g>
       <use xlink:href="#m38eae09aa5" x="201.89968" y="175.48" style="stroke: #000000; stroke-width: 0.6"/>
      </g>
     </g>
    </g>
    <g id="xtick_15">
     <g id="line2d_15">
      <g>
       <use xlink:href="#m38eae09aa5" x="236.568498" y="175.48" style="stroke: #000000; stroke-width: 0.6"/>
      </g>
     </g>
    </g>
    <g id="xtick_16">
     <g id="line2d_16">
      <g>
       <use xlink:href="#m38eae09aa5" x="253.902907" y="175.48" style="stroke: #000000; stroke-width: 0.6"/>
      </g>
     </g>
    </g>
    <g id="xtick_17">
     <g id="line2d_17">
      <g>
       <use xlink:href="#m38eae09aa5" x="271.237316" y="175.48" style="stroke: #000000; stroke-width: 0.6"/>
      </g>
     </g>
    </g>
    <g id="xtick_18">
     <g id="line2d_18">
      <g>
       <use xlink:href="#m38eae09aa5" x="288.571725" y="175.48" style="stroke: #000000; stroke-width: 0.6"/>
      </g>
     </g>
    </g>
    <g id="xtick_19">
     <g id="line2d_19">
      <g>
       <use xlink:href="#m38eae09aa5" x="323.240542" y="175.48" style="stroke: #000000; stroke-width: 0.6"/>
      </g>
     </g>
    </g>
    <g id="xtick_20">
     <g id="line2d_20">
      <g>
       <use xlink:href="#m38eae09aa5" x="340.574951" y="175.48" style="stroke: #000000; stroke-width: 0.6"/>
      </g>
     </g>
    </g>
    <g id="xtick_21">
     <g id="line2d_21">
      <g>
       <use xlink:href="#m38eae09aa5" x="357.90936" y="175.48" style="stroke: #000000; stroke-width: 0.6"/>
      </g>
     </g>
    </g>
    <g id="xtick_22">
     <g id="line2d_22">
      <g>
       <use xlink:href="#m38eae09aa5" x="375.243769" y="175.48" style="stroke: #000000; stroke-width: 0.6"/>
      </g>
     </g>
    </g>
    <g id="xtick_23">
     <g id="line2d_23">
      <g>
       <use xlink:href="#m38eae09aa5" x="409.912587" y="175.48" style="stroke: #000000; stroke-width: 0.6"/>
      </g>
     </g>
    </g>
    <g id="xtick_24">
     <g id="line2d_24">
      <g>
       <use xlink:href="#m38eae09aa5" x="427.246996" y="175.48" style="stroke: #000000; stroke-width: 0.6"/>
      </g>
     </g>
    </g>
    <g id="xtick_25">
     <g id="line2d_25">
      <g>
       <use xlink:href="#m38eae09aa5" x="444.581405" y="175.48" style="stroke: #000000; stroke-width: 0.6"/>
      </g>
     </g>
    </g>
    <g id="xtick_26">
     <g id="line2d_26">
      <g>
       <use xlink:href="#m38eae09aa5" x="461.915814" y="175.48" style="stroke: #000000; stroke-width: 0.6"/>
      </g>
     </g>
    </g>
    <g id="xtick_27">
     <g id="line2d_27">
      <g>
       <use xlink:href="#m38eae09aa5" x="496.584631" y="175.48" style="stroke: #000000; stroke-width: 0.6"/>
      </g>
     </g>
    </g>
    <g id="xtick_28">
     <g id="line2d_28">
      <g>
       <use xlink:href="#m38eae09aa5" x="513.91904" y="175.48" style="stroke: #000000; stroke-width: 0.6"/>
      </g>
     </g>
    </g>
    <g id="xtick_29">
     <g id="line2d_29">
      <g>
       <use xlink:href="#m38eae09aa5" x="531.253449" y="175.48" style="stroke: #000000; stroke-width: 0.6"/>
      </g>
     </g>
    </g>
    <g id="xtick_30">
     <g id="line2d_30">
      <g>
       <use xlink:href="#m38eae09aa5" x="548.587858" y="175.48" style="stroke: #000000; stroke-width: 0.6"/>
      </g>
     </g>
    </g>
    <g id="text_7">
     <!-- Days -->
     <g transform="translate(294.589531 203.28) scale(0.1 -0.1)">
      <defs>
       <path id="IBMPlexSans-44" d="M 595 4467 
L 2093 4467 
Q 2509 4467 2848 4326 
Q 3187 4186 3427 3907 
Q 3667 3629 3795 3209 
Q 3923 2790 3923 2234 
Q 3923 1677 3795 1257 
Q 3667 838 3427 560 
Q 3187 282 2848 141 
Q 2509 0 2093 0 
L 595 0 
L 595 4467 
z
M 2093 474 
Q 2368 474 2598 566 
Q 2829 659 2995 838 
Q 3162 1018 3254 1277 
Q 3347 1536 3347 1869 
L 3347 2598 
Q 3347 2931 3254 3190 
Q 3162 3450 2995 3629 
Q 2829 3808 2598 3901 
Q 2368 3994 2093 3994 
L 1133 3994 
L 1133 474 
L 2093 474 
z
" transform="scale(0.015625)"/>
       <path id="IBMPlexSans-61" d="M 2944 0 
Q 2656 0 2531 153 
Q 2406 307 2374 538 
L 2342 538 
Q 2234 230 1984 76 
Q 1734 -77 1389 -77 
Q 864 -77 573 192 
Q 282 461 282 922 
Q 282 1389 624 1638 
Q 966 1888 1690 1888 
L 2342 1888 
L 2342 2214 
Q 2342 2566 2150 2752 
Q 1958 2938 1562 2938 
Q 1261 2938 1059 2803 
Q 858 2669 723 2445 
L 416 2733 
Q 550 3002 844 3190 
Q 1139 3379 1587 3379 
Q 2189 3379 2521 3084 
Q 2854 2790 2854 2266 
L 2854 448 
L 3232 448 
L 3232 0 
L 2944 0 
z
M 1472 358 
Q 1664 358 1824 403 
Q 1984 448 2099 531 
Q 2214 614 2278 723 
Q 2342 832 2342 960 
L 2342 1504 
L 1664 1504 
Q 1222 1504 1020 1376 
Q 819 1248 819 1005 
L 819 870 
Q 819 627 995 492 
Q 1171 358 1472 358 
z
" transform="scale(0.015625)"/>
       <path id="IBMPlexSans-79" d="M 2579 3302 
L 3085 3302 
L 1606 -768 
Q 1549 -915 1491 -1014 
Q 1434 -1114 1350 -1171 
Q 1267 -1229 1142 -1254 
Q 1018 -1280 838 -1280 
L 576 -1280 
L 576 -832 
L 1094 -832 
L 1344 -128 
L 109 3302 
L 621 3302 
L 1414 1056 
L 1568 518 
L 1600 518 
L 1779 1056 
L 2579 3302 
z
" transform="scale(0.015625)"/>
       <path id="IBMPlexSans-73" d="M 1536 -77 
Q 1075 -77 764 99 
Q 454 275 230 570 
L 595 864 
Q 787 621 1024 489 
Q 1261 358 1574 358 
Q 1901 358 2083 499 
Q 2266 640 2266 896 
Q 2266 1088 2141 1225 
Q 2016 1363 1690 1414 
L 1427 1453 
Q 1197 1485 1005 1552 
Q 813 1619 669 1731 
Q 525 1843 445 2009 
Q 365 2176 365 2406 
Q 365 2650 454 2832 
Q 544 3014 701 3136 
Q 858 3258 1075 3318 
Q 1293 3379 1542 3379 
Q 1946 3379 2218 3238 
Q 2490 3098 2694 2848 
L 2355 2541 
Q 2246 2694 2035 2819 
Q 1824 2944 1504 2944 
Q 1184 2944 1021 2806 
Q 858 2669 858 2432 
Q 858 2189 1021 2080 
Q 1184 1971 1491 1920 
L 1747 1882 
Q 2298 1798 2528 1564 
Q 2758 1331 2758 954 
Q 2758 474 2432 198 
Q 2106 -77 1536 -77 
z
" transform="scale(0.015625)"/>
      </defs>
      <use xlink:href="#IBMPlexSans-44"/>
      <use xlink:href="#IBMPlexSans-61" transform="translate(67.099991 0)"/>
      <use xlink:href="#IBMPlexSans-79" transform="translate(120.499985 0)"/>
      <use xlink:href="#IBMPlexSans-73" transform="translate(170.399979 0)"/>
     </g>
    </g>
   </g>
   <g id="matplotlib.axis_2">
    <g id="ytick_1">
     <g id="line2d_31">
      <defs>
       <path id="m98d72fa22c" d="M 0 0 
L -3.5 0 
" style="stroke: #000000; stroke-width: 0.8"/>
      </defs>
      <g>
       <use xlink:href="#m98d72fa22c" x="45.89" y="165.225846" style="stroke: #000000; stroke-width: 0.8"/>
      </g>
     </g>
     <g id="text_8">
      <!-- 1.0 -->
      <g transform="translate(24.169688 168.925846) scale(0.1 -0.1)">
       <defs>
        <path id="IBMPlexSans-2e" d="M 870 -77 
Q 666 -77 573 25 
Q 480 128 480 294 
L 480 378 
Q 480 544 573 646 
Q 666 749 870 749 
Q 1075 749 1168 646 
Q 1261 544 1261 378 
L 1261 294 
Q 1261 128 1168 25 
Q 1075 -77 870 -77 
z
" transform="scale(0.015625)"/>
       </defs>
       <use xlink:href="#IBMPlexSans-31"/>
       <use xlink:href="#IBMPlexSans-2e" transform="translate(59.999985 0)"/>
       <use xlink:href="#IBMPlexSans-30" transform="translate(87.199982 0)"/>
      </g>
     </g>
    </g>
    <g id="ytick_2">
     <g id="line2d_32">
      <g>
       <use xlink:href="#m98d72fa22c" x="45.89" y="140.409211" style="stroke: #000000; stroke-width: 0.8"/>
      </g>
     </g>
     <g id="text_9">
      <!-- 1.5 -->
      <g transform="translate(24.169688 144.109211) scale(0.1 -0.1)">
       <use xlink:href="#IBMPlexSans-31"/>
       <use xlink:href="#IBMPlexSans-2e" transform="translate(59.999985 0)"/>
       <use xlink:href="#IBMPlexSans-35" transform="translate(87.199982 0)"/>
      </g>
     </g>
    </g>
    <g id="ytick_3">
     <g id="line2d_33">
      <g>
       <use xlink:href="#m98d72fa22c" x="45.89" y="115.592577" style="stroke: #000000; stroke-width: 0.8"/>
      </g>
     </g>
     <g id="text_10">
      <!-- 2.0 -->
      <g transform="translate(24.169688 119.292577) scale(0.1 -0.1)">
       <use xlink:href="#IBMPlexSans-32"/>
       <use xlink:href="#IBMPlexSans-2e" transform="translate(59.999985 0)"/>
       <use xlink:href="#IBMPlexSans-30" transform="translate(87.199982 0)"/>
      </g>
     </g>
    </g>
    <g id="ytick_4">
     <g id="line2d_34">
      <g>
       <use xlink:href="#m98d72fa22c" x="45.89" y="90.775942" style="stroke: #000000; stroke-width: 0.8"/>
      </g>
     </g>
     <g id="text_11">
      <!-- 2.5 -->
      <g transform="translate(24.169688 94.475942) scale(0.1 -0.1)">
       <use xlink:href="#IBMPlexSans-32"/>
       <use xlink:href="#IBMPlexSans-2e" transform="translate(59.999985 0)"/>
       <use xlink:href="#IBMPlexSans-35" transform="translate(87.199982 0)"/>
      </g>
     </g>
    </g>
    <g id="ytick_5">
     <g id="line2d_35">
      <g>
       <use xlink:href="#m98d72fa22c" x="45.89" y="65.959308" style="stroke: #000000; stroke-width: 0.8"/>
      </g>
     </g>
     <g id="text_12">
      <!-- 3.0 -->
      <g transform="translate(24.169688 69.659308) scale(0.1 -0.1)">
       <defs>
        <path id="IBMPlexSans-33" d="M 1670 2573 
Q 2125 2573 2352 2781 
Q 2579 2989 2579 3315 
L 2579 3360 
Q 2579 3712 2358 3888 
Q 2138 4064 1779 4064 
Q 1434 4064 1216 3913 
Q 998 3763 858 3507 
L 461 3814 
Q 544 3949 662 4080 
Q 781 4211 941 4313 
Q 1101 4416 1312 4480 
Q 1523 4544 1792 4544 
Q 2074 4544 2323 4470 
Q 2573 4397 2755 4253 
Q 2938 4109 3043 3897 
Q 3149 3686 3149 3418 
Q 3149 3200 3081 3027 
Q 3014 2854 2899 2726 
Q 2784 2598 2627 2508 
Q 2470 2419 2291 2374 
L 2291 2349 
Q 2470 2310 2640 2224 
Q 2810 2138 2941 2000 
Q 3072 1862 3152 1667 
Q 3232 1472 3232 1222 
Q 3232 934 3123 694 
Q 3014 454 2816 284 
Q 2618 115 2336 19 
Q 2054 -77 1715 -77 
Q 1427 -77 1203 -13 
Q 979 51 806 160 
Q 634 269 502 403 
Q 371 538 269 685 
L 672 992 
Q 755 858 854 749 
Q 954 640 1075 563 
Q 1197 486 1350 444 
Q 1504 403 1709 403 
Q 2182 403 2425 617 
Q 2669 832 2669 1229 
L 2669 1280 
Q 2669 1677 2425 1891 
Q 2182 2106 1709 2106 
L 1184 2106 
L 1184 2573 
L 1670 2573 
z
" transform="scale(0.015625)"/>
       </defs>
       <use xlink:href="#IBMPlexSans-33"/>
       <use xlink:href="#IBMPlexSans-2e" transform="translate(59.999985 0)"/>
       <use xlink:href="#IBMPlexSans-30" transform="translate(87.199982 0)"/>
      </g>
     </g>
    </g>
    <g id="ytick_6">
     <g id="line2d_36">
      <g>
       <use xlink:href="#m98d72fa22c" x="45.89" y="41.142673" style="stroke: #000000; stroke-width: 0.8"/>
      </g>
     </g>
     <g id="text_13">
      <!-- 3.5 -->
      <g transform="translate(24.169688 44.842673) scale(0.1 -0.1)">
       <use xlink:href="#IBMPlexSans-33"/>
       <use xlink:href="#IBMPlexSans-2e" transform="translate(59.999985 0)"/>
       <use xlink:href="#IBMPlexSans-35" transform="translate(87.199982 0)"/>
      </g>
     </g>
    </g>
    <g id="ytick_7">
     <g id="line2d_37">
      <defs>
       <path id="md1fcb5cee2" d="M 0 0 
L -2 0 
" style="stroke: #000000; stroke-width: 0.6"/>
      </defs>
      <g>
       <use xlink:href="#md1fcb5cee2" x="45.89" y="175.152499" style="stroke: #000000; stroke-width: 0.6"/>
      </g>
     </g>
    </g>
    <g id="ytick_8">
     <g id="line2d_38">
      <g>
       <use xlink:href="#md1fcb5cee2" x="45.89" y="170.189173" style="stroke: #000000; stroke-width: 0.6"/>
      </g>
     </g>
    </g>
    <g id="ytick_9">
     <g id="line2d_39">
      <g>
       <use xlink:href="#md1fcb5cee2" x="45.89" y="160.262519" style="stroke: #000000; stroke-width: 0.6"/>
      </g>
     </g>
    </g>
    <g id="ytick_10">
     <g id="line2d_40">
      <g>
       <use xlink:href="#md1fcb5cee2" x="45.89" y="155.299192" style="stroke: #000000; stroke-width: 0.6"/>
      </g>
     </g>
    </g>
    <g id="ytick_11">
     <g id="line2d_41">
      <g>
       <use xlink:href="#md1fcb5cee2" x="45.89" y="150.335865" style="stroke: #000000; stroke-width: 0.6"/>
      </g>
     </g>
    </g>
    <g id="ytick_12">
     <g id="line2d_42">
      <g>
       <use xlink:href="#md1fcb5cee2" x="45.89" y="145.372538" style="stroke: #000000; stroke-width: 0.6"/>
      </g>
     </g>
    </g>
    <g id="ytick_13">
     <g id="line2d_43">
      <g>
       <use xlink:href="#md1fcb5cee2" x="45.89" y="135.445884" style="stroke: #000000; stroke-width: 0.6"/>
      </g>
     </g>
    </g>
    <g id="ytick_14">
     <g id="line2d_44">
      <g>
       <use xlink:href="#md1fcb5cee2" x="45.89" y="130.482557" style="stroke: #000000; stroke-width: 0.6"/>
      </g>
     </g>
    </g>
    <g id="ytick_15">
     <g id="line2d_45">
      <g>
       <use xlink:href="#md1fcb5cee2" x="45.89" y="125.51923" style="stroke: #000000; stroke-width: 0.6"/>
      </g>
     </g>
    </g>
    <g id="ytick_16">
     <g id="line2d_46">
      <g>
       <use xlink:href="#md1fcb5cee2" x="45.89" y="120.555904" style="stroke: #000000; stroke-width: 0.6"/>
      </g>
     </g>
    </g>
    <g id="ytick_17">
     <g id="line2d_47">
      <g>
       <use xlink:href="#md1fcb5cee2" x="45.89" y="110.62925" style="stroke: #000000; stroke-width: 0.6"/>
      </g>
     </g>
    </g>
    <g id="ytick_18">
     <g id="line2d_48">
      <g>
       <use xlink:href="#md1fcb5cee2" x="45.89" y="105.665923" style="stroke: #000000; stroke-width: 0.6"/>
      </g>
     </g>
    </g>
    <g id="ytick_19">
     <g id="line2d_49">
      <g>
       <use xlink:href="#md1fcb5cee2" x="45.89" y="100.702596" style="stroke: #000000; stroke-width: 0.6"/>
      </g>
     </g>
    </g>
    <g id="ytick_20">
     <g id="line2d_50">
      <g>
       <use xlink:href="#md1fcb5cee2" x="45.89" y="95.739269" style="stroke: #000000; stroke-width: 0.6"/>
      </g>
     </g>
    </g>
    <g id="ytick_21">
     <g id="line2d_51">
      <g>
       <use xlink:href="#md1fcb5cee2" x="45.89" y="85.812615" style="stroke: #000000; stroke-width: 0.6"/>
      </g>
     </g>
    </g>
    <g id="ytick_22">
     <g id="line2d_52">
      <g>
       <use xlink:href="#md1fcb5cee2" x="45.89" y="80.849288" style="stroke: #000000; stroke-width: 0.6"/>
      </g>
     </g>
    </g>
    <g id="ytick_23">
     <g id="line2d_53">
      <g>
       <use xlink:href="#md1fcb5cee2" x="45.89" y="75.885961" style="stroke: #000000; stroke-width: 0.6"/>
      </g>
     </g>
    </g>
    <g id="ytick_24">
     <g id="line2d_54">
      <g>
       <use xlink:href="#md1fcb5cee2" x="45.89" y="70.922635" style="stroke: #000000; stroke-width: 0.6"/>
      </g>
     </g>
    </g>
    <g id="ytick_25">
     <g id="line2d_55">
      <g>
       <use xlink:href="#md1fcb5cee2" x="45.89" y="60.995981" style="stroke: #000000; stroke-width: 0.6"/>
      </g>
     </g>
    </g>
    <g id="ytick_26">
     <g id="line2d_56">
      <g>
       <use xlink:href="#md1fcb5cee2" x="45.89" y="56.032654" style="stroke: #000000; stroke-width: 0.6"/>
      </g>
     </g>
    </g>
    <g id="ytick_27">
     <g id="line2d_57">
      <g>
       <use xlink:href="#md1fcb5cee2" x="45.89" y="51.069327" style="stroke: #000000; stroke-width: 0.6"/>
      </g>
     </g>
    </g>
    <g id="ytick_28">
     <g id="line2d_58">
      <g>
       <use xlink:href="#md1fcb5cee2" x="45.89" y="46.106" style="stroke: #000000; stroke-width: 0.6"/>
      </g>
     </g>
    </g>
    <g id="ytick_29">
     <g id="line2d_59">
      <g>
       <use xlink:href="#md1fcb5cee2" x="45.89" y="36.179346" style="stroke: #000000; stroke-width: 0.6"/>
      </g>
     </g>
    </g>
    <g id="ytick_30">
     <g id="line2d_60">
      <g>
       <use xlink:href="#md1fcb5cee2" x="45.89" y="31.216019" style="stroke: #000000; stroke-width: 0.6"/>
      </g>
     </g>
    </g>
    <g id="ytick_31">
     <g id="line2d_61">
      <g>
       <use xlink:href="#md1fcb5cee2" x="45.89" y="26.252692" style="stroke: #000000; stroke-width: 0.6"/>
      </g>
     </g>
    </g>
    <g id="text_14">
     <!-- Value -->
     <g transform="translate(18.169688 113.480938) rotate(-90) scale(0.1 -0.1)">
      <defs>
       <path id="IBMPlexSans-56" d="M 1613 0 
L 128 4467 
L 704 4467 
L 1440 2214 
L 1933 538 
L 1965 538 
L 2470 2214 
L 3213 4467 
L 3770 4467 
L 2266 0 
L 1613 0 
z
" transform="scale(0.015625)"/>
       <path id="IBMPlexSans-6c" d="M 1088 0 
Q 819 0 681 150 
Q 544 301 544 531 
L 544 4736 
L 1056 4736 
L 1056 448 
L 1542 448 
L 1542 0 
L 1088 0 
z
" transform="scale(0.015625)"/>
       <path id="IBMPlexSans-75" d="M 2579 538 
L 2554 538 
Q 2502 422 2428 310 
Q 2355 198 2246 112 
Q 2138 26 1984 -25 
Q 1830 -77 1626 -77 
Q 1114 -77 813 252 
Q 512 582 512 1184 
L 512 3302 
L 1024 3302 
L 1024 1274 
Q 1024 384 1779 384 
Q 1933 384 2077 422 
Q 2221 461 2333 537 
Q 2445 614 2512 732 
Q 2579 851 2579 1018 
L 2579 3302 
L 3091 3302 
L 3091 0 
L 2579 0 
L 2579 538 
z
" transform="scale(0.015625)"/>
       <path id="IBMPlexSans-65" d="M 1786 -77 
Q 1446 -77 1174 44 
Q 902 166 707 393 
Q 512 621 406 937 
Q 301 1254 301 1651 
Q 301 2042 406 2362 
Q 512 2682 707 2909 
Q 902 3136 1174 3257 
Q 1446 3379 1786 3379 
Q 2118 3379 2380 3257 
Q 2643 3136 2828 2921 
Q 3014 2707 3113 2412 
Q 3213 2118 3213 1766 
L 3213 1523 
L 838 1523 
L 838 1370 
Q 838 1158 905 976 
Q 973 794 1097 659 
Q 1222 525 1404 448 
Q 1587 371 1818 371 
Q 2131 371 2364 518 
Q 2598 666 2726 941 
L 3091 678 
Q 2931 339 2592 131 
Q 2253 -77 1786 -77 
z
M 1786 2950 
Q 1574 2950 1401 2876 
Q 1229 2803 1104 2668 
Q 979 2534 908 2352 
Q 838 2170 838 1952 
L 838 1907 
L 2662 1907 
L 2662 1978 
Q 2662 2419 2422 2684 
Q 2182 2950 1786 2950 
z
" transform="scale(0.015625)"/>
      </defs>
      <use xlink:href="#IBMPlexSans-56"/>
      <use xlink:href="#IBMPlexSans-61" transform="translate(60.899994 0)"/>
      <use xlink:href="#IBMPlexSans-6c" transform="translate(114.299988 0)"/>
      <use xlink:href="#IBMPlexSans-75" transform="translate(141.499985 0)"/>
      <use xlink:href="#IBMPlexSans-65" transform="translate(198.299973 0)"/>
     </g>
    </g>
   </g>
   <g id="line2d_62">
    <path d="M 45.89 103.006629 
L 46.612267 100.146552 
L 47.334534 86.815467 
L 48.056801 84.357722 
L 48.779068 95.510454 
L 50.223602 75.644424 
L 50.945869 81.416575 
L 51.668136 64.701562 
L 52.390403 82.672805 
L 53.11267 108.578705 
L 53.834937 114.734686 
L 54.557204 111.334295 
L 55.279471 118.680773 
L 56.001739 128.07736 
L 56.724006 153.868346 
L 57.446273 153.785626 
L 58.16854 160.917526 
L 58.890807 152.511341 
L 59.613074 155.928588 
L 60.335341 128.266115 
L 61.057608 141.651785 
L 61.779875 146.014928 
L 62.502142 118.408412 
L 63.224409 114.93781 
L 63.946676 106.485277 
L 64.668943 89.084065 
L 65.39121 103.435495 
L 66.113477 80.831517 
L 66.835744 87.736843 
L 67.558011 80.173434 
L 68.280278 59.375475 
L 69.002545 83.577593 
L 69.724812 82.164578 
L 70.447079 118.299276 
L 71.169346 117.394616 
L 71.891613 123.068984 
L 72.61388 104.857917 
L 73.336147 112.128379 
L 74.058414 144.508794 
L 74.780682 150.662555 
L 75.502949 162.18715 
L 76.225216 149.332812 
L 76.947483 149.175828 
L 78.392017 155.232198 
L 79.114284 139.287671 
L 79.836551 115.788846 
L 80.558818 111.601479 
L 81.281085 98.597999 
L 82.003352 70.83952 
L 82.725619 83.639636 
L 83.447886 86.896424 
L 84.170153 81.763091 
L 84.89242 74.638011 
L 85.614687 68.671387 
L 86.336954 80.975975 
L 87.059221 81.423593 
L 87.781488 102.642664 
L 88.503755 102.589667 
L 89.948289 128.942551 
L 90.670556 125.026364 
L 91.392823 128.410608 
L 92.11509 158.783722 
L 92.837357 166.479463 
L 93.559624 161.455642 
L 95.004159 140.805167 
L 95.726426 149.600436 
L 96.448693 129.997436 
L 97.17096 133.633721 
L 97.893227 111.805694 
L 98.615494 82.991977 
L 99.337761 72.889625 
L 100.060028 85.997475 
L 100.782295 84.187388 
L 101.504562 77.178599 
L 102.226829 74.095606 
L 102.949096 78.611962 
L 103.671363 64.425743 
L 104.39363 77.50707 
L 105.838164 117.355296 
L 106.560431 113.577669 
L 107.282698 118.155256 
L 108.004965 125.523446 
L 108.727232 130.415684 
L 109.449499 143.54877 
L 110.171766 153.87801 
L 110.894033 147.491295 
L 111.6163 136.548135 
L 112.338567 137.668705 
L 113.060834 140.386129 
L 113.783102 145.169961 
L 114.505369 130.952771 
L 115.227636 94.796632 
L 115.949903 86.237002 
L 116.67217 85.636209 
L 117.394437 86.934504 
L 118.116704 92.102387 
L 118.838971 78.871015 
L 119.561238 68.75208 
L 120.283505 75.126035 
L 121.005772 64.686594 
L 121.728039 87.412564 
L 122.450306 89.329806 
L 123.172573 108.319148 
L 123.89484 98.337099 
L 124.617107 116.175065 
L 125.339374 124.443471 
L 126.061641 136.846246 
L 126.783908 146.082285 
L 127.506175 153.656167 
L 128.228442 159.767605 
L 128.950709 139.231272 
L 129.672976 136.419285 
L 130.395243 142.024561 
L 131.11751 143.987151 
L 131.839777 116.533478 
L 132.562045 113.535673 
L 133.284312 98.012212 
L 134.006579 77.353187 
L 135.451113 85.238036 
L 136.17338 74.848749 
L 136.895647 67.036657 
L 137.617914 60.692842 
L 138.340181 60.136226 
L 139.062448 80.068513 
L 139.784715 103.552044 
L 140.506982 111.191372 
L 141.229249 114.011551 
L 141.951516 110.210271 
L 142.673783 129.332355 
L 143.39605 151.728044 
L 144.118317 152.294832 
L 144.840584 166.826874 
L 145.562851 164.123824 
L 146.285118 136.820856 
L 147.007385 140.886016 
L 147.729652 134.143835 
L 148.451919 142.121549 
L 149.174186 136.904507 
L 149.896453 118.89456 
L 150.61872 94.555289 
L 151.340987 83.139153 
L 152.063255 87.566337 
L 152.785522 85.773783 
L 153.507789 91.109135 
L 154.230056 69.573933 
L 154.952323 75.750375 
L 155.67459 67.765282 
L 156.396857 75.99617 
L 157.119124 89.836927 
L 157.841391 94.737974 
L 158.563658 120.726798 
L 159.285925 105.130283 
L 160.008192 111.333343 
L 160.730459 129.792748 
L 161.452726 158.877286 
L 162.174993 152.818002 
L 162.89726 134.750604 
L 163.619527 149.754823 
L 164.341794 131.053237 
L 165.064061 128.563827 
L 165.786328 142.362796 
L 166.508595 123.218634 
L 167.230862 116.616703 
L 167.953129 95.77588 
L 168.675396 86.194309 
L 169.397663 79.01129 
L 170.11993 83.365626 
L 170.842197 71.576824 
L 171.564465 75.689506 
L 172.286732 62.381358 
L 173.008999 58.174154 
L 173.731266 76.019872 
L 174.453533 106.835677 
L 175.1758 101.556418 
L 175.898067 111.709403 
L 176.620334 106.91712 
L 178.064868 127.022503 
L 178.787135 150.098026 
L 179.509402 168.692727 
L 180.231669 157.804628 
L 180.953936 132.171532 
L 181.676203 135.530064 
L 182.39847 127.379911 
L 183.120737 134.148268 
L 183.843004 132.142964 
L 184.565271 99.592746 
L 185.287538 94.747398 
L 186.009805 94.400341 
L 186.732072 64.085416 
L 187.454339 95.921113 
L 188.176606 72.94945 
L 188.898873 60.70673 
L 189.62114 59.316443 
L 190.343408 76.869567 
L 191.065675 71.645411 
L 191.787942 106.713349 
L 192.510209 115.51949 
L 193.232476 109.847538 
L 193.954743 102.923245 
L 195.399277 129.071493 
L 196.121544 153.276073 
L 196.843811 155.180398 
L 197.566078 155.079342 
L 198.288345 138.981364 
L 199.010612 128.198402 
L 199.732879 137.091705 
L 200.455146 131.65156 
L 201.177413 129.841533 
L 201.89968 111.068938 
L 202.621947 87.452054 
L 203.344214 79.576715 
L 204.066481 74.047386 
L 204.788748 79.375572 
L 205.511015 63.738011 
L 206.233282 68.337941 
L 206.955549 61.110575 
L 207.677816 71.087794 
L 208.400083 78.03994 
L 209.12235 89.90475 
L 209.844618 110.035017 
L 210.566885 106.532065 
L 211.289152 102.45134 
L 212.011419 118.280944 
L 212.733686 137.979961 
L 213.455953 141.735814 
L 214.17822 152.18352 
L 214.900487 142.668285 
L 215.622754 126.908626 
L 216.345021 123.094704 
L 217.067288 136.451755 
L 217.789555 138.110506 
L 219.234089 106.654525 
L 219.956356 100.895448 
L 220.678623 67.638103 
L 221.40089 77.320878 
L 222.123157 74.227949 
L 222.845424 84.434559 
L 223.567691 56.120478 
L 224.289958 62.805627 
L 225.012225 63.152943 
L 225.734492 87.65045 
L 226.456759 95.238678 
L 227.179026 105.241745 
L 227.901293 106.549598 
L 228.623561 103.543659 
L 229.345828 115.894167 
L 230.068095 125.857632 
L 230.790362 151.473251 
L 231.512629 159.328493 
L 232.957163 129.958779 
L 233.67943 121.362559 
L 234.401697 126.81452 
L 235.123964 146.34971 
L 236.568498 93.800804 
L 237.290765 85.292453 
L 238.735299 74.170658 
L 239.457566 82.464242 
L 240.179833 69.95135 
L 240.9021 64.81522 
L 241.624367 47.062478 
L 242.346634 57.639904 
L 243.068901 81.613506 
L 244.513435 95.569594 
L 245.235702 108.409073 
L 245.957969 108.985693 
L 246.680236 132.512843 
L 247.402503 125.40381 
L 248.124771 151.370978 
L 248.847038 166.72137 
L 249.569305 156.803862 
L 250.291572 135.30417 
L 251.013839 123.973133 
L 251.736106 132.544577 
L 252.458373 128.700975 
L 253.18064 130.79617 
L 253.902907 113.667046 
L 254.625174 78.171486 
L 255.347441 71.483817 
L 256.069708 75.70683 
L 256.791975 68.179778 
L 257.514242 80.79848 
L 258.236509 66.854689 
L 258.958776 48.799361 
L 259.681043 46.68367 
L 260.40331 75.168797 
L 261.125577 79.506402 
L 261.847844 106.031212 
L 262.570111 100.729275 
L 263.292378 106.117107 
L 264.014645 126.182605 
L 264.736912 129.216388 
L 265.459179 139.058175 
L 266.181446 151.03168 
L 266.903713 143.167246 
L 267.625981 122.281312 
L 268.348248 137.947679 
L 269.070515 142.038357 
L 270.515049 130.511695 
L 271.237316 92.664816 
L 271.959583 81.467371 
L 272.68185 80.588327 
L 273.404117 79.061818 
L 274.126384 55.431662 
L 274.848651 77.266325 
L 275.570918 68.406411 
L 276.293185 53.182456 
L 277.015452 54.621583 
L 277.737719 72.588441 
L 278.459986 97.782454 
L 279.182253 109.182998 
L 279.90452 97.753333 
L 280.626787 104.233772 
L 281.349054 125.585898 
L 282.071321 121.426237 
L 282.793588 139.237505 
L 283.515855 150.72907 
L 284.238122 143.587705 
L 284.960389 129.935761 
L 285.682656 132.765686 
L 286.404924 139.934335 
L 287.127191 127.826884 
L 287.849458 131.324171 
L 288.571725 98.786304 
L 289.293992 93.510113 
L 290.016259 73.901109 
L 290.738526 74.504234 
L 291.460793 62.467956 
L 292.18306 79.655869 
L 292.905327 72.274738 
L 293.627594 59.266138 
L 294.349861 66.746878 
L 295.794395 86.892218 
L 296.516662 93.812831 
L 297.238929 88.843511 
L 297.961196 108.322194 
L 298.683463 92.728884 
L 299.40573 114.394312 
L 300.127997 145.532411 
L 300.850264 165.002102 
L 301.572531 141.276148 
L 302.294798 130.126493 
L 303.017065 143.776129 
L 303.739332 128.353818 
L 304.461599 130.725507 
L 305.183866 125.467133 
L 305.906134 96.037348 
L 306.628401 74.302863 
L 307.350668 75.789417 
L 308.072935 70.793221 
L 308.795202 79.621868 
L 309.517469 76.59515 
L 310.239736 60.155962 
L 310.962003 49.565821 
L 311.68427 61.581746 
L 312.406537 88.73428 
L 313.128804 84.67125 
L 313.851071 110.453888 
L 315.295605 88.600163 
L 317.462406 153.902955 
L 318.184673 138.235763 
L 318.90694 139.790893 
L 319.629207 125.655299 
L 320.351474 118.76927 
L 321.073741 128.275652 
L 321.796008 130.54025 
L 322.518275 125.677849 
L 323.240542 122.659149 
L 323.962809 92.096506 
L 324.685076 71.695289 
L 325.407344 72.813855 
L 326.129611 70.749784 
L 326.851878 70.689397 
L 328.296412 46.604869 
L 329.018679 62.984521 
L 329.740946 73.398752 
L 330.463213 100.005431 
L 331.18548 90.331688 
L 331.907747 98.927577 
L 332.630014 97.20561 
L 333.352281 98.903677 
L 334.074548 119.129123 
L 334.796815 142.478536 
L 335.519082 140.092862 
L 336.241349 149.33107 
L 336.963616 125.45053 
L 337.685883 123.638728 
L 338.40815 138.966162 
L 339.130417 117.293695 
L 339.852684 122.874037 
L 340.574951 93.630634 
L 341.297218 82.928753 
L 342.019485 62.787584 
L 342.741752 60.746589 
L 343.464019 78.941328 
L 344.186287 80.147353 
L 344.908554 59.74083 
L 345.630821 45.157182 
L 346.353088 58.16712 
L 347.075355 74.835876 
L 347.797622 83.411825 
L 348.519889 117.141671 
L 349.242156 103.169734 
L 349.964423 110.162015 
L 350.68669 107.199898 
L 351.408957 131.655035 
L 352.131224 149.341573 
L 352.853491 147.598776 
L 353.575758 148.611668 
L 354.298025 127.786022 
L 355.020292 128.760503 
L 355.742559 128.735381 
L 356.464826 131.59645 
L 357.187093 109.847735 
L 357.90936 98.535014 
L 358.631627 74.904691 
L 359.353894 65.619838 
L 360.076161 75.525486 
L 360.798428 67.525506 
L 361.520695 65.161775 
L 362.242962 55.434708 
L 362.965229 53.452961 
L 363.687497 57.58789 
L 365.132031 69.809748 
L 365.854298 101.769823 
L 366.576565 93.249305 
L 367.298832 101.593746 
L 368.021099 102.558868 
L 368.743366 121.917762 
L 369.465633 132.15387 
L 370.1879 164.778987 
L 370.910167 141.161771 
L 371.632434 134.05268 
L 372.354701 123.491549 
L 373.076968 130.322008 
L 373.799235 130.036755 
L 374.521502 110.570418 
L 375.243769 82.572098 
L 375.966036 98.840402 
L 376.688303 70.510468 
L 377.41057 66.207797 
L 378.132837 70.741049 
L 378.855104 69.337746 
L 379.577371 66.853706 
L 380.299638 56.510214 
L 381.021905 48.01989 
L 381.744172 60.273827 
L 382.466439 84.342009 
L 383.188707 100.822164 
L 383.910974 95.523034 
L 385.355508 103.347432 
L 386.800042 143.683046 
L 387.522309 141.559617 
L 388.244576 144.474707 
L 388.966843 119.598004 
L 389.68911 112.892442 
L 390.411377 132.71412 
L 391.133644 121.137343 
L 391.855911 122.034131 
L 392.578178 87.760589 
L 393.300445 70.093191 
L 394.022712 68.920179 
L 394.744979 60.131097 
L 395.467246 72.993091 
L 396.189513 70.562755 
L 397.634047 49.547995 
L 398.356314 54.832505 
L 399.078581 66.141106 
L 399.800848 88.64819 
L 400.523115 87.911048 
L 401.245382 87.64183 
L 401.96765 100.573356 
L 402.689917 117.04209 
L 403.412184 117.806441 
L 404.134451 129.584621 
L 404.856718 143.201893 
L 405.578985 144.279492 
L 406.301252 122.724287 
L 407.023519 109.351111 
L 407.745786 136.916737 
L 408.468053 119.721216 
L 409.19032 115.996533 
L 409.912587 101.117087 
L 410.634854 72.122589 
L 411.357121 75.883616 
L 412.079388 64.334953 
L 412.801655 59.013756 
L 413.523922 63.467437 
L 414.246189 61.316034 
L 414.968456 60.753633 
L 415.690723 60.97621 
L 416.41299 80.005418 
L 417.135257 71.167172 
L 417.857524 94.468948 
L 418.579791 102.031507 
L 419.302058 105.554155 
L 420.024325 113.369753 
L 420.746592 124.703352 
L 421.46886 146.617522 
L 422.191127 128.513751 
L 422.913394 139.273027 
L 423.635661 129.543976 
L 424.357928 117.418329 
L 425.080195 111.155252 
L 425.802462 112.429713 
L 426.524729 116.300672 
L 427.246996 91.852279 
L 427.969263 73.727511 
L 428.69153 61.276115 
L 429.413797 63.64932 
L 430.136064 74.825084 
L 430.858331 73.172326 
L 431.580598 52.491403 
L 432.302865 55.325461 
L 433.025132 40.290193 
L 434.469666 89.722892 
L 435.191933 94.013441 
L 435.9142 97.034503 
L 436.636467 95.873418 
L 437.358734 97.389621 
L 438.081001 131.964091 
L 438.803268 149.979924 
L 439.525535 137.484394 
L 440.247803 134.035924 
L 440.97007 121.50978 
L 441.692337 115.407276 
L 442.414604 122.310076 
L 443.136871 115.340355 
L 443.859138 118.324584 
L 444.581405 92.281982 
L 445.303672 80.031364 
L 446.025939 72.640646 
L 446.748206 59.978362 
L 447.470473 62.56903 
L 448.19274 77.25558 
L 449.637274 43.347546 
L 450.359541 41.478845 
L 451.081808 69.270275 
L 451.804075 82.459554 
L 452.526342 101.148559 
L 453.248609 73.571974 
L 453.970876 90.3664 
L 454.693143 96.778405 
L 455.41541 115.318715 
L 456.137677 128.135178 
L 456.859944 134.481343 
L 457.582211 134.218857 
L 458.304478 116.193152 
L 459.026745 117.135059 
L 459.749013 110.316511 
L 460.47128 125.777518 
L 461.193547 114.713211 
L 461.915814 86.846321 
L 462.638081 63.326736 
L 463.360348 62.155119 
L 464.082615 68.87247 
L 464.804882 66.698586 
L 465.527149 65.514165 
L 466.249416 37.691888 
L 466.971683 37.83782 
L 467.69395 39.040281 
L 469.138484 84.231309 
L 469.860751 80.898606 
L 470.583018 78.958637 
L 471.305285 88.578326 
L 472.027552 102.626684 
L 472.749819 111.177169 
L 473.472086 136.853449 
L 474.194353 132.323852 
L 474.91662 136.028461 
L 475.638887 127.964023 
L 476.361154 112.514413 
L 477.083421 116.460955 
L 477.805688 105.131164 
L 478.527955 111.77626 
L 479.250223 90.601375 
L 479.97249 80.347856 
L 480.694757 76.159951 
L 481.417024 75.833193 
L 482.139291 61.372461 
L 482.861558 69.572293 
L 483.583825 42.432243 
L 484.306092 32.947273 
L 485.028359 49.586208 
L 485.750626 49.979919 
L 486.472893 77.414259 
L 487.19516 80.265601 
L 487.917427 91.959991 
L 488.639694 84.777325 
L 489.361961 108.476448 
L 490.084228 113.596478 
L 490.806495 136.516704 
L 491.528762 137.9952 
L 492.251029 125.03492 
L 492.973296 118.461156 
L 493.695563 116.292645 
L 494.41783 112.565868 
L 495.140097 112.336178 
L 495.862364 119.009565 
L 496.584631 85.621941 
L 497.306898 65.872757 
L 498.029166 66.847057 
L 498.751433 58.710093 
L 499.4737 73.686534 
L 500.195967 49.103807 
L 500.918234 51.597829 
L 501.640501 43.12825 
L 502.362768 37.554145 
L 503.085035 62.396916 
L 503.807302 73.654379 
L 504.529569 95.446096 
L 505.251836 93.528763 
L 505.974103 101.292509 
L 506.69637 102.010728 
L 507.418637 109.563629 
L 508.140904 130.440411 
L 508.863171 129.44708 
L 509.585438 136.385499 
L 510.307705 125.329947 
L 511.029972 118.212223 
L 511.752239 112.728711 
L 512.474506 114.669768 
L 513.196773 107.819363 
L 513.91904 84.155142 
L 514.641307 71.002848 
L 516.085841 50.875229 
L 516.808108 67.199729 
L 517.530376 57.466836 
L 518.252643 36.834916 
L 518.97491 40.792025 
L 519.697177 40.215767 
L 520.419444 64.858285 
L 521.141711 62.554152 
L 521.863978 103.404029 
L 522.586245 96.739295 
L 523.308512 97.778871 
L 524.030779 87.408708 
L 524.753046 113.622794 
L 525.475313 133.065528 
L 526.19758 144.580528 
L 526.919847 125.04179 
L 527.642114 116.912682 
L 528.364381 118.912744 
L 529.086648 127.103251 
L 529.808915 124.540731 
L 531.975716 68.338469 
L 532.697983 60.393732 
L 533.42025 72.765276 
L 534.142517 61.479205 
L 534.864784 65.521443 
L 535.587051 47.53204 
L 536.309318 37.095742 
L 537.031586 49.514528 
L 537.753853 66.96563 
L 538.47612 68.730337 
L 539.198387 83.043754 
L 539.920654 92.041285 
L 540.642921 111.277671 
L 541.365188 98.841203 
L 542.809722 121.769861 
L 543.531989 139.091844 
L 544.254256 131.54742 
L 544.976523 120.066433 
L 545.69879 106.522608 
L 546.421057 123.751945 
L 547.143324 116.178412 
L 547.865591 112.612363 
L 548.587858 84.80594 
L 549.310125 79.464969 
L 550.032392 55.472007 
L 550.754659 62.301912 
L 551.476926 62.517596 
L 552.199193 52.92733 
L 552.92146 38.334819 
L 553.643727 52.199426 
L 554.365994 36.019263 
L 555.088261 54.200748 
L 555.810529 77.329075 
L 556.532796 74.217452 
L 557.255063 84.904449 
L 557.97733 78.318056 
L 558.699597 101.896112 
L 559.421864 120.714402 
L 560.144131 120.009615 
L 560.866398 116.939537 
L 561.588665 121.048872 
L 562.310932 109.141469 
L 563.033199 115.296431 
L 563.755466 123.879375 
L 564.477733 116.027717 
L 565.2 93.55768 
L 565.2 93.55768 
" clip-path="url(#p0e06919eb8)" style="fill: none; stroke: #65489d; stroke-width: 2; stroke-linecap: square"/>
   </g>
   <g id="line2d_63">
    <path d="M 54.557204 114.693507 
L 63.224409 114.693507 
L 63.224409 115.917024 
L 80.558818 115.917024 
L 80.558818 113.902791 
L 97.893227 113.902791 
L 97.893227 110.342219 
L 115.227636 110.342219 
L 115.227636 109.654486 
L 132.562045 109.654486 
L 132.562045 112.188579 
L 149.896453 112.188579 
L 149.896453 109.295054 
L 167.230862 109.295054 
L 167.230862 108.912402 
L 184.565271 108.912402 
L 184.565271 108.321022 
L 201.89968 108.321022 
L 201.89968 105.109849 
L 219.234089 105.109849 
L 219.234089 105.586043 
L 236.568498 105.586043 
L 236.568498 105.09962 
L 253.902907 105.09962 
L 253.902907 103.142629 
L 271.237316 103.142629 
L 271.237316 102.774376 
L 288.571725 102.774376 
L 288.571725 102.250167 
L 305.906134 102.250167 
L 305.906134 101.065457 
L 323.240542 101.065457 
L 323.240542 100.287066 
L 340.574951 100.287066 
L 340.574951 100.920897 
L 357.90936 100.920897 
L 357.90936 97.276761 
L 375.243769 97.276761 
L 375.243769 97.290178 
L 392.578178 97.290178 
L 392.578178 95.099998 
L 409.912587 95.099998 
L 409.912587 96.314078 
L 427.246996 96.314078 
L 427.246996 94.666982 
L 444.581405 94.666982 
L 444.581405 91.692826 
L 461.915814 91.692826 
L 461.915814 88.107551 
L 479.250223 88.107551 
L 479.250223 90.147296 
L 496.584631 90.147296 
L 496.584631 89.377018 
L 513.91904 89.377018 
L 513.91904 88.775333 
L 531.253449 88.775333 
L 531.253449 89.630587 
L 548.587858 89.630587 
L 548.587858 84.646844 
L 557.255063 84.646844 
" clip-path="url(#p0e06919eb8)" style="fill: none; stroke: #388ecc; stroke-width: 2; stroke-linecap: square"/>
   </g>
   <g id="patch_3">
    <path d="M 45.89 175.48 
L 45.89 26.16 
" style="fill: none; stroke: #000000; stroke-width: 0.8; stroke-linejoin: miter; stroke-linecap: square"/>
   </g>
   <g id="patch_4">
    <path d="M 45.89 175.48 
L 565.2 175.48 
" style="fill: none; stroke: #000000; stroke-width: 0.8; stroke-linejoin: miter; stroke-linecap: square"/>
   </g>
   <g id="text_15">
    <!-- Resampled (daily averages) -->
    <g transform="translate(231.255625 20.16) scale(0.12 -0.12)">
     <defs>
      <path id="IBMPlexSans-52" d="M 1133 0 
L 595 0 
L 595 4467 
L 2374 4467 
Q 2963 4467 3292 4140 
Q 3622 3814 3622 3200 
Q 3622 2707 3395 2390 
Q 3168 2074 2726 1971 
L 3750 0 
L 3142 0 
L 2176 1920 
L 1133 1920 
L 1133 0 
z
M 2374 2381 
Q 2694 2381 2870 2547 
Q 3046 2714 3046 3021 
L 3046 3354 
Q 3046 3661 2870 3827 
Q 2694 3994 2374 3994 
L 1133 3994 
L 1133 2381 
L 2374 2381 
z
" transform="scale(0.015625)"/>
      <path id="IBMPlexSans-6d" d="M 544 0 
L 544 3302 
L 1056 3302 
L 1056 2765 
L 1082 2765 
Q 1139 2893 1212 3005 
Q 1286 3117 1392 3200 
Q 1498 3283 1638 3331 
Q 1779 3379 1971 3379 
Q 2298 3379 2573 3222 
Q 2848 3066 2982 2707 
L 2995 2707 
Q 3085 2976 3331 3177 
Q 3578 3379 4000 3379 
Q 4506 3379 4790 3049 
Q 5075 2720 5075 2118 
L 5075 0 
L 4563 0 
L 4563 2029 
Q 4563 2470 4390 2694 
Q 4218 2918 3840 2918 
Q 3686 2918 3548 2880 
Q 3411 2842 3302 2765 
Q 3194 2688 3130 2569 
Q 3066 2451 3066 2291 
L 3066 0 
L 2554 0 
L 2554 2029 
Q 2554 2470 2381 2694 
Q 2208 2918 1843 2918 
Q 1690 2918 1549 2880 
Q 1408 2842 1299 2765 
Q 1190 2688 1123 2569 
Q 1056 2451 1056 2291 
L 1056 0 
L 544 0 
z
" transform="scale(0.015625)"/>
      <path id="IBMPlexSans-70" d="M 544 3302 
L 1056 3302 
L 1056 2765 
L 1082 2765 
Q 1210 3078 1456 3228 
Q 1702 3379 2048 3379 
Q 2355 3379 2604 3257 
Q 2854 3136 3030 2912 
Q 3206 2688 3299 2368 
Q 3392 2048 3392 1651 
Q 3392 1254 3299 934 
Q 3206 614 3030 390 
Q 2854 166 2604 44 
Q 2355 -77 2048 -77 
Q 1376 -77 1082 538 
L 1056 538 
L 1056 -1280 
L 544 -1280 
L 544 3302 
z
M 1907 384 
Q 2342 384 2592 656 
Q 2842 928 2842 1370 
L 2842 1933 
Q 2842 2374 2592 2646 
Q 2342 2918 1907 2918 
Q 1734 2918 1577 2870 
Q 1421 2822 1305 2739 
Q 1190 2656 1123 2537 
Q 1056 2419 1056 2285 
L 1056 1056 
Q 1056 896 1123 771 
Q 1190 646 1305 560 
Q 1421 474 1577 429 
Q 1734 384 1907 384 
z
" transform="scale(0.015625)"/>
      <path id="IBMPlexSans-64" d="M 2656 538 
L 2630 538 
Q 2330 -77 1664 -77 
Q 1357 -77 1107 44 
Q 858 166 682 390 
Q 506 614 413 934 
Q 320 1254 320 1651 
Q 320 2048 413 2368 
Q 506 2688 682 2912 
Q 858 3136 1107 3257 
Q 1357 3379 1664 3379 
Q 2010 3379 2256 3228 
Q 2502 3078 2630 2765 
L 2656 2765 
L 2656 4736 
L 3168 4736 
L 3168 0 
L 2656 0 
L 2656 538 
z
M 1805 384 
Q 1978 384 2134 429 
Q 2291 474 2406 560 
Q 2522 646 2589 771 
Q 2656 896 2656 1056 
L 2656 2285 
Q 2656 2419 2589 2537 
Q 2522 2656 2406 2739 
Q 2291 2822 2134 2870 
Q 1978 2918 1805 2918 
Q 1370 2918 1120 2646 
Q 870 2374 870 1933 
L 870 1370 
Q 870 928 1120 656 
Q 1370 384 1805 384 
z
" transform="scale(0.015625)"/>
      <path id="IBMPlexSans-20" transform="scale(0.015625)"/>
      <path id="IBMPlexSans-28" d="M 531 1997 
Q 531 2458 620 2886 
Q 710 3315 867 3683 
Q 1024 4051 1235 4352 
Q 1446 4653 1690 4864 
L 2176 4864 
Q 1907 4621 1692 4313 
Q 1478 4006 1328 3660 
Q 1178 3315 1094 2956 
Q 1011 2598 1011 2266 
L 1011 1715 
Q 1011 1376 1094 1017 
Q 1178 659 1331 313 
Q 1485 -32 1699 -339 
Q 1914 -646 2176 -877 
L 1690 -877 
Q 1453 -678 1241 -377 
Q 1030 -77 873 294 
Q 717 666 624 1098 
Q 531 1530 531 1997 
z
" transform="scale(0.015625)"/>
      <path id="IBMPlexSans-69" d="M 800 4077 
Q 634 4077 560 4157 
Q 486 4237 486 4365 
L 486 4448 
Q 486 4576 560 4656 
Q 634 4736 800 4736 
Q 966 4736 1040 4656 
Q 1114 4576 1114 4448 
L 1114 4365 
Q 1114 4237 1040 4157 
Q 966 4077 800 4077 
z
M 544 3302 
L 1056 3302 
L 1056 0 
L 544 0 
L 544 3302 
z
" transform="scale(0.015625)"/>
      <path id="IBMPlexSans-76" d="M 1274 0 
L 115 3302 
L 627 3302 
L 1203 1664 
L 1562 538 
L 1594 538 
L 1952 1664 
L 2541 3302 
L 3034 3302 
L 1869 0 
L 1274 0 
z
" transform="scale(0.015625)"/>
      <path id="IBMPlexSans-72" d="M 544 0 
L 544 3302 
L 1056 3302 
L 1056 2694 
L 1088 2694 
Q 1178 2931 1408 3116 
Q 1638 3302 2042 3302 
L 2240 3302 
L 2240 2790 
L 1939 2790 
Q 1523 2790 1289 2633 
Q 1056 2477 1056 2240 
L 1056 0 
L 544 0 
z
" transform="scale(0.015625)"/>
      <path id="IBMPlexSans-67" d="M 3328 -365 
Q 3328 -877 2928 -1117 
Q 2528 -1357 1728 -1357 
Q 954 -1357 614 -1145 
Q 275 -934 275 -544 
Q 275 -275 416 -124 
Q 557 26 800 96 
L 800 166 
Q 506 307 506 627 
Q 506 877 666 1008 
Q 826 1139 1075 1203 
L 1075 1229 
Q 781 1370 617 1632 
Q 454 1894 454 2240 
Q 454 2490 544 2701 
Q 634 2912 797 3062 
Q 960 3213 1187 3296 
Q 1414 3379 1696 3379 
Q 2048 3379 2323 3251 
L 2323 3309 
Q 2323 3501 2412 3625 
Q 2502 3750 2707 3750 
L 3200 3750 
L 3200 3302 
L 2573 3302 
L 2573 3091 
Q 2752 2938 2851 2723 
Q 2950 2509 2950 2240 
Q 2950 1990 2860 1779 
Q 2771 1568 2608 1417 
Q 2445 1267 2214 1184 
Q 1984 1101 1702 1101 
Q 1542 1101 1382 1133 
Q 1216 1088 1081 1001 
Q 947 915 947 762 
Q 947 614 1088 563 
Q 1229 512 1453 512 
L 2157 512 
Q 2771 512 3049 278 
Q 3328 45 3328 -365 
z
M 2848 -403 
Q 2848 -205 2697 -86 
Q 2547 32 2163 32 
L 1062 32 
Q 755 -109 755 -416 
Q 755 -634 918 -787 
Q 1082 -941 1472 -941 
L 1946 -941 
Q 2374 -941 2611 -806 
Q 2848 -672 2848 -403 
z
M 1702 1510 
Q 2029 1510 2221 1667 
Q 2413 1824 2413 2150 
L 2413 2330 
Q 2413 2656 2221 2813 
Q 2029 2970 1702 2970 
Q 1376 2970 1184 2813 
Q 992 2656 992 2330 
L 992 2150 
Q 992 1824 1184 1667 
Q 1376 1510 1702 1510 
z
" transform="scale(0.015625)"/>
      <path id="IBMPlexSans-29" d="M 1613 1997 
Q 1613 1530 1520 1098 
Q 1427 666 1270 294 
Q 1114 -77 902 -377 
Q 691 -678 454 -877 
L -32 -877 
Q 230 -646 444 -339 
Q 659 -32 812 313 
Q 966 659 1049 1017 
Q 1133 1376 1133 1715 
L 1133 2266 
Q 1133 2598 1049 2956 
Q 966 3315 816 3660 
Q 666 4006 451 4313 
Q 237 4621 -32 4864 
L 454 4864 
Q 698 4653 909 4352 
Q 1120 4051 1277 3683 
Q 1434 3315 1523 2886 
Q 1613 2458 1613 1997 
z
" transform="scale(0.015625)"/>
     </defs>
     <use xlink:href="#IBMPlexSans-52"/>
     <use xlink:href="#IBMPlexSans-65" transform="translate(63.999985 0)"/>
     <use xlink:href="#IBMPlexSans-73" transform="translate(118.899979 0)"/>
     <use xlink:href="#IBMPlexSans-61" transform="translate(167.599976 0)"/>
     <use xlink:href="#IBMPlexSans-6d" transform="translate(220.999969 0)"/>
     <use xlink:href="#IBMPlexSans-70" transform="translate(308.299957 0)"/>
     <use xlink:href="#IBMPlexSans-6c" transform="translate(366.299942 0)"/>
     <use xlink:href="#IBMPlexSans-65" transform="translate(393.499939 0)"/>
     <use xlink:href="#IBMPlexSans-64" transform="translate(448.399933 0)"/>
     <use xlink:href="#IBMPlexSans-20" transform="translate(506.399918 0)"/>
     <use xlink:href="#IBMPlexSans-28" transform="translate(529.999908 0)"/>
     <use xlink:href="#IBMPlexSans-64" transform="translate(563.499893 0)"/>
     <use xlink:href="#IBMPlexSans-61" transform="translate(621.499878 0)"/>
     <use xlink:href="#IBMPlexSans-69" transform="translate(674.899872 0)"/>
     <use xlink:href="#IBMPlexSans-6c" transform="translate(699.899857 0)"/>
     <use xlink:href="#IBMPlexSans-79" transform="translate(727.099854 0)"/>
     <use xlink:href="#IBMPlexSans-20" transform="translate(776.999847 0)"/>
     <use xlink:href="#IBMPlexSans-61" transform="translate(800.599838 0)"/>
     <use xlink:href="#IBMPlexSans-76" transform="translate(853.999832 0)"/>
     <use xlink:href="#IBMPlexSans-65" transform="translate(903.199829 0)"/>
     <use xlink:href="#IBMPlexSans-72" transform="translate(958.099823 0)"/>
     <use xlink:href="#IBMPlexSans-61" transform="translate(994.79982 0)"/>
     <use xlink:href="#IBMPlexSans-67" transform="translate(1048.199814 0)"/>
     <use xlink:href="#IBMPlexSans-65" transform="translate(1100.999802 0)"/>
     <use xlink:href="#IBMPlexSans-73" transform="translate(1155.899796 0)"/>
     <use xlink:href="#IBMPlexSans-29" transform="translate(1204.599792 0)"/>
    </g>
   </g>
  </g>
 </g>
 <defs>
  <clipPath id="p0e06919eb8">
   <rect x="45.89" y="26.16" width="519.31" height="149.32"/>
  </clipPath>
 </defs>
</svg>
