<?xml version="1.0" encoding="utf-8" standalone="no"?>
<!DOCTYPE svg PUBLIC "-//W3C//DTD SVG 1.1//EN"
  "http://www.w3.org/Graphics/SVG/1.1/DTD/svg11.dtd">
<svg xmlns:xlink="http://www.w3.org/1999/xlink" width="576pt" height="216pt" viewBox="0 0 576 216" xmlns="http://www.w3.org/2000/svg" version="1.1">
 <metadata>
  <rdf:RDF xmlns:dc="http://purl.org/dc/elements/1.1/" xmlns:cc="http://creativecommons.org/ns#" xmlns:rdf="http://www.w3.org/1999/02/22-rdf-syntax-ns#">
   <cc:Work>
    <dc:type rdf:resource="http://purl.org/dc/dcmitype/StillImage"/>
    <dc:date>2025-08-18T03:38:31.355910</dc:date>
    <dc:format>image/svg+xml</dc:format>
    <dc:creator>
     <cc:Agent>
      <dc:title>Matplotlib v3.10.3, https://matplotlib.org/</dc:title>
     </cc:Agent>
    </dc:creator>
   </cc:Work>
  </rdf:RDF>
 </metadata>
 <defs>
  <style type="text/css">*{stroke-linejoin: round; stroke-linecap: butt}</style>
 </defs>
 <g id="figure_1">
  <g id="patch_1">
   <path d="M 0 216 
L 576 216 
L 576 0 
L 0 0 
L 0 216 
z
" style="fill: none"/>
  </g>
  <g id="axes_1">
   <g id="patch_2">
    <path d="M 38.32 175.48 
L 565.2 175.48 
L 565.2 26.16 
L 38.32 26.16 
L 38.32 175.48 
z
" style="fill: none"/>
   </g>
   <g id="matplotlib.axis_1">
    <g id="xtick_1">
     <g id="line2d_1">
      <defs>
       <path id="m6d0144a1ef" d="M 0 0 
L 0 3.5 
" style="stroke: #000000; stroke-width: 0.8"/>
      </defs>
      <g>
       <use xlink:href="#m6d0144a1ef" x="38.32" y="175.48" style="stroke: #000000; stroke-width: 0.8"/>
      </g>
     </g>
     <g id="text_1">
      <!-- 0 -->
      <g transform="translate(35.32 189.88) scale(0.1 -0.1)">
       <defs>
        <path id="IBMPlexSans-30" d="M 1920 -77 
Q 1120 -77 752 531 
Q 384 1139 384 2234 
Q 384 3328 752 3936 
Q 1120 4544 1920 4544 
Q 2720 4544 3088 3936 
Q 3456 3328 3456 2234 
Q 3456 1139 3088 531 
Q 2720 -77 1920 -77 
z
M 1920 390 
Q 2182 390 2368 499 
Q 2554 608 2669 806 
Q 2784 1005 2838 1273 
Q 2893 1542 2893 1869 
L 2893 2598 
Q 2893 2925 2838 3193 
Q 2784 3462 2669 3660 
Q 2554 3859 2368 3968 
Q 2182 4077 1920 4077 
Q 1658 4077 1472 3968 
Q 1286 3859 1171 3660 
Q 1056 3462 1001 3193 
Q 947 2925 947 2598 
L 947 1869 
Q 947 1542 1001 1273 
Q 1056 1005 1171 806 
Q 1286 608 1472 499 
Q 1658 390 1920 390 
z
" transform="scale(0.015625)"/>
       </defs>
       <use xlink:href="#IBMPlexSans-30"/>
      </g>
     </g>
    </g>
    <g id="xtick_2">
     <g id="line2d_2">
      <g>
       <use xlink:href="#m6d0144a1ef" x="126.255466" y="175.48" style="stroke: #000000; stroke-width: 0.8"/>
      </g>
     </g>
     <g id="text_2">
      <!-- 5 -->
      <g transform="translate(123.255466 189.88) scale(0.1 -0.1)">
       <defs>
        <path id="IBMPlexSans-35" d="M 3187 3994 
L 1229 3994 
L 1101 2291 
L 1146 2291 
Q 1306 2515 1507 2649 
Q 1709 2784 2061 2784 
Q 2349 2784 2592 2688 
Q 2835 2592 3014 2416 
Q 3194 2240 3293 1984 
Q 3392 1728 3392 1402 
Q 3392 1075 3289 803 
Q 3187 531 2992 336 
Q 2797 141 2518 32 
Q 2240 -77 1888 -77 
Q 1606 -77 1392 -13 
Q 1178 51 1011 160 
Q 845 269 720 403 
Q 595 538 493 685 
L 896 992 
Q 979 858 1072 749 
Q 1165 640 1277 563 
Q 1389 486 1536 444 
Q 1683 403 1888 403 
Q 2349 403 2585 646 
Q 2822 890 2822 1331 
L 2822 1395 
Q 2822 1837 2585 2080 
Q 2349 2323 1888 2323 
Q 1581 2323 1405 2211 
Q 1229 2099 1088 1946 
L 634 2010 
L 794 4467 
L 3187 4467 
L 3187 3994 
z
" transform="scale(0.015625)"/>
       </defs>
       <use xlink:href="#IBMPlexSans-35"/>
      </g>
     </g>
    </g>
    <g id="xtick_3">
     <g id="line2d_3">
      <g>
       <use xlink:href="#m6d0144a1ef" x="214.190932" y="175.48" style="stroke: #000000; stroke-width: 0.8"/>
      </g>
     </g>
     <g id="text_3">
      <!-- 10 -->
      <g transform="translate(208.190932 189.88) scale(0.1 -0.1)">
       <defs>
        <path id="IBMPlexSans-31" d="M 563 0 
L 563 474 
L 1811 474 
L 1811 4070 
L 1766 4070 
L 640 3021 
L 326 3360 
L 1510 4467 
L 2349 4467 
L 2349 474 
L 3501 474 
L 3501 0 
L 563 0 
z
" transform="scale(0.015625)"/>
       </defs>
       <use xlink:href="#IBMPlexSans-31"/>
       <use xlink:href="#IBMPlexSans-30" transform="translate(59.999985 0)"/>
      </g>
     </g>
    </g>
    <g id="xtick_4">
     <g id="line2d_4">
      <g>
       <use xlink:href="#m6d0144a1ef" x="302.126398" y="175.48" style="stroke: #000000; stroke-width: 0.8"/>
      </g>
     </g>
     <g id="text_4">
      <!-- 15 -->
      <g transform="translate(296.126398 189.88) scale(0.1 -0.1)">
       <use xlink:href="#IBMPlexSans-31"/>
       <use xlink:href="#IBMPlexSans-35" transform="translate(59.999985 0)"/>
      </g>
     </g>
    </g>
    <g id="xtick_5">
     <g id="line2d_5">
      <g>
       <use xlink:href="#m6d0144a1ef" x="390.061864" y="175.48" style="stroke: #000000; stroke-width: 0.8"/>
      </g>
     </g>
     <g id="text_5">
      <!-- 20 -->
      <g transform="translate(384.061864 189.88) scale(0.1 -0.1)">
       <defs>
        <path id="IBMPlexSans-32" d="M 3411 0 
L 480 0 
L 480 550 
L 1939 1894 
Q 2253 2182 2464 2505 
Q 2675 2829 2675 3155 
L 2675 3232 
Q 2675 3603 2470 3833 
Q 2266 4064 1850 4064 
Q 1645 4064 1491 4006 
Q 1338 3949 1226 3846 
Q 1114 3744 1040 3606 
Q 966 3469 922 3309 
L 442 3494 
Q 506 3693 618 3881 
Q 730 4070 899 4217 
Q 1069 4365 1309 4454 
Q 1549 4544 1875 4544 
Q 2202 4544 2458 4448 
Q 2714 4352 2886 4179 
Q 3059 4006 3152 3769 
Q 3245 3533 3245 3245 
Q 3245 2982 3171 2758 
Q 3098 2534 2970 2332 
Q 2842 2131 2659 1939 
Q 2477 1747 2266 1555 
L 1062 474 
L 3411 474 
L 3411 0 
z
" transform="scale(0.015625)"/>
       </defs>
       <use xlink:href="#IBMPlexSans-32"/>
       <use xlink:href="#IBMPlexSans-30" transform="translate(59.999985 0)"/>
      </g>
     </g>
    </g>
    <g id="xtick_6">
     <g id="line2d_6">
      <g>
       <use xlink:href="#m6d0144a1ef" x="477.99733" y="175.48" style="stroke: #000000; stroke-width: 0.8"/>
      </g>
     </g>
     <g id="text_6">
      <!-- 25 -->
      <g transform="translate(471.99733 189.88) scale(0.1 -0.1)">
       <use xlink:href="#IBMPlexSans-32"/>
       <use xlink:href="#IBMPlexSans-35" transform="translate(59.999985 0)"/>
      </g>
     </g>
    </g>
    <g id="xtick_7">
     <g id="line2d_7">
      <defs>
       <path id="m4a7d7e7f65" d="M 0 0 
L 0 2 
" style="stroke: #000000; stroke-width: 0.6"/>
      </defs>
      <g>
       <use xlink:href="#m4a7d7e7f65" x="55.907093" y="175.48" style="stroke: #000000; stroke-width: 0.6"/>
      </g>
     </g>
    </g>
    <g id="xtick_8">
     <g id="line2d_8">
      <g>
       <use xlink:href="#m4a7d7e7f65" x="73.494186" y="175.48" style="stroke: #000000; stroke-width: 0.6"/>
      </g>
     </g>
    </g>
    <g id="xtick_9">
     <g id="line2d_9">
      <g>
       <use xlink:href="#m4a7d7e7f65" x="91.08128" y="175.48" style="stroke: #000000; stroke-width: 0.6"/>
      </g>
     </g>
    </g>
    <g id="xtick_10">
     <g id="line2d_10">
      <g>
       <use xlink:href="#m4a7d7e7f65" x="108.668373" y="175.48" style="stroke: #000000; stroke-width: 0.6"/>
      </g>
     </g>
    </g>
    <g id="xtick_11">
     <g id="line2d_11">
      <g>
       <use xlink:href="#m4a7d7e7f65" x="143.842559" y="175.48" style="stroke: #000000; stroke-width: 0.6"/>
      </g>
     </g>
    </g>
    <g id="xtick_12">
     <g id="line2d_12">
      <g>
       <use xlink:href="#m4a7d7e7f65" x="161.429652" y="175.48" style="stroke: #000000; stroke-width: 0.6"/>
      </g>
     </g>
    </g>
    <g id="xtick_13">
     <g id="line2d_13">
      <g>
       <use xlink:href="#m4a7d7e7f65" x="179.016745" y="175.48" style="stroke: #000000; stroke-width: 0.6"/>
      </g>
     </g>
    </g>
    <g id="xtick_14">
     <g id="line2d_14">
      <g>
       <use xlink:href="#m4a7d7e7f65" x="196.603839" y="175.48" style="stroke: #000000; stroke-width: 0.6"/>
      </g>
     </g>
    </g>
    <g id="xtick_15">
     <g id="line2d_15">
      <g>
       <use xlink:href="#m4a7d7e7f65" x="231.778025" y="175.48" style="stroke: #000000; stroke-width: 0.6"/>
      </g>
     </g>
    </g>
    <g id="xtick_16">
     <g id="line2d_16">
      <g>
       <use xlink:href="#m4a7d7e7f65" x="249.365118" y="175.48" style="stroke: #000000; stroke-width: 0.6"/>
      </g>
     </g>
    </g>
    <g id="xtick_17">
     <g id="line2d_17">
      <g>
       <use xlink:href="#m4a7d7e7f65" x="266.952211" y="175.48" style="stroke: #000000; stroke-width: 0.6"/>
      </g>
     </g>
    </g>
    <g id="xtick_18">
     <g id="line2d_18">
      <g>
       <use xlink:href="#m4a7d7e7f65" x="284.539305" y="175.48" style="stroke: #000000; stroke-width: 0.6"/>
      </g>
     </g>
    </g>
    <g id="xtick_19">
     <g id="line2d_19">
      <g>
       <use xlink:href="#m4a7d7e7f65" x="319.713491" y="175.48" style="stroke: #000000; stroke-width: 0.6"/>
      </g>
     </g>
    </g>
    <g id="xtick_20">
     <g id="line2d_20">
      <g>
       <use xlink:href="#m4a7d7e7f65" x="337.300584" y="175.48" style="stroke: #000000; stroke-width: 0.6"/>
      </g>
     </g>
    </g>
    <g id="xtick_21">
     <g id="line2d_21">
      <g>
       <use xlink:href="#m4a7d7e7f65" x="354.887677" y="175.48" style="stroke: #000000; stroke-width: 0.6"/>
      </g>
     </g>
    </g>
    <g id="xtick_22">
     <g id="line2d_22">
      <g>
       <use xlink:href="#m4a7d7e7f65" x="372.474771" y="175.48" style="stroke: #000000; stroke-width: 0.6"/>
      </g>
     </g>
    </g>
    <g id="xtick_23">
     <g id="line2d_23">
      <g>
       <use xlink:href="#m4a7d7e7f65" x="407.648957" y="175.48" style="stroke: #000000; stroke-width: 0.6"/>
      </g>
     </g>
    </g>
    <g id="xtick_24">
     <g id="line2d_24">
      <g>
       <use xlink:href="#m4a7d7e7f65" x="425.23605" y="175.48" style="stroke: #000000; stroke-width: 0.6"/>
      </g>
     </g>
    </g>
    <g id="xtick_25">
     <g id="line2d_25">
      <g>
       <use xlink:href="#m4a7d7e7f65" x="442.823143" y="175.48" style="stroke: #000000; stroke-width: 0.6"/>
      </g>
     </g>
    </g>
    <g id="xtick_26">
     <g id="line2d_26">
      <g>
       <use xlink:href="#m4a7d7e7f65" x="460.410236" y="175.48" style="stroke: #000000; stroke-width: 0.6"/>
      </g>
     </g>
    </g>
    <g id="xtick_27">
     <g id="line2d_27">
      <g>
       <use xlink:href="#m4a7d7e7f65" x="495.584423" y="175.48" style="stroke: #000000; stroke-width: 0.6"/>
      </g>
     </g>
    </g>
    <g id="xtick_28">
     <g id="line2d_28">
      <g>
       <use xlink:href="#m4a7d7e7f65" x="513.171516" y="175.48" style="stroke: #000000; stroke-width: 0.6"/>
      </g>
     </g>
    </g>
    <g id="xtick_29">
     <g id="line2d_29">
      <g>
       <use xlink:href="#m4a7d7e7f65" x="530.758609" y="175.48" style="stroke: #000000; stroke-width: 0.6"/>
      </g>
     </g>
    </g>
    <g id="xtick_30">
     <g id="line2d_30">
      <g>
       <use xlink:href="#m4a7d7e7f65" x="548.345702" y="175.48" style="stroke: #000000; stroke-width: 0.6"/>
      </g>
     </g>
    </g>
    <g id="text_7">
     <!-- Days -->
     <g transform="translate(290.804531 203.28) scale(0.1 -0.1)">
      <defs>
       <path id="IBMPlexSans-44" d="M 595 4467 
L 2093 4467 
Q 2509 4467 2848 4326 
Q 3187 4186 3427 3907 
Q 3667 3629 3795 3209 
Q 3923 2790 3923 2234 
Q 3923 1677 3795 1257 
Q 3667 838 3427 560 
Q 3187 282 2848 141 
Q 2509 0 2093 0 
L 595 0 
L 595 4467 
z
M 2093 474 
Q 2368 474 2598 566 
Q 2829 659 2995 838 
Q 3162 1018 3254 1277 
Q 3347 1536 3347 1869 
L 3347 2598 
Q 3347 2931 3254 3190 
Q 3162 3450 2995 3629 
Q 2829 3808 2598 3901 
Q 2368 3994 2093 3994 
L 1133 3994 
L 1133 474 
L 2093 474 
z
" transform="scale(0.015625)"/>
       <path id="IBMPlexSans-61" d="M 2944 0 
Q 2656 0 2531 153 
Q 2406 307 2374 538 
L 2342 538 
Q 2234 230 1984 76 
Q 1734 -77 1389 -77 
Q 864 -77 573 192 
Q 282 461 282 922 
Q 282 1389 624 1638 
Q 966 1888 1690 1888 
L 2342 1888 
L 2342 2214 
Q 2342 2566 2150 2752 
Q 1958 2938 1562 2938 
Q 1261 2938 1059 2803 
Q 858 2669 723 2445 
L 416 2733 
Q 550 3002 844 3190 
Q 1139 3379 1587 3379 
Q 2189 3379 2521 3084 
Q 2854 2790 2854 2266 
L 2854 448 
L 3232 448 
L 3232 0 
L 2944 0 
z
M 1472 358 
Q 1664 358 1824 403 
Q 1984 448 2099 531 
Q 2214 614 2278 723 
Q 2342 832 2342 960 
L 2342 1504 
L 1664 1504 
Q 1222 1504 1020 1376 
Q 819 1248 819 1005 
L 819 870 
Q 819 627 995 492 
Q 1171 358 1472 358 
z
" transform="scale(0.015625)"/>
       <path id="IBMPlexSans-79" d="M 2579 3302 
L 3085 3302 
L 1606 -768 
Q 1549 -915 1491 -1014 
Q 1434 -1114 1350 -1171 
Q 1267 -1229 1142 -1254 
Q 1018 -1280 838 -1280 
L 576 -1280 
L 576 -832 
L 1094 -832 
L 1344 -128 
L 109 3302 
L 621 3302 
L 1414 1056 
L 1568 518 
L 1600 518 
L 1779 1056 
L 2579 3302 
z
" transform="scale(0.015625)"/>
       <path id="IBMPlexSans-73" d="M 1536 -77 
Q 1075 -77 764 99 
Q 454 275 230 570 
L 595 864 
Q 787 621 1024 489 
Q 1261 358 1574 358 
Q 1901 358 2083 499 
Q 2266 640 2266 896 
Q 2266 1088 2141 1225 
Q 2016 1363 1690 1414 
L 1427 1453 
Q 1197 1485 1005 1552 
Q 813 1619 669 1731 
Q 525 1843 445 2009 
Q 365 2176 365 2406 
Q 365 2650 454 2832 
Q 544 3014 701 3136 
Q 858 3258 1075 3318 
Q 1293 3379 1542 3379 
Q 1946 3379 2218 3238 
Q 2490 3098 2694 2848 
L 2355 2541 
Q 2246 2694 2035 2819 
Q 1824 2944 1504 2944 
Q 1184 2944 1021 2806 
Q 858 2669 858 2432 
Q 858 2189 1021 2080 
Q 1184 1971 1491 1920 
L 1747 1882 
Q 2298 1798 2528 1564 
Q 2758 1331 2758 954 
Q 2758 474 2432 198 
Q 2106 -77 1536 -77 
z
" transform="scale(0.015625)"/>
      </defs>
      <use xlink:href="#IBMPlexSans-44"/>
      <use xlink:href="#IBMPlexSans-61" transform="translate(67.099991 0)"/>
      <use xlink:href="#IBMPlexSans-79" transform="translate(120.499985 0)"/>
      <use xlink:href="#IBMPlexSans-73" transform="translate(170.399979 0)"/>
     </g>
    </g>
   </g>
   <g id="matplotlib.axis_2">
    <g id="ytick_1">
     <g id="line2d_31">
      <defs>
       <path id="m0c75dcee24" d="M 0 0 
L -3.5 0 
" style="stroke: #000000; stroke-width: 0.8"/>
      </defs>
      <g>
       <use xlink:href="#m0c75dcee24" x="38.32" y="168.692727" style="stroke: #000000; stroke-width: 0.8"/>
      </g>
     </g>
     <g id="text_8">
      <!-- Low -->
      <g transform="translate(13.030938 172.392727) scale(0.1 -0.1)">
       <defs>
        <path id="IBMPlexSans-4c" d="M 595 0 
L 595 4467 
L 1133 4467 
L 1133 474 
L 3034 474 
L 3034 0 
L 595 0 
z
" transform="scale(0.015625)"/>
        <path id="IBMPlexSans-6f" d="M 1792 -77 
Q 1459 -77 1184 44 
Q 909 166 713 393 
Q 518 621 409 937 
Q 301 1254 301 1651 
Q 301 2042 409 2362 
Q 518 2682 713 2909 
Q 909 3136 1184 3257 
Q 1459 3379 1792 3379 
Q 2125 3379 2397 3257 
Q 2669 3136 2867 2909 
Q 3066 2682 3174 2362 
Q 3283 2042 3283 1651 
Q 3283 1254 3174 937 
Q 3066 621 2867 393 
Q 2669 166 2397 44 
Q 2125 -77 1792 -77 
z
M 1792 378 
Q 2208 378 2470 634 
Q 2733 890 2733 1414 
L 2733 1888 
Q 2733 2413 2470 2669 
Q 2208 2925 1792 2925 
Q 1376 2925 1113 2669 
Q 851 2413 851 1888 
L 851 1414 
Q 851 890 1113 634 
Q 1376 378 1792 378 
z
" transform="scale(0.015625)"/>
        <path id="IBMPlexSans-77" d="M 198 3302 
L 698 3302 
L 1050 1875 
L 1402 429 
L 1414 429 
L 1818 1875 
L 2234 3302 
L 2688 3302 
L 3117 1875 
L 3526 429 
L 3539 429 
L 3878 1875 
L 4237 3302 
L 4717 3302 
L 3840 0 
L 3206 0 
L 2746 1587 
L 2458 2592 
L 2445 2592 
L 2163 1587 
L 1702 0 
L 1082 0 
L 198 3302 
z
" transform="scale(0.015625)"/>
       </defs>
       <use xlink:href="#IBMPlexSans-4c"/>
       <use xlink:href="#IBMPlexSans-6f" transform="translate(50.099991 0)"/>
       <use xlink:href="#IBMPlexSans-77" transform="translate(106.099976 0)"/>
      </g>
     </g>
    </g>
    <g id="ytick_2">
     <g id="line2d_32">
      <g>
       <use xlink:href="#m0c75dcee24" x="38.32" y="100.82" style="stroke: #000000; stroke-width: 0.8"/>
      </g>
     </g>
     <g id="text_9">
      <!-- Mid -->
      <g transform="translate(14.899687 104.52) scale(0.1 -0.1)">
       <defs>
        <path id="IBMPlexSans-4d" d="M 4077 3763 
L 4045 3763 
L 3667 3014 
L 2598 1069 
L 1530 3014 
L 1152 3763 
L 1120 3763 
L 1120 0 
L 595 0 
L 595 4467 
L 1312 4467 
L 2592 2061 
L 2624 2061 
L 3910 4467 
L 4602 4467 
L 4602 0 
L 4077 0 
L 4077 3763 
z
" transform="scale(0.015625)"/>
        <path id="IBMPlexSans-69" d="M 800 4077 
Q 634 4077 560 4157 
Q 486 4237 486 4365 
L 486 4448 
Q 486 4576 560 4656 
Q 634 4736 800 4736 
Q 966 4736 1040 4656 
Q 1114 4576 1114 4448 
L 1114 4365 
Q 1114 4237 1040 4157 
Q 966 4077 800 4077 
z
M 544 3302 
L 1056 3302 
L 1056 0 
L 544 0 
L 544 3302 
z
" transform="scale(0.015625)"/>
        <path id="IBMPlexSans-64" d="M 2656 538 
L 2630 538 
Q 2330 -77 1664 -77 
Q 1357 -77 1107 44 
Q 858 166 682 390 
Q 506 614 413 934 
Q 320 1254 320 1651 
Q 320 2048 413 2368 
Q 506 2688 682 2912 
Q 858 3136 1107 3257 
Q 1357 3379 1664 3379 
Q 2010 3379 2256 3228 
Q 2502 3078 2630 2765 
L 2656 2765 
L 2656 4736 
L 3168 4736 
L 3168 0 
L 2656 0 
L 2656 538 
z
M 1805 384 
Q 1978 384 2134 429 
Q 2291 474 2406 560 
Q 2522 646 2589 771 
Q 2656 896 2656 1056 
L 2656 2285 
Q 2656 2419 2589 2537 
Q 2522 2656 2406 2739 
Q 2291 2822 2134 2870 
Q 1978 2918 1805 2918 
Q 1370 2918 1120 2646 
Q 870 2374 870 1933 
L 870 1370 
Q 870 928 1120 656 
Q 1370 384 1805 384 
z
" transform="scale(0.015625)"/>
       </defs>
       <use xlink:href="#IBMPlexSans-4d"/>
       <use xlink:href="#IBMPlexSans-69" transform="translate(81.199982 0)"/>
       <use xlink:href="#IBMPlexSans-64" transform="translate(106.199966 0)"/>
      </g>
     </g>
    </g>
    <g id="ytick_3">
     <g id="line2d_33">
      <g>
       <use xlink:href="#m0c75dcee24" x="38.32" y="32.947273" style="stroke: #000000; stroke-width: 0.8"/>
      </g>
     </g>
     <g id="text_10">
      <!-- High -->
      <g transform="translate(10.790312 36.647273) scale(0.1 -0.1)">
       <defs>
        <path id="IBMPlexSans-48" d="M 3392 2022 
L 1133 2022 
L 1133 0 
L 595 0 
L 595 4467 
L 1133 4467 
L 1133 2496 
L 3392 2496 
L 3392 4467 
L 3930 4467 
L 3930 0 
L 3392 0 
L 3392 2022 
z
" transform="scale(0.015625)"/>
        <path id="IBMPlexSans-67" d="M 3328 -365 
Q 3328 -877 2928 -1117 
Q 2528 -1357 1728 -1357 
Q 954 -1357 614 -1145 
Q 275 -934 275 -544 
Q 275 -275 416 -124 
Q 557 26 800 96 
L 800 166 
Q 506 307 506 627 
Q 506 877 666 1008 
Q 826 1139 1075 1203 
L 1075 1229 
Q 781 1370 617 1632 
Q 454 1894 454 2240 
Q 454 2490 544 2701 
Q 634 2912 797 3062 
Q 960 3213 1187 3296 
Q 1414 3379 1696 3379 
Q 2048 3379 2323 3251 
L 2323 3309 
Q 2323 3501 2412 3625 
Q 2502 3750 2707 3750 
L 3200 3750 
L 3200 3302 
L 2573 3302 
L 2573 3091 
Q 2752 2938 2851 2723 
Q 2950 2509 2950 2240 
Q 2950 1990 2860 1779 
Q 2771 1568 2608 1417 
Q 2445 1267 2214 1184 
Q 1984 1101 1702 1101 
Q 1542 1101 1382 1133 
Q 1216 1088 1081 1001 
Q 947 915 947 762 
Q 947 614 1088 563 
Q 1229 512 1453 512 
L 2157 512 
Q 2771 512 3049 278 
Q 3328 45 3328 -365 
z
M 2848 -403 
Q 2848 -205 2697 -86 
Q 2547 32 2163 32 
L 1062 32 
Q 755 -109 755 -416 
Q 755 -634 918 -787 
Q 1082 -941 1472 -941 
L 1946 -941 
Q 2374 -941 2611 -806 
Q 2848 -672 2848 -403 
z
M 1702 1510 
Q 2029 1510 2221 1667 
Q 2413 1824 2413 2150 
L 2413 2330 
Q 2413 2656 2221 2813 
Q 2029 2970 1702 2970 
Q 1376 2970 1184 2813 
Q 992 2656 992 2330 
L 992 2150 
Q 992 1824 1184 1667 
Q 1376 1510 1702 1510 
z
" transform="scale(0.015625)"/>
        <path id="IBMPlexSans-68" d="M 544 4736 
L 1056 4736 
L 1056 2765 
L 1082 2765 
Q 1203 3046 1424 3212 
Q 1645 3379 2016 3379 
Q 2528 3379 2825 3049 
Q 3123 2720 3123 2118 
L 3123 0 
L 2611 0 
L 2611 2029 
Q 2611 2918 1862 2918 
Q 1709 2918 1565 2880 
Q 1421 2842 1305 2765 
Q 1190 2688 1123 2569 
Q 1056 2451 1056 2291 
L 1056 0 
L 544 0 
L 544 4736 
z
" transform="scale(0.015625)"/>
       </defs>
       <use xlink:href="#IBMPlexSans-48"/>
       <use xlink:href="#IBMPlexSans-69" transform="translate(70.699982 0)"/>
       <use xlink:href="#IBMPlexSans-67" transform="translate(95.699966 0)"/>
       <use xlink:href="#IBMPlexSans-68" transform="translate(148.499954 0)"/>
      </g>
     </g>
    </g>
    <g id="ytick_4">
     <g id="line2d_34">
      <defs>
       <path id="m5503d8147e" d="M 0 0 
L -2 0 
" style="stroke: #000000; stroke-width: 0.6"/>
      </defs>
      <g>
       <use xlink:href="#m5503d8147e" x="38.32" y="155.118182" style="stroke: #000000; stroke-width: 0.6"/>
      </g>
     </g>
    </g>
    <g id="ytick_5">
     <g id="line2d_35">
      <g>
       <use xlink:href="#m5503d8147e" x="38.32" y="141.543636" style="stroke: #000000; stroke-width: 0.6"/>
      </g>
     </g>
    </g>
    <g id="ytick_6">
     <g id="line2d_36">
      <g>
       <use xlink:href="#m5503d8147e" x="38.32" y="127.969091" style="stroke: #000000; stroke-width: 0.6"/>
      </g>
     </g>
    </g>
    <g id="ytick_7">
     <g id="line2d_37">
      <g>
       <use xlink:href="#m5503d8147e" x="38.32" y="114.394545" style="stroke: #000000; stroke-width: 0.6"/>
      </g>
     </g>
    </g>
    <g id="ytick_8">
     <g id="line2d_38">
      <g>
       <use xlink:href="#m5503d8147e" x="38.32" y="87.245455" style="stroke: #000000; stroke-width: 0.6"/>
      </g>
     </g>
    </g>
    <g id="ytick_9">
     <g id="line2d_39">
      <g>
       <use xlink:href="#m5503d8147e" x="38.32" y="73.670909" style="stroke: #000000; stroke-width: 0.6"/>
      </g>
     </g>
    </g>
    <g id="ytick_10">
     <g id="line2d_40">
      <g>
       <use xlink:href="#m5503d8147e" x="38.32" y="60.096364" style="stroke: #000000; stroke-width: 0.6"/>
      </g>
     </g>
    </g>
    <g id="ytick_11">
     <g id="line2d_41">
      <g>
       <use xlink:href="#m5503d8147e" x="38.32" y="46.521818" style="stroke: #000000; stroke-width: 0.6"/>
      </g>
     </g>
    </g>
   </g>
   <g id="line2d_42">
    <path d="M 38.32 100.82 
L 42.716773 100.82 
L 42.716773 32.947273 
L 45.647955 32.947273 
L 45.647955 100.82 
L 47.846342 100.82 
L 47.846342 168.692727 
L 55.907093 168.692727 
L 55.907093 100.82 
L 58.838275 100.82 
L 58.838275 32.947273 
L 59.571071 32.947273 
L 59.571071 100.82 
L 60.303866 100.82 
L 60.303866 32.947273 
L 61.769458 32.947273 
L 61.769458 100.82 
L 62.502253 100.82 
L 62.502253 32.947273 
L 63.235049 32.947273 
L 63.235049 168.692727 
L 63.967844 168.692727 
L 63.967844 100.82 
L 64.70064 100.82 
L 64.70064 168.692727 
L 65.433435 168.692727 
L 65.433435 100.82 
L 66.899026 100.82 
L 66.899026 168.692727 
L 72.761391 168.692727 
L 72.761391 100.82 
L 74.959777 100.82 
L 74.959777 32.947273 
L 75.692573 32.947273 
L 75.692573 100.82 
L 77.158164 100.82 
L 77.158164 32.947273 
L 80.822142 32.947273 
L 80.822142 100.82 
L 83.020529 100.82 
L 83.020529 168.692727 
L 91.08128 168.692727 
L 91.08128 100.82 
L 91.814075 100.82 
L 91.814075 32.947273 
L 93.279666 32.947273 
L 93.279666 100.82 
L 94.745257 100.82 
L 94.745257 32.947273 
L 98.409235 32.947273 
L 98.409235 100.82 
L 101.340417 100.82 
L 101.340417 168.692727 
L 108.668373 168.692727 
L 108.668373 100.82 
L 112.33235 100.82 
L 112.33235 32.947273 
L 115.263533 32.947273 
L 115.263533 100.82 
L 118.92751 100.82 
L 118.92751 168.692727 
L 125.52267 168.692727 
L 125.52267 100.82 
L 127.721057 100.82 
L 127.721057 32.947273 
L 129.186648 32.947273 
L 129.186648 100.82 
L 129.919444 100.82 
L 129.919444 32.947273 
L 133.583421 32.947273 
L 133.583421 100.82 
L 136.514604 100.82 
L 136.514604 168.692727 
L 144.575355 168.692727 
L 144.575355 100.82 
L 148.239332 100.82 
L 148.239332 32.947273 
L 151.170515 32.947273 
L 151.170515 100.82 
L 152.636106 100.82 
L 152.636106 168.692727 
L 153.368901 168.692727 
L 153.368901 100.82 
L 154.834492 100.82 
L 154.834492 168.692727 
L 161.429652 168.692727 
L 161.429652 100.82 
L 163.628039 100.82 
L 163.628039 32.947273 
L 164.360834 32.947273 
L 164.360834 100.82 
L 165.09363 100.82 
L 165.09363 32.947273 
L 168.757608 32.947273 
L 168.757608 100.82 
L 172.421586 100.82 
L 172.421586 168.692727 
L 179.016745 168.692727 
L 179.016745 100.82 
L 181.215132 100.82 
L 181.215132 32.947273 
L 181.947928 32.947273 
L 181.947928 100.82 
L 182.680723 100.82 
L 182.680723 32.947273 
L 186.344701 32.947273 
L 186.344701 100.82 
L 190.008679 100.82 
L 190.008679 168.692727 
L 196.603839 168.692727 
L 196.603839 100.82 
L 198.06943 100.82 
L 198.06943 32.947273 
L 203.931794 32.947273 
L 203.931794 100.82 
L 207.595772 100.82 
L 207.595772 168.692727 
L 214.190932 168.692727 
L 214.190932 100.82 
L 215.656523 100.82 
L 215.656523 32.947273 
L 217.85491 32.947273 
L 217.85491 100.82 
L 218.587705 100.82 
L 218.587705 32.947273 
L 220.786092 32.947273 
L 220.786092 100.82 
L 225.182865 100.82 
L 225.182865 168.692727 
L 231.778025 168.692727 
L 231.778025 100.82 
L 233.243616 100.82 
L 233.243616 32.947273 
L 239.105981 32.947273 
L 239.105981 100.82 
L 242.037163 100.82 
L 242.037163 168.692727 
L 249.365118 168.692727 
L 249.365118 100.82 
L 250.097914 100.82 
L 250.097914 32.947273 
L 257.425869 32.947273 
L 257.425869 100.82 
L 259.624256 100.82 
L 259.624256 168.692727 
L 266.952211 168.692727 
L 266.952211 100.82 
L 267.685007 100.82 
L 267.685007 32.947273 
L 274.280167 32.947273 
L 274.280167 100.82 
L 277.211349 100.82 
L 277.211349 168.692727 
L 284.539305 168.692727 
L 284.539305 100.82 
L 286.004896 100.82 
L 286.004896 32.947273 
L 291.86726 32.947273 
L 291.86726 100.82 
L 296.264033 100.82 
L 296.264033 168.692727 
L 302.126398 168.692727 
L 302.126398 100.82 
L 302.859193 100.82 
L 302.859193 32.947273 
L 308.721558 32.947273 
L 308.721558 100.82 
L 313.118331 100.82 
L 313.118331 168.692727 
L 320.446287 168.692727 
L 320.446287 100.82 
L 321.179082 100.82 
L 321.179082 32.947273 
L 327.041446 32.947273 
L 327.041446 100.82 
L 330.705424 100.82 
L 330.705424 168.692727 
L 335.834993 168.692727 
L 335.834993 100.82 
L 336.567789 100.82 
L 336.567789 168.692727 
L 337.300584 168.692727 
L 337.300584 100.82 
L 338.03338 100.82 
L 338.03338 32.947273 
L 344.62854 32.947273 
L 344.62854 100.82 
L 348.292517 100.82 
L 348.292517 168.692727 
L 354.154882 168.692727 
L 354.154882 100.82 
L 355.620473 100.82 
L 355.620473 32.947273 
L 362.948428 32.947273 
L 362.948428 100.82 
L 365.879611 100.82 
L 365.879611 168.692727 
L 371.741975 168.692727 
L 371.741975 100.82 
L 372.474771 100.82 
L 372.474771 32.947273 
L 373.207566 32.947273 
L 373.207566 100.82 
L 373.940362 100.82 
L 373.940362 32.947273 
L 379.802726 32.947273 
L 379.802726 100.82 
L 383.466704 100.82 
L 383.466704 168.692727 
L 387.130682 168.692727 
L 387.130682 100.82 
L 387.863477 100.82 
L 387.863477 168.692727 
L 390.061864 168.692727 
L 390.061864 100.82 
L 390.794659 100.82 
L 390.794659 32.947273 
L 397.389819 32.947273 
L 397.389819 100.82 
L 401.786592 100.82 
L 401.786592 168.692727 
L 404.717775 168.692727 
L 404.717775 100.82 
L 405.45057 100.82 
L 405.45057 168.692727 
L 406.916161 168.692727 
L 406.916161 100.82 
L 408.381752 100.82 
L 408.381752 32.947273 
L 415.709708 32.947273 
L 415.709708 100.82 
L 418.64089 100.82 
L 418.64089 168.692727 
L 422.304868 168.692727 
L 422.304868 100.82 
L 425.968846 100.82 
L 425.968846 32.947273 
L 432.564006 32.947273 
L 432.564006 100.82 
L 436.227983 100.82 
L 436.227983 168.692727 
L 439.891961 168.692727 
L 439.891961 100.82 
L 440.624757 100.82 
L 440.624757 168.692727 
L 441.357552 168.692727 
L 441.357552 100.82 
L 442.090348 100.82 
L 442.090348 168.692727 
L 442.823143 168.692727 
L 442.823143 100.82 
L 443.555939 100.82 
L 443.555939 32.947273 
L 450.883894 32.947273 
L 450.883894 100.82 
L 451.61669 100.82 
L 451.61669 32.947273 
L 452.349485 32.947273 
L 452.349485 100.82 
L 454.547872 100.82 
L 454.547872 168.692727 
L 456.746259 168.692727 
L 456.746259 100.82 
L 458.944645 100.82 
L 458.944645 168.692727 
L 459.677441 168.692727 
L 459.677441 100.82 
L 461.143032 100.82 
L 461.143032 32.947273 
L 467.738192 32.947273 
L 467.738192 100.82 
L 468.470987 100.82 
L 468.470987 32.947273 
L 469.936579 32.947273 
L 469.936579 100.82 
L 472.134965 100.82 
L 472.134965 168.692727 
L 475.066147 168.692727 
L 475.066147 100.82 
L 478.730125 100.82 
L 478.730125 32.947273 
L 486.790876 32.947273 
L 486.790876 100.82 
L 489.722058 100.82 
L 489.722058 168.692727 
L 492.653241 168.692727 
L 492.653241 100.82 
L 494.851627 100.82 
L 494.851627 168.692727 
L 495.584423 168.692727 
L 495.584423 100.82 
L 496.317218 100.82 
L 496.317218 32.947273 
L 503.645174 32.947273 
L 503.645174 100.82 
L 507.309152 100.82 
L 507.309152 168.692727 
L 510.240334 168.692727 
L 510.240334 100.82 
L 513.904312 100.82 
L 513.904312 32.947273 
L 521.232267 32.947273 
L 521.232267 100.82 
L 524.896245 100.82 
L 524.896245 168.692727 
L 527.094631 168.692727 
L 527.094631 100.82 
L 527.827427 100.82 
L 527.827427 168.692727 
L 530.025814 168.692727 
L 530.025814 100.82 
L 531.491405 100.82 
L 531.491405 32.947273 
L 539.552156 32.947273 
L 539.552156 100.82 
L 542.483338 100.82 
L 542.483338 168.692727 
L 545.41452 168.692727 
L 545.41452 100.82 
L 546.147316 100.82 
L 546.147316 168.692727 
L 546.880111 168.692727 
L 546.880111 100.82 
L 549.078498 100.82 
L 549.078498 32.947273 
L 557.139249 32.947273 
L 557.139249 100.82 
L 557.872045 100.82 
L 557.872045 32.947273 
L 558.60484 32.947273 
L 558.60484 100.82 
L 559.337636 100.82 
L 559.337636 168.692727 
L 560.803227 168.692727 
L 560.803227 100.82 
L 561.536022 100.82 
L 561.536022 168.692727 
L 562.268818 168.692727 
L 562.268818 100.82 
L 563.734409 100.82 
L 563.734409 168.692727 
L 564.467204 168.692727 
L 564.467204 100.82 
L 565.2 100.82 
L 565.2 100.82 
" clip-path="url(#pcd79bbf70a)" style="fill: none; stroke: #65489d; stroke-width: 2; stroke-linecap: square"/>
   </g>
   <g id="patch_3">
    <path d="M 38.32 175.48 
L 38.32 26.16 
" style="fill: none; stroke: #000000; stroke-width: 0.8; stroke-linejoin: miter; stroke-linecap: square"/>
   </g>
   <g id="patch_4">
    <path d="M 38.32 175.48 
L 565.2 175.48 
" style="fill: none; stroke: #000000; stroke-width: 0.8; stroke-linejoin: miter; stroke-linecap: square"/>
   </g>
   <g id="text_11">
    <!-- Symbolic (3-level discretization) -->
    <g transform="translate(215.016875 20.16) scale(0.12 -0.12)">
     <defs>
      <path id="IBMPlexSans-53" d="M 1850 -77 
Q 1306 -77 922 131 
Q 538 339 269 704 
L 666 1037 
Q 902 723 1190 560 
Q 1478 397 1869 397 
Q 2349 397 2601 627 
Q 2854 858 2854 1242 
Q 2854 1562 2662 1734 
Q 2470 1907 2029 2010 
L 1664 2093 
Q 1050 2234 726 2518 
Q 403 2803 403 3322 
Q 403 3616 512 3846 
Q 621 4077 816 4230 
Q 1011 4384 1283 4464 
Q 1555 4544 1882 4544 
Q 2387 4544 2748 4358 
Q 3110 4173 3360 3814 
L 2957 3520 
Q 2771 3776 2508 3923 
Q 2246 4070 1856 4070 
Q 1427 4070 1180 3888 
Q 934 3706 934 3341 
Q 934 3021 1142 2857 
Q 1350 2694 1773 2598 
L 2138 2515 
Q 2797 2368 3091 2067 
Q 3386 1766 3386 1267 
Q 3386 960 3280 710 
Q 3174 461 2976 288 
Q 2778 115 2493 19 
Q 2208 -77 1850 -77 
z
" transform="scale(0.015625)"/>
      <path id="IBMPlexSans-6d" d="M 544 0 
L 544 3302 
L 1056 3302 
L 1056 2765 
L 1082 2765 
Q 1139 2893 1212 3005 
Q 1286 3117 1392 3200 
Q 1498 3283 1638 3331 
Q 1779 3379 1971 3379 
Q 2298 3379 2573 3222 
Q 2848 3066 2982 2707 
L 2995 2707 
Q 3085 2976 3331 3177 
Q 3578 3379 4000 3379 
Q 4506 3379 4790 3049 
Q 5075 2720 5075 2118 
L 5075 0 
L 4563 0 
L 4563 2029 
Q 4563 2470 4390 2694 
Q 4218 2918 3840 2918 
Q 3686 2918 3548 2880 
Q 3411 2842 3302 2765 
Q 3194 2688 3130 2569 
Q 3066 2451 3066 2291 
L 3066 0 
L 2554 0 
L 2554 2029 
Q 2554 2470 2381 2694 
Q 2208 2918 1843 2918 
Q 1690 2918 1549 2880 
Q 1408 2842 1299 2765 
Q 1190 2688 1123 2569 
Q 1056 2451 1056 2291 
L 1056 0 
L 544 0 
z
" transform="scale(0.015625)"/>
      <path id="IBMPlexSans-62" d="M 544 4736 
L 1056 4736 
L 1056 2765 
L 1082 2765 
Q 1210 3078 1456 3228 
Q 1702 3379 2048 3379 
Q 2355 3379 2604 3257 
Q 2854 3136 3030 2912 
Q 3206 2688 3299 2368 
Q 3392 2048 3392 1651 
Q 3392 1254 3299 934 
Q 3206 614 3030 390 
Q 2854 166 2604 44 
Q 2355 -77 2048 -77 
Q 1376 -77 1082 538 
L 1056 538 
L 1056 0 
L 544 0 
L 544 4736 
z
M 1907 384 
Q 2342 384 2592 656 
Q 2842 928 2842 1370 
L 2842 1933 
Q 2842 2374 2592 2646 
Q 2342 2918 1907 2918 
Q 1734 2918 1577 2870 
Q 1421 2822 1305 2739 
Q 1190 2656 1123 2537 
Q 1056 2419 1056 2285 
L 1056 1056 
Q 1056 896 1123 771 
Q 1190 646 1305 560 
Q 1421 474 1577 429 
Q 1734 384 1907 384 
z
" transform="scale(0.015625)"/>
      <path id="IBMPlexSans-6c" d="M 1088 0 
Q 819 0 681 150 
Q 544 301 544 531 
L 544 4736 
L 1056 4736 
L 1056 448 
L 1542 448 
L 1542 0 
L 1088 0 
z
" transform="scale(0.015625)"/>
      <path id="IBMPlexSans-63" d="M 1773 -77 
Q 1427 -77 1152 44 
Q 877 166 688 390 
Q 499 614 400 934 
Q 301 1254 301 1651 
Q 301 2048 400 2368 
Q 499 2688 688 2912 
Q 877 3136 1152 3257 
Q 1427 3379 1773 3379 
Q 2266 3379 2563 3164 
Q 2861 2950 3008 2605 
L 2579 2387 
Q 2490 2643 2285 2784 
Q 2080 2925 1773 2925 
Q 1542 2925 1369 2851 
Q 1197 2778 1081 2646 
Q 966 2515 908 2332 
Q 851 2150 851 1933 
L 851 1370 
Q 851 934 1084 656 
Q 1318 378 1773 378 
Q 2394 378 2669 954 
L 3040 704 
Q 2880 346 2563 134 
Q 2246 -77 1773 -77 
z
" transform="scale(0.015625)"/>
      <path id="IBMPlexSans-20" transform="scale(0.015625)"/>
      <path id="IBMPlexSans-28" d="M 531 1997 
Q 531 2458 620 2886 
Q 710 3315 867 3683 
Q 1024 4051 1235 4352 
Q 1446 4653 1690 4864 
L 2176 4864 
Q 1907 4621 1692 4313 
Q 1478 4006 1328 3660 
Q 1178 3315 1094 2956 
Q 1011 2598 1011 2266 
L 1011 1715 
Q 1011 1376 1094 1017 
Q 1178 659 1331 313 
Q 1485 -32 1699 -339 
Q 1914 -646 2176 -877 
L 1690 -877 
Q 1453 -678 1241 -377 
Q 1030 -77 873 294 
Q 717 666 624 1098 
Q 531 1530 531 1997 
z
" transform="scale(0.015625)"/>
      <path id="IBMPlexSans-33" d="M 1670 2573 
Q 2125 2573 2352 2781 
Q 2579 2989 2579 3315 
L 2579 3360 
Q 2579 3712 2358 3888 
Q 2138 4064 1779 4064 
Q 1434 4064 1216 3913 
Q 998 3763 858 3507 
L 461 3814 
Q 544 3949 662 4080 
Q 781 4211 941 4313 
Q 1101 4416 1312 4480 
Q 1523 4544 1792 4544 
Q 2074 4544 2323 4470 
Q 2573 4397 2755 4253 
Q 2938 4109 3043 3897 
Q 3149 3686 3149 3418 
Q 3149 3200 3081 3027 
Q 3014 2854 2899 2726 
Q 2784 2598 2627 2508 
Q 2470 2419 2291 2374 
L 2291 2349 
Q 2470 2310 2640 2224 
Q 2810 2138 2941 2000 
Q 3072 1862 3152 1667 
Q 3232 1472 3232 1222 
Q 3232 934 3123 694 
Q 3014 454 2816 284 
Q 2618 115 2336 19 
Q 2054 -77 1715 -77 
Q 1427 -77 1203 -13 
Q 979 51 806 160 
Q 634 269 502 403 
Q 371 538 269 685 
L 672 992 
Q 755 858 854 749 
Q 954 640 1075 563 
Q 1197 486 1350 444 
Q 1504 403 1709 403 
Q 2182 403 2425 617 
Q 2669 832 2669 1229 
L 2669 1280 
Q 2669 1677 2425 1891 
Q 2182 2106 1709 2106 
L 1184 2106 
L 1184 2573 
L 1670 2573 
z
" transform="scale(0.015625)"/>
      <path id="IBMPlexSans-2d" d="M 442 1670 
L 442 2221 
L 2112 2221 
L 2112 1670 
L 442 1670 
z
" transform="scale(0.015625)"/>
      <path id="IBMPlexSans-65" d="M 1786 -77 
Q 1446 -77 1174 44 
Q 902 166 707 393 
Q 512 621 406 937 
Q 301 1254 301 1651 
Q 301 2042 406 2362 
Q 512 2682 707 2909 
Q 902 3136 1174 3257 
Q 1446 3379 1786 3379 
Q 2118 3379 2380 3257 
Q 2643 3136 2828 2921 
Q 3014 2707 3113 2412 
Q 3213 2118 3213 1766 
L 3213 1523 
L 838 1523 
L 838 1370 
Q 838 1158 905 976 
Q 973 794 1097 659 
Q 1222 525 1404 448 
Q 1587 371 1818 371 
Q 2131 371 2364 518 
Q 2598 666 2726 941 
L 3091 678 
Q 2931 339 2592 131 
Q 2253 -77 1786 -77 
z
M 1786 2950 
Q 1574 2950 1401 2876 
Q 1229 2803 1104 2668 
Q 979 2534 908 2352 
Q 838 2170 838 1952 
L 838 1907 
L 2662 1907 
L 2662 1978 
Q 2662 2419 2422 2684 
Q 2182 2950 1786 2950 
z
" transform="scale(0.015625)"/>
      <path id="IBMPlexSans-76" d="M 1274 0 
L 115 3302 
L 627 3302 
L 1203 1664 
L 1562 538 
L 1594 538 
L 1952 1664 
L 2541 3302 
L 3034 3302 
L 1869 0 
L 1274 0 
z
" transform="scale(0.015625)"/>
      <path id="IBMPlexSans-72" d="M 544 0 
L 544 3302 
L 1056 3302 
L 1056 2694 
L 1088 2694 
Q 1178 2931 1408 3116 
Q 1638 3302 2042 3302 
L 2240 3302 
L 2240 2790 
L 1939 2790 
Q 1523 2790 1289 2633 
Q 1056 2477 1056 2240 
L 1056 0 
L 544 0 
z
" transform="scale(0.015625)"/>
      <path id="IBMPlexSans-74" d="M 1274 0 
Q 1005 0 867 150 
Q 730 301 730 544 
L 730 2854 
L 186 2854 
L 186 3302 
L 493 3302 
Q 659 3302 720 3369 
Q 781 3437 781 3603 
L 781 4218 
L 1242 4218 
L 1242 3302 
L 1965 3302 
L 1965 2854 
L 1242 2854 
L 1242 448 
L 1914 448 
L 1914 0 
L 1274 0 
z
" transform="scale(0.015625)"/>
      <path id="IBMPlexSans-7a" d="M 211 0 
L 211 429 
L 2086 2854 
L 269 2854 
L 269 3302 
L 2707 3302 
L 2707 2918 
L 794 448 
L 2758 448 
L 2758 0 
L 211 0 
z
" transform="scale(0.015625)"/>
      <path id="IBMPlexSans-6e" d="M 544 0 
L 544 3302 
L 1056 3302 
L 1056 2765 
L 1082 2765 
Q 1203 3046 1424 3212 
Q 1645 3379 2016 3379 
Q 2528 3379 2825 3049 
Q 3123 2720 3123 2118 
L 3123 0 
L 2611 0 
L 2611 2029 
Q 2611 2918 1862 2918 
Q 1709 2918 1565 2880 
Q 1421 2842 1305 2765 
Q 1190 2688 1123 2569 
Q 1056 2451 1056 2291 
L 1056 0 
L 544 0 
z
" transform="scale(0.015625)"/>
      <path id="IBMPlexSans-29" d="M 1613 1997 
Q 1613 1530 1520 1098 
Q 1427 666 1270 294 
Q 1114 -77 902 -377 
Q 691 -678 454 -877 
L -32 -877 
Q 230 -646 444 -339 
Q 659 -32 812 313 
Q 966 659 1049 1017 
Q 1133 1376 1133 1715 
L 1133 2266 
Q 1133 2598 1049 2956 
Q 966 3315 816 3660 
Q 666 4006 451 4313 
Q 237 4621 -32 4864 
L 454 4864 
Q 698 4653 909 4352 
Q 1120 4051 1277 3683 
Q 1434 3315 1523 2886 
Q 1613 2458 1613 1997 
z
" transform="scale(0.015625)"/>
     </defs>
     <use xlink:href="#IBMPlexSans-53"/>
     <use xlink:href="#IBMPlexSans-79" transform="translate(58.099991 0)"/>
     <use xlink:href="#IBMPlexSans-6d" transform="translate(107.999985 0)"/>
     <use xlink:href="#IBMPlexSans-62" transform="translate(195.299973 0)"/>
     <use xlink:href="#IBMPlexSans-6f" transform="translate(253.299957 0)"/>
     <use xlink:href="#IBMPlexSans-6c" transform="translate(309.299942 0)"/>
     <use xlink:href="#IBMPlexSans-69" transform="translate(336.499939 0)"/>
     <use xlink:href="#IBMPlexSans-63" transform="translate(361.499924 0)"/>
     <use xlink:href="#IBMPlexSans-20" transform="translate(411.799911 0)"/>
     <use xlink:href="#IBMPlexSans-28" transform="translate(435.399902 0)"/>
     <use xlink:href="#IBMPlexSans-33" transform="translate(468.899887 0)"/>
     <use xlink:href="#IBMPlexSans-2d" transform="translate(528.899872 0)"/>
     <use xlink:href="#IBMPlexSans-6c" transform="translate(568.799866 0)"/>
     <use xlink:href="#IBMPlexSans-65" transform="translate(595.999863 0)"/>
     <use xlink:href="#IBMPlexSans-76" transform="translate(650.899857 0)"/>
     <use xlink:href="#IBMPlexSans-65" transform="translate(700.099854 0)"/>
     <use xlink:href="#IBMPlexSans-6c" transform="translate(754.999847 0)"/>
     <use xlink:href="#IBMPlexSans-20" transform="translate(782.199844 0)"/>
     <use xlink:href="#IBMPlexSans-64" transform="translate(805.799835 0)"/>
     <use xlink:href="#IBMPlexSans-69" transform="translate(863.79982 0)"/>
     <use xlink:href="#IBMPlexSans-73" transform="translate(888.799805 0)"/>
     <use xlink:href="#IBMPlexSans-63" transform="translate(937.499802 0)"/>
     <use xlink:href="#IBMPlexSans-72" transform="translate(987.799789 0)"/>
     <use xlink:href="#IBMPlexSans-65" transform="translate(1024.499786 0)"/>
     <use xlink:href="#IBMPlexSans-74" transform="translate(1079.39978 0)"/>
     <use xlink:href="#IBMPlexSans-69" transform="translate(1114.499771 0)"/>
     <use xlink:href="#IBMPlexSans-7a" transform="translate(1139.499756 0)"/>
     <use xlink:href="#IBMPlexSans-61" transform="translate(1185.89975 0)"/>
     <use xlink:href="#IBMPlexSans-74" transform="translate(1239.299744 0)"/>
     <use xlink:href="#IBMPlexSans-69" transform="translate(1274.399734 0)"/>
     <use xlink:href="#IBMPlexSans-6f" transform="translate(1299.399719 0)"/>
     <use xlink:href="#IBMPlexSans-6e" transform="translate(1355.399704 0)"/>
     <use xlink:href="#IBMPlexSans-29" transform="translate(1412.199692 0)"/>
    </g>
   </g>
  </g>
 </g>
 <defs>
  <clipPath id="pcd79bbf70a">
   <rect x="38.32" y="26.16" width="526.88" height="149.32"/>
  </clipPath>
 </defs>
</svg>
